<?xml version="1.0" standalone="no"?>
<!DOCTYPE svg PUBLIC "-//W3C//DTD SVG 1.1//EN" "http://www.w3.org/Graphics/SVG/1.1/DTD/svg11.dtd">
<svg width="532mm" height="356mm" viewBox="-140 -111 532 356" xmlns="http://www.w3.org/2000/svg" version="1.1">
<title>OpenSCAD Model</title>
<path d="
M 391.5,-110.75 L 148,-110.75 L 148,-4 L 391.5,-4 z
M 154.936,-100.516 L 154.323,-100.647 L 153.75,-100.902 L 153.243,-101.271 L 152.823,-101.737 L 152.509,-102.28
 L 152.316,-102.876 L 152.25,-103.5 L 152.316,-104.124 L 152.509,-104.72 L 152.823,-105.263 L 153.243,-105.729
 L 153.75,-106.098 L 154.323,-106.353 L 154.936,-106.484 L 155.564,-106.484 L 156.177,-106.353 L 156.75,-106.098
 L 157.257,-105.729 L 157.677,-105.263 L 157.991,-104.72 L 158.184,-104.124 L 158.25,-103.5 L 158.184,-102.876
 L 157.991,-102.28 L 157.677,-101.737 L 157.257,-101.271 L 156.75,-100.902 L 156.177,-100.647 L 155.564,-100.516
 z
M 383.936,-100.516 L 383.323,-100.647 L 382.75,-100.902 L 382.243,-101.271 L 381.823,-101.737 L 381.509,-102.28
 L 381.316,-102.876 L 381.25,-103.5 L 381.316,-104.124 L 381.509,-104.72 L 381.823,-105.263 L 382.243,-105.729
 L 382.75,-106.098 L 383.323,-106.353 L 383.936,-106.484 L 384.564,-106.484 L 385.177,-106.353 L 385.75,-106.098
 L 386.257,-105.729 L 386.677,-105.263 L 386.991,-104.72 L 387.184,-104.124 L 387.25,-103.5 L 387.184,-102.876
 L 386.991,-102.28 L 386.677,-101.737 L 386.257,-101.271 L 385.75,-100.902 L 385.177,-100.647 L 384.564,-100.516
 z
M 286.5,-31.75 L 286.5,-66.25 L 333,-66.25 L 333,-31.75 z
M 317.25,-49 L 318.75,-49 L 318.75,-58 L 309.75,-58 L 309.75,-56.5 L 302.25,-56.5
 L 302.25,-41.5 L 317.25,-41.5 z
M 309.436,-46.0164 L 308.823,-46.1468 L 308.25,-46.4019 L 307.743,-46.7706 L 307.323,-47.2366 L 307.009,-47.7798
 L 306.816,-48.3763 L 306.75,-49 L 306.816,-49.6237 L 307.009,-50.2202 L 307.323,-50.7634 L 307.743,-51.2294
 L 308.25,-51.5981 L 308.823,-51.8532 L 309.436,-51.9836 L 310.064,-51.9836 L 310.677,-51.8532 L 311.25,-51.5981
 L 311.757,-51.2294 L 312.177,-50.7634 L 312.491,-50.2202 L 312.684,-49.6237 L 312.75,-49 L 312.684,-48.3763
 L 312.491,-47.7798 L 312.177,-47.2366 L 311.757,-46.7706 L 311.25,-46.4019 L 310.677,-46.1468 L 310.064,-46.0164
 z
M 283.931,-61.9022 L 283.794,-61.9195 L 283.66,-61.9538 L 283.532,-62.0047 L 283.411,-62.0712 L 283.299,-62.1524
 L 283.198,-62.247 L 283.11,-62.3534 L 283.036,-62.4701 L 282.977,-62.5951 L 282.935,-62.7264 L 282.909,-62.8621
 L 282.9,-63 L 282.909,-63.1379 L 282.935,-63.2735 L 282.977,-63.4049 L 283.036,-63.5299 L 283.11,-63.6466
 L 283.198,-63.753 L 283.299,-63.8475 L 283.411,-63.9288 L 283.532,-63.9953 L 283.66,-64.0462 L 283.794,-64.0805
 L 283.931,-64.0978 L 284.069,-64.0978 L 284.206,-64.0805 L 284.34,-64.0462 L 284.468,-63.9953 L 284.589,-63.9288
 L 284.701,-63.8475 L 284.802,-63.753 L 284.89,-63.6466 L 284.964,-63.5299 L 285.023,-63.4049 L 285.065,-63.2735
 L 285.091,-63.1379 L 285.1,-63 L 285.091,-62.8621 L 285.065,-62.7264 L 285.023,-62.5951 L 284.964,-62.4701
 L 284.89,-62.3534 L 284.802,-62.247 L 284.701,-62.1524 L 284.589,-62.0712 L 284.468,-62.0047 L 284.34,-61.9538
 L 284.206,-61.9195 L 284.069,-61.9022 z
M 335.431,-61.9022 L 335.294,-61.9195 L 335.16,-61.9538 L 335.032,-62.0047 L 334.911,-62.0712 L 334.799,-62.1524
 L 334.698,-62.247 L 334.61,-62.3534 L 334.536,-62.4701 L 334.477,-62.5951 L 334.435,-62.7264 L 334.409,-62.8621
 L 334.4,-63 L 334.409,-63.1379 L 334.435,-63.2735 L 334.477,-63.4049 L 334.536,-63.5299 L 334.61,-63.6466
 L 334.698,-63.753 L 334.799,-63.8475 L 334.911,-63.9288 L 335.032,-63.9953 L 335.16,-64.0462 L 335.294,-64.0805
 L 335.431,-64.0978 L 335.569,-64.0978 L 335.706,-64.0805 L 335.84,-64.0462 L 335.968,-63.9953 L 336.089,-63.9288
 L 336.201,-63.8475 L 336.302,-63.753 L 336.39,-63.6466 L 336.464,-63.5299 L 336.523,-63.4049 L 336.565,-63.2735
 L 336.591,-63.1379 L 336.6,-63 L 336.591,-62.8621 L 336.565,-62.7264 L 336.523,-62.5951 L 336.464,-62.4701
 L 336.39,-62.3534 L 336.302,-62.247 L 336.201,-62.1524 L 336.089,-62.0712 L 335.968,-62.0047 L 335.84,-61.9538
 L 335.706,-61.9195 L 335.569,-61.9022 z
M 283.931,-33.9022 L 283.794,-33.9195 L 283.66,-33.9538 L 283.532,-34.0047 L 283.411,-34.0712 L 283.299,-34.1525
 L 283.198,-34.247 L 283.11,-34.3534 L 283.036,-34.4701 L 282.977,-34.5951 L 282.935,-34.7265 L 282.909,-34.8621
 L 282.9,-35 L 282.909,-35.1379 L 282.935,-35.2736 L 282.977,-35.4049 L 283.036,-35.5299 L 283.11,-35.6466
 L 283.198,-35.753 L 283.299,-35.8476 L 283.411,-35.9288 L 283.532,-35.9953 L 283.66,-36.0462 L 283.794,-36.0805
 L 283.931,-36.0978 L 284.069,-36.0978 L 284.206,-36.0805 L 284.34,-36.0462 L 284.468,-35.9953 L 284.589,-35.9288
 L 284.701,-35.8476 L 284.802,-35.753 L 284.89,-35.6466 L 284.964,-35.5299 L 285.023,-35.4049 L 285.065,-35.2736
 L 285.091,-35.1379 L 285.1,-35 L 285.091,-34.8621 L 285.065,-34.7265 L 285.023,-34.5951 L 284.964,-34.4701
 L 284.89,-34.3534 L 284.802,-34.247 L 284.701,-34.1525 L 284.589,-34.0712 L 284.468,-34.0047 L 284.34,-33.9538
 L 284.206,-33.9195 L 284.069,-33.9022 z
M 335.431,-33.9022 L 335.294,-33.9195 L 335.16,-33.9538 L 335.032,-34.0047 L 334.911,-34.0712 L 334.799,-34.1525
 L 334.698,-34.247 L 334.61,-34.3534 L 334.536,-34.4701 L 334.477,-34.5951 L 334.435,-34.7265 L 334.409,-34.8621
 L 334.4,-35 L 334.409,-35.1379 L 334.435,-35.2736 L 334.477,-35.4049 L 334.536,-35.5299 L 334.61,-35.6466
 L 334.698,-35.753 L 334.799,-35.8476 L 334.911,-35.9288 L 335.032,-35.9953 L 335.16,-36.0462 L 335.294,-36.0805
 L 335.431,-36.0978 L 335.569,-36.0978 L 335.706,-36.0805 L 335.84,-36.0462 L 335.968,-35.9953 L 336.089,-35.9288
 L 336.201,-35.8476 L 336.302,-35.753 L 336.39,-35.6466 L 336.464,-35.5299 L 336.523,-35.4049 L 336.565,-35.2736
 L 336.591,-35.1379 L 336.6,-35 L 336.591,-34.8621 L 336.565,-34.7265 L 336.523,-34.5951 L 336.464,-34.4701
 L 336.39,-34.3534 L 336.302,-34.247 L 336.201,-34.1525 L 336.089,-34.0712 L 335.968,-34.0047 L 335.84,-33.9538
 L 335.706,-33.9195 L 335.569,-33.9022 z
M 154.936,-8.51645 L 154.323,-8.64684 L 153.75,-8.90193 L 153.243,-9.27057 L 152.823,-9.73665 L 152.509,-10.2798
 L 152.316,-10.8763 L 152.25,-11.5 L 152.316,-12.1237 L 152.509,-12.7202 L 152.823,-13.2634 L 153.243,-13.7294
 L 153.75,-14.0981 L 154.323,-14.3532 L 154.936,-14.4836 L 155.564,-14.4836 L 156.177,-14.3532 L 156.75,-14.0981
 L 157.257,-13.7294 L 157.677,-13.2634 L 157.991,-12.7202 L 158.184,-12.1237 L 158.25,-11.5 L 158.184,-10.8763
 L 157.991,-10.2798 L 157.677,-9.73665 L 157.257,-9.27057 L 156.75,-8.90193 L 156.177,-8.64684 L 155.564,-8.51645
 z
M 383.936,-8.51645 L 383.323,-8.64684 L 382.75,-8.90193 L 382.243,-9.27057 L 381.823,-9.73665 L 381.509,-10.2798
 L 381.316,-10.8763 L 381.25,-11.5 L 381.316,-12.1237 L 381.509,-12.7202 L 381.823,-13.2634 L 382.243,-13.7294
 L 382.75,-14.0981 L 383.323,-14.3532 L 383.936,-14.4836 L 384.564,-14.4836 L 385.177,-14.3532 L 385.75,-14.0981
 L 386.257,-13.7294 L 386.677,-13.2634 L 386.991,-12.7202 L 387.184,-12.1237 L 387.25,-11.5 L 387.184,-10.8763
 L 386.991,-10.2798 L 386.677,-9.73665 L 386.257,-9.27057 L 385.75,-8.90193 L 385.177,-8.64684 L 384.564,-8.51645
 z
M -115.1,106.9 L -104.9,106.9 L -104.9,110 L -95.1,110 L -95.1,106.9 L -84.9,106.9
 L -84.9,110 L -75.1,110 L -75.1,106.9 L -64.9,106.9 L -64.9,110 L -55.1,110
 L -55.1,106.9 L -44.9,106.9 L -44.9,110 L -35.1,110 L -35.1,106.9 L -24.9,106.9
 L -24.9,110 L -15.1,110 L -15.1,106.9 L -4.90001,106.9 L -4.90001,110 L 4.89999,110
 L 4.89999,106.9 L 15.1,106.9 L 15.1,110 L 24.9,110 L 24.9,106.9 L 35.1,106.9
 L 35.1,110 L 44.9,110 L 44.9,106.9 L 55.1,106.9 L 55.1,110 L 64.9,110
 L 64.9,106.9 L 75.1,106.9 L 75.1,110 L 84.9,110 L 84.9,106.9 L 95.1,106.9
 L 95.1,110 L 104.9,110 L 104.9,106.9 L 115.1,106.9 L 115.1,110 L 125,110
 L 125,100.535 L 121.9,100.535 L 121.9,90.7696 L 125,90.7696 L 125,81.4044 L 121.9,81.4044
 L 121.9,71.6391 L 125,71.6391 L 125,62.2739 L 121.9,62.2739 L 121.9,52.5087 L 125,52.5087
 L 125,43.1435 L 121.9,43.1435 L 121.9,33.3783 L 125,33.3783 L 125,24.013 L 121.9,24.013
 L 121.9,14.2478 L 125,14.2478 L 125,10 L 140,10 L 140,-10 L 125,-10
 L 125,-14.2478 L 121.9,-14.2478 L 121.9,-24.013 L 125,-24.013 L 125,-33.3783 L 121.9,-33.3783
 L 121.9,-43.1435 L 125,-43.1435 L 125,-52.5087 L 121.9,-52.5087 L 121.9,-62.2739 L 125,-62.2739
 L 125,-71.6391 L 121.9,-71.6391 L 121.9,-81.4043 L 125,-81.4043 L 125,-90.7696 L 121.9,-90.7696
 L 121.9,-100.535 L 125,-100.535 L 125,-110 L 115.1,-110 L 115.1,-106.9 L 104.9,-106.9
 L 104.9,-110 L 95.1,-110 L 95.1,-106.9 L 84.9,-106.9 L 84.9,-110 L 75.1,-110
 L 75.1,-106.9 L 64.9,-106.9 L 64.9,-110 L 55.1,-110 L 55.1,-106.9 L 44.9,-106.9
 L 44.9,-110 L 35.1,-110 L 35.1,-106.9 L 24.9,-106.9 L 24.9,-110 L 15.1,-110
 L 15.1,-106.9 L 4.89999,-106.9 L 4.89999,-110 L -4.90001,-110 L -4.90001,-106.9 L -15.1,-106.9
 L -15.1,-110 L -24.9,-110 L -24.9,-106.9 L -35.1,-106.9 L -35.1,-110 L -44.9,-110
 L -44.9,-106.9 L -55.1,-106.9 L -55.1,-110 L -64.9,-110 L -64.9,-106.9 L -75.1,-106.9
 L -75.1,-110 L -84.9,-110 L -84.9,-106.9 L -95.1,-106.9 L -95.1,-110 L -104.9,-110
 L -104.9,-106.9 L -115.1,-106.9 L -115.1,-110 L -125,-110 L -125,-100.535 L -121.9,-100.535
 L -121.9,-90.7696 L -125,-90.7696 L -125,-81.4043 L -121.9,-81.4043 L -121.9,-71.6391 L -125,-71.6391
 L -125,-62.2739 L -121.9,-62.2739 L -121.9,-52.5087 L -125,-52.5087 L -125,-43.1435 L -121.9,-43.1435
 L -121.9,-33.3783 L -125,-33.3783 L -125,-24.013 L -121.9,-24.013 L -121.9,-14.2478 L -125,-14.2478
 L -125,-10 L -140,-10 L -140,10 L -125,10 L -125,14.2478 L -121.9,14.2478
 L -121.9,24.013 L -125,24.013 L -125,33.3783 L -121.9,33.3783 L -121.9,43.1435 L -125,43.1435
 L -125,52.5087 L -121.9,52.5087 L -121.9,62.2739 L -125,62.2739 L -125,71.6391 L -121.9,71.6391
 L -121.9,81.4044 L -125,81.4044 L -125,90.7696 L -121.9,90.7696 L -121.9,100.535 L -125,100.535
 L -125,110 L -115.1,110 z
M 7.36374,-93.0612 L 7.01527,-93.2387 L 6.73874,-93.5153 L 6.56119,-93.8637 L 6.5,-94.25 L 6.56119,-94.6363
 L 6.73874,-94.9847 L 7.01527,-95.2613 L 7.36374,-95.4388 L 7.75,-95.5 L 8.13628,-95.4388 L 8.48474,-95.2613
 L 8.76128,-94.9847 L 8.93883,-94.6363 L 9,-94.25 L 8.93883,-93.8637 L 8.76128,-93.5153 L 8.48474,-93.2387
 L 8.13628,-93.0612 L 7.75,-93 z
M 71.8637,-93.0612 L 71.5153,-93.2387 L 71.2387,-93.5153 L 71.0612,-93.8637 L 71,-94.25 L 71.0612,-94.6363
 L 71.2387,-94.9847 L 71.5153,-95.2613 L 71.8637,-95.4388 L 72.25,-95.5 L 72.6363,-95.4388 L 72.9847,-95.2613
 L 73.2613,-94.9847 L 73.4388,-94.6363 L 73.5,-94.25 L 73.4388,-93.8637 L 73.2613,-93.5153 L 72.9847,-93.2387
 L 72.6363,-93.0612 L 72.25,-93 z
M -48.8863,-91.8112 L -49.2347,-91.9887 L -49.5113,-92.2653 L -49.6888,-92.6137 L -49.75,-93 L -49.6888,-93.3863
 L -49.5113,-93.7347 L -49.2347,-94.0113 L -48.8863,-94.1888 L -48.5,-94.25 L -48.1137,-94.1888 L -47.7653,-94.0113
 L -47.4887,-93.7347 L -47.3112,-93.3863 L -47.25,-93 L -47.3112,-92.6137 L -47.4887,-92.2653 L -47.7653,-91.9887
 L -48.1137,-91.8112 L -48.5,-91.75 z
M -91.8863,-91.8112 L -92.2347,-91.9887 L -92.5113,-92.2653 L -92.6888,-92.6137 L -92.75,-93 L -92.6888,-93.3863
 L -92.5113,-93.7347 L -92.2347,-94.0113 L -91.8863,-94.1888 L -91.5,-94.25 L -91.1137,-94.1888 L -90.7653,-94.0113
 L -90.4887,-93.7347 L -90.3112,-93.3863 L -90.25,-93 L -90.3112,-92.6137 L -90.4887,-92.2653 L -90.7653,-91.9887
 L -91.1137,-91.8112 L -91.5,-91.75 z
M 92.8637,-81.8112 L 92.5153,-81.9887 L 92.2387,-82.2653 L 92.0612,-82.6137 L 92,-83 L 92.0612,-83.3863
 L 92.2387,-83.7347 L 92.5153,-84.0113 L 92.8637,-84.1888 L 93.25,-84.25 L 93.6363,-84.1888 L 93.9847,-84.0113
 L 94.2613,-83.7347 L 94.4388,-83.3863 L 94.5,-83 L 94.4388,-82.6137 L 94.2613,-82.2653 L 93.9847,-81.9887
 L 93.6363,-81.8112 L 93.25,-81.75 z
M 116.364,-81.8112 L 116.015,-81.9887 L 115.739,-82.2653 L 115.561,-82.6137 L 115.5,-83 L 115.561,-83.3863
 L 115.739,-83.7347 L 116.015,-84.0113 L 116.364,-84.1888 L 116.75,-84.25 L 117.136,-84.1888 L 117.485,-84.0113
 L 117.761,-83.7347 L 117.939,-83.3863 L 118,-83 L 117.939,-82.6137 L 117.761,-82.2653 L 117.485,-81.9887
 L 117.136,-81.8112 L 116.75,-81.75 z
M -5.03629,-61.8112 L -5.38474,-61.9887 L -5.66129,-62.2653 L -5.83882,-62.6137 L -5.90001,-63 L -5.83882,-63.3863
 L -5.66129,-63.7347 L -5.38474,-64.0113 L -5.03629,-64.1888 L -4.65001,-64.25 L -4.26373,-64.1888 L -3.91528,-64.0113
 L -3.63873,-63.7347 L -3.46118,-63.3863 L -3.40001,-63 L -3.46118,-62.6137 L -3.63873,-62.2653 L -3.91528,-61.9887
 L -4.26373,-61.8112 L -4.65001,-61.75 z
M -35.7363,-61.8112 L -36.0847,-61.9887 L -36.3613,-62.2653 L -36.5388,-62.6137 L -36.6,-63 L -36.5388,-63.3863
 L -36.3613,-63.7347 L -36.0847,-64.0113 L -35.7363,-64.1888 L -35.35,-64.25 L -34.9637,-64.1888 L -34.6153,-64.0113
 L -34.3387,-63.7347 L -34.1612,-63.3863 L -34.1,-63 L -34.1612,-62.6137 L -34.3387,-62.2653 L -34.6153,-61.9887
 L -34.9637,-61.8112 L -35.35,-61.75 z
M 116.364,-45.8112 L 116.015,-45.9887 L 115.739,-46.2653 L 115.561,-46.6137 L 115.5,-47 L 115.561,-47.3863
 L 115.739,-47.7347 L 116.015,-48.0113 L 116.364,-48.1888 L 116.75,-48.25 L 117.136,-48.1888 L 117.485,-48.0113
 L 117.761,-47.7347 L 117.939,-47.3863 L 118,-47 L 117.939,-46.6137 L 117.761,-46.2653 L 117.485,-45.9887
 L 117.136,-45.8112 L 116.75,-45.75 z
M 92.8637,-45.8112 L 92.5153,-45.9887 L 92.2387,-46.2653 L 92.0612,-46.6137 L 92,-47 L 92.0612,-47.3863
 L 92.2387,-47.7347 L 92.5153,-48.0113 L 92.8637,-48.1888 L 93.25,-48.25 L 93.6363,-48.1888 L 93.9847,-48.0113
 L 94.2613,-47.7347 L 94.4388,-47.3863 L 94.5,-47 L 94.4388,-46.6137 L 94.2613,-46.2653 L 93.9847,-45.9887
 L 93.6363,-45.8112 L 93.25,-45.75 z
M 7.36374,-34.5612 L 7.01527,-34.7387 L 6.73874,-35.0153 L 6.56119,-35.3637 L 6.5,-35.75 L 6.56119,-36.1363
 L 6.73874,-36.4847 L 7.01527,-36.7613 L 7.36374,-36.9388 L 7.75,-37 L 8.13628,-36.9388 L 8.48474,-36.7613
 L 8.76128,-36.4847 L 8.93883,-36.1363 L 9,-35.75 L 8.93883,-35.3637 L 8.76128,-35.0153 L 8.48474,-34.7387
 L 8.13628,-34.5612 L 7.75,-34.5 z
M 71.8637,-34.5612 L 71.5153,-34.7387 L 71.2387,-35.0153 L 71.0612,-35.3637 L 71,-35.75 L 71.0612,-36.1363
 L 71.2387,-36.4847 L 71.5153,-36.7613 L 71.8637,-36.9388 L 72.25,-37 L 72.6363,-36.9388 L 72.9847,-36.7613
 L 73.2613,-36.4847 L 73.4388,-36.1363 L 73.5,-35.75 L 73.4388,-35.3637 L 73.2613,-35.0153 L 72.9847,-34.7387
 L 72.6363,-34.5612 L 72.25,-34.5 z
M 75.1137,-19.9112 L 74.7653,-20.0887 L 74.4887,-20.3652 L 74.3112,-20.7137 L 74.25,-21.1 L 74.3112,-21.4863
 L 74.4887,-21.8347 L 74.7653,-22.1113 L 75.1137,-22.2888 L 75.5,-22.35 L 75.8863,-22.2888 L 76.2347,-22.1113
 L 76.5113,-21.8347 L 76.6888,-21.4863 L 76.75,-21.1 L 76.6888,-20.7137 L 76.5113,-20.3652 L 76.2347,-20.0887
 L 75.8863,-19.9112 L 75.5,-19.85 z
M 104.114,-19.9112 L 103.765,-20.0887 L 103.489,-20.3652 L 103.311,-20.7137 L 103.25,-21.1 L 103.311,-21.4863
 L 103.489,-21.8347 L 103.765,-22.1113 L 104.114,-22.2888 L 104.5,-22.35 L 104.886,-22.2888 L 105.235,-22.1113
 L 105.511,-21.8347 L 105.689,-21.4863 L 105.75,-21.1 L 105.689,-20.7137 L 105.511,-20.3652 L 105.235,-20.0887
 L 104.886,-19.9112 L 104.5,-19.85 z
M 26.8637,-18.5112 L 26.5153,-18.6887 L 26.2387,-18.9653 L 26.0612,-19.3137 L 26,-19.7 L 26.0612,-20.0863
 L 26.2387,-20.4347 L 26.5153,-20.7113 L 26.8637,-20.8888 L 27.25,-20.95 L 27.6363,-20.8888 L 27.9847,-20.7113
 L 28.2613,-20.4347 L 28.4388,-20.0863 L 28.5,-19.7 L 28.4388,-19.3137 L 28.2613,-18.9653 L 27.9847,-18.6887
 L 27.6363,-18.5112 L 27.25,-18.45 z
M 52.3637,-18.5112 L 52.0153,-18.6887 L 51.7387,-18.9653 L 51.5612,-19.3137 L 51.5,-19.7 L 51.5612,-20.0863
 L 51.7387,-20.4347 L 52.0153,-20.7113 L 52.3637,-20.8888 L 52.75,-20.95 L 53.1363,-20.8888 L 53.4847,-20.7113
 L 53.7613,-20.4347 L 53.9388,-20.0863 L 54,-19.7 L 53.9388,-19.3137 L 53.7613,-18.9653 L 53.4847,-18.6887
 L 53.1363,-18.5112 L 52.75,-18.45 z
M 121.9,4.88261 L 121.9,-4.8826 L 125,-4.8826 L 125,4.88261 z
M -125,4.88261 L -125,-4.8826 L -121.9,-4.8826 L -121.9,4.88261 z
M 52.3637,-1.81117 L 52.0153,-1.98872 L 51.7387,-2.26527 L 51.5612,-2.61372 L 51.5,-3 L 51.5612,-3.38628
 L 51.7387,-3.73473 L 52.0153,-4.01128 L 52.3637,-4.18881 L 52.75,-4.25 L 53.1363,-4.18881 L 53.4847,-4.01128
 L 53.7613,-3.73473 L 53.9388,-3.38628 L 54,-3 L 53.9388,-2.61372 L 53.7613,-2.26527 L 53.4847,-1.98872
 L 53.1363,-1.81117 L 52.75,-1.75 z
M -91.8863,-1.81119 L -92.2347,-1.98874 L -92.5113,-2.26527 L -92.6888,-2.61374 L -92.75,-3 L -92.6888,-3.38628
 L -92.5113,-3.73474 L -92.2347,-4.01128 L -91.8863,-4.18883 L -91.5,-4.25 L -91.1137,-4.18883 L -90.7653,-4.01128
 L -90.4887,-3.73474 L -90.3112,-3.38628 L -90.25,-3 L -90.3112,-2.61374 L -90.4887,-2.26527 L -90.7653,-1.98874
 L -91.1137,-1.81119 L -91.5,-1.75 z
M -48.8863,-1.81119 L -49.2347,-1.98874 L -49.5113,-2.26527 L -49.6888,-2.61374 L -49.75,-3 L -49.6888,-3.38628
 L -49.5113,-3.73474 L -49.2347,-4.01128 L -48.8863,-4.18883 L -48.5,-4.25 L -48.1137,-4.18883 L -47.7653,-4.01128
 L -47.4887,-3.73474 L -47.3112,-3.38628 L -47.25,-3 L -47.3112,-2.61374 L -47.4887,-2.26527 L -47.7653,-1.98874
 L -48.1137,-1.81119 L -48.5,-1.75 z
M 26.8637,-1.81117 L 26.5153,-1.98872 L 26.2387,-2.26527 L 26.0612,-2.61372 L 26,-3 L 26.0612,-3.38628
 L 26.2387,-3.73473 L 26.5153,-4.01128 L 26.8637,-4.18881 L 27.25,-4.25 L 27.6363,-4.18881 L 27.9847,-4.01128
 L 28.2613,-3.73473 L 28.4388,-3.38628 L 28.5,-3 L 28.4388,-2.61372 L 28.2613,-2.26527 L 27.9847,-1.98872
 L 27.6363,-1.81117 L 27.25,-1.75 z
M -5.03629,-1.81119 L -5.38474,-1.98874 L -5.66129,-2.26527 L -5.83882,-2.61374 L -5.90001,-3 L -5.83882,-3.38628
 L -5.66129,-3.73474 L -5.38474,-4.01128 L -5.03629,-4.18883 L -4.65001,-4.25 L -4.26373,-4.18883 L -3.91528,-4.01128
 L -3.63873,-3.73474 L -3.46118,-3.38628 L -3.40001,-3 L -3.46118,-2.61374 L -3.63873,-2.26527 L -3.91528,-1.98874
 L -4.26373,-1.81119 L -4.65001,-1.75 z
M -35.7363,-1.81119 L -36.0847,-1.98874 L -36.3613,-2.26527 L -36.5388,-2.61374 L -36.6,-3 L -36.5388,-3.38628
 L -36.3613,-3.73474 L -36.0847,-4.01128 L -35.7363,-4.18883 L -35.35,-4.25 L -34.9637,-4.18883 L -34.6153,-4.01128
 L -34.3387,-3.73474 L -34.1612,-3.38628 L -34.1,-3 L -34.1612,-2.61374 L -34.3387,-2.26527 L -34.6153,-1.98874
 L -34.9637,-1.81119 L -35.35,-1.75 z
M 75.1137,-0.411179 L 74.7653,-0.58873 L 74.4887,-0.865265 L 74.3112,-1.21373 L 74.25,-1.59999 L 74.3112,-1.98627
 L 74.4887,-2.33473 L 74.7653,-2.61127 L 75.1137,-2.78882 L 75.5,-2.84999 L 75.8863,-2.78882 L 76.2347,-2.61127
 L 76.5113,-2.33473 L 76.6888,-1.98627 L 76.75,-1.59999 L 76.6888,-1.21373 L 76.5113,-0.865265 L 76.2347,-0.58873
 L 75.8863,-0.411179 L 75.5,-0.349991 z
M 104.114,-0.411179 L 103.765,-0.58873 L 103.489,-0.865265 L 103.311,-1.21373 L 103.25,-1.59999 L 103.311,-1.98627
 L 103.489,-2.33473 L 103.765,-2.61127 L 104.114,-2.78882 L 104.5,-2.84999 L 104.886,-2.78882 L 105.235,-2.61127
 L 105.511,-2.33473 L 105.689,-1.98627 L 105.75,-1.59999 L 105.689,-1.21373 L 105.511,-0.865265 L 105.235,-0.58873
 L 104.886,-0.411179 L 104.5,-0.349991 z
M 131.805,2.13986 L 131.177,1.82028 L 130.68,1.32251 L 130.36,0.695282 L 130.25,-0 L 130.36,-0.695282
 L 130.68,-1.32251 L 131.177,-1.82028 L 131.805,-2.13986 L 132.5,-2.25 L 133.195,-2.13986 L 133.823,-1.82028
 L 134.32,-1.32251 L 134.64,-0.695282 L 134.75,-0 L 134.64,0.695282 L 134.32,1.32251 L 133.823,1.82028
 L 133.195,2.13986 L 132.5,2.25 z
M -133.195,2.13986 L -133.823,1.82028 L -134.32,1.32251 L -134.64,0.695282 L -134.75,-0 L -134.64,-0.695282
 L -134.32,-1.32251 L -133.823,-1.82028 L -133.195,-2.13986 L -132.5,-2.25 L -131.805,-2.13986 L -131.177,-1.82028
 L -130.68,-1.32251 L -130.36,-0.695282 L -130.25,-0 L -130.36,0.695282 L -130.68,1.32251 L -131.177,1.82028
 L -131.805,2.13986 L -132.5,2.25 z
M 14,66.3 L 14,46.3 L 16,46.3 L 16,66.3 z
M -10,66.3 L -10,46.3 L -8,46.3 L -8,66.3 z
M -4,66.3 L -4,46.3 L -2,46.3 L -2,66.3 z
M -16,66.3 L -16,46.3 L -14,46.3 L -14,66.3 z
M -22,66.3 L -22,46.3 L -20,46.3 L -20,66.3 z
M 2,66.3 L 2,46.3 L 4,46.3 L 4,66.3 z
M 8,66.3 L 8,46.3 L 10,46.3 L 10,66.3 z
M 20,66.3 L 20,46.3 L 22,46.3 L 22,66.3 z
M 259.873,109.186 L 260.239,107.66 L 260.84,106.21 L 261.66,104.872 L 262.679,103.679 L 263.872,102.66
 L 265.21,101.84 L 266.66,101.239 L 268.186,100.873 L 269.75,100.75 L 271.314,100.873 L 272.84,101.239
 L 274.29,101.84 L 275.628,102.66 L 276.821,103.679 L 277.84,104.872 L 278.66,106.21 L 279.261,107.66
 L 279.627,109.186 L 279.75,110.75 L 391.5,110.75 L 391.5,4 L 148,4 L 148,110.75
 L 259.75,110.75 z
M 154.936,14.4836 L 154.323,14.3532 L 153.75,14.0981 L 153.243,13.7294 L 152.823,13.2634 L 152.509,12.7202
 L 152.316,12.1237 L 152.25,11.5 L 152.316,10.8763 L 152.509,10.2798 L 152.823,9.73665 L 153.243,9.27057
 L 153.75,8.90193 L 154.323,8.64684 L 154.936,8.51645 L 155.564,8.51645 L 156.177,8.64684 L 156.75,8.90193
 L 157.257,9.27057 L 157.677,9.73665 L 157.991,10.2798 L 158.184,10.8763 L 158.25,11.5 L 158.184,12.1237
 L 157.991,12.7202 L 157.677,13.2634 L 157.257,13.7294 L 156.75,14.0981 L 156.177,14.3532 L 155.564,14.4836
 z
M 383.936,14.4836 L 383.323,14.3532 L 382.75,14.0981 L 382.243,13.7294 L 381.823,13.2634 L 381.509,12.7202
 L 381.316,12.1237 L 381.25,11.5 L 381.316,10.8763 L 381.509,10.2798 L 381.823,9.73665 L 382.243,9.27057
 L 382.75,8.90193 L 383.323,8.64684 L 383.936,8.51645 L 384.564,8.51645 L 385.177,8.64684 L 385.75,8.90193
 L 386.257,9.27057 L 386.677,9.73665 L 386.991,10.2798 L 387.184,10.8763 L 387.25,11.5 L 387.184,12.1237
 L 386.991,12.7202 L 386.677,13.2634 L 386.257,13.7294 L 385.75,14.0981 L 385.177,14.3532 L 384.564,14.4836
 z
M 228.875,40.6875 L 228.875,20.6875 L 230.875,20.6875 L 230.875,40.6875 z
M 350.625,40.6875 L 350.625,20.6875 L 352.625,20.6875 L 352.625,40.6875 z
M 210.875,40.6875 L 210.875,20.6875 L 212.875,20.6875 L 212.875,40.6875 z
M 204.875,40.6875 L 204.875,20.6875 L 206.875,20.6875 L 206.875,40.6875 z
M 216.875,40.6875 L 216.875,20.6875 L 218.875,20.6875 L 218.875,40.6875 z
M 344.625,40.6875 L 344.625,20.6875 L 346.625,20.6875 L 346.625,40.6875 z
M 338.625,40.6875 L 338.625,20.6875 L 340.625,20.6875 L 340.625,40.6875 z
M 332.625,40.6875 L 332.625,20.6875 L 334.625,20.6875 L 334.625,40.6875 z
M 326.625,40.6875 L 326.625,20.6875 L 328.625,20.6875 L 328.625,40.6875 z
M 320.625,40.6875 L 320.625,20.6875 L 322.625,20.6875 L 322.625,40.6875 z
M 314.625,40.6875 L 314.625,20.6875 L 316.625,20.6875 L 316.625,40.6875 z
M 308.625,40.6875 L 308.625,20.6875 L 310.625,20.6875 L 310.625,40.6875 z
M 198.875,40.6875 L 198.875,20.6875 L 200.875,20.6875 L 200.875,40.6875 z
M 186.875,40.6875 L 186.875,20.6875 L 188.875,20.6875 L 188.875,40.6875 z
M 222.875,40.6875 L 222.875,20.6875 L 224.875,20.6875 L 224.875,40.6875 z
M 192.875,40.6875 L 192.875,20.6875 L 194.875,20.6875 L 194.875,40.6875 z
M 154.936,106.484 L 154.323,106.353 L 153.75,106.098 L 153.243,105.729 L 152.823,105.263 L 152.509,104.72
 L 152.316,104.124 L 152.25,103.5 L 152.316,102.876 L 152.509,102.28 L 152.823,101.737 L 153.243,101.271
 L 153.75,100.902 L 154.323,100.647 L 154.936,100.516 L 155.564,100.516 L 156.177,100.647 L 156.75,100.902
 L 157.257,101.271 L 157.677,101.737 L 157.991,102.28 L 158.184,102.876 L 158.25,103.5 L 158.184,104.124
 L 157.991,104.72 L 157.677,105.263 L 157.257,105.729 L 156.75,106.098 L 156.177,106.353 L 155.564,106.484
 z
M 383.936,106.484 L 383.323,106.353 L 382.75,106.098 L 382.243,105.729 L 381.823,105.263 L 381.509,104.72
 L 381.316,104.124 L 381.25,103.5 L 381.316,102.876 L 381.509,102.28 L 381.823,101.737 L 382.243,101.271
 L 382.75,100.902 L 383.323,100.647 L 383.936,100.516 L 384.564,100.516 L 385.177,100.647 L 385.75,100.902
 L 386.257,101.271 L 386.677,101.737 L 386.991,102.28 L 387.184,102.876 L 387.25,103.5 L 387.184,104.124
 L 386.991,104.72 L 386.677,105.263 L 386.257,105.729 L 385.75,106.098 L 385.177,106.353 L 384.564,106.484
 z
M -105.1,173.9 L -94.9,173.9 L -94.9,177 L -85.1,177 L -85.1,173.9 L -74.9,173.9
 L -74.9,177 L -65.1,177 L -65.1,173.9 L -54.9,173.9 L -54.9,177 L -45.1,177
 L -45.1,173.9 L -34.9,173.9 L -34.9,177 L -25.1,177 L -25.1,173.9 L -14.9,173.9
 L -14.9,177 L -5.10001,177 L -5.10001,173.9 L 5.09999,173.9 L 5.09999,177 L 14.9,177
 L 14.9,173.9 L 25.1,173.9 L 25.1,177 L 34.9,177 L 34.9,173.9 L 45.1,173.9
 L 45.1,177 L 54.9,177 L 54.9,173.9 L 65.1,173.9 L 65.1,177 L 74.9,177
 L 74.9,173.9 L 85.1,173.9 L 85.1,177 L 94.9,177 L 94.9,173.9 L 105.1,173.9
 L 105.1,177 L 114.9,177 L 114.9,173.9 L 121.9,173.9 L 121.9,165.1 L 125,165.1
 L 125,153.5 L 121.9,153.5 L 121.9,141.5 L 125,141.5 L 125,129.9 L 121.9,129.9
 L 121.9,124 L 114.5,124 L 114.5,121 L 121.9,121 L 121.9,118 L -121.9,118
 L -121.9,121 L -114.5,121 L -114.5,124 L -121.9,124 L -121.9,129.9 L -125,129.9
 L -125,141.5 L -121.9,141.5 L -121.9,153.5 L -125,153.5 L -125,165.1 L -121.9,165.1
 L -121.9,173.9 L -114.9,173.9 L -114.9,177 L -105.1,177 z
M 21.0614,144.926 L 20.1459,144.706 L 19.276,144.346 L 18.4733,143.854 L 17.7574,143.243 L 17.1459,142.527
 L 16.6539,141.724 L 16.2937,140.854 L 16.0739,139.939 L 16,139 L 16.0739,138.061 L 16.2937,137.146
 L 16.6539,136.276 L 17.1459,135.473 L 17.7574,134.757 L 18.4733,134.146 L 19.276,133.654 L 20.1459,133.294
 L 21.0614,133.074 L 22,133 L 22.9386,133.074 L 23.8541,133.294 L 24.7239,133.654 L 25.5267,134.146
 L 26.2426,134.757 L 26.8541,135.473 L 27.346,136.276 L 27.7063,137.146 L 27.9261,138.061 L 28,139
 L 27.9261,139.939 L 27.7063,140.854 L 27.346,141.724 L 26.8541,142.527 L 26.2426,143.243 L 25.5267,143.854
 L 24.7239,144.346 L 23.8541,144.706 L 22.9386,144.926 L 22,145 z
M -0.938599,144.926 L -1.8541,144.706 L -2.72394,144.346 L -3.5267,143.854 L -4.24263,143.243 L -4.8541,142.527
 L -5.34604,141.724 L -5.70633,140.854 L -5.92612,139.939 L -6,139 L -5.92612,138.061 L -5.70633,137.146
 L -5.34604,136.276 L -4.8541,135.473 L -4.24263,134.757 L -3.5267,134.146 L -2.72394,133.654 L -1.8541,133.294
 L -0.938599,133.074 L 0,133 L 0.938599,133.074 L 1.8541,133.294 L 2.72394,133.654 L 3.5267,134.146
 L 4.24263,134.757 L 4.8541,135.473 L 5.34604,136.276 L 5.70633,137.146 L 5.92612,138.061 L 6,139
 L 5.92612,139.939 L 5.70633,140.854 L 5.34604,141.724 L 4.8541,142.527 L 4.24263,143.243 L 3.5267,143.854
 L 2.72394,144.346 L 1.8541,144.706 L 0.938599,144.926 L 0,145 z
M -22.9386,144.926 L -23.8541,144.706 L -24.7239,144.346 L -25.5267,143.854 L -26.2426,143.243 L -26.8541,142.527
 L -27.346,141.724 L -27.7063,140.854 L -27.9261,139.939 L -28,139 L -27.9261,138.061 L -27.7063,137.146
 L -27.346,136.276 L -26.8541,135.473 L -26.2426,134.757 L -25.5267,134.146 L -24.7239,133.654 L -23.8541,133.294
 L -22.9386,133.074 L -22,133 L -21.0614,133.074 L -20.1459,133.294 L -19.276,133.654 L -18.4733,134.146
 L -17.7574,134.757 L -17.1459,135.473 L -16.6539,136.276 L -16.2937,137.146 L -16.0739,138.061 L -16,139
 L -16.0739,139.939 L -16.2937,140.854 L -16.6539,141.724 L -17.1459,142.527 L -17.7574,143.243 L -18.4733,143.854
 L -19.276,144.346 L -20.1459,144.706 L -21.0614,144.926 L -22,145 z
M 178.78,174.65 L 188.546,174.65 L 188.546,177.75 L 197.911,177.75 L 197.911,174.65 L 207.676,174.65
 L 207.676,177.75 L 217.041,177.75 L 217.041,174.65 L 226.807,174.65 L 226.807,177.75 L 236.172,177.75
 L 236.172,174.65 L 245.937,174.65 L 245.937,177.75 L 255.302,177.75 L 255.302,174.65 L 265.067,174.65
 L 265.067,177.75 L 274.433,177.75 L 274.433,174.65 L 284.198,174.65 L 284.198,177.75 L 293.563,177.75
 L 293.563,174.65 L 303.328,174.65 L 303.328,177.75 L 312.693,177.75 L 312.693,174.65 L 322.459,174.65
 L 322.459,177.75 L 331.824,177.75 L 331.824,174.65 L 341.589,174.65 L 341.589,177.75 L 350.954,177.75
 L 350.954,174.65 L 360.72,174.65 L 360.72,177.75 L 370.085,177.75 L 370.085,174.65 L 379.75,174.65
 L 379.75,166.05 L 376.65,166.05 L 376.65,154.05 L 379.75,154.05 L 379.75,142.45 L 376.65,142.45
 L 376.65,130.45 L 379.75,130.45 L 379.75,124.75 L 369.25,124.75 L 369.25,121.75 L 379.75,121.75
 L 379.75,118.75 L 159.75,118.75 L 159.75,121.75 L 170.25,121.75 L 170.25,124.75 L 159.75,124.75
 L 159.75,130.45 L 162.85,130.45 L 162.85,142.45 L 159.75,142.45 L 159.75,154.05 L 162.85,154.05
 L 162.85,166.05 L 159.75,166.05 L 159.75,174.65 L 169.415,174.65 L 169.415,177.75 L 178.78,177.75
 z
M 278.75,124.75 L 278.75,121.75 L 284.75,121.75 L 284.75,124.75 z
M 266.75,124.75 L 266.75,121.75 L 272.75,121.75 L 272.75,124.75 z
M 254.75,124.75 L 254.75,121.75 L 260.75,121.75 L 260.75,124.75 z
M 275.347,146.966 L 274.069,146.694 L 272.875,146.163 L 271.818,145.395 L 270.944,144.424 L 270.29,143.292
 L 269.887,142.049 L 269.75,140.75 L 269.887,139.451 L 270.29,138.208 L 270.944,137.076 L 271.818,136.105
 L 272.875,135.337 L 274.069,134.806 L 275.347,134.534 L 276.653,134.534 L 277.931,134.806 L 279.125,135.337
 L 280.182,136.105 L 281.056,137.076 L 281.71,138.208 L 282.113,139.451 L 282.25,140.75 L 282.113,142.049
 L 281.71,143.292 L 281.056,144.424 L 280.182,145.395 L 279.125,146.163 L 277.931,146.694 L 276.653,146.966
 z
M 238.347,146.966 L 237.069,146.694 L 235.875,146.163 L 234.818,145.395 L 233.944,144.424 L 233.29,143.292
 L 232.887,142.049 L 232.75,140.75 L 232.887,139.451 L 233.29,138.208 L 233.944,137.076 L 234.818,136.105
 L 235.875,135.337 L 237.069,134.806 L 238.347,134.534 L 239.653,134.534 L 240.931,134.806 L 242.125,135.337
 L 243.182,136.105 L 244.056,137.076 L 244.71,138.208 L 245.113,139.451 L 245.25,140.75 L 245.113,142.049
 L 244.71,143.292 L 244.056,144.424 L 243.182,145.395 L 242.125,146.163 L 240.931,146.694 L 239.653,146.966
 z
M 219.847,146.966 L 218.569,146.694 L 217.375,146.163 L 216.318,145.395 L 215.444,144.424 L 214.79,143.292
 L 214.387,142.049 L 214.25,140.75 L 214.387,139.451 L 214.79,138.208 L 215.444,137.076 L 216.318,136.105
 L 217.375,135.337 L 218.569,134.806 L 219.847,134.534 L 221.153,134.534 L 222.431,134.806 L 223.625,135.337
 L 224.682,136.105 L 225.556,137.076 L 226.21,138.208 L 226.613,139.451 L 226.75,140.75 L 226.613,142.049
 L 226.21,143.292 L 225.556,144.424 L 224.682,145.395 L 223.625,146.163 L 222.431,146.694 L 221.153,146.966
 z
M 256.847,146.966 L 255.569,146.694 L 254.375,146.163 L 253.318,145.395 L 252.444,144.424 L 251.79,143.292
 L 251.387,142.049 L 251.25,140.75 L 251.387,139.451 L 251.79,138.208 L 252.444,137.076 L 253.318,136.105
 L 254.375,135.337 L 255.569,134.806 L 256.847,134.534 L 258.153,134.534 L 259.431,134.806 L 260.625,135.337
 L 261.682,136.105 L 262.556,137.076 L 263.21,138.208 L 263.613,139.451 L 263.75,140.75 L 263.613,142.049
 L 263.21,143.292 L 262.556,144.424 L 261.682,145.395 L 260.625,146.163 L 259.431,146.694 L 258.153,146.966
 z
M 219.847,168.966 L 218.569,168.694 L 217.375,168.163 L 216.318,167.395 L 215.444,166.424 L 214.79,165.292
 L 214.387,164.049 L 214.25,162.75 L 214.387,161.451 L 214.79,160.208 L 215.444,159.076 L 216.318,158.105
 L 217.375,157.337 L 218.569,156.806 L 219.847,156.534 L 221.153,156.534 L 222.431,156.806 L 223.625,157.337
 L 224.682,158.105 L 225.556,159.076 L 226.21,160.208 L 226.613,161.451 L 226.75,162.75 L 226.613,164.049
 L 226.21,165.292 L 225.556,166.424 L 224.682,167.395 L 223.625,168.163 L 222.431,168.694 L 221.153,168.966
 z
M 275.347,168.966 L 274.069,168.694 L 272.875,168.163 L 271.818,167.395 L 270.944,166.424 L 270.29,165.292
 L 269.887,164.049 L 269.75,162.75 L 269.887,161.451 L 270.29,160.208 L 270.944,159.076 L 271.818,158.105
 L 272.875,157.337 L 274.069,156.806 L 275.347,156.534 L 276.653,156.534 L 277.931,156.806 L 279.125,157.337
 L 280.182,158.105 L 281.056,159.076 L 281.71,160.208 L 282.113,161.451 L 282.25,162.75 L 282.113,164.049
 L 281.71,165.292 L 281.056,166.424 L 280.182,167.395 L 279.125,168.163 L 277.931,168.694 L 276.653,168.966
 z
M 256.847,168.966 L 255.569,168.694 L 254.375,168.163 L 253.318,167.395 L 252.444,166.424 L 251.79,165.292
 L 251.387,164.049 L 251.25,162.75 L 251.387,161.451 L 251.79,160.208 L 252.444,159.076 L 253.318,158.105
 L 254.375,157.337 L 255.569,156.806 L 256.847,156.534 L 258.153,156.534 L 259.431,156.806 L 260.625,157.337
 L 261.682,158.105 L 262.556,159.076 L 263.21,160.208 L 263.613,161.451 L 263.75,162.75 L 263.613,164.049
 L 263.21,165.292 L 262.556,166.424 L 261.682,167.395 L 260.625,168.163 L 259.431,168.694 L 258.153,168.966
 z
M 238.347,168.966 L 237.069,168.694 L 235.875,168.163 L 234.818,167.395 L 233.944,166.424 L 233.29,165.292
 L 232.887,164.049 L 232.75,162.75 L 232.887,161.451 L 233.29,160.208 L 233.944,159.076 L 234.818,158.105
 L 235.875,157.337 L 237.069,156.806 L 238.347,156.534 L 239.653,156.534 L 240.931,156.806 L 242.125,157.337
 L 243.182,158.105 L 244.056,159.076 L 244.71,160.208 L 245.113,161.451 L 245.25,162.75 L 245.113,164.049
 L 244.71,165.292 L 244.056,166.424 L 243.182,167.395 L 242.125,168.163 L 240.931,168.694 L 239.653,168.966
 z
M 154.5,166.75 L 151.5,166.75 L 151.5,160.75 L 154.5,160.75 L 154.5,154.75 L 151.5,154.75
 L 151.5,148.75 L 154.5,148.75 L 154.5,142.75 L 136.5,142.75 L 136.5,172.75 L 154.5,172.75
 z
M 143.686,153.234 L 143.073,153.103 L 142.5,152.848 L 141.993,152.479 L 141.573,152.013 L 141.259,151.47
 L 141.066,150.874 L 141,150.25 L 141.066,149.626 L 141.259,149.03 L 141.573,148.487 L 141.993,148.021
 L 142.5,147.652 L 143.073,147.397 L 143.686,147.266 L 144.314,147.266 L 144.927,147.397 L 145.5,147.652
 L 146.007,148.021 L 146.427,148.487 L 146.741,149.03 L 146.934,149.626 L 147,150.25 L 146.934,150.874
 L 146.741,151.47 L 146.427,152.013 L 146.007,152.479 L 145.5,152.848 L 144.927,153.103 L 144.314,153.234
 z
M 143.686,168.234 L 143.073,168.103 L 142.5,167.848 L 141.993,167.479 L 141.573,167.013 L 141.259,166.47
 L 141.066,165.874 L 141,165.25 L 141.066,164.626 L 141.259,164.03 L 141.573,163.487 L 141.993,163.021
 L 142.5,162.652 L 143.073,162.397 L 143.686,162.266 L 144.314,162.266 L 144.927,162.397 L 145.5,162.652
 L 146.007,163.021 L 146.427,163.487 L 146.741,164.03 L 146.934,164.626 L 147,165.25 L 146.934,165.874
 L 146.741,166.47 L 146.427,167.013 L 146.007,167.479 L 145.5,167.848 L 144.927,168.103 L 144.314,168.234
 z
M 154.5,206.75 L 151.5,206.75 L 151.5,200.75 L 154.5,200.75 L 154.5,194.75 L 151.5,194.75
 L 151.5,188.75 L 154.5,188.75 L 154.5,182.75 L 136.5,182.75 L 136.5,212.75 L 154.5,212.75
 z
M 143.686,193.234 L 143.073,193.103 L 142.5,192.848 L 141.993,192.479 L 141.573,192.013 L 141.259,191.47
 L 141.066,190.874 L 141,190.25 L 141.066,189.626 L 141.259,189.03 L 141.573,188.487 L 141.993,188.021
 L 142.5,187.652 L 143.073,187.397 L 143.686,187.266 L 144.314,187.266 L 144.927,187.397 L 145.5,187.652
 L 146.007,188.021 L 146.427,188.487 L 146.741,189.03 L 146.934,189.626 L 147,190.25 L 146.934,190.874
 L 146.741,191.47 L 146.427,192.013 L 146.007,192.479 L 145.5,192.848 L 144.927,193.103 L 144.314,193.234
 z
M 143.686,208.234 L 143.073,208.103 L 142.5,207.848 L 141.993,207.479 L 141.573,207.013 L 141.259,206.47
 L 141.066,205.874 L 141,205.25 L 141.066,204.626 L 141.259,204.03 L 141.573,203.487 L 141.993,203.021
 L 142.5,202.652 L 143.073,202.397 L 143.686,202.266 L 144.314,202.266 L 144.927,202.397 L 145.5,202.652
 L 146.007,203.021 L 146.427,203.487 L 146.741,204.03 L 146.934,204.626 L 147,205.25 L 146.934,205.874
 L 146.741,206.47 L 146.427,207.013 L 146.007,207.479 L 145.5,207.848 L 144.927,208.103 L 144.314,208.234
 z
M -105.1,240.9 L -94.9,240.9 L -94.9,244 L -85.1,244 L -85.1,240.9 L -74.9,240.9
 L -74.9,244 L -65.1,244 L -65.1,240.9 L -54.9,240.9 L -54.9,244 L -45.1,244
 L -45.1,240.9 L -34.9,240.9 L -34.9,244 L -25.1,244 L -25.1,240.9 L -14.9,240.9
 L -14.9,244 L -5.10001,244 L -5.10001,240.9 L 5.09999,240.9 L 5.09999,244 L 14.9,244
 L 14.9,240.9 L 25.1,240.9 L 25.1,244 L 34.9,244 L 34.9,240.9 L 45.1,240.9
 L 45.1,244 L 54.9,244 L 54.9,240.9 L 65.1,240.9 L 65.1,244 L 74.9,244
 L 74.9,240.9 L 85.1,240.9 L 85.1,244 L 94.9,244 L 94.9,240.9 L 105.1,240.9
 L 105.1,244 L 114.9,244 L 114.9,240.9 L 121.9,240.9 L 121.9,232.1 L 125,232.1
 L 125,220.5 L 121.9,220.5 L 121.9,208.5 L 125,208.5 L 125,196.9 L 121.9,196.9
 L 121.9,191 L 114.5,191 L 114.5,188 L 121.9,188 L 121.9,185 L -121.9,185
 L -121.9,188 L -114.5,188 L -114.5,191 L -121.9,191 L -121.9,196.9 L -125,196.9
 L -125,208.5 L -121.9,208.5 L -121.9,220.5 L -125,220.5 L -125,232.1 L -121.9,232.1
 L -121.9,240.9 L -114.9,240.9 L -114.9,244 L -105.1,244 z
M -60,208 L -60,205 L 60,205 L 60,208 z
M -60,222 L -60,219 L 60,219 L 60,222 z
M -60,236 L -60,233 L 60,233 L 60,236 z
M 178.78,241.65 L 188.546,241.65 L 188.546,244.75 L 197.911,244.75 L 197.911,241.65 L 207.676,241.65
 L 207.676,244.75 L 217.041,244.75 L 217.041,241.65 L 226.807,241.65 L 226.807,244.75 L 236.172,244.75
 L 236.172,241.65 L 245.937,241.65 L 245.937,244.75 L 255.302,244.75 L 255.302,241.65 L 265.067,241.65
 L 265.067,244.75 L 274.433,244.75 L 274.433,241.65 L 284.198,241.65 L 284.198,244.75 L 293.563,244.75
 L 293.563,241.65 L 303.328,241.65 L 303.328,244.75 L 312.693,244.75 L 312.693,241.65 L 322.459,241.65
 L 322.459,244.75 L 331.824,244.75 L 331.824,241.65 L 341.589,241.65 L 341.589,244.75 L 350.954,244.75
 L 350.954,241.65 L 360.72,241.65 L 360.72,244.75 L 370.085,244.75 L 370.085,241.65 L 379.75,241.65
 L 379.75,233.05 L 376.65,233.05 L 376.65,221.05 L 379.75,221.05 L 379.75,209.45 L 376.65,209.45
 L 376.65,197.45 L 379.75,197.45 L 379.75,191.75 L 369.25,191.75 L 369.25,188.75 L 379.75,188.75
 L 379.75,185.75 L 159.75,185.75 L 159.75,188.75 L 170.25,188.75 L 170.25,191.75 L 159.75,191.75
 L 159.75,197.45 L 162.85,197.45 L 162.85,209.45 L 159.75,209.45 L 159.75,221.05 L 162.85,221.05
 L 162.85,233.05 L 159.75,233.05 L 159.75,241.65 L 169.415,241.65 L 169.415,244.75 L 178.78,244.75
 z
M 278.75,191.75 L 278.75,188.75 L 284.75,188.75 L 284.75,191.75 z
M 254.75,191.75 L 254.75,188.75 L 260.75,188.75 L 260.75,191.75 z
M 266.75,191.75 L 266.75,188.75 L 272.75,188.75 L 272.75,191.75 z
M 174.15,228.35 L 174.15,201.15 L 205.35,201.15 L 205.35,228.35 z
M 197.25,214.75 L 198.75,214.75 L 198.75,205.75 L 189.75,205.75 L 189.75,207.25 L 182.25,207.25
 L 182.25,222.25 L 197.25,222.25 z
M 189.436,217.734 L 188.823,217.603 L 188.25,217.348 L 187.743,216.979 L 187.323,216.513 L 187.009,215.97
 L 186.816,215.374 L 186.75,214.75 L 186.816,214.126 L 187.009,213.53 L 187.323,212.987 L 187.743,212.521
 L 188.25,212.152 L 188.823,211.897 L 189.436,211.766 L 190.064,211.766 L 190.677,211.897 L 191.25,212.152
 L 191.757,212.521 L 192.177,212.987 L 192.491,213.53 L 192.684,214.126 L 192.75,214.75 L 192.684,215.374
 L 192.491,215.97 L 192.177,216.513 L 191.757,216.979 L 191.25,217.348 L 190.677,217.603 L 190.064,217.734
 z
M 224.5,225.6 L 224.5,203.9 L 265,203.9 L 265,225.6 z
M 243.75,214.75 L 245.25,214.75 L 245.25,205.75 L 236.25,205.75 L 236.25,207.25 L 228.75,207.25
 L 228.75,222.25 L 243.75,222.25 z
M 235.936,217.734 L 235.323,217.603 L 234.75,217.348 L 234.243,216.979 L 233.823,216.513 L 233.509,215.97
 L 233.316,215.374 L 233.25,214.75 L 233.316,214.126 L 233.509,213.53 L 233.823,212.987 L 234.243,212.521
 L 234.75,212.152 L 235.323,211.897 L 235.936,211.766 L 236.564,211.766 L 237.177,211.897 L 237.75,212.152
 L 238.257,212.521 L 238.677,212.987 L 238.991,213.53 L 239.184,214.126 L 239.25,214.75 L 239.184,215.374
 L 238.991,215.97 L 238.677,216.513 L 238.257,216.979 L 237.75,217.348 L 237.177,217.603 L 236.564,217.734
 z
M 260.75,214.75 L 262.25,214.75 L 262.25,205.75 L 253.25,205.75 L 253.25,207.25 L 245.75,207.25
 L 245.75,222.25 L 260.75,222.25 z
M 252.936,217.734 L 252.323,217.603 L 251.75,217.348 L 251.243,216.979 L 250.823,216.513 L 250.509,215.97
 L 250.316,215.374 L 250.25,214.75 L 250.316,214.126 L 250.509,213.53 L 250.823,212.987 L 251.243,212.521
 L 251.75,212.152 L 252.323,211.897 L 252.936,211.766 L 253.564,211.766 L 254.177,211.897 L 254.75,212.152
 L 255.257,212.521 L 255.677,212.987 L 255.991,213.53 L 256.184,214.126 L 256.25,214.75 L 256.184,215.374
 L 255.991,215.97 L 255.677,216.513 L 255.257,216.979 L 254.75,217.348 L 254.177,217.603 L 253.564,217.734
 z
M 348.811,220.676 L 347.896,220.456 L 347.026,220.096 L 346.223,219.604 L 345.507,218.993 L 344.896,218.277
 L 344.404,217.474 L 344.044,216.604 L 343.824,215.689 L 343.75,214.75 L 343.824,213.811 L 344.044,212.896
 L 344.404,212.026 L 344.896,211.223 L 345.507,210.507 L 346.223,209.896 L 347.026,209.404 L 347.896,209.044
 L 348.811,208.824 L 349.75,208.75 L 350.689,208.824 L 351.604,209.044 L 352.474,209.404 L 353.277,209.896
 L 353.993,210.507 L 354.604,211.223 L 355.096,212.026 L 355.456,212.896 L 355.676,213.811 L 355.75,214.75
 L 355.676,215.689 L 355.456,216.604 L 355.096,217.474 L 354.604,218.277 L 353.993,218.993 L 353.277,219.604
 L 352.474,220.096 L 351.604,220.456 L 350.689,220.676 L 349.75,220.75 z
" stroke="black" fill="lightgray" stroke-width="0.5"/>
</svg>
