  0
SECTION
  2
BLOCKS
  0
ENDSEC
  0
SECTION
  2
ENTITIES
  0
LINE
  8
0
 10
391.5
 20
110.75
 11
148
 21
110.75
  0
LINE
  8
0
 10
148
 20
110.75
 11
148
 21
4
  0
LINE
  8
0
 10
148
 20
4
 11
391.5
 21
4
  0
LINE
  8
0
 10
391.5
 20
4
 11
391.5
 21
110.75
  0
LINE
  8
0
 10
154.936
 20
100.516
 11
154.323
 21
100.647
  0
LINE
  8
0
 10
154.323
 20
100.647
 11
153.75
 21
100.902
  0
LINE
  8
0
 10
153.75
 20
100.902
 11
153.243
 21
101.271
  0
LINE
  8
0
 10
153.243
 20
101.271
 11
152.823
 21
101.737
  0
LINE
  8
0
 10
152.823
 20
101.737
 11
152.509
 21
102.28
  0
LINE
  8
0
 10
152.509
 20
102.28
 11
152.316
 21
102.876
  0
LINE
  8
0
 10
152.316
 20
102.876
 11
152.25
 21
103.5
  0
LINE
  8
0
 10
152.25
 20
103.5
 11
152.316
 21
104.124
  0
LINE
  8
0
 10
152.316
 20
104.124
 11
152.509
 21
104.72
  0
LINE
  8
0
 10
152.509
 20
104.72
 11
152.823
 21
105.263
  0
LINE
  8
0
 10
152.823
 20
105.263
 11
153.243
 21
105.729
  0
LINE
  8
0
 10
153.243
 20
105.729
 11
153.75
 21
106.098
  0
LINE
  8
0
 10
153.75
 20
106.098
 11
154.323
 21
106.353
  0
LINE
  8
0
 10
154.323
 20
106.353
 11
154.936
 21
106.484
  0
LINE
  8
0
 10
154.936
 20
106.484
 11
155.564
 21
106.484
  0
LINE
  8
0
 10
155.564
 20
106.484
 11
156.177
 21
106.353
  0
LINE
  8
0
 10
156.177
 20
106.353
 11
156.75
 21
106.098
  0
LINE
  8
0
 10
156.75
 20
106.098
 11
157.257
 21
105.729
  0
LINE
  8
0
 10
157.257
 20
105.729
 11
157.677
 21
105.263
  0
LINE
  8
0
 10
157.677
 20
105.263
 11
157.991
 21
104.72
  0
LINE
  8
0
 10
157.991
 20
104.72
 11
158.184
 21
104.124
  0
LINE
  8
0
 10
158.184
 20
104.124
 11
158.25
 21
103.5
  0
LINE
  8
0
 10
158.25
 20
103.5
 11
158.184
 21
102.876
  0
LINE
  8
0
 10
158.184
 20
102.876
 11
157.991
 21
102.28
  0
LINE
  8
0
 10
157.991
 20
102.28
 11
157.677
 21
101.737
  0
LINE
  8
0
 10
157.677
 20
101.737
 11
157.257
 21
101.271
  0
LINE
  8
0
 10
157.257
 20
101.271
 11
156.75
 21
100.902
  0
LINE
  8
0
 10
156.75
 20
100.902
 11
156.177
 21
100.647
  0
LINE
  8
0
 10
156.177
 20
100.647
 11
155.564
 21
100.516
  0
LINE
  8
0
 10
155.564
 20
100.516
 11
154.936
 21
100.516
  0
LINE
  8
0
 10
383.936
 20
100.516
 11
383.323
 21
100.647
  0
LINE
  8
0
 10
383.323
 20
100.647
 11
382.75
 21
100.902
  0
LINE
  8
0
 10
382.75
 20
100.902
 11
382.243
 21
101.271
  0
LINE
  8
0
 10
382.243
 20
101.271
 11
381.823
 21
101.737
  0
LINE
  8
0
 10
381.823
 20
101.737
 11
381.509
 21
102.28
  0
LINE
  8
0
 10
381.509
 20
102.28
 11
381.316
 21
102.876
  0
LINE
  8
0
 10
381.316
 20
102.876
 11
381.25
 21
103.5
  0
LINE
  8
0
 10
381.25
 20
103.5
 11
381.316
 21
104.124
  0
LINE
  8
0
 10
381.316
 20
104.124
 11
381.509
 21
104.72
  0
LINE
  8
0
 10
381.509
 20
104.72
 11
381.823
 21
105.263
  0
LINE
  8
0
 10
381.823
 20
105.263
 11
382.243
 21
105.729
  0
LINE
  8
0
 10
382.243
 20
105.729
 11
382.75
 21
106.098
  0
LINE
  8
0
 10
382.75
 20
106.098
 11
383.323
 21
106.353
  0
LINE
  8
0
 10
383.323
 20
106.353
 11
383.936
 21
106.484
  0
LINE
  8
0
 10
383.936
 20
106.484
 11
384.564
 21
106.484
  0
LINE
  8
0
 10
384.564
 20
106.484
 11
385.177
 21
106.353
  0
LINE
  8
0
 10
385.177
 20
106.353
 11
385.75
 21
106.098
  0
LINE
  8
0
 10
385.75
 20
106.098
 11
386.257
 21
105.729
  0
LINE
  8
0
 10
386.257
 20
105.729
 11
386.677
 21
105.263
  0
LINE
  8
0
 10
386.677
 20
105.263
 11
386.991
 21
104.72
  0
LINE
  8
0
 10
386.991
 20
104.72
 11
387.184
 21
104.124
  0
LINE
  8
0
 10
387.184
 20
104.124
 11
387.25
 21
103.5
  0
LINE
  8
0
 10
387.25
 20
103.5
 11
387.184
 21
102.876
  0
LINE
  8
0
 10
387.184
 20
102.876
 11
386.991
 21
102.28
  0
LINE
  8
0
 10
386.991
 20
102.28
 11
386.677
 21
101.737
  0
LINE
  8
0
 10
386.677
 20
101.737
 11
386.257
 21
101.271
  0
LINE
  8
0
 10
386.257
 20
101.271
 11
385.75
 21
100.902
  0
LINE
  8
0
 10
385.75
 20
100.902
 11
385.177
 21
100.647
  0
LINE
  8
0
 10
385.177
 20
100.647
 11
384.564
 21
100.516
  0
LINE
  8
0
 10
384.564
 20
100.516
 11
383.936
 21
100.516
  0
LINE
  8
0
 10
286.5
 20
31.75
 11
286.5
 21
66.25
  0
LINE
  8
0
 10
286.5
 20
66.25
 11
333
 21
66.25
  0
LINE
  8
0
 10
333
 20
66.25
 11
333
 21
31.75
  0
LINE
  8
0
 10
333
 20
31.75
 11
286.5
 21
31.75
  0
LINE
  8
0
 10
317.25
 20
49
 11
318.75
 21
49
  0
LINE
  8
0
 10
318.75
 20
49
 11
318.75
 21
58
  0
LINE
  8
0
 10
318.75
 20
58
 11
309.75
 21
58
  0
LINE
  8
0
 10
309.75
 20
58
 11
309.75
 21
56.5
  0
LINE
  8
0
 10
309.75
 20
56.5
 11
302.25
 21
56.5
  0
LINE
  8
0
 10
302.25
 20
56.5
 11
302.25
 21
41.5
  0
LINE
  8
0
 10
302.25
 20
41.5
 11
317.25
 21
41.5
  0
LINE
  8
0
 10
317.25
 20
41.5
 11
317.25
 21
49
  0
LINE
  8
0
 10
309.436
 20
46.0164
 11
308.823
 21
46.1468
  0
LINE
  8
0
 10
308.823
 20
46.1468
 11
308.25
 21
46.4019
  0
LINE
  8
0
 10
308.25
 20
46.4019
 11
307.743
 21
46.7706
  0
LINE
  8
0
 10
307.743
 20
46.7706
 11
307.323
 21
47.2366
  0
LINE
  8
0
 10
307.323
 20
47.2366
 11
307.009
 21
47.7798
  0
LINE
  8
0
 10
307.009
 20
47.7798
 11
306.816
 21
48.3763
  0
LINE
  8
0
 10
306.816
 20
48.3763
 11
306.75
 21
49
  0
LINE
  8
0
 10
306.75
 20
49
 11
306.816
 21
49.6237
  0
LINE
  8
0
 10
306.816
 20
49.6237
 11
307.009
 21
50.2202
  0
LINE
  8
0
 10
307.009
 20
50.2202
 11
307.323
 21
50.7634
  0
LINE
  8
0
 10
307.323
 20
50.7634
 11
307.743
 21
51.2294
  0
LINE
  8
0
 10
307.743
 20
51.2294
 11
308.25
 21
51.5981
  0
LINE
  8
0
 10
308.25
 20
51.5981
 11
308.823
 21
51.8532
  0
LINE
  8
0
 10
308.823
 20
51.8532
 11
309.436
 21
51.9836
  0
LINE
  8
0
 10
309.436
 20
51.9836
 11
310.064
 21
51.9836
  0
LINE
  8
0
 10
310.064
 20
51.9836
 11
310.677
 21
51.8532
  0
LINE
  8
0
 10
310.677
 20
51.8532
 11
311.25
 21
51.5981
  0
LINE
  8
0
 10
311.25
 20
51.5981
 11
311.757
 21
51.2294
  0
LINE
  8
0
 10
311.757
 20
51.2294
 11
312.177
 21
50.7634
  0
LINE
  8
0
 10
312.177
 20
50.7634
 11
312.491
 21
50.2202
  0
LINE
  8
0
 10
312.491
 20
50.2202
 11
312.684
 21
49.6237
  0
LINE
  8
0
 10
312.684
 20
49.6237
 11
312.75
 21
49
  0
LINE
  8
0
 10
312.75
 20
49
 11
312.684
 21
48.3763
  0
LINE
  8
0
 10
312.684
 20
48.3763
 11
312.491
 21
47.7798
  0
LINE
  8
0
 10
312.491
 20
47.7798
 11
312.177
 21
47.2366
  0
LINE
  8
0
 10
312.177
 20
47.2366
 11
311.757
 21
46.7706
  0
LINE
  8
0
 10
311.757
 20
46.7706
 11
311.25
 21
46.4019
  0
LINE
  8
0
 10
311.25
 20
46.4019
 11
310.677
 21
46.1468
  0
LINE
  8
0
 10
310.677
 20
46.1468
 11
310.064
 21
46.0164
  0
LINE
  8
0
 10
310.064
 20
46.0164
 11
309.436
 21
46.0164
  0
LINE
  8
0
 10
283.931
 20
61.9022
 11
283.794
 21
61.9195
  0
LINE
  8
0
 10
283.794
 20
61.9195
 11
283.66
 21
61.9538
  0
LINE
  8
0
 10
283.66
 20
61.9538
 11
283.532
 21
62.0047
  0
LINE
  8
0
 10
283.532
 20
62.0047
 11
283.411
 21
62.0712
  0
LINE
  8
0
 10
283.411
 20
62.0712
 11
283.299
 21
62.1524
  0
LINE
  8
0
 10
283.299
 20
62.1524
 11
283.198
 21
62.247
  0
LINE
  8
0
 10
283.198
 20
62.247
 11
283.11
 21
62.3534
  0
LINE
  8
0
 10
283.11
 20
62.3534
 11
283.036
 21
62.4701
  0
LINE
  8
0
 10
283.036
 20
62.4701
 11
282.977
 21
62.5951
  0
LINE
  8
0
 10
282.977
 20
62.5951
 11
282.935
 21
62.7264
  0
LINE
  8
0
 10
282.935
 20
62.7264
 11
282.909
 21
62.8621
  0
LINE
  8
0
 10
282.909
 20
62.8621
 11
282.9
 21
63
  0
LINE
  8
0
 10
282.9
 20
63
 11
282.909
 21
63.1379
  0
LINE
  8
0
 10
282.909
 20
63.1379
 11
282.935
 21
63.2735
  0
LINE
  8
0
 10
282.935
 20
63.2735
 11
282.977
 21
63.4049
  0
LINE
  8
0
 10
282.977
 20
63.4049
 11
283.036
 21
63.5299
  0
LINE
  8
0
 10
283.036
 20
63.5299
 11
283.11
 21
63.6466
  0
LINE
  8
0
 10
283.11
 20
63.6466
 11
283.198
 21
63.753
  0
LINE
  8
0
 10
283.198
 20
63.753
 11
283.299
 21
63.8475
  0
LINE
  8
0
 10
283.299
 20
63.8475
 11
283.411
 21
63.9288
  0
LINE
  8
0
 10
283.411
 20
63.9288
 11
283.532
 21
63.9953
  0
LINE
  8
0
 10
283.532
 20
63.9953
 11
283.66
 21
64.0462
  0
LINE
  8
0
 10
283.66
 20
64.0462
 11
283.794
 21
64.0805
  0
LINE
  8
0
 10
283.794
 20
64.0805
 11
283.931
 21
64.0978
  0
LINE
  8
0
 10
283.931
 20
64.0978
 11
284.069
 21
64.0978
  0
LINE
  8
0
 10
284.069
 20
64.0978
 11
284.206
 21
64.0805
  0
LINE
  8
0
 10
284.206
 20
64.0805
 11
284.34
 21
64.0462
  0
LINE
  8
0
 10
284.34
 20
64.0462
 11
284.468
 21
63.9953
  0
LINE
  8
0
 10
284.468
 20
63.9953
 11
284.589
 21
63.9288
  0
LINE
  8
0
 10
284.589
 20
63.9288
 11
284.701
 21
63.8475
  0
LINE
  8
0
 10
284.701
 20
63.8475
 11
284.802
 21
63.753
  0
LINE
  8
0
 10
284.802
 20
63.753
 11
284.89
 21
63.6466
  0
LINE
  8
0
 10
284.89
 20
63.6466
 11
284.964
 21
63.5299
  0
LINE
  8
0
 10
284.964
 20
63.5299
 11
285.023
 21
63.4049
  0
LINE
  8
0
 10
285.023
 20
63.4049
 11
285.065
 21
63.2735
  0
LINE
  8
0
 10
285.065
 20
63.2735
 11
285.091
 21
63.1379
  0
LINE
  8
0
 10
285.091
 20
63.1379
 11
285.1
 21
63
  0
LINE
  8
0
 10
285.1
 20
63
 11
285.091
 21
62.8621
  0
LINE
  8
0
 10
285.091
 20
62.8621
 11
285.065
 21
62.7264
  0
LINE
  8
0
 10
285.065
 20
62.7264
 11
285.023
 21
62.5951
  0
LINE
  8
0
 10
285.023
 20
62.5951
 11
284.964
 21
62.4701
  0
LINE
  8
0
 10
284.964
 20
62.4701
 11
284.89
 21
62.3534
  0
LINE
  8
0
 10
284.89
 20
62.3534
 11
284.802
 21
62.247
  0
LINE
  8
0
 10
284.802
 20
62.247
 11
284.701
 21
62.1524
  0
LINE
  8
0
 10
284.701
 20
62.1524
 11
284.589
 21
62.0712
  0
LINE
  8
0
 10
284.589
 20
62.0712
 11
284.468
 21
62.0047
  0
LINE
  8
0
 10
284.468
 20
62.0047
 11
284.34
 21
61.9538
  0
LINE
  8
0
 10
284.34
 20
61.9538
 11
284.206
 21
61.9195
  0
LINE
  8
0
 10
284.206
 20
61.9195
 11
284.069
 21
61.9022
  0
LINE
  8
0
 10
284.069
 20
61.9022
 11
283.931
 21
61.9022
  0
LINE
  8
0
 10
335.431
 20
61.9022
 11
335.294
 21
61.9195
  0
LINE
  8
0
 10
335.294
 20
61.9195
 11
335.16
 21
61.9538
  0
LINE
  8
0
 10
335.16
 20
61.9538
 11
335.032
 21
62.0047
  0
LINE
  8
0
 10
335.032
 20
62.0047
 11
334.911
 21
62.0712
  0
LINE
  8
0
 10
334.911
 20
62.0712
 11
334.799
 21
62.1524
  0
LINE
  8
0
 10
334.799
 20
62.1524
 11
334.698
 21
62.247
  0
LINE
  8
0
 10
334.698
 20
62.247
 11
334.61
 21
62.3534
  0
LINE
  8
0
 10
334.61
 20
62.3534
 11
334.536
 21
62.4701
  0
LINE
  8
0
 10
334.536
 20
62.4701
 11
334.477
 21
62.5951
  0
LINE
  8
0
 10
334.477
 20
62.5951
 11
334.435
 21
62.7264
  0
LINE
  8
0
 10
334.435
 20
62.7264
 11
334.409
 21
62.8621
  0
LINE
  8
0
 10
334.409
 20
62.8621
 11
334.4
 21
63
  0
LINE
  8
0
 10
334.4
 20
63
 11
334.409
 21
63.1379
  0
LINE
  8
0
 10
334.409
 20
63.1379
 11
334.435
 21
63.2735
  0
LINE
  8
0
 10
334.435
 20
63.2735
 11
334.477
 21
63.4049
  0
LINE
  8
0
 10
334.477
 20
63.4049
 11
334.536
 21
63.5299
  0
LINE
  8
0
 10
334.536
 20
63.5299
 11
334.61
 21
63.6466
  0
LINE
  8
0
 10
334.61
 20
63.6466
 11
334.698
 21
63.753
  0
LINE
  8
0
 10
334.698
 20
63.753
 11
334.799
 21
63.8475
  0
LINE
  8
0
 10
334.799
 20
63.8475
 11
334.911
 21
63.9288
  0
LINE
  8
0
 10
334.911
 20
63.9288
 11
335.032
 21
63.9953
  0
LINE
  8
0
 10
335.032
 20
63.9953
 11
335.16
 21
64.0462
  0
LINE
  8
0
 10
335.16
 20
64.0462
 11
335.294
 21
64.0805
  0
LINE
  8
0
 10
335.294
 20
64.0805
 11
335.431
 21
64.0978
  0
LINE
  8
0
 10
335.431
 20
64.0978
 11
335.569
 21
64.0978
  0
LINE
  8
0
 10
335.569
 20
64.0978
 11
335.706
 21
64.0805
  0
LINE
  8
0
 10
335.706
 20
64.0805
 11
335.84
 21
64.0462
  0
LINE
  8
0
 10
335.84
 20
64.0462
 11
335.968
 21
63.9953
  0
LINE
  8
0
 10
335.968
 20
63.9953
 11
336.089
 21
63.9288
  0
LINE
  8
0
 10
336.089
 20
63.9288
 11
336.201
 21
63.8475
  0
LINE
  8
0
 10
336.201
 20
63.8475
 11
336.302
 21
63.753
  0
LINE
  8
0
 10
336.302
 20
63.753
 11
336.39
 21
63.6466
  0
LINE
  8
0
 10
336.39
 20
63.6466
 11
336.464
 21
63.5299
  0
LINE
  8
0
 10
336.464
 20
63.5299
 11
336.523
 21
63.4049
  0
LINE
  8
0
 10
336.523
 20
63.4049
 11
336.565
 21
63.2735
  0
LINE
  8
0
 10
336.565
 20
63.2735
 11
336.591
 21
63.1379
  0
LINE
  8
0
 10
336.591
 20
63.1379
 11
336.6
 21
63
  0
LINE
  8
0
 10
336.6
 20
63
 11
336.591
 21
62.8621
  0
LINE
  8
0
 10
336.591
 20
62.8621
 11
336.565
 21
62.7264
  0
LINE
  8
0
 10
336.565
 20
62.7264
 11
336.523
 21
62.5951
  0
LINE
  8
0
 10
336.523
 20
62.5951
 11
336.464
 21
62.4701
  0
LINE
  8
0
 10
336.464
 20
62.4701
 11
336.39
 21
62.3534
  0
LINE
  8
0
 10
336.39
 20
62.3534
 11
336.302
 21
62.247
  0
LINE
  8
0
 10
336.302
 20
62.247
 11
336.201
 21
62.1524
  0
LINE
  8
0
 10
336.201
 20
62.1524
 11
336.089
 21
62.0712
  0
LINE
  8
0
 10
336.089
 20
62.0712
 11
335.968
 21
62.0047
  0
LINE
  8
0
 10
335.968
 20
62.0047
 11
335.84
 21
61.9538
  0
LINE
  8
0
 10
335.84
 20
61.9538
 11
335.706
 21
61.9195
  0
LINE
  8
0
 10
335.706
 20
61.9195
 11
335.569
 21
61.9022
  0
LINE
  8
0
 10
335.569
 20
61.9022
 11
335.431
 21
61.9022
  0
LINE
  8
0
 10
283.931
 20
33.9022
 11
283.794
 21
33.9195
  0
LINE
  8
0
 10
283.794
 20
33.9195
 11
283.66
 21
33.9538
  0
LINE
  8
0
 10
283.66
 20
33.9538
 11
283.532
 21
34.0047
  0
LINE
  8
0
 10
283.532
 20
34.0047
 11
283.411
 21
34.0712
  0
LINE
  8
0
 10
283.411
 20
34.0712
 11
283.299
 21
34.1525
  0
LINE
  8
0
 10
283.299
 20
34.1525
 11
283.198
 21
34.247
  0
LINE
  8
0
 10
283.198
 20
34.247
 11
283.11
 21
34.3534
  0
LINE
  8
0
 10
283.11
 20
34.3534
 11
283.036
 21
34.4701
  0
LINE
  8
0
 10
283.036
 20
34.4701
 11
282.977
 21
34.5951
  0
LINE
  8
0
 10
282.977
 20
34.5951
 11
282.935
 21
34.7265
  0
LINE
  8
0
 10
282.935
 20
34.7265
 11
282.909
 21
34.8621
  0
LINE
  8
0
 10
282.909
 20
34.8621
 11
282.9
 21
35
  0
LINE
  8
0
 10
282.9
 20
35
 11
282.909
 21
35.1379
  0
LINE
  8
0
 10
282.909
 20
35.1379
 11
282.935
 21
35.2736
  0
LINE
  8
0
 10
282.935
 20
35.2736
 11
282.977
 21
35.4049
  0
LINE
  8
0
 10
282.977
 20
35.4049
 11
283.036
 21
35.5299
  0
LINE
  8
0
 10
283.036
 20
35.5299
 11
283.11
 21
35.6466
  0
LINE
  8
0
 10
283.11
 20
35.6466
 11
283.198
 21
35.753
  0
LINE
  8
0
 10
283.198
 20
35.753
 11
283.299
 21
35.8476
  0
LINE
  8
0
 10
283.299
 20
35.8476
 11
283.411
 21
35.9288
  0
LINE
  8
0
 10
283.411
 20
35.9288
 11
283.532
 21
35.9953
  0
LINE
  8
0
 10
283.532
 20
35.9953
 11
283.66
 21
36.0462
  0
LINE
  8
0
 10
283.66
 20
36.0462
 11
283.794
 21
36.0805
  0
LINE
  8
0
 10
283.794
 20
36.0805
 11
283.931
 21
36.0978
  0
LINE
  8
0
 10
283.931
 20
36.0978
 11
284.069
 21
36.0978
  0
LINE
  8
0
 10
284.069
 20
36.0978
 11
284.206
 21
36.0805
  0
LINE
  8
0
 10
284.206
 20
36.0805
 11
284.34
 21
36.0462
  0
LINE
  8
0
 10
284.34
 20
36.0462
 11
284.468
 21
35.9953
  0
LINE
  8
0
 10
284.468
 20
35.9953
 11
284.589
 21
35.9288
  0
LINE
  8
0
 10
284.589
 20
35.9288
 11
284.701
 21
35.8476
  0
LINE
  8
0
 10
284.701
 20
35.8476
 11
284.802
 21
35.753
  0
LINE
  8
0
 10
284.802
 20
35.753
 11
284.89
 21
35.6466
  0
LINE
  8
0
 10
284.89
 20
35.6466
 11
284.964
 21
35.5299
  0
LINE
  8
0
 10
284.964
 20
35.5299
 11
285.023
 21
35.4049
  0
LINE
  8
0
 10
285.023
 20
35.4049
 11
285.065
 21
35.2736
  0
LINE
  8
0
 10
285.065
 20
35.2736
 11
285.091
 21
35.1379
  0
LINE
  8
0
 10
285.091
 20
35.1379
 11
285.1
 21
35
  0
LINE
  8
0
 10
285.1
 20
35
 11
285.091
 21
34.8621
  0
LINE
  8
0
 10
285.091
 20
34.8621
 11
285.065
 21
34.7265
  0
LINE
  8
0
 10
285.065
 20
34.7265
 11
285.023
 21
34.5951
  0
LINE
  8
0
 10
285.023
 20
34.5951
 11
284.964
 21
34.4701
  0
LINE
  8
0
 10
284.964
 20
34.4701
 11
284.89
 21
34.3534
  0
LINE
  8
0
 10
284.89
 20
34.3534
 11
284.802
 21
34.247
  0
LINE
  8
0
 10
284.802
 20
34.247
 11
284.701
 21
34.1525
  0
LINE
  8
0
 10
284.701
 20
34.1525
 11
284.589
 21
34.0712
  0
LINE
  8
0
 10
284.589
 20
34.0712
 11
284.468
 21
34.0047
  0
LINE
  8
0
 10
284.468
 20
34.0047
 11
284.34
 21
33.9538
  0
LINE
  8
0
 10
284.34
 20
33.9538
 11
284.206
 21
33.9195
  0
LINE
  8
0
 10
284.206
 20
33.9195
 11
284.069
 21
33.9022
  0
LINE
  8
0
 10
284.069
 20
33.9022
 11
283.931
 21
33.9022
  0
LINE
  8
0
 10
335.431
 20
33.9022
 11
335.294
 21
33.9195
  0
LINE
  8
0
 10
335.294
 20
33.9195
 11
335.16
 21
33.9538
  0
LINE
  8
0
 10
335.16
 20
33.9538
 11
335.032
 21
34.0047
  0
LINE
  8
0
 10
335.032
 20
34.0047
 11
334.911
 21
34.0712
  0
LINE
  8
0
 10
334.911
 20
34.0712
 11
334.799
 21
34.1525
  0
LINE
  8
0
 10
334.799
 20
34.1525
 11
334.698
 21
34.247
  0
LINE
  8
0
 10
334.698
 20
34.247
 11
334.61
 21
34.3534
  0
LINE
  8
0
 10
334.61
 20
34.3534
 11
334.536
 21
34.4701
  0
LINE
  8
0
 10
334.536
 20
34.4701
 11
334.477
 21
34.5951
  0
LINE
  8
0
 10
334.477
 20
34.5951
 11
334.435
 21
34.7265
  0
LINE
  8
0
 10
334.435
 20
34.7265
 11
334.409
 21
34.8621
  0
LINE
  8
0
 10
334.409
 20
34.8621
 11
334.4
 21
35
  0
LINE
  8
0
 10
334.4
 20
35
 11
334.409
 21
35.1379
  0
LINE
  8
0
 10
334.409
 20
35.1379
 11
334.435
 21
35.2736
  0
LINE
  8
0
 10
334.435
 20
35.2736
 11
334.477
 21
35.4049
  0
LINE
  8
0
 10
334.477
 20
35.4049
 11
334.536
 21
35.5299
  0
LINE
  8
0
 10
334.536
 20
35.5299
 11
334.61
 21
35.6466
  0
LINE
  8
0
 10
334.61
 20
35.6466
 11
334.698
 21
35.753
  0
LINE
  8
0
 10
334.698
 20
35.753
 11
334.799
 21
35.8476
  0
LINE
  8
0
 10
334.799
 20
35.8476
 11
334.911
 21
35.9288
  0
LINE
  8
0
 10
334.911
 20
35.9288
 11
335.032
 21
35.9953
  0
LINE
  8
0
 10
335.032
 20
35.9953
 11
335.16
 21
36.0462
  0
LINE
  8
0
 10
335.16
 20
36.0462
 11
335.294
 21
36.0805
  0
LINE
  8
0
 10
335.294
 20
36.0805
 11
335.431
 21
36.0978
  0
LINE
  8
0
 10
335.431
 20
36.0978
 11
335.569
 21
36.0978
  0
LINE
  8
0
 10
335.569
 20
36.0978
 11
335.706
 21
36.0805
  0
LINE
  8
0
 10
335.706
 20
36.0805
 11
335.84
 21
36.0462
  0
LINE
  8
0
 10
335.84
 20
36.0462
 11
335.968
 21
35.9953
  0
LINE
  8
0
 10
335.968
 20
35.9953
 11
336.089
 21
35.9288
  0
LINE
  8
0
 10
336.089
 20
35.9288
 11
336.201
 21
35.8476
  0
LINE
  8
0
 10
336.201
 20
35.8476
 11
336.302
 21
35.753
  0
LINE
  8
0
 10
336.302
 20
35.753
 11
336.39
 21
35.6466
  0
LINE
  8
0
 10
336.39
 20
35.6466
 11
336.464
 21
35.5299
  0
LINE
  8
0
 10
336.464
 20
35.5299
 11
336.523
 21
35.4049
  0
LINE
  8
0
 10
336.523
 20
35.4049
 11
336.565
 21
35.2736
  0
LINE
  8
0
 10
336.565
 20
35.2736
 11
336.591
 21
35.1379
  0
LINE
  8
0
 10
336.591
 20
35.1379
 11
336.6
 21
35
  0
LINE
  8
0
 10
336.6
 20
35
 11
336.591
 21
34.8621
  0
LINE
  8
0
 10
336.591
 20
34.8621
 11
336.565
 21
34.7265
  0
LINE
  8
0
 10
336.565
 20
34.7265
 11
336.523
 21
34.5951
  0
LINE
  8
0
 10
336.523
 20
34.5951
 11
336.464
 21
34.4701
  0
LINE
  8
0
 10
336.464
 20
34.4701
 11
336.39
 21
34.3534
  0
LINE
  8
0
 10
336.39
 20
34.3534
 11
336.302
 21
34.247
  0
LINE
  8
0
 10
336.302
 20
34.247
 11
336.201
 21
34.1525
  0
LINE
  8
0
 10
336.201
 20
34.1525
 11
336.089
 21
34.0712
  0
LINE
  8
0
 10
336.089
 20
34.0712
 11
335.968
 21
34.0047
  0
LINE
  8
0
 10
335.968
 20
34.0047
 11
335.84
 21
33.9538
  0
LINE
  8
0
 10
335.84
 20
33.9538
 11
335.706
 21
33.9195
  0
LINE
  8
0
 10
335.706
 20
33.9195
 11
335.569
 21
33.9022
  0
LINE
  8
0
 10
335.569
 20
33.9022
 11
335.431
 21
33.9022
  0
LINE
  8
0
 10
154.936
 20
8.51645
 11
154.323
 21
8.64684
  0
LINE
  8
0
 10
154.323
 20
8.64684
 11
153.75
 21
8.90193
  0
LINE
  8
0
 10
153.75
 20
8.90193
 11
153.243
 21
9.27057
  0
LINE
  8
0
 10
153.243
 20
9.27057
 11
152.823
 21
9.73665
  0
LINE
  8
0
 10
152.823
 20
9.73665
 11
152.509
 21
10.2798
  0
LINE
  8
0
 10
152.509
 20
10.2798
 11
152.316
 21
10.8763
  0
LINE
  8
0
 10
152.316
 20
10.8763
 11
152.25
 21
11.5
  0
LINE
  8
0
 10
152.25
 20
11.5
 11
152.316
 21
12.1237
  0
LINE
  8
0
 10
152.316
 20
12.1237
 11
152.509
 21
12.7202
  0
LINE
  8
0
 10
152.509
 20
12.7202
 11
152.823
 21
13.2634
  0
LINE
  8
0
 10
152.823
 20
13.2634
 11
153.243
 21
13.7294
  0
LINE
  8
0
 10
153.243
 20
13.7294
 11
153.75
 21
14.0981
  0
LINE
  8
0
 10
153.75
 20
14.0981
 11
154.323
 21
14.3532
  0
LINE
  8
0
 10
154.323
 20
14.3532
 11
154.936
 21
14.4836
  0
LINE
  8
0
 10
154.936
 20
14.4836
 11
155.564
 21
14.4836
  0
LINE
  8
0
 10
155.564
 20
14.4836
 11
156.177
 21
14.3532
  0
LINE
  8
0
 10
156.177
 20
14.3532
 11
156.75
 21
14.0981
  0
LINE
  8
0
 10
156.75
 20
14.0981
 11
157.257
 21
13.7294
  0
LINE
  8
0
 10
157.257
 20
13.7294
 11
157.677
 21
13.2634
  0
LINE
  8
0
 10
157.677
 20
13.2634
 11
157.991
 21
12.7202
  0
LINE
  8
0
 10
157.991
 20
12.7202
 11
158.184
 21
12.1237
  0
LINE
  8
0
 10
158.184
 20
12.1237
 11
158.25
 21
11.5
  0
LINE
  8
0
 10
158.25
 20
11.5
 11
158.184
 21
10.8763
  0
LINE
  8
0
 10
158.184
 20
10.8763
 11
157.991
 21
10.2798
  0
LINE
  8
0
 10
157.991
 20
10.2798
 11
157.677
 21
9.73665
  0
LINE
  8
0
 10
157.677
 20
9.73665
 11
157.257
 21
9.27057
  0
LINE
  8
0
 10
157.257
 20
9.27057
 11
156.75
 21
8.90193
  0
LINE
  8
0
 10
156.75
 20
8.90193
 11
156.177
 21
8.64684
  0
LINE
  8
0
 10
156.177
 20
8.64684
 11
155.564
 21
8.51645
  0
LINE
  8
0
 10
155.564
 20
8.51645
 11
154.936
 21
8.51645
  0
LINE
  8
0
 10
383.936
 20
8.51645
 11
383.323
 21
8.64684
  0
LINE
  8
0
 10
383.323
 20
8.64684
 11
382.75
 21
8.90193
  0
LINE
  8
0
 10
382.75
 20
8.90193
 11
382.243
 21
9.27057
  0
LINE
  8
0
 10
382.243
 20
9.27057
 11
381.823
 21
9.73665
  0
LINE
  8
0
 10
381.823
 20
9.73665
 11
381.509
 21
10.2798
  0
LINE
  8
0
 10
381.509
 20
10.2798
 11
381.316
 21
10.8763
  0
LINE
  8
0
 10
381.316
 20
10.8763
 11
381.25
 21
11.5
  0
LINE
  8
0
 10
381.25
 20
11.5
 11
381.316
 21
12.1237
  0
LINE
  8
0
 10
381.316
 20
12.1237
 11
381.509
 21
12.7202
  0
LINE
  8
0
 10
381.509
 20
12.7202
 11
381.823
 21
13.2634
  0
LINE
  8
0
 10
381.823
 20
13.2634
 11
382.243
 21
13.7294
  0
LINE
  8
0
 10
382.243
 20
13.7294
 11
382.75
 21
14.0981
  0
LINE
  8
0
 10
382.75
 20
14.0981
 11
383.323
 21
14.3532
  0
LINE
  8
0
 10
383.323
 20
14.3532
 11
383.936
 21
14.4836
  0
LINE
  8
0
 10
383.936
 20
14.4836
 11
384.564
 21
14.4836
  0
LINE
  8
0
 10
384.564
 20
14.4836
 11
385.177
 21
14.3532
  0
LINE
  8
0
 10
385.177
 20
14.3532
 11
385.75
 21
14.0981
  0
LINE
  8
0
 10
385.75
 20
14.0981
 11
386.257
 21
13.7294
  0
LINE
  8
0
 10
386.257
 20
13.7294
 11
386.677
 21
13.2634
  0
LINE
  8
0
 10
386.677
 20
13.2634
 11
386.991
 21
12.7202
  0
LINE
  8
0
 10
386.991
 20
12.7202
 11
387.184
 21
12.1237
  0
LINE
  8
0
 10
387.184
 20
12.1237
 11
387.25
 21
11.5
  0
LINE
  8
0
 10
387.25
 20
11.5
 11
387.184
 21
10.8763
  0
LINE
  8
0
 10
387.184
 20
10.8763
 11
386.991
 21
10.2798
  0
LINE
  8
0
 10
386.991
 20
10.2798
 11
386.677
 21
9.73665
  0
LINE
  8
0
 10
386.677
 20
9.73665
 11
386.257
 21
9.27057
  0
LINE
  8
0
 10
386.257
 20
9.27057
 11
385.75
 21
8.90193
  0
LINE
  8
0
 10
385.75
 20
8.90193
 11
385.177
 21
8.64684
  0
LINE
  8
0
 10
385.177
 20
8.64684
 11
384.564
 21
8.51645
  0
LINE
  8
0
 10
384.564
 20
8.51645
 11
383.936
 21
8.51645
  0
LINE
  8
0
 10
-115.1
 20
-106.9
 11
-104.9
 21
-106.9
  0
LINE
  8
0
 10
-104.9
 20
-106.9
 11
-104.9
 21
-110
  0
LINE
  8
0
 10
-104.9
 20
-110
 11
-95.1
 21
-110
  0
LINE
  8
0
 10
-95.1
 20
-110
 11
-95.1
 21
-106.9
  0
LINE
  8
0
 10
-95.1
 20
-106.9
 11
-84.9
 21
-106.9
  0
LINE
  8
0
 10
-84.9
 20
-106.9
 11
-84.9
 21
-110
  0
LINE
  8
0
 10
-84.9
 20
-110
 11
-75.1
 21
-110
  0
LINE
  8
0
 10
-75.1
 20
-110
 11
-75.1
 21
-106.9
  0
LINE
  8
0
 10
-75.1
 20
-106.9
 11
-64.9
 21
-106.9
  0
LINE
  8
0
 10
-64.9
 20
-106.9
 11
-64.9
 21
-110
  0
LINE
  8
0
 10
-64.9
 20
-110
 11
-55.1
 21
-110
  0
LINE
  8
0
 10
-55.1
 20
-110
 11
-55.1
 21
-106.9
  0
LINE
  8
0
 10
-55.1
 20
-106.9
 11
-44.9
 21
-106.9
  0
LINE
  8
0
 10
-44.9
 20
-106.9
 11
-44.9
 21
-110
  0
LINE
  8
0
 10
-44.9
 20
-110
 11
-35.1
 21
-110
  0
LINE
  8
0
 10
-35.1
 20
-110
 11
-35.1
 21
-106.9
  0
LINE
  8
0
 10
-35.1
 20
-106.9
 11
-24.9
 21
-106.9
  0
LINE
  8
0
 10
-24.9
 20
-106.9
 11
-24.9
 21
-110
  0
LINE
  8
0
 10
-24.9
 20
-110
 11
-15.1
 21
-110
  0
LINE
  8
0
 10
-15.1
 20
-110
 11
-15.1
 21
-106.9
  0
LINE
  8
0
 10
-15.1
 20
-106.9
 11
-4.90001
 21
-106.9
  0
LINE
  8
0
 10
-4.90001
 20
-106.9
 11
-4.90001
 21
-110
  0
LINE
  8
0
 10
-4.90001
 20
-110
 11
4.89999
 21
-110
  0
LINE
  8
0
 10
4.89999
 20
-110
 11
4.89999
 21
-106.9
  0
LINE
  8
0
 10
4.89999
 20
-106.9
 11
15.1
 21
-106.9
  0
LINE
  8
0
 10
15.1
 20
-106.9
 11
15.1
 21
-110
  0
LINE
  8
0
 10
15.1
 20
-110
 11
24.9
 21
-110
  0
LINE
  8
0
 10
24.9
 20
-110
 11
24.9
 21
-106.9
  0
LINE
  8
0
 10
24.9
 20
-106.9
 11
35.1
 21
-106.9
  0
LINE
  8
0
 10
35.1
 20
-106.9
 11
35.1
 21
-110
  0
LINE
  8
0
 10
35.1
 20
-110
 11
44.9
 21
-110
  0
LINE
  8
0
 10
44.9
 20
-110
 11
44.9
 21
-106.9
  0
LINE
  8
0
 10
44.9
 20
-106.9
 11
55.1
 21
-106.9
  0
LINE
  8
0
 10
55.1
 20
-106.9
 11
55.1
 21
-110
  0
LINE
  8
0
 10
55.1
 20
-110
 11
64.9
 21
-110
  0
LINE
  8
0
 10
64.9
 20
-110
 11
64.9
 21
-106.9
  0
LINE
  8
0
 10
64.9
 20
-106.9
 11
75.1
 21
-106.9
  0
LINE
  8
0
 10
75.1
 20
-106.9
 11
75.1
 21
-110
  0
LINE
  8
0
 10
75.1
 20
-110
 11
84.9
 21
-110
  0
LINE
  8
0
 10
84.9
 20
-110
 11
84.9
 21
-106.9
  0
LINE
  8
0
 10
84.9
 20
-106.9
 11
95.1
 21
-106.9
  0
LINE
  8
0
 10
95.1
 20
-106.9
 11
95.1
 21
-110
  0
LINE
  8
0
 10
95.1
 20
-110
 11
104.9
 21
-110
  0
LINE
  8
0
 10
104.9
 20
-110
 11
104.9
 21
-106.9
  0
LINE
  8
0
 10
104.9
 20
-106.9
 11
115.1
 21
-106.9
  0
LINE
  8
0
 10
115.1
 20
-106.9
 11
115.1
 21
-110
  0
LINE
  8
0
 10
115.1
 20
-110
 11
125
 21
-110
  0
LINE
  8
0
 10
125
 20
-110
 11
125
 21
-100.535
  0
LINE
  8
0
 10
125
 20
-100.535
 11
121.9
 21
-100.535
  0
LINE
  8
0
 10
121.9
 20
-100.535
 11
121.9
 21
-90.7696
  0
LINE
  8
0
 10
121.9
 20
-90.7696
 11
125
 21
-90.7696
  0
LINE
  8
0
 10
125
 20
-90.7696
 11
125
 21
-81.4044
  0
LINE
  8
0
 10
125
 20
-81.4044
 11
121.9
 21
-81.4044
  0
LINE
  8
0
 10
121.9
 20
-81.4044
 11
121.9
 21
-71.6391
  0
LINE
  8
0
 10
121.9
 20
-71.6391
 11
125
 21
-71.6391
  0
LINE
  8
0
 10
125
 20
-71.6391
 11
125
 21
-62.2739
  0
LINE
  8
0
 10
125
 20
-62.2739
 11
121.9
 21
-62.2739
  0
LINE
  8
0
 10
121.9
 20
-62.2739
 11
121.9
 21
-52.5087
  0
LINE
  8
0
 10
121.9
 20
-52.5087
 11
125
 21
-52.5087
  0
LINE
  8
0
 10
125
 20
-52.5087
 11
125
 21
-43.1435
  0
LINE
  8
0
 10
125
 20
-43.1435
 11
121.9
 21
-43.1435
  0
LINE
  8
0
 10
121.9
 20
-43.1435
 11
121.9
 21
-33.3783
  0
LINE
  8
0
 10
121.9
 20
-33.3783
 11
125
 21
-33.3783
  0
LINE
  8
0
 10
125
 20
-33.3783
 11
125
 21
-24.013
  0
LINE
  8
0
 10
125
 20
-24.013
 11
121.9
 21
-24.013
  0
LINE
  8
0
 10
121.9
 20
-24.013
 11
121.9
 21
-14.2478
  0
LINE
  8
0
 10
121.9
 20
-14.2478
 11
125
 21
-14.2478
  0
LINE
  8
0
 10
125
 20
-14.2478
 11
125
 21
-10
  0
LINE
  8
0
 10
125
 20
-10
 11
140
 21
-10
  0
LINE
  8
0
 10
140
 20
-10
 11
140
 21
10
  0
LINE
  8
0
 10
140
 20
10
 11
125
 21
10
  0
LINE
  8
0
 10
125
 20
10
 11
125
 21
14.2478
  0
LINE
  8
0
 10
125
 20
14.2478
 11
121.9
 21
14.2478
  0
LINE
  8
0
 10
121.9
 20
14.2478
 11
121.9
 21
24.013
  0
LINE
  8
0
 10
121.9
 20
24.013
 11
125
 21
24.013
  0
LINE
  8
0
 10
125
 20
24.013
 11
125
 21
33.3783
  0
LINE
  8
0
 10
125
 20
33.3783
 11
121.9
 21
33.3783
  0
LINE
  8
0
 10
121.9
 20
33.3783
 11
121.9
 21
43.1435
  0
LINE
  8
0
 10
121.9
 20
43.1435
 11
125
 21
43.1435
  0
LINE
  8
0
 10
125
 20
43.1435
 11
125
 21
52.5087
  0
LINE
  8
0
 10
125
 20
52.5087
 11
121.9
 21
52.5087
  0
LINE
  8
0
 10
121.9
 20
52.5087
 11
121.9
 21
62.2739
  0
LINE
  8
0
 10
121.9
 20
62.2739
 11
125
 21
62.2739
  0
LINE
  8
0
 10
125
 20
62.2739
 11
125
 21
71.6391
  0
LINE
  8
0
 10
125
 20
71.6391
 11
121.9
 21
71.6391
  0
LINE
  8
0
 10
121.9
 20
71.6391
 11
121.9
 21
81.4043
  0
LINE
  8
0
 10
121.9
 20
81.4043
 11
125
 21
81.4043
  0
LINE
  8
0
 10
125
 20
81.4043
 11
125
 21
90.7696
  0
LINE
  8
0
 10
125
 20
90.7696
 11
121.9
 21
90.7696
  0
LINE
  8
0
 10
121.9
 20
90.7696
 11
121.9
 21
100.535
  0
LINE
  8
0
 10
121.9
 20
100.535
 11
125
 21
100.535
  0
LINE
  8
0
 10
125
 20
100.535
 11
125
 21
110
  0
LINE
  8
0
 10
125
 20
110
 11
115.1
 21
110
  0
LINE
  8
0
 10
115.1
 20
110
 11
115.1
 21
106.9
  0
LINE
  8
0
 10
115.1
 20
106.9
 11
104.9
 21
106.9
  0
LINE
  8
0
 10
104.9
 20
106.9
 11
104.9
 21
110
  0
LINE
  8
0
 10
104.9
 20
110
 11
95.1
 21
110
  0
LINE
  8
0
 10
95.1
 20
110
 11
95.1
 21
106.9
  0
LINE
  8
0
 10
95.1
 20
106.9
 11
84.9
 21
106.9
  0
LINE
  8
0
 10
84.9
 20
106.9
 11
84.9
 21
110
  0
LINE
  8
0
 10
84.9
 20
110
 11
75.1
 21
110
  0
LINE
  8
0
 10
75.1
 20
110
 11
75.1
 21
106.9
  0
LINE
  8
0
 10
75.1
 20
106.9
 11
64.9
 21
106.9
  0
LINE
  8
0
 10
64.9
 20
106.9
 11
64.9
 21
110
  0
LINE
  8
0
 10
64.9
 20
110
 11
55.1
 21
110
  0
LINE
  8
0
 10
55.1
 20
110
 11
55.1
 21
106.9
  0
LINE
  8
0
 10
55.1
 20
106.9
 11
44.9
 21
106.9
  0
LINE
  8
0
 10
44.9
 20
106.9
 11
44.9
 21
110
  0
LINE
  8
0
 10
44.9
 20
110
 11
35.1
 21
110
  0
LINE
  8
0
 10
35.1
 20
110
 11
35.1
 21
106.9
  0
LINE
  8
0
 10
35.1
 20
106.9
 11
24.9
 21
106.9
  0
LINE
  8
0
 10
24.9
 20
106.9
 11
24.9
 21
110
  0
LINE
  8
0
 10
24.9
 20
110
 11
15.1
 21
110
  0
LINE
  8
0
 10
15.1
 20
110
 11
15.1
 21
106.9
  0
LINE
  8
0
 10
15.1
 20
106.9
 11
4.89999
 21
106.9
  0
LINE
  8
0
 10
4.89999
 20
106.9
 11
4.89999
 21
110
  0
LINE
  8
0
 10
4.89999
 20
110
 11
-4.90001
 21
110
  0
LINE
  8
0
 10
-4.90001
 20
110
 11
-4.90001
 21
106.9
  0
LINE
  8
0
 10
-4.90001
 20
106.9
 11
-15.1
 21
106.9
  0
LINE
  8
0
 10
-15.1
 20
106.9
 11
-15.1
 21
110
  0
LINE
  8
0
 10
-15.1
 20
110
 11
-24.9
 21
110
  0
LINE
  8
0
 10
-24.9
 20
110
 11
-24.9
 21
106.9
  0
LINE
  8
0
 10
-24.9
 20
106.9
 11
-35.1
 21
106.9
  0
LINE
  8
0
 10
-35.1
 20
106.9
 11
-35.1
 21
110
  0
LINE
  8
0
 10
-35.1
 20
110
 11
-44.9
 21
110
  0
LINE
  8
0
 10
-44.9
 20
110
 11
-44.9
 21
106.9
  0
LINE
  8
0
 10
-44.9
 20
106.9
 11
-55.1
 21
106.9
  0
LINE
  8
0
 10
-55.1
 20
106.9
 11
-55.1
 21
110
  0
LINE
  8
0
 10
-55.1
 20
110
 11
-64.9
 21
110
  0
LINE
  8
0
 10
-64.9
 20
110
 11
-64.9
 21
106.9
  0
LINE
  8
0
 10
-64.9
 20
106.9
 11
-75.1
 21
106.9
  0
LINE
  8
0
 10
-75.1
 20
106.9
 11
-75.1
 21
110
  0
LINE
  8
0
 10
-75.1
 20
110
 11
-84.9
 21
110
  0
LINE
  8
0
 10
-84.9
 20
110
 11
-84.9
 21
106.9
  0
LINE
  8
0
 10
-84.9
 20
106.9
 11
-95.1
 21
106.9
  0
LINE
  8
0
 10
-95.1
 20
106.9
 11
-95.1
 21
110
  0
LINE
  8
0
 10
-95.1
 20
110
 11
-104.9
 21
110
  0
LINE
  8
0
 10
-104.9
 20
110
 11
-104.9
 21
106.9
  0
LINE
  8
0
 10
-104.9
 20
106.9
 11
-115.1
 21
106.9
  0
LINE
  8
0
 10
-115.1
 20
106.9
 11
-115.1
 21
110
  0
LINE
  8
0
 10
-115.1
 20
110
 11
-125
 21
110
  0
LINE
  8
0
 10
-125
 20
110
 11
-125
 21
100.535
  0
LINE
  8
0
 10
-125
 20
100.535
 11
-121.9
 21
100.535
  0
LINE
  8
0
 10
-121.9
 20
100.535
 11
-121.9
 21
90.7696
  0
LINE
  8
0
 10
-121.9
 20
90.7696
 11
-125
 21
90.7696
  0
LINE
  8
0
 10
-125
 20
90.7696
 11
-125
 21
81.4043
  0
LINE
  8
0
 10
-125
 20
81.4043
 11
-121.9
 21
81.4043
  0
LINE
  8
0
 10
-121.9
 20
81.4043
 11
-121.9
 21
71.6391
  0
LINE
  8
0
 10
-121.9
 20
71.6391
 11
-125
 21
71.6391
  0
LINE
  8
0
 10
-125
 20
71.6391
 11
-125
 21
62.2739
  0
LINE
  8
0
 10
-125
 20
62.2739
 11
-121.9
 21
62.2739
  0
LINE
  8
0
 10
-121.9
 20
62.2739
 11
-121.9
 21
52.5087
  0
LINE
  8
0
 10
-121.9
 20
52.5087
 11
-125
 21
52.5087
  0
LINE
  8
0
 10
-125
 20
52.5087
 11
-125
 21
43.1435
  0
LINE
  8
0
 10
-125
 20
43.1435
 11
-121.9
 21
43.1435
  0
LINE
  8
0
 10
-121.9
 20
43.1435
 11
-121.9
 21
33.3783
  0
LINE
  8
0
 10
-121.9
 20
33.3783
 11
-125
 21
33.3783
  0
LINE
  8
0
 10
-125
 20
33.3783
 11
-125
 21
24.013
  0
LINE
  8
0
 10
-125
 20
24.013
 11
-121.9
 21
24.013
  0
LINE
  8
0
 10
-121.9
 20
24.013
 11
-121.9
 21
14.2478
  0
LINE
  8
0
 10
-121.9
 20
14.2478
 11
-125
 21
14.2478
  0
LINE
  8
0
 10
-125
 20
14.2478
 11
-125
 21
10
  0
LINE
  8
0
 10
-125
 20
10
 11
-140
 21
10
  0
LINE
  8
0
 10
-140
 20
10
 11
-140
 21
-10
  0
LINE
  8
0
 10
-140
 20
-10
 11
-125
 21
-10
  0
LINE
  8
0
 10
-125
 20
-10
 11
-125
 21
-14.2478
  0
LINE
  8
0
 10
-125
 20
-14.2478
 11
-121.9
 21
-14.2478
  0
LINE
  8
0
 10
-121.9
 20
-14.2478
 11
-121.9
 21
-24.013
  0
LINE
  8
0
 10
-121.9
 20
-24.013
 11
-125
 21
-24.013
  0
LINE
  8
0
 10
-125
 20
-24.013
 11
-125
 21
-33.3783
  0
LINE
  8
0
 10
-125
 20
-33.3783
 11
-121.9
 21
-33.3783
  0
LINE
  8
0
 10
-121.9
 20
-33.3783
 11
-121.9
 21
-43.1435
  0
LINE
  8
0
 10
-121.9
 20
-43.1435
 11
-125
 21
-43.1435
  0
LINE
  8
0
 10
-125
 20
-43.1435
 11
-125
 21
-52.5087
  0
LINE
  8
0
 10
-125
 20
-52.5087
 11
-121.9
 21
-52.5087
  0
LINE
  8
0
 10
-121.9
 20
-52.5087
 11
-121.9
 21
-62.2739
  0
LINE
  8
0
 10
-121.9
 20
-62.2739
 11
-125
 21
-62.2739
  0
LINE
  8
0
 10
-125
 20
-62.2739
 11
-125
 21
-71.6391
  0
LINE
  8
0
 10
-125
 20
-71.6391
 11
-121.9
 21
-71.6391
  0
LINE
  8
0
 10
-121.9
 20
-71.6391
 11
-121.9
 21
-81.4044
  0
LINE
  8
0
 10
-121.9
 20
-81.4044
 11
-125
 21
-81.4044
  0
LINE
  8
0
 10
-125
 20
-81.4044
 11
-125
 21
-90.7696
  0
LINE
  8
0
 10
-125
 20
-90.7696
 11
-121.9
 21
-90.7696
  0
LINE
  8
0
 10
-121.9
 20
-90.7696
 11
-121.9
 21
-100.535
  0
LINE
  8
0
 10
-121.9
 20
-100.535
 11
-125
 21
-100.535
  0
LINE
  8
0
 10
-125
 20
-100.535
 11
-125
 21
-110
  0
LINE
  8
0
 10
-125
 20
-110
 11
-115.1
 21
-110
  0
LINE
  8
0
 10
-115.1
 20
-110
 11
-115.1
 21
-106.9
  0
LINE
  8
0
 10
7.36374
 20
93.0612
 11
7.01527
 21
93.2387
  0
LINE
  8
0
 10
7.01527
 20
93.2387
 11
6.73874
 21
93.5153
  0
LINE
  8
0
 10
6.73874
 20
93.5153
 11
6.56119
 21
93.8637
  0
LINE
  8
0
 10
6.56119
 20
93.8637
 11
6.5
 21
94.25
  0
LINE
  8
0
 10
6.5
 20
94.25
 11
6.56119
 21
94.6363
  0
LINE
  8
0
 10
6.56119
 20
94.6363
 11
6.73874
 21
94.9847
  0
LINE
  8
0
 10
6.73874
 20
94.9847
 11
7.01527
 21
95.2613
  0
LINE
  8
0
 10
7.01527
 20
95.2613
 11
7.36374
 21
95.4388
  0
LINE
  8
0
 10
7.36374
 20
95.4388
 11
7.75
 21
95.5
  0
LINE
  8
0
 10
7.75
 20
95.5
 11
8.13628
 21
95.4388
  0
LINE
  8
0
 10
8.13628
 20
95.4388
 11
8.48474
 21
95.2613
  0
LINE
  8
0
 10
8.48474
 20
95.2613
 11
8.76128
 21
94.9847
  0
LINE
  8
0
 10
8.76128
 20
94.9847
 11
8.93883
 21
94.6363
  0
LINE
  8
0
 10
8.93883
 20
94.6363
 11
9
 21
94.25
  0
LINE
  8
0
 10
9
 20
94.25
 11
8.93883
 21
93.8637
  0
LINE
  8
0
 10
8.93883
 20
93.8637
 11
8.76128
 21
93.5153
  0
LINE
  8
0
 10
8.76128
 20
93.5153
 11
8.48474
 21
93.2387
  0
LINE
  8
0
 10
8.48474
 20
93.2387
 11
8.13628
 21
93.0612
  0
LINE
  8
0
 10
8.13628
 20
93.0612
 11
7.75
 21
93
  0
LINE
  8
0
 10
7.75
 20
93
 11
7.36374
 21
93.0612
  0
LINE
  8
0
 10
71.8637
 20
93.0612
 11
71.5153
 21
93.2387
  0
LINE
  8
0
 10
71.5153
 20
93.2387
 11
71.2387
 21
93.5153
  0
LINE
  8
0
 10
71.2387
 20
93.5153
 11
71.0612
 21
93.8637
  0
LINE
  8
0
 10
71.0612
 20
93.8637
 11
71
 21
94.25
  0
LINE
  8
0
 10
71
 20
94.25
 11
71.0612
 21
94.6363
  0
LINE
  8
0
 10
71.0612
 20
94.6363
 11
71.2387
 21
94.9847
  0
LINE
  8
0
 10
71.2387
 20
94.9847
 11
71.5153
 21
95.2613
  0
LINE
  8
0
 10
71.5153
 20
95.2613
 11
71.8637
 21
95.4388
  0
LINE
  8
0
 10
71.8637
 20
95.4388
 11
72.25
 21
95.5
  0
LINE
  8
0
 10
72.25
 20
95.5
 11
72.6363
 21
95.4388
  0
LINE
  8
0
 10
72.6363
 20
95.4388
 11
72.9847
 21
95.2613
  0
LINE
  8
0
 10
72.9847
 20
95.2613
 11
73.2613
 21
94.9847
  0
LINE
  8
0
 10
73.2613
 20
94.9847
 11
73.4388
 21
94.6363
  0
LINE
  8
0
 10
73.4388
 20
94.6363
 11
73.5
 21
94.25
  0
LINE
  8
0
 10
73.5
 20
94.25
 11
73.4388
 21
93.8637
  0
LINE
  8
0
 10
73.4388
 20
93.8637
 11
73.2613
 21
93.5153
  0
LINE
  8
0
 10
73.2613
 20
93.5153
 11
72.9847
 21
93.2387
  0
LINE
  8
0
 10
72.9847
 20
93.2387
 11
72.6363
 21
93.0612
  0
LINE
  8
0
 10
72.6363
 20
93.0612
 11
72.25
 21
93
  0
LINE
  8
0
 10
72.25
 20
93
 11
71.8637
 21
93.0612
  0
LINE
  8
0
 10
-48.8863
 20
91.8112
 11
-49.2347
 21
91.9887
  0
LINE
  8
0
 10
-49.2347
 20
91.9887
 11
-49.5113
 21
92.2653
  0
LINE
  8
0
 10
-49.5113
 20
92.2653
 11
-49.6888
 21
92.6137
  0
LINE
  8
0
 10
-49.6888
 20
92.6137
 11
-49.75
 21
93
  0
LINE
  8
0
 10
-49.75
 20
93
 11
-49.6888
 21
93.3863
  0
LINE
  8
0
 10
-49.6888
 20
93.3863
 11
-49.5113
 21
93.7347
  0
LINE
  8
0
 10
-49.5113
 20
93.7347
 11
-49.2347
 21
94.0113
  0
LINE
  8
0
 10
-49.2347
 20
94.0113
 11
-48.8863
 21
94.1888
  0
LINE
  8
0
 10
-48.8863
 20
94.1888
 11
-48.5
 21
94.25
  0
LINE
  8
0
 10
-48.5
 20
94.25
 11
-48.1137
 21
94.1888
  0
LINE
  8
0
 10
-48.1137
 20
94.1888
 11
-47.7653
 21
94.0113
  0
LINE
  8
0
 10
-47.7653
 20
94.0113
 11
-47.4887
 21
93.7347
  0
LINE
  8
0
 10
-47.4887
 20
93.7347
 11
-47.3112
 21
93.3863
  0
LINE
  8
0
 10
-47.3112
 20
93.3863
 11
-47.25
 21
93
  0
LINE
  8
0
 10
-47.25
 20
93
 11
-47.3112
 21
92.6137
  0
LINE
  8
0
 10
-47.3112
 20
92.6137
 11
-47.4887
 21
92.2653
  0
LINE
  8
0
 10
-47.4887
 20
92.2653
 11
-47.7653
 21
91.9887
  0
LINE
  8
0
 10
-47.7653
 20
91.9887
 11
-48.1137
 21
91.8112
  0
LINE
  8
0
 10
-48.1137
 20
91.8112
 11
-48.5
 21
91.75
  0
LINE
  8
0
 10
-48.5
 20
91.75
 11
-48.8863
 21
91.8112
  0
LINE
  8
0
 10
-91.8863
 20
91.8112
 11
-92.2347
 21
91.9887
  0
LINE
  8
0
 10
-92.2347
 20
91.9887
 11
-92.5113
 21
92.2653
  0
LINE
  8
0
 10
-92.5113
 20
92.2653
 11
-92.6888
 21
92.6137
  0
LINE
  8
0
 10
-92.6888
 20
92.6137
 11
-92.75
 21
93
  0
LINE
  8
0
 10
-92.75
 20
93
 11
-92.6888
 21
93.3863
  0
LINE
  8
0
 10
-92.6888
 20
93.3863
 11
-92.5113
 21
93.7347
  0
LINE
  8
0
 10
-92.5113
 20
93.7347
 11
-92.2347
 21
94.0113
  0
LINE
  8
0
 10
-92.2347
 20
94.0113
 11
-91.8863
 21
94.1888
  0
LINE
  8
0
 10
-91.8863
 20
94.1888
 11
-91.5
 21
94.25
  0
LINE
  8
0
 10
-91.5
 20
94.25
 11
-91.1137
 21
94.1888
  0
LINE
  8
0
 10
-91.1137
 20
94.1888
 11
-90.7653
 21
94.0113
  0
LINE
  8
0
 10
-90.7653
 20
94.0113
 11
-90.4887
 21
93.7347
  0
LINE
  8
0
 10
-90.4887
 20
93.7347
 11
-90.3112
 21
93.3863
  0
LINE
  8
0
 10
-90.3112
 20
93.3863
 11
-90.25
 21
93
  0
LINE
  8
0
 10
-90.25
 20
93
 11
-90.3112
 21
92.6137
  0
LINE
  8
0
 10
-90.3112
 20
92.6137
 11
-90.4887
 21
92.2653
  0
LINE
  8
0
 10
-90.4887
 20
92.2653
 11
-90.7653
 21
91.9887
  0
LINE
  8
0
 10
-90.7653
 20
91.9887
 11
-91.1137
 21
91.8112
  0
LINE
  8
0
 10
-91.1137
 20
91.8112
 11
-91.5
 21
91.75
  0
LINE
  8
0
 10
-91.5
 20
91.75
 11
-91.8863
 21
91.8112
  0
LINE
  8
0
 10
92.8637
 20
81.8112
 11
92.5153
 21
81.9887
  0
LINE
  8
0
 10
92.5153
 20
81.9887
 11
92.2387
 21
82.2653
  0
LINE
  8
0
 10
92.2387
 20
82.2653
 11
92.0612
 21
82.6137
  0
LINE
  8
0
 10
92.0612
 20
82.6137
 11
92
 21
83
  0
LINE
  8
0
 10
92
 20
83
 11
92.0612
 21
83.3863
  0
LINE
  8
0
 10
92.0612
 20
83.3863
 11
92.2387
 21
83.7347
  0
LINE
  8
0
 10
92.2387
 20
83.7347
 11
92.5153
 21
84.0113
  0
LINE
  8
0
 10
92.5153
 20
84.0113
 11
92.8637
 21
84.1888
  0
LINE
  8
0
 10
92.8637
 20
84.1888
 11
93.25
 21
84.25
  0
LINE
  8
0
 10
93.25
 20
84.25
 11
93.6363
 21
84.1888
  0
LINE
  8
0
 10
93.6363
 20
84.1888
 11
93.9847
 21
84.0113
  0
LINE
  8
0
 10
93.9847
 20
84.0113
 11
94.2613
 21
83.7347
  0
LINE
  8
0
 10
94.2613
 20
83.7347
 11
94.4388
 21
83.3863
  0
LINE
  8
0
 10
94.4388
 20
83.3863
 11
94.5
 21
83
  0
LINE
  8
0
 10
94.5
 20
83
 11
94.4388
 21
82.6137
  0
LINE
  8
0
 10
94.4388
 20
82.6137
 11
94.2613
 21
82.2653
  0
LINE
  8
0
 10
94.2613
 20
82.2653
 11
93.9847
 21
81.9887
  0
LINE
  8
0
 10
93.9847
 20
81.9887
 11
93.6363
 21
81.8112
  0
LINE
  8
0
 10
93.6363
 20
81.8112
 11
93.25
 21
81.75
  0
LINE
  8
0
 10
93.25
 20
81.75
 11
92.8637
 21
81.8112
  0
LINE
  8
0
 10
116.364
 20
81.8112
 11
116.015
 21
81.9887
  0
LINE
  8
0
 10
116.015
 20
81.9887
 11
115.739
 21
82.2653
  0
LINE
  8
0
 10
115.739
 20
82.2653
 11
115.561
 21
82.6137
  0
LINE
  8
0
 10
115.561
 20
82.6137
 11
115.5
 21
83
  0
LINE
  8
0
 10
115.5
 20
83
 11
115.561
 21
83.3863
  0
LINE
  8
0
 10
115.561
 20
83.3863
 11
115.739
 21
83.7347
  0
LINE
  8
0
 10
115.739
 20
83.7347
 11
116.015
 21
84.0113
  0
LINE
  8
0
 10
116.015
 20
84.0113
 11
116.364
 21
84.1888
  0
LINE
  8
0
 10
116.364
 20
84.1888
 11
116.75
 21
84.25
  0
LINE
  8
0
 10
116.75
 20
84.25
 11
117.136
 21
84.1888
  0
LINE
  8
0
 10
117.136
 20
84.1888
 11
117.485
 21
84.0113
  0
LINE
  8
0
 10
117.485
 20
84.0113
 11
117.761
 21
83.7347
  0
LINE
  8
0
 10
117.761
 20
83.7347
 11
117.939
 21
83.3863
  0
LINE
  8
0
 10
117.939
 20
83.3863
 11
118
 21
83
  0
LINE
  8
0
 10
118
 20
83
 11
117.939
 21
82.6137
  0
LINE
  8
0
 10
117.939
 20
82.6137
 11
117.761
 21
82.2653
  0
LINE
  8
0
 10
117.761
 20
82.2653
 11
117.485
 21
81.9887
  0
LINE
  8
0
 10
117.485
 20
81.9887
 11
117.136
 21
81.8112
  0
LINE
  8
0
 10
117.136
 20
81.8112
 11
116.75
 21
81.75
  0
LINE
  8
0
 10
116.75
 20
81.75
 11
116.364
 21
81.8112
  0
LINE
  8
0
 10
-5.03629
 20
61.8112
 11
-5.38474
 21
61.9887
  0
LINE
  8
0
 10
-5.38474
 20
61.9887
 11
-5.66129
 21
62.2653
  0
LINE
  8
0
 10
-5.66129
 20
62.2653
 11
-5.83882
 21
62.6137
  0
LINE
  8
0
 10
-5.83882
 20
62.6137
 11
-5.90001
 21
63
  0
LINE
  8
0
 10
-5.90001
 20
63
 11
-5.83882
 21
63.3863
  0
LINE
  8
0
 10
-5.83882
 20
63.3863
 11
-5.66129
 21
63.7347
  0
LINE
  8
0
 10
-5.66129
 20
63.7347
 11
-5.38474
 21
64.0113
  0
LINE
  8
0
 10
-5.38474
 20
64.0113
 11
-5.03629
 21
64.1888
  0
LINE
  8
0
 10
-5.03629
 20
64.1888
 11
-4.65001
 21
64.25
  0
LINE
  8
0
 10
-4.65001
 20
64.25
 11
-4.26373
 21
64.1888
  0
LINE
  8
0
 10
-4.26373
 20
64.1888
 11
-3.91528
 21
64.0113
  0
LINE
  8
0
 10
-3.91528
 20
64.0113
 11
-3.63873
 21
63.7347
  0
LINE
  8
0
 10
-3.63873
 20
63.7347
 11
-3.46118
 21
63.3863
  0
LINE
  8
0
 10
-3.46118
 20
63.3863
 11
-3.40001
 21
63
  0
LINE
  8
0
 10
-3.40001
 20
63
 11
-3.46118
 21
62.6137
  0
LINE
  8
0
 10
-3.46118
 20
62.6137
 11
-3.63873
 21
62.2653
  0
LINE
  8
0
 10
-3.63873
 20
62.2653
 11
-3.91528
 21
61.9887
  0
LINE
  8
0
 10
-3.91528
 20
61.9887
 11
-4.26373
 21
61.8112
  0
LINE
  8
0
 10
-4.26373
 20
61.8112
 11
-4.65001
 21
61.75
  0
LINE
  8
0
 10
-4.65001
 20
61.75
 11
-5.03629
 21
61.8112
  0
LINE
  8
0
 10
-35.7363
 20
61.8112
 11
-36.0847
 21
61.9887
  0
LINE
  8
0
 10
-36.0847
 20
61.9887
 11
-36.3613
 21
62.2653
  0
LINE
  8
0
 10
-36.3613
 20
62.2653
 11
-36.5388
 21
62.6137
  0
LINE
  8
0
 10
-36.5388
 20
62.6137
 11
-36.6
 21
63
  0
LINE
  8
0
 10
-36.6
 20
63
 11
-36.5388
 21
63.3863
  0
LINE
  8
0
 10
-36.5388
 20
63.3863
 11
-36.3613
 21
63.7347
  0
LINE
  8
0
 10
-36.3613
 20
63.7347
 11
-36.0847
 21
64.0113
  0
LINE
  8
0
 10
-36.0847
 20
64.0113
 11
-35.7363
 21
64.1888
  0
LINE
  8
0
 10
-35.7363
 20
64.1888
 11
-35.35
 21
64.25
  0
LINE
  8
0
 10
-35.35
 20
64.25
 11
-34.9637
 21
64.1888
  0
LINE
  8
0
 10
-34.9637
 20
64.1888
 11
-34.6153
 21
64.0113
  0
LINE
  8
0
 10
-34.6153
 20
64.0113
 11
-34.3387
 21
63.7347
  0
LINE
  8
0
 10
-34.3387
 20
63.7347
 11
-34.1612
 21
63.3863
  0
LINE
  8
0
 10
-34.1612
 20
63.3863
 11
-34.1
 21
63
  0
LINE
  8
0
 10
-34.1
 20
63
 11
-34.1612
 21
62.6137
  0
LINE
  8
0
 10
-34.1612
 20
62.6137
 11
-34.3387
 21
62.2653
  0
LINE
  8
0
 10
-34.3387
 20
62.2653
 11
-34.6153
 21
61.9887
  0
LINE
  8
0
 10
-34.6153
 20
61.9887
 11
-34.9637
 21
61.8112
  0
LINE
  8
0
 10
-34.9637
 20
61.8112
 11
-35.35
 21
61.75
  0
LINE
  8
0
 10
-35.35
 20
61.75
 11
-35.7363
 21
61.8112
  0
LINE
  8
0
 10
116.364
 20
45.8112
 11
116.015
 21
45.9887
  0
LINE
  8
0
 10
116.015
 20
45.9887
 11
115.739
 21
46.2653
  0
LINE
  8
0
 10
115.739
 20
46.2653
 11
115.561
 21
46.6137
  0
LINE
  8
0
 10
115.561
 20
46.6137
 11
115.5
 21
47
  0
LINE
  8
0
 10
115.5
 20
47
 11
115.561
 21
47.3863
  0
LINE
  8
0
 10
115.561
 20
47.3863
 11
115.739
 21
47.7347
  0
LINE
  8
0
 10
115.739
 20
47.7347
 11
116.015
 21
48.0113
  0
LINE
  8
0
 10
116.015
 20
48.0113
 11
116.364
 21
48.1888
  0
LINE
  8
0
 10
116.364
 20
48.1888
 11
116.75
 21
48.25
  0
LINE
  8
0
 10
116.75
 20
48.25
 11
117.136
 21
48.1888
  0
LINE
  8
0
 10
117.136
 20
48.1888
 11
117.485
 21
48.0113
  0
LINE
  8
0
 10
117.485
 20
48.0113
 11
117.761
 21
47.7347
  0
LINE
  8
0
 10
117.761
 20
47.7347
 11
117.939
 21
47.3863
  0
LINE
  8
0
 10
117.939
 20
47.3863
 11
118
 21
47
  0
LINE
  8
0
 10
118
 20
47
 11
117.939
 21
46.6137
  0
LINE
  8
0
 10
117.939
 20
46.6137
 11
117.761
 21
46.2653
  0
LINE
  8
0
 10
117.761
 20
46.2653
 11
117.485
 21
45.9887
  0
LINE
  8
0
 10
117.485
 20
45.9887
 11
117.136
 21
45.8112
  0
LINE
  8
0
 10
117.136
 20
45.8112
 11
116.75
 21
45.75
  0
LINE
  8
0
 10
116.75
 20
45.75
 11
116.364
 21
45.8112
  0
LINE
  8
0
 10
92.8637
 20
45.8112
 11
92.5153
 21
45.9887
  0
LINE
  8
0
 10
92.5153
 20
45.9887
 11
92.2387
 21
46.2653
  0
LINE
  8
0
 10
92.2387
 20
46.2653
 11
92.0612
 21
46.6137
  0
LINE
  8
0
 10
92.0612
 20
46.6137
 11
92
 21
47
  0
LINE
  8
0
 10
92
 20
47
 11
92.0612
 21
47.3863
  0
LINE
  8
0
 10
92.0612
 20
47.3863
 11
92.2387
 21
47.7347
  0
LINE
  8
0
 10
92.2387
 20
47.7347
 11
92.5153
 21
48.0113
  0
LINE
  8
0
 10
92.5153
 20
48.0113
 11
92.8637
 21
48.1888
  0
LINE
  8
0
 10
92.8637
 20
48.1888
 11
93.25
 21
48.25
  0
LINE
  8
0
 10
93.25
 20
48.25
 11
93.6363
 21
48.1888
  0
LINE
  8
0
 10
93.6363
 20
48.1888
 11
93.9847
 21
48.0113
  0
LINE
  8
0
 10
93.9847
 20
48.0113
 11
94.2613
 21
47.7347
  0
LINE
  8
0
 10
94.2613
 20
47.7347
 11
94.4388
 21
47.3863
  0
LINE
  8
0
 10
94.4388
 20
47.3863
 11
94.5
 21
47
  0
LINE
  8
0
 10
94.5
 20
47
 11
94.4388
 21
46.6137
  0
LINE
  8
0
 10
94.4388
 20
46.6137
 11
94.2613
 21
46.2653
  0
LINE
  8
0
 10
94.2613
 20
46.2653
 11
93.9847
 21
45.9887
  0
LINE
  8
0
 10
93.9847
 20
45.9887
 11
93.6363
 21
45.8112
  0
LINE
  8
0
 10
93.6363
 20
45.8112
 11
93.25
 21
45.75
  0
LINE
  8
0
 10
93.25
 20
45.75
 11
92.8637
 21
45.8112
  0
LINE
  8
0
 10
7.36374
 20
34.5612
 11
7.01527
 21
34.7387
  0
LINE
  8
0
 10
7.01527
 20
34.7387
 11
6.73874
 21
35.0153
  0
LINE
  8
0
 10
6.73874
 20
35.0153
 11
6.56119
 21
35.3637
  0
LINE
  8
0
 10
6.56119
 20
35.3637
 11
6.5
 21
35.75
  0
LINE
  8
0
 10
6.5
 20
35.75
 11
6.56119
 21
36.1363
  0
LINE
  8
0
 10
6.56119
 20
36.1363
 11
6.73874
 21
36.4847
  0
LINE
  8
0
 10
6.73874
 20
36.4847
 11
7.01527
 21
36.7613
  0
LINE
  8
0
 10
7.01527
 20
36.7613
 11
7.36374
 21
36.9388
  0
LINE
  8
0
 10
7.36374
 20
36.9388
 11
7.75
 21
37
  0
LINE
  8
0
 10
7.75
 20
37
 11
8.13628
 21
36.9388
  0
LINE
  8
0
 10
8.13628
 20
36.9388
 11
8.48474
 21
36.7613
  0
LINE
  8
0
 10
8.48474
 20
36.7613
 11
8.76128
 21
36.4847
  0
LINE
  8
0
 10
8.76128
 20
36.4847
 11
8.93883
 21
36.1363
  0
LINE
  8
0
 10
8.93883
 20
36.1363
 11
9
 21
35.75
  0
LINE
  8
0
 10
9
 20
35.75
 11
8.93883
 21
35.3637
  0
LINE
  8
0
 10
8.93883
 20
35.3637
 11
8.76128
 21
35.0153
  0
LINE
  8
0
 10
8.76128
 20
35.0153
 11
8.48474
 21
34.7387
  0
LINE
  8
0
 10
8.48474
 20
34.7387
 11
8.13628
 21
34.5612
  0
LINE
  8
0
 10
8.13628
 20
34.5612
 11
7.75
 21
34.5
  0
LINE
  8
0
 10
7.75
 20
34.5
 11
7.36374
 21
34.5612
  0
LINE
  8
0
 10
71.8637
 20
34.5612
 11
71.5153
 21
34.7387
  0
LINE
  8
0
 10
71.5153
 20
34.7387
 11
71.2387
 21
35.0153
  0
LINE
  8
0
 10
71.2387
 20
35.0153
 11
71.0612
 21
35.3637
  0
LINE
  8
0
 10
71.0612
 20
35.3637
 11
71
 21
35.75
  0
LINE
  8
0
 10
71
 20
35.75
 11
71.0612
 21
36.1363
  0
LINE
  8
0
 10
71.0612
 20
36.1363
 11
71.2387
 21
36.4847
  0
LINE
  8
0
 10
71.2387
 20
36.4847
 11
71.5153
 21
36.7613
  0
LINE
  8
0
 10
71.5153
 20
36.7613
 11
71.8637
 21
36.9388
  0
LINE
  8
0
 10
71.8637
 20
36.9388
 11
72.25
 21
37
  0
LINE
  8
0
 10
72.25
 20
37
 11
72.6363
 21
36.9388
  0
LINE
  8
0
 10
72.6363
 20
36.9388
 11
72.9847
 21
36.7613
  0
LINE
  8
0
 10
72.9847
 20
36.7613
 11
73.2613
 21
36.4847
  0
LINE
  8
0
 10
73.2613
 20
36.4847
 11
73.4388
 21
36.1363
  0
LINE
  8
0
 10
73.4388
 20
36.1363
 11
73.5
 21
35.75
  0
LINE
  8
0
 10
73.5
 20
35.75
 11
73.4388
 21
35.3637
  0
LINE
  8
0
 10
73.4388
 20
35.3637
 11
73.2613
 21
35.0153
  0
LINE
  8
0
 10
73.2613
 20
35.0153
 11
72.9847
 21
34.7387
  0
LINE
  8
0
 10
72.9847
 20
34.7387
 11
72.6363
 21
34.5612
  0
LINE
  8
0
 10
72.6363
 20
34.5612
 11
72.25
 21
34.5
  0
LINE
  8
0
 10
72.25
 20
34.5
 11
71.8637
 21
34.5612
  0
LINE
  8
0
 10
75.1137
 20
19.9112
 11
74.7653
 21
20.0887
  0
LINE
  8
0
 10
74.7653
 20
20.0887
 11
74.4887
 21
20.3652
  0
LINE
  8
0
 10
74.4887
 20
20.3652
 11
74.3112
 21
20.7137
  0
LINE
  8
0
 10
74.3112
 20
20.7137
 11
74.25
 21
21.1
  0
LINE
  8
0
 10
74.25
 20
21.1
 11
74.3112
 21
21.4863
  0
LINE
  8
0
 10
74.3112
 20
21.4863
 11
74.4887
 21
21.8347
  0
LINE
  8
0
 10
74.4887
 20
21.8347
 11
74.7653
 21
22.1113
  0
LINE
  8
0
 10
74.7653
 20
22.1113
 11
75.1137
 21
22.2888
  0
LINE
  8
0
 10
75.1137
 20
22.2888
 11
75.5
 21
22.35
  0
LINE
  8
0
 10
75.5
 20
22.35
 11
75.8863
 21
22.2888
  0
LINE
  8
0
 10
75.8863
 20
22.2888
 11
76.2347
 21
22.1113
  0
LINE
  8
0
 10
76.2347
 20
22.1113
 11
76.5113
 21
21.8347
  0
LINE
  8
0
 10
76.5113
 20
21.8347
 11
76.6888
 21
21.4863
  0
LINE
  8
0
 10
76.6888
 20
21.4863
 11
76.75
 21
21.1
  0
LINE
  8
0
 10
76.75
 20
21.1
 11
76.6888
 21
20.7137
  0
LINE
  8
0
 10
76.6888
 20
20.7137
 11
76.5113
 21
20.3652
  0
LINE
  8
0
 10
76.5113
 20
20.3652
 11
76.2347
 21
20.0887
  0
LINE
  8
0
 10
76.2347
 20
20.0887
 11
75.8863
 21
19.9112
  0
LINE
  8
0
 10
75.8863
 20
19.9112
 11
75.5
 21
19.85
  0
LINE
  8
0
 10
75.5
 20
19.85
 11
75.1137
 21
19.9112
  0
LINE
  8
0
 10
104.114
 20
19.9112
 11
103.765
 21
20.0887
  0
LINE
  8
0
 10
103.765
 20
20.0887
 11
103.489
 21
20.3652
  0
LINE
  8
0
 10
103.489
 20
20.3652
 11
103.311
 21
20.7137
  0
LINE
  8
0
 10
103.311
 20
20.7137
 11
103.25
 21
21.1
  0
LINE
  8
0
 10
103.25
 20
21.1
 11
103.311
 21
21.4863
  0
LINE
  8
0
 10
103.311
 20
21.4863
 11
103.489
 21
21.8347
  0
LINE
  8
0
 10
103.489
 20
21.8347
 11
103.765
 21
22.1113
  0
LINE
  8
0
 10
103.765
 20
22.1113
 11
104.114
 21
22.2888
  0
LINE
  8
0
 10
104.114
 20
22.2888
 11
104.5
 21
22.35
  0
LINE
  8
0
 10
104.5
 20
22.35
 11
104.886
 21
22.2888
  0
LINE
  8
0
 10
104.886
 20
22.2888
 11
105.235
 21
22.1113
  0
LINE
  8
0
 10
105.235
 20
22.1113
 11
105.511
 21
21.8347
  0
LINE
  8
0
 10
105.511
 20
21.8347
 11
105.689
 21
21.4863
  0
LINE
  8
0
 10
105.689
 20
21.4863
 11
105.75
 21
21.1
  0
LINE
  8
0
 10
105.75
 20
21.1
 11
105.689
 21
20.7137
  0
LINE
  8
0
 10
105.689
 20
20.7137
 11
105.511
 21
20.3652
  0
LINE
  8
0
 10
105.511
 20
20.3652
 11
105.235
 21
20.0887
  0
LINE
  8
0
 10
105.235
 20
20.0887
 11
104.886
 21
19.9112
  0
LINE
  8
0
 10
104.886
 20
19.9112
 11
104.5
 21
19.85
  0
LINE
  8
0
 10
104.5
 20
19.85
 11
104.114
 21
19.9112
  0
LINE
  8
0
 10
26.8637
 20
18.5112
 11
26.5153
 21
18.6887
  0
LINE
  8
0
 10
26.5153
 20
18.6887
 11
26.2387
 21
18.9653
  0
LINE
  8
0
 10
26.2387
 20
18.9653
 11
26.0612
 21
19.3137
  0
LINE
  8
0
 10
26.0612
 20
19.3137
 11
26
 21
19.7
  0
LINE
  8
0
 10
26
 20
19.7
 11
26.0612
 21
20.0863
  0
LINE
  8
0
 10
26.0612
 20
20.0863
 11
26.2387
 21
20.4347
  0
LINE
  8
0
 10
26.2387
 20
20.4347
 11
26.5153
 21
20.7113
  0
LINE
  8
0
 10
26.5153
 20
20.7113
 11
26.8637
 21
20.8888
  0
LINE
  8
0
 10
26.8637
 20
20.8888
 11
27.25
 21
20.95
  0
LINE
  8
0
 10
27.25
 20
20.95
 11
27.6363
 21
20.8888
  0
LINE
  8
0
 10
27.6363
 20
20.8888
 11
27.9847
 21
20.7113
  0
LINE
  8
0
 10
27.9847
 20
20.7113
 11
28.2613
 21
20.4347
  0
LINE
  8
0
 10
28.2613
 20
20.4347
 11
28.4388
 21
20.0863
  0
LINE
  8
0
 10
28.4388
 20
20.0863
 11
28.5
 21
19.7
  0
LINE
  8
0
 10
28.5
 20
19.7
 11
28.4388
 21
19.3137
  0
LINE
  8
0
 10
28.4388
 20
19.3137
 11
28.2613
 21
18.9653
  0
LINE
  8
0
 10
28.2613
 20
18.9653
 11
27.9847
 21
18.6887
  0
LINE
  8
0
 10
27.9847
 20
18.6887
 11
27.6363
 21
18.5112
  0
LINE
  8
0
 10
27.6363
 20
18.5112
 11
27.25
 21
18.45
  0
LINE
  8
0
 10
27.25
 20
18.45
 11
26.8637
 21
18.5112
  0
LINE
  8
0
 10
52.3637
 20
18.5112
 11
52.0153
 21
18.6887
  0
LINE
  8
0
 10
52.0153
 20
18.6887
 11
51.7387
 21
18.9653
  0
LINE
  8
0
 10
51.7387
 20
18.9653
 11
51.5612
 21
19.3137
  0
LINE
  8
0
 10
51.5612
 20
19.3137
 11
51.5
 21
19.7
  0
LINE
  8
0
 10
51.5
 20
19.7
 11
51.5612
 21
20.0863
  0
LINE
  8
0
 10
51.5612
 20
20.0863
 11
51.7387
 21
20.4347
  0
LINE
  8
0
 10
51.7387
 20
20.4347
 11
52.0153
 21
20.7113
  0
LINE
  8
0
 10
52.0153
 20
20.7113
 11
52.3637
 21
20.8888
  0
LINE
  8
0
 10
52.3637
 20
20.8888
 11
52.75
 21
20.95
  0
LINE
  8
0
 10
52.75
 20
20.95
 11
53.1363
 21
20.8888
  0
LINE
  8
0
 10
53.1363
 20
20.8888
 11
53.4847
 21
20.7113
  0
LINE
  8
0
 10
53.4847
 20
20.7113
 11
53.7613
 21
20.4347
  0
LINE
  8
0
 10
53.7613
 20
20.4347
 11
53.9388
 21
20.0863
  0
LINE
  8
0
 10
53.9388
 20
20.0863
 11
54
 21
19.7
  0
LINE
  8
0
 10
54
 20
19.7
 11
53.9388
 21
19.3137
  0
LINE
  8
0
 10
53.9388
 20
19.3137
 11
53.7613
 21
18.9653
  0
LINE
  8
0
 10
53.7613
 20
18.9653
 11
53.4847
 21
18.6887
  0
LINE
  8
0
 10
53.4847
 20
18.6887
 11
53.1363
 21
18.5112
  0
LINE
  8
0
 10
53.1363
 20
18.5112
 11
52.75
 21
18.45
  0
LINE
  8
0
 10
52.75
 20
18.45
 11
52.3637
 21
18.5112
  0
LINE
  8
0
 10
121.9
 20
-4.88261
 11
121.9
 21
4.8826
  0
LINE
  8
0
 10
121.9
 20
4.8826
 11
125
 21
4.8826
  0
LINE
  8
0
 10
125
 20
4.8826
 11
125
 21
-4.88261
  0
LINE
  8
0
 10
125
 20
-4.88261
 11
121.9
 21
-4.88261
  0
LINE
  8
0
 10
-125
 20
-4.88261
 11
-125
 21
4.8826
  0
LINE
  8
0
 10
-125
 20
4.8826
 11
-121.9
 21
4.8826
  0
LINE
  8
0
 10
-121.9
 20
4.8826
 11
-121.9
 21
-4.88261
  0
LINE
  8
0
 10
-121.9
 20
-4.88261
 11
-125
 21
-4.88261
  0
LINE
  8
0
 10
52.3637
 20
1.81117
 11
52.0153
 21
1.98872
  0
LINE
  8
0
 10
52.0153
 20
1.98872
 11
51.7387
 21
2.26527
  0
LINE
  8
0
 10
51.7387
 20
2.26527
 11
51.5612
 21
2.61372
  0
LINE
  8
0
 10
51.5612
 20
2.61372
 11
51.5
 21
3
  0
LINE
  8
0
 10
51.5
 20
3
 11
51.5612
 21
3.38628
  0
LINE
  8
0
 10
51.5612
 20
3.38628
 11
51.7387
 21
3.73473
  0
LINE
  8
0
 10
51.7387
 20
3.73473
 11
52.0153
 21
4.01128
  0
LINE
  8
0
 10
52.0153
 20
4.01128
 11
52.3637
 21
4.18881
  0
LINE
  8
0
 10
52.3637
 20
4.18881
 11
52.75
 21
4.25
  0
LINE
  8
0
 10
52.75
 20
4.25
 11
53.1363
 21
4.18881
  0
LINE
  8
0
 10
53.1363
 20
4.18881
 11
53.4847
 21
4.01128
  0
LINE
  8
0
 10
53.4847
 20
4.01128
 11
53.7613
 21
3.73473
  0
LINE
  8
0
 10
53.7613
 20
3.73473
 11
53.9388
 21
3.38628
  0
LINE
  8
0
 10
53.9388
 20
3.38628
 11
54
 21
3
  0
LINE
  8
0
 10
54
 20
3
 11
53.9388
 21
2.61372
  0
LINE
  8
0
 10
53.9388
 20
2.61372
 11
53.7613
 21
2.26527
  0
LINE
  8
0
 10
53.7613
 20
2.26527
 11
53.4847
 21
1.98872
  0
LINE
  8
0
 10
53.4847
 20
1.98872
 11
53.1363
 21
1.81117
  0
LINE
  8
0
 10
53.1363
 20
1.81117
 11
52.75
 21
1.75
  0
LINE
  8
0
 10
52.75
 20
1.75
 11
52.3637
 21
1.81117
  0
LINE
  8
0
 10
-91.8863
 20
1.81119
 11
-92.2347
 21
1.98874
  0
LINE
  8
0
 10
-92.2347
 20
1.98874
 11
-92.5113
 21
2.26527
  0
LINE
  8
0
 10
-92.5113
 20
2.26527
 11
-92.6888
 21
2.61374
  0
LINE
  8
0
 10
-92.6888
 20
2.61374
 11
-92.75
 21
3
  0
LINE
  8
0
 10
-92.75
 20
3
 11
-92.6888
 21
3.38628
  0
LINE
  8
0
 10
-92.6888
 20
3.38628
 11
-92.5113
 21
3.73474
  0
LINE
  8
0
 10
-92.5113
 20
3.73474
 11
-92.2347
 21
4.01128
  0
LINE
  8
0
 10
-92.2347
 20
4.01128
 11
-91.8863
 21
4.18883
  0
LINE
  8
0
 10
-91.8863
 20
4.18883
 11
-91.5
 21
4.25
  0
LINE
  8
0
 10
-91.5
 20
4.25
 11
-91.1137
 21
4.18883
  0
LINE
  8
0
 10
-91.1137
 20
4.18883
 11
-90.7653
 21
4.01128
  0
LINE
  8
0
 10
-90.7653
 20
4.01128
 11
-90.4887
 21
3.73474
  0
LINE
  8
0
 10
-90.4887
 20
3.73474
 11
-90.3112
 21
3.38628
  0
LINE
  8
0
 10
-90.3112
 20
3.38628
 11
-90.25
 21
3
  0
LINE
  8
0
 10
-90.25
 20
3
 11
-90.3112
 21
2.61374
  0
LINE
  8
0
 10
-90.3112
 20
2.61374
 11
-90.4887
 21
2.26527
  0
LINE
  8
0
 10
-90.4887
 20
2.26527
 11
-90.7653
 21
1.98874
  0
LINE
  8
0
 10
-90.7653
 20
1.98874
 11
-91.1137
 21
1.81119
  0
LINE
  8
0
 10
-91.1137
 20
1.81119
 11
-91.5
 21
1.75
  0
LINE
  8
0
 10
-91.5
 20
1.75
 11
-91.8863
 21
1.81119
  0
LINE
  8
0
 10
-48.8863
 20
1.81119
 11
-49.2347
 21
1.98874
  0
LINE
  8
0
 10
-49.2347
 20
1.98874
 11
-49.5113
 21
2.26527
  0
LINE
  8
0
 10
-49.5113
 20
2.26527
 11
-49.6888
 21
2.61374
  0
LINE
  8
0
 10
-49.6888
 20
2.61374
 11
-49.75
 21
3
  0
LINE
  8
0
 10
-49.75
 20
3
 11
-49.6888
 21
3.38628
  0
LINE
  8
0
 10
-49.6888
 20
3.38628
 11
-49.5113
 21
3.73474
  0
LINE
  8
0
 10
-49.5113
 20
3.73474
 11
-49.2347
 21
4.01128
  0
LINE
  8
0
 10
-49.2347
 20
4.01128
 11
-48.8863
 21
4.18883
  0
LINE
  8
0
 10
-48.8863
 20
4.18883
 11
-48.5
 21
4.25
  0
LINE
  8
0
 10
-48.5
 20
4.25
 11
-48.1137
 21
4.18883
  0
LINE
  8
0
 10
-48.1137
 20
4.18883
 11
-47.7653
 21
4.01128
  0
LINE
  8
0
 10
-47.7653
 20
4.01128
 11
-47.4887
 21
3.73474
  0
LINE
  8
0
 10
-47.4887
 20
3.73474
 11
-47.3112
 21
3.38628
  0
LINE
  8
0
 10
-47.3112
 20
3.38628
 11
-47.25
 21
3
  0
LINE
  8
0
 10
-47.25
 20
3
 11
-47.3112
 21
2.61374
  0
LINE
  8
0
 10
-47.3112
 20
2.61374
 11
-47.4887
 21
2.26527
  0
LINE
  8
0
 10
-47.4887
 20
2.26527
 11
-47.7653
 21
1.98874
  0
LINE
  8
0
 10
-47.7653
 20
1.98874
 11
-48.1137
 21
1.81119
  0
LINE
  8
0
 10
-48.1137
 20
1.81119
 11
-48.5
 21
1.75
  0
LINE
  8
0
 10
-48.5
 20
1.75
 11
-48.8863
 21
1.81119
  0
LINE
  8
0
 10
26.8637
 20
1.81117
 11
26.5153
 21
1.98872
  0
LINE
  8
0
 10
26.5153
 20
1.98872
 11
26.2387
 21
2.26527
  0
LINE
  8
0
 10
26.2387
 20
2.26527
 11
26.0612
 21
2.61372
  0
LINE
  8
0
 10
26.0612
 20
2.61372
 11
26
 21
3
  0
LINE
  8
0
 10
26
 20
3
 11
26.0612
 21
3.38628
  0
LINE
  8
0
 10
26.0612
 20
3.38628
 11
26.2387
 21
3.73473
  0
LINE
  8
0
 10
26.2387
 20
3.73473
 11
26.5153
 21
4.01128
  0
LINE
  8
0
 10
26.5153
 20
4.01128
 11
26.8637
 21
4.18881
  0
LINE
  8
0
 10
26.8637
 20
4.18881
 11
27.25
 21
4.25
  0
LINE
  8
0
 10
27.25
 20
4.25
 11
27.6363
 21
4.18881
  0
LINE
  8
0
 10
27.6363
 20
4.18881
 11
27.9847
 21
4.01128
  0
LINE
  8
0
 10
27.9847
 20
4.01128
 11
28.2613
 21
3.73473
  0
LINE
  8
0
 10
28.2613
 20
3.73473
 11
28.4388
 21
3.38628
  0
LINE
  8
0
 10
28.4388
 20
3.38628
 11
28.5
 21
3
  0
LINE
  8
0
 10
28.5
 20
3
 11
28.4388
 21
2.61372
  0
LINE
  8
0
 10
28.4388
 20
2.61372
 11
28.2613
 21
2.26527
  0
LINE
  8
0
 10
28.2613
 20
2.26527
 11
27.9847
 21
1.98872
  0
LINE
  8
0
 10
27.9847
 20
1.98872
 11
27.6363
 21
1.81117
  0
LINE
  8
0
 10
27.6363
 20
1.81117
 11
27.25
 21
1.75
  0
LINE
  8
0
 10
27.25
 20
1.75
 11
26.8637
 21
1.81117
  0
LINE
  8
0
 10
-5.03629
 20
1.81119
 11
-5.38474
 21
1.98874
  0
LINE
  8
0
 10
-5.38474
 20
1.98874
 11
-5.66129
 21
2.26527
  0
LINE
  8
0
 10
-5.66129
 20
2.26527
 11
-5.83882
 21
2.61374
  0
LINE
  8
0
 10
-5.83882
 20
2.61374
 11
-5.90001
 21
3
  0
LINE
  8
0
 10
-5.90001
 20
3
 11
-5.83882
 21
3.38628
  0
LINE
  8
0
 10
-5.83882
 20
3.38628
 11
-5.66129
 21
3.73474
  0
LINE
  8
0
 10
-5.66129
 20
3.73474
 11
-5.38474
 21
4.01128
  0
LINE
  8
0
 10
-5.38474
 20
4.01128
 11
-5.03629
 21
4.18883
  0
LINE
  8
0
 10
-5.03629
 20
4.18883
 11
-4.65001
 21
4.25
  0
LINE
  8
0
 10
-4.65001
 20
4.25
 11
-4.26373
 21
4.18883
  0
LINE
  8
0
 10
-4.26373
 20
4.18883
 11
-3.91528
 21
4.01128
  0
LINE
  8
0
 10
-3.91528
 20
4.01128
 11
-3.63873
 21
3.73474
  0
LINE
  8
0
 10
-3.63873
 20
3.73474
 11
-3.46118
 21
3.38628
  0
LINE
  8
0
 10
-3.46118
 20
3.38628
 11
-3.40001
 21
3
  0
LINE
  8
0
 10
-3.40001
 20
3
 11
-3.46118
 21
2.61374
  0
LINE
  8
0
 10
-3.46118
 20
2.61374
 11
-3.63873
 21
2.26527
  0
LINE
  8
0
 10
-3.63873
 20
2.26527
 11
-3.91528
 21
1.98874
  0
LINE
  8
0
 10
-3.91528
 20
1.98874
 11
-4.26373
 21
1.81119
  0
LINE
  8
0
 10
-4.26373
 20
1.81119
 11
-4.65001
 21
1.75
  0
LINE
  8
0
 10
-4.65001
 20
1.75
 11
-5.03629
 21
1.81119
  0
LINE
  8
0
 10
-35.7363
 20
1.81119
 11
-36.0847
 21
1.98874
  0
LINE
  8
0
 10
-36.0847
 20
1.98874
 11
-36.3613
 21
2.26527
  0
LINE
  8
0
 10
-36.3613
 20
2.26527
 11
-36.5388
 21
2.61374
  0
LINE
  8
0
 10
-36.5388
 20
2.61374
 11
-36.6
 21
3
  0
LINE
  8
0
 10
-36.6
 20
3
 11
-36.5388
 21
3.38628
  0
LINE
  8
0
 10
-36.5388
 20
3.38628
 11
-36.3613
 21
3.73474
  0
LINE
  8
0
 10
-36.3613
 20
3.73474
 11
-36.0847
 21
4.01128
  0
LINE
  8
0
 10
-36.0847
 20
4.01128
 11
-35.7363
 21
4.18883
  0
LINE
  8
0
 10
-35.7363
 20
4.18883
 11
-35.35
 21
4.25
  0
LINE
  8
0
 10
-35.35
 20
4.25
 11
-34.9637
 21
4.18883
  0
LINE
  8
0
 10
-34.9637
 20
4.18883
 11
-34.6153
 21
4.01128
  0
LINE
  8
0
 10
-34.6153
 20
4.01128
 11
-34.3387
 21
3.73474
  0
LINE
  8
0
 10
-34.3387
 20
3.73474
 11
-34.1612
 21
3.38628
  0
LINE
  8
0
 10
-34.1612
 20
3.38628
 11
-34.1
 21
3
  0
LINE
  8
0
 10
-34.1
 20
3
 11
-34.1612
 21
2.61374
  0
LINE
  8
0
 10
-34.1612
 20
2.61374
 11
-34.3387
 21
2.26527
  0
LINE
  8
0
 10
-34.3387
 20
2.26527
 11
-34.6153
 21
1.98874
  0
LINE
  8
0
 10
-34.6153
 20
1.98874
 11
-34.9637
 21
1.81119
  0
LINE
  8
0
 10
-34.9637
 20
1.81119
 11
-35.35
 21
1.75
  0
LINE
  8
0
 10
-35.35
 20
1.75
 11
-35.7363
 21
1.81119
  0
LINE
  8
0
 10
75.1137
 20
0.411179
 11
74.7653
 21
0.58873
  0
LINE
  8
0
 10
74.7653
 20
0.58873
 11
74.4887
 21
0.865265
  0
LINE
  8
0
 10
74.4887
 20
0.865265
 11
74.3112
 21
1.21373
  0
LINE
  8
0
 10
74.3112
 20
1.21373
 11
74.25
 21
1.59999
  0
LINE
  8
0
 10
74.25
 20
1.59999
 11
74.3112
 21
1.98627
  0
LINE
  8
0
 10
74.3112
 20
1.98627
 11
74.4887
 21
2.33473
  0
LINE
  8
0
 10
74.4887
 20
2.33473
 11
74.7653
 21
2.61127
  0
LINE
  8
0
 10
74.7653
 20
2.61127
 11
75.1137
 21
2.78882
  0
LINE
  8
0
 10
75.1137
 20
2.78882
 11
75.5
 21
2.84999
  0
LINE
  8
0
 10
75.5
 20
2.84999
 11
75.8863
 21
2.78882
  0
LINE
  8
0
 10
75.8863
 20
2.78882
 11
76.2347
 21
2.61127
  0
LINE
  8
0
 10
76.2347
 20
2.61127
 11
76.5113
 21
2.33473
  0
LINE
  8
0
 10
76.5113
 20
2.33473
 11
76.6888
 21
1.98627
  0
LINE
  8
0
 10
76.6888
 20
1.98627
 11
76.75
 21
1.59999
  0
LINE
  8
0
 10
76.75
 20
1.59999
 11
76.6888
 21
1.21373
  0
LINE
  8
0
 10
76.6888
 20
1.21373
 11
76.5113
 21
0.865265
  0
LINE
  8
0
 10
76.5113
 20
0.865265
 11
76.2347
 21
0.58873
  0
LINE
  8
0
 10
76.2347
 20
0.58873
 11
75.8863
 21
0.411179
  0
LINE
  8
0
 10
75.8863
 20
0.411179
 11
75.5
 21
0.349991
  0
LINE
  8
0
 10
75.5
 20
0.349991
 11
75.1137
 21
0.411179
  0
LINE
  8
0
 10
104.114
 20
0.411179
 11
103.765
 21
0.58873
  0
LINE
  8
0
 10
103.765
 20
0.58873
 11
103.489
 21
0.865265
  0
LINE
  8
0
 10
103.489
 20
0.865265
 11
103.311
 21
1.21373
  0
LINE
  8
0
 10
103.311
 20
1.21373
 11
103.25
 21
1.59999
  0
LINE
  8
0
 10
103.25
 20
1.59999
 11
103.311
 21
1.98627
  0
LINE
  8
0
 10
103.311
 20
1.98627
 11
103.489
 21
2.33473
  0
LINE
  8
0
 10
103.489
 20
2.33473
 11
103.765
 21
2.61127
  0
LINE
  8
0
 10
103.765
 20
2.61127
 11
104.114
 21
2.78882
  0
LINE
  8
0
 10
104.114
 20
2.78882
 11
104.5
 21
2.84999
  0
LINE
  8
0
 10
104.5
 20
2.84999
 11
104.886
 21
2.78882
  0
LINE
  8
0
 10
104.886
 20
2.78882
 11
105.235
 21
2.61127
  0
LINE
  8
0
 10
105.235
 20
2.61127
 11
105.511
 21
2.33473
  0
LINE
  8
0
 10
105.511
 20
2.33473
 11
105.689
 21
1.98627
  0
LINE
  8
0
 10
105.689
 20
1.98627
 11
105.75
 21
1.59999
  0
LINE
  8
0
 10
105.75
 20
1.59999
 11
105.689
 21
1.21373
  0
LINE
  8
0
 10
105.689
 20
1.21373
 11
105.511
 21
0.865265
  0
LINE
  8
0
 10
105.511
 20
0.865265
 11
105.235
 21
0.58873
  0
LINE
  8
0
 10
105.235
 20
0.58873
 11
104.886
 21
0.411179
  0
LINE
  8
0
 10
104.886
 20
0.411179
 11
104.5
 21
0.349991
  0
LINE
  8
0
 10
104.5
 20
0.349991
 11
104.114
 21
0.411179
  0
LINE
  8
0
 10
131.805
 20
-2.13986
 11
131.177
 21
-1.82028
  0
LINE
  8
0
 10
131.177
 20
-1.82028
 11
130.68
 21
-1.32251
  0
LINE
  8
0
 10
130.68
 20
-1.32251
 11
130.36
 21
-0.695282
  0
LINE
  8
0
 10
130.36
 20
-0.695282
 11
130.25
 21
0
  0
LINE
  8
0
 10
130.25
 20
0
 11
130.36
 21
0.695282
  0
LINE
  8
0
 10
130.36
 20
0.695282
 11
130.68
 21
1.32251
  0
LINE
  8
0
 10
130.68
 20
1.32251
 11
131.177
 21
1.82028
  0
LINE
  8
0
 10
131.177
 20
1.82028
 11
131.805
 21
2.13986
  0
LINE
  8
0
 10
131.805
 20
2.13986
 11
132.5
 21
2.25
  0
LINE
  8
0
 10
132.5
 20
2.25
 11
133.195
 21
2.13986
  0
LINE
  8
0
 10
133.195
 20
2.13986
 11
133.823
 21
1.82028
  0
LINE
  8
0
 10
133.823
 20
1.82028
 11
134.32
 21
1.32251
  0
LINE
  8
0
 10
134.32
 20
1.32251
 11
134.64
 21
0.695282
  0
LINE
  8
0
 10
134.64
 20
0.695282
 11
134.75
 21
0
  0
LINE
  8
0
 10
134.75
 20
0
 11
134.64
 21
-0.695282
  0
LINE
  8
0
 10
134.64
 20
-0.695282
 11
134.32
 21
-1.32251
  0
LINE
  8
0
 10
134.32
 20
-1.32251
 11
133.823
 21
-1.82028
  0
LINE
  8
0
 10
133.823
 20
-1.82028
 11
133.195
 21
-2.13986
  0
LINE
  8
0
 10
133.195
 20
-2.13986
 11
132.5
 21
-2.25
  0
LINE
  8
0
 10
132.5
 20
-2.25
 11
131.805
 21
-2.13986
  0
LINE
  8
0
 10
-133.195
 20
-2.13986
 11
-133.823
 21
-1.82028
  0
LINE
  8
0
 10
-133.823
 20
-1.82028
 11
-134.32
 21
-1.32251
  0
LINE
  8
0
 10
-134.32
 20
-1.32251
 11
-134.64
 21
-0.695282
  0
LINE
  8
0
 10
-134.64
 20
-0.695282
 11
-134.75
 21
0
  0
LINE
  8
0
 10
-134.75
 20
0
 11
-134.64
 21
0.695282
  0
LINE
  8
0
 10
-134.64
 20
0.695282
 11
-134.32
 21
1.32251
  0
LINE
  8
0
 10
-134.32
 20
1.32251
 11
-133.823
 21
1.82028
  0
LINE
  8
0
 10
-133.823
 20
1.82028
 11
-133.195
 21
2.13986
  0
LINE
  8
0
 10
-133.195
 20
2.13986
 11
-132.5
 21
2.25
  0
LINE
  8
0
 10
-132.5
 20
2.25
 11
-131.805
 21
2.13986
  0
LINE
  8
0
 10
-131.805
 20
2.13986
 11
-131.177
 21
1.82028
  0
LINE
  8
0
 10
-131.177
 20
1.82028
 11
-130.68
 21
1.32251
  0
LINE
  8
0
 10
-130.68
 20
1.32251
 11
-130.36
 21
0.695282
  0
LINE
  8
0
 10
-130.36
 20
0.695282
 11
-130.25
 21
0
  0
LINE
  8
0
 10
-130.25
 20
0
 11
-130.36
 21
-0.695282
  0
LINE
  8
0
 10
-130.36
 20
-0.695282
 11
-130.68
 21
-1.32251
  0
LINE
  8
0
 10
-130.68
 20
-1.32251
 11
-131.177
 21
-1.82028
  0
LINE
  8
0
 10
-131.177
 20
-1.82028
 11
-131.805
 21
-2.13986
  0
LINE
  8
0
 10
-131.805
 20
-2.13986
 11
-132.5
 21
-2.25
  0
LINE
  8
0
 10
-132.5
 20
-2.25
 11
-133.195
 21
-2.13986
  0
LINE
  8
0
 10
14
 20
-66.3
 11
14
 21
-46.3
  0
LINE
  8
0
 10
14
 20
-46.3
 11
16
 21
-46.3
  0
LINE
  8
0
 10
16
 20
-46.3
 11
16
 21
-66.3
  0
LINE
  8
0
 10
16
 20
-66.3
 11
14
 21
-66.3
  0
LINE
  8
0
 10
-10
 20
-66.3
 11
-10
 21
-46.3
  0
LINE
  8
0
 10
-10
 20
-46.3
 11
-8
 21
-46.3
  0
LINE
  8
0
 10
-8
 20
-46.3
 11
-8
 21
-66.3
  0
LINE
  8
0
 10
-8
 20
-66.3
 11
-10
 21
-66.3
  0
LINE
  8
0
 10
-4
 20
-66.3
 11
-4
 21
-46.3
  0
LINE
  8
0
 10
-4
 20
-46.3
 11
-2
 21
-46.3
  0
LINE
  8
0
 10
-2
 20
-46.3
 11
-2
 21
-66.3
  0
LINE
  8
0
 10
-2
 20
-66.3
 11
-4
 21
-66.3
  0
LINE
  8
0
 10
-16
 20
-66.3
 11
-16
 21
-46.3
  0
LINE
  8
0
 10
-16
 20
-46.3
 11
-14
 21
-46.3
  0
LINE
  8
0
 10
-14
 20
-46.3
 11
-14
 21
-66.3
  0
LINE
  8
0
 10
-14
 20
-66.3
 11
-16
 21
-66.3
  0
LINE
  8
0
 10
-22
 20
-66.3
 11
-22
 21
-46.3
  0
LINE
  8
0
 10
-22
 20
-46.3
 11
-20
 21
-46.3
  0
LINE
  8
0
 10
-20
 20
-46.3
 11
-20
 21
-66.3
  0
LINE
  8
0
 10
-20
 20
-66.3
 11
-22
 21
-66.3
  0
LINE
  8
0
 10
2
 20
-66.3
 11
2
 21
-46.3
  0
LINE
  8
0
 10
2
 20
-46.3
 11
4
 21
-46.3
  0
LINE
  8
0
 10
4
 20
-46.3
 11
4
 21
-66.3
  0
LINE
  8
0
 10
4
 20
-66.3
 11
2
 21
-66.3
  0
LINE
  8
0
 10
8
 20
-66.3
 11
8
 21
-46.3
  0
LINE
  8
0
 10
8
 20
-46.3
 11
10
 21
-46.3
  0
LINE
  8
0
 10
10
 20
-46.3
 11
10
 21
-66.3
  0
LINE
  8
0
 10
10
 20
-66.3
 11
8
 21
-66.3
  0
LINE
  8
0
 10
20
 20
-66.3
 11
20
 21
-46.3
  0
LINE
  8
0
 10
20
 20
-46.3
 11
22
 21
-46.3
  0
LINE
  8
0
 10
22
 20
-46.3
 11
22
 21
-66.3
  0
LINE
  8
0
 10
22
 20
-66.3
 11
20
 21
-66.3
  0
LINE
  8
0
 10
259.873
 20
-109.186
 11
260.239
 21
-107.66
  0
LINE
  8
0
 10
260.239
 20
-107.66
 11
260.84
 21
-106.21
  0
LINE
  8
0
 10
260.84
 20
-106.21
 11
261.66
 21
-104.872
  0
LINE
  8
0
 10
261.66
 20
-104.872
 11
262.679
 21
-103.679
  0
LINE
  8
0
 10
262.679
 20
-103.679
 11
263.872
 21
-102.66
  0
LINE
  8
0
 10
263.872
 20
-102.66
 11
265.21
 21
-101.84
  0
LINE
  8
0
 10
265.21
 20
-101.84
 11
266.66
 21
-101.239
  0
LINE
  8
0
 10
266.66
 20
-101.239
 11
268.186
 21
-100.873
  0
LINE
  8
0
 10
268.186
 20
-100.873
 11
269.75
 21
-100.75
  0
LINE
  8
0
 10
269.75
 20
-100.75
 11
271.314
 21
-100.873
  0
LINE
  8
0
 10
271.314
 20
-100.873
 11
272.84
 21
-101.239
  0
LINE
  8
0
 10
272.84
 20
-101.239
 11
274.29
 21
-101.84
  0
LINE
  8
0
 10
274.29
 20
-101.84
 11
275.628
 21
-102.66
  0
LINE
  8
0
 10
275.628
 20
-102.66
 11
276.821
 21
-103.679
  0
LINE
  8
0
 10
276.821
 20
-103.679
 11
277.84
 21
-104.872
  0
LINE
  8
0
 10
277.84
 20
-104.872
 11
278.66
 21
-106.21
  0
LINE
  8
0
 10
278.66
 20
-106.21
 11
279.261
 21
-107.66
  0
LINE
  8
0
 10
279.261
 20
-107.66
 11
279.627
 21
-109.186
  0
LINE
  8
0
 10
279.627
 20
-109.186
 11
279.75
 21
-110.75
  0
LINE
  8
0
 10
279.75
 20
-110.75
 11
391.5
 21
-110.75
  0
LINE
  8
0
 10
391.5
 20
-110.75
 11
391.5
 21
-4
  0
LINE
  8
0
 10
391.5
 20
-4
 11
148
 21
-4
  0
LINE
  8
0
 10
148
 20
-4
 11
148
 21
-110.75
  0
LINE
  8
0
 10
148
 20
-110.75
 11
259.75
 21
-110.75
  0
LINE
  8
0
 10
259.75
 20
-110.75
 11
259.873
 21
-109.186
  0
LINE
  8
0
 10
154.936
 20
-14.4836
 11
154.323
 21
-14.3532
  0
LINE
  8
0
 10
154.323
 20
-14.3532
 11
153.75
 21
-14.0981
  0
LINE
  8
0
 10
153.75
 20
-14.0981
 11
153.243
 21
-13.7294
  0
LINE
  8
0
 10
153.243
 20
-13.7294
 11
152.823
 21
-13.2634
  0
LINE
  8
0
 10
152.823
 20
-13.2634
 11
152.509
 21
-12.7202
  0
LINE
  8
0
 10
152.509
 20
-12.7202
 11
152.316
 21
-12.1237
  0
LINE
  8
0
 10
152.316
 20
-12.1237
 11
152.25
 21
-11.5
  0
LINE
  8
0
 10
152.25
 20
-11.5
 11
152.316
 21
-10.8763
  0
LINE
  8
0
 10
152.316
 20
-10.8763
 11
152.509
 21
-10.2798
  0
LINE
  8
0
 10
152.509
 20
-10.2798
 11
152.823
 21
-9.73665
  0
LINE
  8
0
 10
152.823
 20
-9.73665
 11
153.243
 21
-9.27057
  0
LINE
  8
0
 10
153.243
 20
-9.27057
 11
153.75
 21
-8.90193
  0
LINE
  8
0
 10
153.75
 20
-8.90193
 11
154.323
 21
-8.64684
  0
LINE
  8
0
 10
154.323
 20
-8.64684
 11
154.936
 21
-8.51645
  0
LINE
  8
0
 10
154.936
 20
-8.51645
 11
155.564
 21
-8.51645
  0
LINE
  8
0
 10
155.564
 20
-8.51645
 11
156.177
 21
-8.64684
  0
LINE
  8
0
 10
156.177
 20
-8.64684
 11
156.75
 21
-8.90193
  0
LINE
  8
0
 10
156.75
 20
-8.90193
 11
157.257
 21
-9.27057
  0
LINE
  8
0
 10
157.257
 20
-9.27057
 11
157.677
 21
-9.73665
  0
LINE
  8
0
 10
157.677
 20
-9.73665
 11
157.991
 21
-10.2798
  0
LINE
  8
0
 10
157.991
 20
-10.2798
 11
158.184
 21
-10.8763
  0
LINE
  8
0
 10
158.184
 20
-10.8763
 11
158.25
 21
-11.5
  0
LINE
  8
0
 10
158.25
 20
-11.5
 11
158.184
 21
-12.1237
  0
LINE
  8
0
 10
158.184
 20
-12.1237
 11
157.991
 21
-12.7202
  0
LINE
  8
0
 10
157.991
 20
-12.7202
 11
157.677
 21
-13.2634
  0
LINE
  8
0
 10
157.677
 20
-13.2634
 11
157.257
 21
-13.7294
  0
LINE
  8
0
 10
157.257
 20
-13.7294
 11
156.75
 21
-14.0981
  0
LINE
  8
0
 10
156.75
 20
-14.0981
 11
156.177
 21
-14.3532
  0
LINE
  8
0
 10
156.177
 20
-14.3532
 11
155.564
 21
-14.4836
  0
LINE
  8
0
 10
155.564
 20
-14.4836
 11
154.936
 21
-14.4836
  0
LINE
  8
0
 10
383.936
 20
-14.4836
 11
383.323
 21
-14.3532
  0
LINE
  8
0
 10
383.323
 20
-14.3532
 11
382.75
 21
-14.0981
  0
LINE
  8
0
 10
382.75
 20
-14.0981
 11
382.243
 21
-13.7294
  0
LINE
  8
0
 10
382.243
 20
-13.7294
 11
381.823
 21
-13.2634
  0
LINE
  8
0
 10
381.823
 20
-13.2634
 11
381.509
 21
-12.7202
  0
LINE
  8
0
 10
381.509
 20
-12.7202
 11
381.316
 21
-12.1237
  0
LINE
  8
0
 10
381.316
 20
-12.1237
 11
381.25
 21
-11.5
  0
LINE
  8
0
 10
381.25
 20
-11.5
 11
381.316
 21
-10.8763
  0
LINE
  8
0
 10
381.316
 20
-10.8763
 11
381.509
 21
-10.2798
  0
LINE
  8
0
 10
381.509
 20
-10.2798
 11
381.823
 21
-9.73665
  0
LINE
  8
0
 10
381.823
 20
-9.73665
 11
382.243
 21
-9.27057
  0
LINE
  8
0
 10
382.243
 20
-9.27057
 11
382.75
 21
-8.90193
  0
LINE
  8
0
 10
382.75
 20
-8.90193
 11
383.323
 21
-8.64684
  0
LINE
  8
0
 10
383.323
 20
-8.64684
 11
383.936
 21
-8.51645
  0
LINE
  8
0
 10
383.936
 20
-8.51645
 11
384.564
 21
-8.51645
  0
LINE
  8
0
 10
384.564
 20
-8.51645
 11
385.177
 21
-8.64684
  0
LINE
  8
0
 10
385.177
 20
-8.64684
 11
385.75
 21
-8.90193
  0
LINE
  8
0
 10
385.75
 20
-8.90193
 11
386.257
 21
-9.27057
  0
LINE
  8
0
 10
386.257
 20
-9.27057
 11
386.677
 21
-9.73665
  0
LINE
  8
0
 10
386.677
 20
-9.73665
 11
386.991
 21
-10.2798
  0
LINE
  8
0
 10
386.991
 20
-10.2798
 11
387.184
 21
-10.8763
  0
LINE
  8
0
 10
387.184
 20
-10.8763
 11
387.25
 21
-11.5
  0
LINE
  8
0
 10
387.25
 20
-11.5
 11
387.184
 21
-12.1237
  0
LINE
  8
0
 10
387.184
 20
-12.1237
 11
386.991
 21
-12.7202
  0
LINE
  8
0
 10
386.991
 20
-12.7202
 11
386.677
 21
-13.2634
  0
LINE
  8
0
 10
386.677
 20
-13.2634
 11
386.257
 21
-13.7294
  0
LINE
  8
0
 10
386.257
 20
-13.7294
 11
385.75
 21
-14.0981
  0
LINE
  8
0
 10
385.75
 20
-14.0981
 11
385.177
 21
-14.3532
  0
LINE
  8
0
 10
385.177
 20
-14.3532
 11
384.564
 21
-14.4836
  0
LINE
  8
0
 10
384.564
 20
-14.4836
 11
383.936
 21
-14.4836
  0
LINE
  8
0
 10
228.875
 20
-40.6875
 11
228.875
 21
-20.6875
  0
LINE
  8
0
 10
228.875
 20
-20.6875
 11
230.875
 21
-20.6875
  0
LINE
  8
0
 10
230.875
 20
-20.6875
 11
230.875
 21
-40.6875
  0
LINE
  8
0
 10
230.875
 20
-40.6875
 11
228.875
 21
-40.6875
  0
LINE
  8
0
 10
350.625
 20
-40.6875
 11
350.625
 21
-20.6875
  0
LINE
  8
0
 10
350.625
 20
-20.6875
 11
352.625
 21
-20.6875
  0
LINE
  8
0
 10
352.625
 20
-20.6875
 11
352.625
 21
-40.6875
  0
LINE
  8
0
 10
352.625
 20
-40.6875
 11
350.625
 21
-40.6875
  0
LINE
  8
0
 10
210.875
 20
-40.6875
 11
210.875
 21
-20.6875
  0
LINE
  8
0
 10
210.875
 20
-20.6875
 11
212.875
 21
-20.6875
  0
LINE
  8
0
 10
212.875
 20
-20.6875
 11
212.875
 21
-40.6875
  0
LINE
  8
0
 10
212.875
 20
-40.6875
 11
210.875
 21
-40.6875
  0
LINE
  8
0
 10
204.875
 20
-40.6875
 11
204.875
 21
-20.6875
  0
LINE
  8
0
 10
204.875
 20
-20.6875
 11
206.875
 21
-20.6875
  0
LINE
  8
0
 10
206.875
 20
-20.6875
 11
206.875
 21
-40.6875
  0
LINE
  8
0
 10
206.875
 20
-40.6875
 11
204.875
 21
-40.6875
  0
LINE
  8
0
 10
216.875
 20
-40.6875
 11
216.875
 21
-20.6875
  0
LINE
  8
0
 10
216.875
 20
-20.6875
 11
218.875
 21
-20.6875
  0
LINE
  8
0
 10
218.875
 20
-20.6875
 11
218.875
 21
-40.6875
  0
LINE
  8
0
 10
218.875
 20
-40.6875
 11
216.875
 21
-40.6875
  0
LINE
  8
0
 10
344.625
 20
-40.6875
 11
344.625
 21
-20.6875
  0
LINE
  8
0
 10
344.625
 20
-20.6875
 11
346.625
 21
-20.6875
  0
LINE
  8
0
 10
346.625
 20
-20.6875
 11
346.625
 21
-40.6875
  0
LINE
  8
0
 10
346.625
 20
-40.6875
 11
344.625
 21
-40.6875
  0
LINE
  8
0
 10
338.625
 20
-40.6875
 11
338.625
 21
-20.6875
  0
LINE
  8
0
 10
338.625
 20
-20.6875
 11
340.625
 21
-20.6875
  0
LINE
  8
0
 10
340.625
 20
-20.6875
 11
340.625
 21
-40.6875
  0
LINE
  8
0
 10
340.625
 20
-40.6875
 11
338.625
 21
-40.6875
  0
LINE
  8
0
 10
332.625
 20
-40.6875
 11
332.625
 21
-20.6875
  0
LINE
  8
0
 10
332.625
 20
-20.6875
 11
334.625
 21
-20.6875
  0
LINE
  8
0
 10
334.625
 20
-20.6875
 11
334.625
 21
-40.6875
  0
LINE
  8
0
 10
334.625
 20
-40.6875
 11
332.625
 21
-40.6875
  0
LINE
  8
0
 10
326.625
 20
-40.6875
 11
326.625
 21
-20.6875
  0
LINE
  8
0
 10
326.625
 20
-20.6875
 11
328.625
 21
-20.6875
  0
LINE
  8
0
 10
328.625
 20
-20.6875
 11
328.625
 21
-40.6875
  0
LINE
  8
0
 10
328.625
 20
-40.6875
 11
326.625
 21
-40.6875
  0
LINE
  8
0
 10
320.625
 20
-40.6875
 11
320.625
 21
-20.6875
  0
LINE
  8
0
 10
320.625
 20
-20.6875
 11
322.625
 21
-20.6875
  0
LINE
  8
0
 10
322.625
 20
-20.6875
 11
322.625
 21
-40.6875
  0
LINE
  8
0
 10
322.625
 20
-40.6875
 11
320.625
 21
-40.6875
  0
LINE
  8
0
 10
314.625
 20
-40.6875
 11
314.625
 21
-20.6875
  0
LINE
  8
0
 10
314.625
 20
-20.6875
 11
316.625
 21
-20.6875
  0
LINE
  8
0
 10
316.625
 20
-20.6875
 11
316.625
 21
-40.6875
  0
LINE
  8
0
 10
316.625
 20
-40.6875
 11
314.625
 21
-40.6875
  0
LINE
  8
0
 10
308.625
 20
-40.6875
 11
308.625
 21
-20.6875
  0
LINE
  8
0
 10
308.625
 20
-20.6875
 11
310.625
 21
-20.6875
  0
LINE
  8
0
 10
310.625
 20
-20.6875
 11
310.625
 21
-40.6875
  0
LINE
  8
0
 10
310.625
 20
-40.6875
 11
308.625
 21
-40.6875
  0
LINE
  8
0
 10
198.875
 20
-40.6875
 11
198.875
 21
-20.6875
  0
LINE
  8
0
 10
198.875
 20
-20.6875
 11
200.875
 21
-20.6875
  0
LINE
  8
0
 10
200.875
 20
-20.6875
 11
200.875
 21
-40.6875
  0
LINE
  8
0
 10
200.875
 20
-40.6875
 11
198.875
 21
-40.6875
  0
LINE
  8
0
 10
186.875
 20
-40.6875
 11
186.875
 21
-20.6875
  0
LINE
  8
0
 10
186.875
 20
-20.6875
 11
188.875
 21
-20.6875
  0
LINE
  8
0
 10
188.875
 20
-20.6875
 11
188.875
 21
-40.6875
  0
LINE
  8
0
 10
188.875
 20
-40.6875
 11
186.875
 21
-40.6875
  0
LINE
  8
0
 10
222.875
 20
-40.6875
 11
222.875
 21
-20.6875
  0
LINE
  8
0
 10
222.875
 20
-20.6875
 11
224.875
 21
-20.6875
  0
LINE
  8
0
 10
224.875
 20
-20.6875
 11
224.875
 21
-40.6875
  0
LINE
  8
0
 10
224.875
 20
-40.6875
 11
222.875
 21
-40.6875
  0
LINE
  8
0
 10
192.875
 20
-40.6875
 11
192.875
 21
-20.6875
  0
LINE
  8
0
 10
192.875
 20
-20.6875
 11
194.875
 21
-20.6875
  0
LINE
  8
0
 10
194.875
 20
-20.6875
 11
194.875
 21
-40.6875
  0
LINE
  8
0
 10
194.875
 20
-40.6875
 11
192.875
 21
-40.6875
  0
LINE
  8
0
 10
154.936
 20
-106.484
 11
154.323
 21
-106.353
  0
LINE
  8
0
 10
154.323
 20
-106.353
 11
153.75
 21
-106.098
  0
LINE
  8
0
 10
153.75
 20
-106.098
 11
153.243
 21
-105.729
  0
LINE
  8
0
 10
153.243
 20
-105.729
 11
152.823
 21
-105.263
  0
LINE
  8
0
 10
152.823
 20
-105.263
 11
152.509
 21
-104.72
  0
LINE
  8
0
 10
152.509
 20
-104.72
 11
152.316
 21
-104.124
  0
LINE
  8
0
 10
152.316
 20
-104.124
 11
152.25
 21
-103.5
  0
LINE
  8
0
 10
152.25
 20
-103.5
 11
152.316
 21
-102.876
  0
LINE
  8
0
 10
152.316
 20
-102.876
 11
152.509
 21
-102.28
  0
LINE
  8
0
 10
152.509
 20
-102.28
 11
152.823
 21
-101.737
  0
LINE
  8
0
 10
152.823
 20
-101.737
 11
153.243
 21
-101.271
  0
LINE
  8
0
 10
153.243
 20
-101.271
 11
153.75
 21
-100.902
  0
LINE
  8
0
 10
153.75
 20
-100.902
 11
154.323
 21
-100.647
  0
LINE
  8
0
 10
154.323
 20
-100.647
 11
154.936
 21
-100.516
  0
LINE
  8
0
 10
154.936
 20
-100.516
 11
155.564
 21
-100.516
  0
LINE
  8
0
 10
155.564
 20
-100.516
 11
156.177
 21
-100.647
  0
LINE
  8
0
 10
156.177
 20
-100.647
 11
156.75
 21
-100.902
  0
LINE
  8
0
 10
156.75
 20
-100.902
 11
157.257
 21
-101.271
  0
LINE
  8
0
 10
157.257
 20
-101.271
 11
157.677
 21
-101.737
  0
LINE
  8
0
 10
157.677
 20
-101.737
 11
157.991
 21
-102.28
  0
LINE
  8
0
 10
157.991
 20
-102.28
 11
158.184
 21
-102.876
  0
LINE
  8
0
 10
158.184
 20
-102.876
 11
158.25
 21
-103.5
  0
LINE
  8
0
 10
158.25
 20
-103.5
 11
158.184
 21
-104.124
  0
LINE
  8
0
 10
158.184
 20
-104.124
 11
157.991
 21
-104.72
  0
LINE
  8
0
 10
157.991
 20
-104.72
 11
157.677
 21
-105.263
  0
LINE
  8
0
 10
157.677
 20
-105.263
 11
157.257
 21
-105.729
  0
LINE
  8
0
 10
157.257
 20
-105.729
 11
156.75
 21
-106.098
  0
LINE
  8
0
 10
156.75
 20
-106.098
 11
156.177
 21
-106.353
  0
LINE
  8
0
 10
156.177
 20
-106.353
 11
155.564
 21
-106.484
  0
LINE
  8
0
 10
155.564
 20
-106.484
 11
154.936
 21
-106.484
  0
LINE
  8
0
 10
383.936
 20
-106.484
 11
383.323
 21
-106.353
  0
LINE
  8
0
 10
383.323
 20
-106.353
 11
382.75
 21
-106.098
  0
LINE
  8
0
 10
382.75
 20
-106.098
 11
382.243
 21
-105.729
  0
LINE
  8
0
 10
382.243
 20
-105.729
 11
381.823
 21
-105.263
  0
LINE
  8
0
 10
381.823
 20
-105.263
 11
381.509
 21
-104.72
  0
LINE
  8
0
 10
381.509
 20
-104.72
 11
381.316
 21
-104.124
  0
LINE
  8
0
 10
381.316
 20
-104.124
 11
381.25
 21
-103.5
  0
LINE
  8
0
 10
381.25
 20
-103.5
 11
381.316
 21
-102.876
  0
LINE
  8
0
 10
381.316
 20
-102.876
 11
381.509
 21
-102.28
  0
LINE
  8
0
 10
381.509
 20
-102.28
 11
381.823
 21
-101.737
  0
LINE
  8
0
 10
381.823
 20
-101.737
 11
382.243
 21
-101.271
  0
LINE
  8
0
 10
382.243
 20
-101.271
 11
382.75
 21
-100.902
  0
LINE
  8
0
 10
382.75
 20
-100.902
 11
383.323
 21
-100.647
  0
LINE
  8
0
 10
383.323
 20
-100.647
 11
383.936
 21
-100.516
  0
LINE
  8
0
 10
383.936
 20
-100.516
 11
384.564
 21
-100.516
  0
LINE
  8
0
 10
384.564
 20
-100.516
 11
385.177
 21
-100.647
  0
LINE
  8
0
 10
385.177
 20
-100.647
 11
385.75
 21
-100.902
  0
LINE
  8
0
 10
385.75
 20
-100.902
 11
386.257
 21
-101.271
  0
LINE
  8
0
 10
386.257
 20
-101.271
 11
386.677
 21
-101.737
  0
LINE
  8
0
 10
386.677
 20
-101.737
 11
386.991
 21
-102.28
  0
LINE
  8
0
 10
386.991
 20
-102.28
 11
387.184
 21
-102.876
  0
LINE
  8
0
 10
387.184
 20
-102.876
 11
387.25
 21
-103.5
  0
LINE
  8
0
 10
387.25
 20
-103.5
 11
387.184
 21
-104.124
  0
LINE
  8
0
 10
387.184
 20
-104.124
 11
386.991
 21
-104.72
  0
LINE
  8
0
 10
386.991
 20
-104.72
 11
386.677
 21
-105.263
  0
LINE
  8
0
 10
386.677
 20
-105.263
 11
386.257
 21
-105.729
  0
LINE
  8
0
 10
386.257
 20
-105.729
 11
385.75
 21
-106.098
  0
LINE
  8
0
 10
385.75
 20
-106.098
 11
385.177
 21
-106.353
  0
LINE
  8
0
 10
385.177
 20
-106.353
 11
384.564
 21
-106.484
  0
LINE
  8
0
 10
384.564
 20
-106.484
 11
383.936
 21
-106.484
  0
LINE
  8
0
 10
-105.1
 20
-173.9
 11
-94.9
 21
-173.9
  0
LINE
  8
0
 10
-94.9
 20
-173.9
 11
-94.9
 21
-177
  0
LINE
  8
0
 10
-94.9
 20
-177
 11
-85.1
 21
-177
  0
LINE
  8
0
 10
-85.1
 20
-177
 11
-85.1
 21
-173.9
  0
LINE
  8
0
 10
-85.1
 20
-173.9
 11
-74.9
 21
-173.9
  0
LINE
  8
0
 10
-74.9
 20
-173.9
 11
-74.9
 21
-177
  0
LINE
  8
0
 10
-74.9
 20
-177
 11
-65.1
 21
-177
  0
LINE
  8
0
 10
-65.1
 20
-177
 11
-65.1
 21
-173.9
  0
LINE
  8
0
 10
-65.1
 20
-173.9
 11
-54.9
 21
-173.9
  0
LINE
  8
0
 10
-54.9
 20
-173.9
 11
-54.9
 21
-177
  0
LINE
  8
0
 10
-54.9
 20
-177
 11
-45.1
 21
-177
  0
LINE
  8
0
 10
-45.1
 20
-177
 11
-45.1
 21
-173.9
  0
LINE
  8
0
 10
-45.1
 20
-173.9
 11
-34.9
 21
-173.9
  0
LINE
  8
0
 10
-34.9
 20
-173.9
 11
-34.9
 21
-177
  0
LINE
  8
0
 10
-34.9
 20
-177
 11
-25.1
 21
-177
  0
LINE
  8
0
 10
-25.1
 20
-177
 11
-25.1
 21
-173.9
  0
LINE
  8
0
 10
-25.1
 20
-173.9
 11
-14.9
 21
-173.9
  0
LINE
  8
0
 10
-14.9
 20
-173.9
 11
-14.9
 21
-177
  0
LINE
  8
0
 10
-14.9
 20
-177
 11
-5.10001
 21
-177
  0
LINE
  8
0
 10
-5.10001
 20
-177
 11
-5.10001
 21
-173.9
  0
LINE
  8
0
 10
-5.10001
 20
-173.9
 11
5.09999
 21
-173.9
  0
LINE
  8
0
 10
5.09999
 20
-173.9
 11
5.09999
 21
-177
  0
LINE
  8
0
 10
5.09999
 20
-177
 11
14.9
 21
-177
  0
LINE
  8
0
 10
14.9
 20
-177
 11
14.9
 21
-173.9
  0
LINE
  8
0
 10
14.9
 20
-173.9
 11
25.1
 21
-173.9
  0
LINE
  8
0
 10
25.1
 20
-173.9
 11
25.1
 21
-177
  0
LINE
  8
0
 10
25.1
 20
-177
 11
34.9
 21
-177
  0
LINE
  8
0
 10
34.9
 20
-177
 11
34.9
 21
-173.9
  0
LINE
  8
0
 10
34.9
 20
-173.9
 11
45.1
 21
-173.9
  0
LINE
  8
0
 10
45.1
 20
-173.9
 11
45.1
 21
-177
  0
LINE
  8
0
 10
45.1
 20
-177
 11
54.9
 21
-177
  0
LINE
  8
0
 10
54.9
 20
-177
 11
54.9
 21
-173.9
  0
LINE
  8
0
 10
54.9
 20
-173.9
 11
65.1
 21
-173.9
  0
LINE
  8
0
 10
65.1
 20
-173.9
 11
65.1
 21
-177
  0
LINE
  8
0
 10
65.1
 20
-177
 11
74.9
 21
-177
  0
LINE
  8
0
 10
74.9
 20
-177
 11
74.9
 21
-173.9
  0
LINE
  8
0
 10
74.9
 20
-173.9
 11
85.1
 21
-173.9
  0
LINE
  8
0
 10
85.1
 20
-173.9
 11
85.1
 21
-177
  0
LINE
  8
0
 10
85.1
 20
-177
 11
94.9
 21
-177
  0
LINE
  8
0
 10
94.9
 20
-177
 11
94.9
 21
-173.9
  0
LINE
  8
0
 10
94.9
 20
-173.9
 11
105.1
 21
-173.9
  0
LINE
  8
0
 10
105.1
 20
-173.9
 11
105.1
 21
-177
  0
LINE
  8
0
 10
105.1
 20
-177
 11
114.9
 21
-177
  0
LINE
  8
0
 10
114.9
 20
-177
 11
114.9
 21
-173.9
  0
LINE
  8
0
 10
114.9
 20
-173.9
 11
121.9
 21
-173.9
  0
LINE
  8
0
 10
121.9
 20
-173.9
 11
121.9
 21
-165.1
  0
LINE
  8
0
 10
121.9
 20
-165.1
 11
125
 21
-165.1
  0
LINE
  8
0
 10
125
 20
-165.1
 11
125
 21
-153.5
  0
LINE
  8
0
 10
125
 20
-153.5
 11
121.9
 21
-153.5
  0
LINE
  8
0
 10
121.9
 20
-153.5
 11
121.9
 21
-141.5
  0
LINE
  8
0
 10
121.9
 20
-141.5
 11
125
 21
-141.5
  0
LINE
  8
0
 10
125
 20
-141.5
 11
125
 21
-129.9
  0
LINE
  8
0
 10
125
 20
-129.9
 11
121.9
 21
-129.9
  0
LINE
  8
0
 10
121.9
 20
-129.9
 11
121.9
 21
-124
  0
LINE
  8
0
 10
121.9
 20
-124
 11
114.5
 21
-124
  0
LINE
  8
0
 10
114.5
 20
-124
 11
114.5
 21
-121
  0
LINE
  8
0
 10
114.5
 20
-121
 11
121.9
 21
-121
  0
LINE
  8
0
 10
121.9
 20
-121
 11
121.9
 21
-118
  0
LINE
  8
0
 10
121.9
 20
-118
 11
-121.9
 21
-118
  0
LINE
  8
0
 10
-121.9
 20
-118
 11
-121.9
 21
-121
  0
LINE
  8
0
 10
-121.9
 20
-121
 11
-114.5
 21
-121
  0
LINE
  8
0
 10
-114.5
 20
-121
 11
-114.5
 21
-124
  0
LINE
  8
0
 10
-114.5
 20
-124
 11
-121.9
 21
-124
  0
LINE
  8
0
 10
-121.9
 20
-124
 11
-121.9
 21
-129.9
  0
LINE
  8
0
 10
-121.9
 20
-129.9
 11
-125
 21
-129.9
  0
LINE
  8
0
 10
-125
 20
-129.9
 11
-125
 21
-141.5
  0
LINE
  8
0
 10
-125
 20
-141.5
 11
-121.9
 21
-141.5
  0
LINE
  8
0
 10
-121.9
 20
-141.5
 11
-121.9
 21
-153.5
  0
LINE
  8
0
 10
-121.9
 20
-153.5
 11
-125
 21
-153.5
  0
LINE
  8
0
 10
-125
 20
-153.5
 11
-125
 21
-165.1
  0
LINE
  8
0
 10
-125
 20
-165.1
 11
-121.9
 21
-165.1
  0
LINE
  8
0
 10
-121.9
 20
-165.1
 11
-121.9
 21
-173.9
  0
LINE
  8
0
 10
-121.9
 20
-173.9
 11
-114.9
 21
-173.9
  0
LINE
  8
0
 10
-114.9
 20
-173.9
 11
-114.9
 21
-177
  0
LINE
  8
0
 10
-114.9
 20
-177
 11
-105.1
 21
-177
  0
LINE
  8
0
 10
-105.1
 20
-177
 11
-105.1
 21
-173.9
  0
LINE
  8
0
 10
21.0614
 20
-144.926
 11
20.1459
 21
-144.706
  0
LINE
  8
0
 10
20.1459
 20
-144.706
 11
19.276
 21
-144.346
  0
LINE
  8
0
 10
19.276
 20
-144.346
 11
18.4733
 21
-143.854
  0
LINE
  8
0
 10
18.4733
 20
-143.854
 11
17.7574
 21
-143.243
  0
LINE
  8
0
 10
17.7574
 20
-143.243
 11
17.1459
 21
-142.527
  0
LINE
  8
0
 10
17.1459
 20
-142.527
 11
16.6539
 21
-141.724
  0
LINE
  8
0
 10
16.6539
 20
-141.724
 11
16.2937
 21
-140.854
  0
LINE
  8
0
 10
16.2937
 20
-140.854
 11
16.0739
 21
-139.939
  0
LINE
  8
0
 10
16.0739
 20
-139.939
 11
16
 21
-139
  0
LINE
  8
0
 10
16
 20
-139
 11
16.0739
 21
-138.061
  0
LINE
  8
0
 10
16.0739
 20
-138.061
 11
16.2937
 21
-137.146
  0
LINE
  8
0
 10
16.2937
 20
-137.146
 11
16.6539
 21
-136.276
  0
LINE
  8
0
 10
16.6539
 20
-136.276
 11
17.1459
 21
-135.473
  0
LINE
  8
0
 10
17.1459
 20
-135.473
 11
17.7574
 21
-134.757
  0
LINE
  8
0
 10
17.7574
 20
-134.757
 11
18.4733
 21
-134.146
  0
LINE
  8
0
 10
18.4733
 20
-134.146
 11
19.276
 21
-133.654
  0
LINE
  8
0
 10
19.276
 20
-133.654
 11
20.1459
 21
-133.294
  0
LINE
  8
0
 10
20.1459
 20
-133.294
 11
21.0614
 21
-133.074
  0
LINE
  8
0
 10
21.0614
 20
-133.074
 11
22
 21
-133
  0
LINE
  8
0
 10
22
 20
-133
 11
22.9386
 21
-133.074
  0
LINE
  8
0
 10
22.9386
 20
-133.074
 11
23.8541
 21
-133.294
  0
LINE
  8
0
 10
23.8541
 20
-133.294
 11
24.7239
 21
-133.654
  0
LINE
  8
0
 10
24.7239
 20
-133.654
 11
25.5267
 21
-134.146
  0
LINE
  8
0
 10
25.5267
 20
-134.146
 11
26.2426
 21
-134.757
  0
LINE
  8
0
 10
26.2426
 20
-134.757
 11
26.8541
 21
-135.473
  0
LINE
  8
0
 10
26.8541
 20
-135.473
 11
27.346
 21
-136.276
  0
LINE
  8
0
 10
27.346
 20
-136.276
 11
27.7063
 21
-137.146
  0
LINE
  8
0
 10
27.7063
 20
-137.146
 11
27.9261
 21
-138.061
  0
LINE
  8
0
 10
27.9261
 20
-138.061
 11
28
 21
-139
  0
LINE
  8
0
 10
28
 20
-139
 11
27.9261
 21
-139.939
  0
LINE
  8
0
 10
27.9261
 20
-139.939
 11
27.7063
 21
-140.854
  0
LINE
  8
0
 10
27.7063
 20
-140.854
 11
27.346
 21
-141.724
  0
LINE
  8
0
 10
27.346
 20
-141.724
 11
26.8541
 21
-142.527
  0
LINE
  8
0
 10
26.8541
 20
-142.527
 11
26.2426
 21
-143.243
  0
LINE
  8
0
 10
26.2426
 20
-143.243
 11
25.5267
 21
-143.854
  0
LINE
  8
0
 10
25.5267
 20
-143.854
 11
24.7239
 21
-144.346
  0
LINE
  8
0
 10
24.7239
 20
-144.346
 11
23.8541
 21
-144.706
  0
LINE
  8
0
 10
23.8541
 20
-144.706
 11
22.9386
 21
-144.926
  0
LINE
  8
0
 10
22.9386
 20
-144.926
 11
22
 21
-145
  0
LINE
  8
0
 10
22
 20
-145
 11
21.0614
 21
-144.926
  0
LINE
  8
0
 10
-0.938599
 20
-144.926
 11
-1.8541
 21
-144.706
  0
LINE
  8
0
 10
-1.8541
 20
-144.706
 11
-2.72394
 21
-144.346
  0
LINE
  8
0
 10
-2.72394
 20
-144.346
 11
-3.5267
 21
-143.854
  0
LINE
  8
0
 10
-3.5267
 20
-143.854
 11
-4.24263
 21
-143.243
  0
LINE
  8
0
 10
-4.24263
 20
-143.243
 11
-4.8541
 21
-142.527
  0
LINE
  8
0
 10
-4.8541
 20
-142.527
 11
-5.34604
 21
-141.724
  0
LINE
  8
0
 10
-5.34604
 20
-141.724
 11
-5.70633
 21
-140.854
  0
LINE
  8
0
 10
-5.70633
 20
-140.854
 11
-5.92612
 21
-139.939
  0
LINE
  8
0
 10
-5.92612
 20
-139.939
 11
-6
 21
-139
  0
LINE
  8
0
 10
-6
 20
-139
 11
-5.92612
 21
-138.061
  0
LINE
  8
0
 10
-5.92612
 20
-138.061
 11
-5.70633
 21
-137.146
  0
LINE
  8
0
 10
-5.70633
 20
-137.146
 11
-5.34604
 21
-136.276
  0
LINE
  8
0
 10
-5.34604
 20
-136.276
 11
-4.8541
 21
-135.473
  0
LINE
  8
0
 10
-4.8541
 20
-135.473
 11
-4.24263
 21
-134.757
  0
LINE
  8
0
 10
-4.24263
 20
-134.757
 11
-3.5267
 21
-134.146
  0
LINE
  8
0
 10
-3.5267
 20
-134.146
 11
-2.72394
 21
-133.654
  0
LINE
  8
0
 10
-2.72394
 20
-133.654
 11
-1.8541
 21
-133.294
  0
LINE
  8
0
 10
-1.8541
 20
-133.294
 11
-0.938599
 21
-133.074
  0
LINE
  8
0
 10
-0.938599
 20
-133.074
 11
0
 21
-133
  0
LINE
  8
0
 10
0
 20
-133
 11
0.938599
 21
-133.074
  0
LINE
  8
0
 10
0.938599
 20
-133.074
 11
1.8541
 21
-133.294
  0
LINE
  8
0
 10
1.8541
 20
-133.294
 11
2.72394
 21
-133.654
  0
LINE
  8
0
 10
2.72394
 20
-133.654
 11
3.5267
 21
-134.146
  0
LINE
  8
0
 10
3.5267
 20
-134.146
 11
4.24263
 21
-134.757
  0
LINE
  8
0
 10
4.24263
 20
-134.757
 11
4.8541
 21
-135.473
  0
LINE
  8
0
 10
4.8541
 20
-135.473
 11
5.34604
 21
-136.276
  0
LINE
  8
0
 10
5.34604
 20
-136.276
 11
5.70633
 21
-137.146
  0
LINE
  8
0
 10
5.70633
 20
-137.146
 11
5.92612
 21
-138.061
  0
LINE
  8
0
 10
5.92612
 20
-138.061
 11
6
 21
-139
  0
LINE
  8
0
 10
6
 20
-139
 11
5.92612
 21
-139.939
  0
LINE
  8
0
 10
5.92612
 20
-139.939
 11
5.70633
 21
-140.854
  0
LINE
  8
0
 10
5.70633
 20
-140.854
 11
5.34604
 21
-141.724
  0
LINE
  8
0
 10
5.34604
 20
-141.724
 11
4.8541
 21
-142.527
  0
LINE
  8
0
 10
4.8541
 20
-142.527
 11
4.24263
 21
-143.243
  0
LINE
  8
0
 10
4.24263
 20
-143.243
 11
3.5267
 21
-143.854
  0
LINE
  8
0
 10
3.5267
 20
-143.854
 11
2.72394
 21
-144.346
  0
LINE
  8
0
 10
2.72394
 20
-144.346
 11
1.8541
 21
-144.706
  0
LINE
  8
0
 10
1.8541
 20
-144.706
 11
0.938599
 21
-144.926
  0
LINE
  8
0
 10
0.938599
 20
-144.926
 11
0
 21
-145
  0
LINE
  8
0
 10
0
 20
-145
 11
-0.938599
 21
-144.926
  0
LINE
  8
0
 10
-22.9386
 20
-144.926
 11
-23.8541
 21
-144.706
  0
LINE
  8
0
 10
-23.8541
 20
-144.706
 11
-24.7239
 21
-144.346
  0
LINE
  8
0
 10
-24.7239
 20
-144.346
 11
-25.5267
 21
-143.854
  0
LINE
  8
0
 10
-25.5267
 20
-143.854
 11
-26.2426
 21
-143.243
  0
LINE
  8
0
 10
-26.2426
 20
-143.243
 11
-26.8541
 21
-142.527
  0
LINE
  8
0
 10
-26.8541
 20
-142.527
 11
-27.346
 21
-141.724
  0
LINE
  8
0
 10
-27.346
 20
-141.724
 11
-27.7063
 21
-140.854
  0
LINE
  8
0
 10
-27.7063
 20
-140.854
 11
-27.9261
 21
-139.939
  0
LINE
  8
0
 10
-27.9261
 20
-139.939
 11
-28
 21
-139
  0
LINE
  8
0
 10
-28
 20
-139
 11
-27.9261
 21
-138.061
  0
LINE
  8
0
 10
-27.9261
 20
-138.061
 11
-27.7063
 21
-137.146
  0
LINE
  8
0
 10
-27.7063
 20
-137.146
 11
-27.346
 21
-136.276
  0
LINE
  8
0
 10
-27.346
 20
-136.276
 11
-26.8541
 21
-135.473
  0
LINE
  8
0
 10
-26.8541
 20
-135.473
 11
-26.2426
 21
-134.757
  0
LINE
  8
0
 10
-26.2426
 20
-134.757
 11
-25.5267
 21
-134.146
  0
LINE
  8
0
 10
-25.5267
 20
-134.146
 11
-24.7239
 21
-133.654
  0
LINE
  8
0
 10
-24.7239
 20
-133.654
 11
-23.8541
 21
-133.294
  0
LINE
  8
0
 10
-23.8541
 20
-133.294
 11
-22.9386
 21
-133.074
  0
LINE
  8
0
 10
-22.9386
 20
-133.074
 11
-22
 21
-133
  0
LINE
  8
0
 10
-22
 20
-133
 11
-21.0614
 21
-133.074
  0
LINE
  8
0
 10
-21.0614
 20
-133.074
 11
-20.1459
 21
-133.294
  0
LINE
  8
0
 10
-20.1459
 20
-133.294
 11
-19.276
 21
-133.654
  0
LINE
  8
0
 10
-19.276
 20
-133.654
 11
-18.4733
 21
-134.146
  0
LINE
  8
0
 10
-18.4733
 20
-134.146
 11
-17.7574
 21
-134.757
  0
LINE
  8
0
 10
-17.7574
 20
-134.757
 11
-17.1459
 21
-135.473
  0
LINE
  8
0
 10
-17.1459
 20
-135.473
 11
-16.6539
 21
-136.276
  0
LINE
  8
0
 10
-16.6539
 20
-136.276
 11
-16.2937
 21
-137.146
  0
LINE
  8
0
 10
-16.2937
 20
-137.146
 11
-16.0739
 21
-138.061
  0
LINE
  8
0
 10
-16.0739
 20
-138.061
 11
-16
 21
-139
  0
LINE
  8
0
 10
-16
 20
-139
 11
-16.0739
 21
-139.939
  0
LINE
  8
0
 10
-16.0739
 20
-139.939
 11
-16.2937
 21
-140.854
  0
LINE
  8
0
 10
-16.2937
 20
-140.854
 11
-16.6539
 21
-141.724
  0
LINE
  8
0
 10
-16.6539
 20
-141.724
 11
-17.1459
 21
-142.527
  0
LINE
  8
0
 10
-17.1459
 20
-142.527
 11
-17.7574
 21
-143.243
  0
LINE
  8
0
 10
-17.7574
 20
-143.243
 11
-18.4733
 21
-143.854
  0
LINE
  8
0
 10
-18.4733
 20
-143.854
 11
-19.276
 21
-144.346
  0
LINE
  8
0
 10
-19.276
 20
-144.346
 11
-20.1459
 21
-144.706
  0
LINE
  8
0
 10
-20.1459
 20
-144.706
 11
-21.0614
 21
-144.926
  0
LINE
  8
0
 10
-21.0614
 20
-144.926
 11
-22
 21
-145
  0
LINE
  8
0
 10
-22
 20
-145
 11
-22.9386
 21
-144.926
  0
LINE
  8
0
 10
178.78
 20
-174.65
 11
188.546
 21
-174.65
  0
LINE
  8
0
 10
188.546
 20
-174.65
 11
188.546
 21
-177.75
  0
LINE
  8
0
 10
188.546
 20
-177.75
 11
197.911
 21
-177.75
  0
LINE
  8
0
 10
197.911
 20
-177.75
 11
197.911
 21
-174.65
  0
LINE
  8
0
 10
197.911
 20
-174.65
 11
207.676
 21
-174.65
  0
LINE
  8
0
 10
207.676
 20
-174.65
 11
207.676
 21
-177.75
  0
LINE
  8
0
 10
207.676
 20
-177.75
 11
217.041
 21
-177.75
  0
LINE
  8
0
 10
217.041
 20
-177.75
 11
217.041
 21
-174.65
  0
LINE
  8
0
 10
217.041
 20
-174.65
 11
226.807
 21
-174.65
  0
LINE
  8
0
 10
226.807
 20
-174.65
 11
226.807
 21
-177.75
  0
LINE
  8
0
 10
226.807
 20
-177.75
 11
236.172
 21
-177.75
  0
LINE
  8
0
 10
236.172
 20
-177.75
 11
236.172
 21
-174.65
  0
LINE
  8
0
 10
236.172
 20
-174.65
 11
245.937
 21
-174.65
  0
LINE
  8
0
 10
245.937
 20
-174.65
 11
245.937
 21
-177.75
  0
LINE
  8
0
 10
245.937
 20
-177.75
 11
255.302
 21
-177.75
  0
LINE
  8
0
 10
255.302
 20
-177.75
 11
255.302
 21
-174.65
  0
LINE
  8
0
 10
255.302
 20
-174.65
 11
265.067
 21
-174.65
  0
LINE
  8
0
 10
265.067
 20
-174.65
 11
265.067
 21
-177.75
  0
LINE
  8
0
 10
265.067
 20
-177.75
 11
274.433
 21
-177.75
  0
LINE
  8
0
 10
274.433
 20
-177.75
 11
274.433
 21
-174.65
  0
LINE
  8
0
 10
274.433
 20
-174.65
 11
284.198
 21
-174.65
  0
LINE
  8
0
 10
284.198
 20
-174.65
 11
284.198
 21
-177.75
  0
LINE
  8
0
 10
284.198
 20
-177.75
 11
293.563
 21
-177.75
  0
LINE
  8
0
 10
293.563
 20
-177.75
 11
293.563
 21
-174.65
  0
LINE
  8
0
 10
293.563
 20
-174.65
 11
303.328
 21
-174.65
  0
LINE
  8
0
 10
303.328
 20
-174.65
 11
303.328
 21
-177.75
  0
LINE
  8
0
 10
303.328
 20
-177.75
 11
312.693
 21
-177.75
  0
LINE
  8
0
 10
312.693
 20
-177.75
 11
312.693
 21
-174.65
  0
LINE
  8
0
 10
312.693
 20
-174.65
 11
322.459
 21
-174.65
  0
LINE
  8
0
 10
322.459
 20
-174.65
 11
322.459
 21
-177.75
  0
LINE
  8
0
 10
322.459
 20
-177.75
 11
331.824
 21
-177.75
  0
LINE
  8
0
 10
331.824
 20
-177.75
 11
331.824
 21
-174.65
  0
LINE
  8
0
 10
331.824
 20
-174.65
 11
341.589
 21
-174.65
  0
LINE
  8
0
 10
341.589
 20
-174.65
 11
341.589
 21
-177.75
  0
LINE
  8
0
 10
341.589
 20
-177.75
 11
350.954
 21
-177.75
  0
LINE
  8
0
 10
350.954
 20
-177.75
 11
350.954
 21
-174.65
  0
LINE
  8
0
 10
350.954
 20
-174.65
 11
360.72
 21
-174.65
  0
LINE
  8
0
 10
360.72
 20
-174.65
 11
360.72
 21
-177.75
  0
LINE
  8
0
 10
360.72
 20
-177.75
 11
370.085
 21
-177.75
  0
LINE
  8
0
 10
370.085
 20
-177.75
 11
370.085
 21
-174.65
  0
LINE
  8
0
 10
370.085
 20
-174.65
 11
379.75
 21
-174.65
  0
LINE
  8
0
 10
379.75
 20
-174.65
 11
379.75
 21
-166.05
  0
LINE
  8
0
 10
379.75
 20
-166.05
 11
376.65
 21
-166.05
  0
LINE
  8
0
 10
376.65
 20
-166.05
 11
376.65
 21
-154.05
  0
LINE
  8
0
 10
376.65
 20
-154.05
 11
379.75
 21
-154.05
  0
LINE
  8
0
 10
379.75
 20
-154.05
 11
379.75
 21
-142.45
  0
LINE
  8
0
 10
379.75
 20
-142.45
 11
376.65
 21
-142.45
  0
LINE
  8
0
 10
376.65
 20
-142.45
 11
376.65
 21
-130.45
  0
LINE
  8
0
 10
376.65
 20
-130.45
 11
379.75
 21
-130.45
  0
LINE
  8
0
 10
379.75
 20
-130.45
 11
379.75
 21
-124.75
  0
LINE
  8
0
 10
379.75
 20
-124.75
 11
369.25
 21
-124.75
  0
LINE
  8
0
 10
369.25
 20
-124.75
 11
369.25
 21
-121.75
  0
LINE
  8
0
 10
369.25
 20
-121.75
 11
379.75
 21
-121.75
  0
LINE
  8
0
 10
379.75
 20
-121.75
 11
379.75
 21
-118.75
  0
LINE
  8
0
 10
379.75
 20
-118.75
 11
159.75
 21
-118.75
  0
LINE
  8
0
 10
159.75
 20
-118.75
 11
159.75
 21
-121.75
  0
LINE
  8
0
 10
159.75
 20
-121.75
 11
170.25
 21
-121.75
  0
LINE
  8
0
 10
170.25
 20
-121.75
 11
170.25
 21
-124.75
  0
LINE
  8
0
 10
170.25
 20
-124.75
 11
159.75
 21
-124.75
  0
LINE
  8
0
 10
159.75
 20
-124.75
 11
159.75
 21
-130.45
  0
LINE
  8
0
 10
159.75
 20
-130.45
 11
162.85
 21
-130.45
  0
LINE
  8
0
 10
162.85
 20
-130.45
 11
162.85
 21
-142.45
  0
LINE
  8
0
 10
162.85
 20
-142.45
 11
159.75
 21
-142.45
  0
LINE
  8
0
 10
159.75
 20
-142.45
 11
159.75
 21
-154.05
  0
LINE
  8
0
 10
159.75
 20
-154.05
 11
162.85
 21
-154.05
  0
LINE
  8
0
 10
162.85
 20
-154.05
 11
162.85
 21
-166.05
  0
LINE
  8
0
 10
162.85
 20
-166.05
 11
159.75
 21
-166.05
  0
LINE
  8
0
 10
159.75
 20
-166.05
 11
159.75
 21
-174.65
  0
LINE
  8
0
 10
159.75
 20
-174.65
 11
169.415
 21
-174.65
  0
LINE
  8
0
 10
169.415
 20
-174.65
 11
169.415
 21
-177.75
  0
LINE
  8
0
 10
169.415
 20
-177.75
 11
178.78
 21
-177.75
  0
LINE
  8
0
 10
178.78
 20
-177.75
 11
178.78
 21
-174.65
  0
LINE
  8
0
 10
278.75
 20
-124.75
 11
278.75
 21
-121.75
  0
LINE
  8
0
 10
278.75
 20
-121.75
 11
284.75
 21
-121.75
  0
LINE
  8
0
 10
284.75
 20
-121.75
 11
284.75
 21
-124.75
  0
LINE
  8
0
 10
284.75
 20
-124.75
 11
278.75
 21
-124.75
  0
LINE
  8
0
 10
266.75
 20
-124.75
 11
266.75
 21
-121.75
  0
LINE
  8
0
 10
266.75
 20
-121.75
 11
272.75
 21
-121.75
  0
LINE
  8
0
 10
272.75
 20
-121.75
 11
272.75
 21
-124.75
  0
LINE
  8
0
 10
272.75
 20
-124.75
 11
266.75
 21
-124.75
  0
LINE
  8
0
 10
254.75
 20
-124.75
 11
254.75
 21
-121.75
  0
LINE
  8
0
 10
254.75
 20
-121.75
 11
260.75
 21
-121.75
  0
LINE
  8
0
 10
260.75
 20
-121.75
 11
260.75
 21
-124.75
  0
LINE
  8
0
 10
260.75
 20
-124.75
 11
254.75
 21
-124.75
  0
LINE
  8
0
 10
275.347
 20
-146.966
 11
274.069
 21
-146.694
  0
LINE
  8
0
 10
274.069
 20
-146.694
 11
272.875
 21
-146.163
  0
LINE
  8
0
 10
272.875
 20
-146.163
 11
271.818
 21
-145.395
  0
LINE
  8
0
 10
271.818
 20
-145.395
 11
270.944
 21
-144.424
  0
LINE
  8
0
 10
270.944
 20
-144.424
 11
270.29
 21
-143.292
  0
LINE
  8
0
 10
270.29
 20
-143.292
 11
269.887
 21
-142.049
  0
LINE
  8
0
 10
269.887
 20
-142.049
 11
269.75
 21
-140.75
  0
LINE
  8
0
 10
269.75
 20
-140.75
 11
269.887
 21
-139.451
  0
LINE
  8
0
 10
269.887
 20
-139.451
 11
270.29
 21
-138.208
  0
LINE
  8
0
 10
270.29
 20
-138.208
 11
270.944
 21
-137.076
  0
LINE
  8
0
 10
270.944
 20
-137.076
 11
271.818
 21
-136.105
  0
LINE
  8
0
 10
271.818
 20
-136.105
 11
272.875
 21
-135.337
  0
LINE
  8
0
 10
272.875
 20
-135.337
 11
274.069
 21
-134.806
  0
LINE
  8
0
 10
274.069
 20
-134.806
 11
275.347
 21
-134.534
  0
LINE
  8
0
 10
275.347
 20
-134.534
 11
276.653
 21
-134.534
  0
LINE
  8
0
 10
276.653
 20
-134.534
 11
277.931
 21
-134.806
  0
LINE
  8
0
 10
277.931
 20
-134.806
 11
279.125
 21
-135.337
  0
LINE
  8
0
 10
279.125
 20
-135.337
 11
280.182
 21
-136.105
  0
LINE
  8
0
 10
280.182
 20
-136.105
 11
281.056
 21
-137.076
  0
LINE
  8
0
 10
281.056
 20
-137.076
 11
281.71
 21
-138.208
  0
LINE
  8
0
 10
281.71
 20
-138.208
 11
282.113
 21
-139.451
  0
LINE
  8
0
 10
282.113
 20
-139.451
 11
282.25
 21
-140.75
  0
LINE
  8
0
 10
282.25
 20
-140.75
 11
282.113
 21
-142.049
  0
LINE
  8
0
 10
282.113
 20
-142.049
 11
281.71
 21
-143.292
  0
LINE
  8
0
 10
281.71
 20
-143.292
 11
281.056
 21
-144.424
  0
LINE
  8
0
 10
281.056
 20
-144.424
 11
280.182
 21
-145.395
  0
LINE
  8
0
 10
280.182
 20
-145.395
 11
279.125
 21
-146.163
  0
LINE
  8
0
 10
279.125
 20
-146.163
 11
277.931
 21
-146.694
  0
LINE
  8
0
 10
277.931
 20
-146.694
 11
276.653
 21
-146.966
  0
LINE
  8
0
 10
276.653
 20
-146.966
 11
275.347
 21
-146.966
  0
LINE
  8
0
 10
238.347
 20
-146.966
 11
237.069
 21
-146.694
  0
LINE
  8
0
 10
237.069
 20
-146.694
 11
235.875
 21
-146.163
  0
LINE
  8
0
 10
235.875
 20
-146.163
 11
234.818
 21
-145.395
  0
LINE
  8
0
 10
234.818
 20
-145.395
 11
233.944
 21
-144.424
  0
LINE
  8
0
 10
233.944
 20
-144.424
 11
233.29
 21
-143.292
  0
LINE
  8
0
 10
233.29
 20
-143.292
 11
232.887
 21
-142.049
  0
LINE
  8
0
 10
232.887
 20
-142.049
 11
232.75
 21
-140.75
  0
LINE
  8
0
 10
232.75
 20
-140.75
 11
232.887
 21
-139.451
  0
LINE
  8
0
 10
232.887
 20
-139.451
 11
233.29
 21
-138.208
  0
LINE
  8
0
 10
233.29
 20
-138.208
 11
233.944
 21
-137.076
  0
LINE
  8
0
 10
233.944
 20
-137.076
 11
234.818
 21
-136.105
  0
LINE
  8
0
 10
234.818
 20
-136.105
 11
235.875
 21
-135.337
  0
LINE
  8
0
 10
235.875
 20
-135.337
 11
237.069
 21
-134.806
  0
LINE
  8
0
 10
237.069
 20
-134.806
 11
238.347
 21
-134.534
  0
LINE
  8
0
 10
238.347
 20
-134.534
 11
239.653
 21
-134.534
  0
LINE
  8
0
 10
239.653
 20
-134.534
 11
240.931
 21
-134.806
  0
LINE
  8
0
 10
240.931
 20
-134.806
 11
242.125
 21
-135.337
  0
LINE
  8
0
 10
242.125
 20
-135.337
 11
243.182
 21
-136.105
  0
LINE
  8
0
 10
243.182
 20
-136.105
 11
244.056
 21
-137.076
  0
LINE
  8
0
 10
244.056
 20
-137.076
 11
244.71
 21
-138.208
  0
LINE
  8
0
 10
244.71
 20
-138.208
 11
245.113
 21
-139.451
  0
LINE
  8
0
 10
245.113
 20
-139.451
 11
245.25
 21
-140.75
  0
LINE
  8
0
 10
245.25
 20
-140.75
 11
245.113
 21
-142.049
  0
LINE
  8
0
 10
245.113
 20
-142.049
 11
244.71
 21
-143.292
  0
LINE
  8
0
 10
244.71
 20
-143.292
 11
244.056
 21
-144.424
  0
LINE
  8
0
 10
244.056
 20
-144.424
 11
243.182
 21
-145.395
  0
LINE
  8
0
 10
243.182
 20
-145.395
 11
242.125
 21
-146.163
  0
LINE
  8
0
 10
242.125
 20
-146.163
 11
240.931
 21
-146.694
  0
LINE
  8
0
 10
240.931
 20
-146.694
 11
239.653
 21
-146.966
  0
LINE
  8
0
 10
239.653
 20
-146.966
 11
238.347
 21
-146.966
  0
LINE
  8
0
 10
219.847
 20
-146.966
 11
218.569
 21
-146.694
  0
LINE
  8
0
 10
218.569
 20
-146.694
 11
217.375
 21
-146.163
  0
LINE
  8
0
 10
217.375
 20
-146.163
 11
216.318
 21
-145.395
  0
LINE
  8
0
 10
216.318
 20
-145.395
 11
215.444
 21
-144.424
  0
LINE
  8
0
 10
215.444
 20
-144.424
 11
214.79
 21
-143.292
  0
LINE
  8
0
 10
214.79
 20
-143.292
 11
214.387
 21
-142.049
  0
LINE
  8
0
 10
214.387
 20
-142.049
 11
214.25
 21
-140.75
  0
LINE
  8
0
 10
214.25
 20
-140.75
 11
214.387
 21
-139.451
  0
LINE
  8
0
 10
214.387
 20
-139.451
 11
214.79
 21
-138.208
  0
LINE
  8
0
 10
214.79
 20
-138.208
 11
215.444
 21
-137.076
  0
LINE
  8
0
 10
215.444
 20
-137.076
 11
216.318
 21
-136.105
  0
LINE
  8
0
 10
216.318
 20
-136.105
 11
217.375
 21
-135.337
  0
LINE
  8
0
 10
217.375
 20
-135.337
 11
218.569
 21
-134.806
  0
LINE
  8
0
 10
218.569
 20
-134.806
 11
219.847
 21
-134.534
  0
LINE
  8
0
 10
219.847
 20
-134.534
 11
221.153
 21
-134.534
  0
LINE
  8
0
 10
221.153
 20
-134.534
 11
222.431
 21
-134.806
  0
LINE
  8
0
 10
222.431
 20
-134.806
 11
223.625
 21
-135.337
  0
LINE
  8
0
 10
223.625
 20
-135.337
 11
224.682
 21
-136.105
  0
LINE
  8
0
 10
224.682
 20
-136.105
 11
225.556
 21
-137.076
  0
LINE
  8
0
 10
225.556
 20
-137.076
 11
226.21
 21
-138.208
  0
LINE
  8
0
 10
226.21
 20
-138.208
 11
226.613
 21
-139.451
  0
LINE
  8
0
 10
226.613
 20
-139.451
 11
226.75
 21
-140.75
  0
LINE
  8
0
 10
226.75
 20
-140.75
 11
226.613
 21
-142.049
  0
LINE
  8
0
 10
226.613
 20
-142.049
 11
226.21
 21
-143.292
  0
LINE
  8
0
 10
226.21
 20
-143.292
 11
225.556
 21
-144.424
  0
LINE
  8
0
 10
225.556
 20
-144.424
 11
224.682
 21
-145.395
  0
LINE
  8
0
 10
224.682
 20
-145.395
 11
223.625
 21
-146.163
  0
LINE
  8
0
 10
223.625
 20
-146.163
 11
222.431
 21
-146.694
  0
LINE
  8
0
 10
222.431
 20
-146.694
 11
221.153
 21
-146.966
  0
LINE
  8
0
 10
221.153
 20
-146.966
 11
219.847
 21
-146.966
  0
LINE
  8
0
 10
256.847
 20
-146.966
 11
255.569
 21
-146.694
  0
LINE
  8
0
 10
255.569
 20
-146.694
 11
254.375
 21
-146.163
  0
LINE
  8
0
 10
254.375
 20
-146.163
 11
253.318
 21
-145.395
  0
LINE
  8
0
 10
253.318
 20
-145.395
 11
252.444
 21
-144.424
  0
LINE
  8
0
 10
252.444
 20
-144.424
 11
251.79
 21
-143.292
  0
LINE
  8
0
 10
251.79
 20
-143.292
 11
251.387
 21
-142.049
  0
LINE
  8
0
 10
251.387
 20
-142.049
 11
251.25
 21
-140.75
  0
LINE
  8
0
 10
251.25
 20
-140.75
 11
251.387
 21
-139.451
  0
LINE
  8
0
 10
251.387
 20
-139.451
 11
251.79
 21
-138.208
  0
LINE
  8
0
 10
251.79
 20
-138.208
 11
252.444
 21
-137.076
  0
LINE
  8
0
 10
252.444
 20
-137.076
 11
253.318
 21
-136.105
  0
LINE
  8
0
 10
253.318
 20
-136.105
 11
254.375
 21
-135.337
  0
LINE
  8
0
 10
254.375
 20
-135.337
 11
255.569
 21
-134.806
  0
LINE
  8
0
 10
255.569
 20
-134.806
 11
256.847
 21
-134.534
  0
LINE
  8
0
 10
256.847
 20
-134.534
 11
258.153
 21
-134.534
  0
LINE
  8
0
 10
258.153
 20
-134.534
 11
259.431
 21
-134.806
  0
LINE
  8
0
 10
259.431
 20
-134.806
 11
260.625
 21
-135.337
  0
LINE
  8
0
 10
260.625
 20
-135.337
 11
261.682
 21
-136.105
  0
LINE
  8
0
 10
261.682
 20
-136.105
 11
262.556
 21
-137.076
  0
LINE
  8
0
 10
262.556
 20
-137.076
 11
263.21
 21
-138.208
  0
LINE
  8
0
 10
263.21
 20
-138.208
 11
263.613
 21
-139.451
  0
LINE
  8
0
 10
263.613
 20
-139.451
 11
263.75
 21
-140.75
  0
LINE
  8
0
 10
263.75
 20
-140.75
 11
263.613
 21
-142.049
  0
LINE
  8
0
 10
263.613
 20
-142.049
 11
263.21
 21
-143.292
  0
LINE
  8
0
 10
263.21
 20
-143.292
 11
262.556
 21
-144.424
  0
LINE
  8
0
 10
262.556
 20
-144.424
 11
261.682
 21
-145.395
  0
LINE
  8
0
 10
261.682
 20
-145.395
 11
260.625
 21
-146.163
  0
LINE
  8
0
 10
260.625
 20
-146.163
 11
259.431
 21
-146.694
  0
LINE
  8
0
 10
259.431
 20
-146.694
 11
258.153
 21
-146.966
  0
LINE
  8
0
 10
258.153
 20
-146.966
 11
256.847
 21
-146.966
  0
LINE
  8
0
 10
219.847
 20
-168.966
 11
218.569
 21
-168.694
  0
LINE
  8
0
 10
218.569
 20
-168.694
 11
217.375
 21
-168.163
  0
LINE
  8
0
 10
217.375
 20
-168.163
 11
216.318
 21
-167.395
  0
LINE
  8
0
 10
216.318
 20
-167.395
 11
215.444
 21
-166.424
  0
LINE
  8
0
 10
215.444
 20
-166.424
 11
214.79
 21
-165.292
  0
LINE
  8
0
 10
214.79
 20
-165.292
 11
214.387
 21
-164.049
  0
LINE
  8
0
 10
214.387
 20
-164.049
 11
214.25
 21
-162.75
  0
LINE
  8
0
 10
214.25
 20
-162.75
 11
214.387
 21
-161.451
  0
LINE
  8
0
 10
214.387
 20
-161.451
 11
214.79
 21
-160.208
  0
LINE
  8
0
 10
214.79
 20
-160.208
 11
215.444
 21
-159.076
  0
LINE
  8
0
 10
215.444
 20
-159.076
 11
216.318
 21
-158.105
  0
LINE
  8
0
 10
216.318
 20
-158.105
 11
217.375
 21
-157.337
  0
LINE
  8
0
 10
217.375
 20
-157.337
 11
218.569
 21
-156.806
  0
LINE
  8
0
 10
218.569
 20
-156.806
 11
219.847
 21
-156.534
  0
LINE
  8
0
 10
219.847
 20
-156.534
 11
221.153
 21
-156.534
  0
LINE
  8
0
 10
221.153
 20
-156.534
 11
222.431
 21
-156.806
  0
LINE
  8
0
 10
222.431
 20
-156.806
 11
223.625
 21
-157.337
  0
LINE
  8
0
 10
223.625
 20
-157.337
 11
224.682
 21
-158.105
  0
LINE
  8
0
 10
224.682
 20
-158.105
 11
225.556
 21
-159.076
  0
LINE
  8
0
 10
225.556
 20
-159.076
 11
226.21
 21
-160.208
  0
LINE
  8
0
 10
226.21
 20
-160.208
 11
226.613
 21
-161.451
  0
LINE
  8
0
 10
226.613
 20
-161.451
 11
226.75
 21
-162.75
  0
LINE
  8
0
 10
226.75
 20
-162.75
 11
226.613
 21
-164.049
  0
LINE
  8
0
 10
226.613
 20
-164.049
 11
226.21
 21
-165.292
  0
LINE
  8
0
 10
226.21
 20
-165.292
 11
225.556
 21
-166.424
  0
LINE
  8
0
 10
225.556
 20
-166.424
 11
224.682
 21
-167.395
  0
LINE
  8
0
 10
224.682
 20
-167.395
 11
223.625
 21
-168.163
  0
LINE
  8
0
 10
223.625
 20
-168.163
 11
222.431
 21
-168.694
  0
LINE
  8
0
 10
222.431
 20
-168.694
 11
221.153
 21
-168.966
  0
LINE
  8
0
 10
221.153
 20
-168.966
 11
219.847
 21
-168.966
  0
LINE
  8
0
 10
275.347
 20
-168.966
 11
274.069
 21
-168.694
  0
LINE
  8
0
 10
274.069
 20
-168.694
 11
272.875
 21
-168.163
  0
LINE
  8
0
 10
272.875
 20
-168.163
 11
271.818
 21
-167.395
  0
LINE
  8
0
 10
271.818
 20
-167.395
 11
270.944
 21
-166.424
  0
LINE
  8
0
 10
270.944
 20
-166.424
 11
270.29
 21
-165.292
  0
LINE
  8
0
 10
270.29
 20
-165.292
 11
269.887
 21
-164.049
  0
LINE
  8
0
 10
269.887
 20
-164.049
 11
269.75
 21
-162.75
  0
LINE
  8
0
 10
269.75
 20
-162.75
 11
269.887
 21
-161.451
  0
LINE
  8
0
 10
269.887
 20
-161.451
 11
270.29
 21
-160.208
  0
LINE
  8
0
 10
270.29
 20
-160.208
 11
270.944
 21
-159.076
  0
LINE
  8
0
 10
270.944
 20
-159.076
 11
271.818
 21
-158.105
  0
LINE
  8
0
 10
271.818
 20
-158.105
 11
272.875
 21
-157.337
  0
LINE
  8
0
 10
272.875
 20
-157.337
 11
274.069
 21
-156.806
  0
LINE
  8
0
 10
274.069
 20
-156.806
 11
275.347
 21
-156.534
  0
LINE
  8
0
 10
275.347
 20
-156.534
 11
276.653
 21
-156.534
  0
LINE
  8
0
 10
276.653
 20
-156.534
 11
277.931
 21
-156.806
  0
LINE
  8
0
 10
277.931
 20
-156.806
 11
279.125
 21
-157.337
  0
LINE
  8
0
 10
279.125
 20
-157.337
 11
280.182
 21
-158.105
  0
LINE
  8
0
 10
280.182
 20
-158.105
 11
281.056
 21
-159.076
  0
LINE
  8
0
 10
281.056
 20
-159.076
 11
281.71
 21
-160.208
  0
LINE
  8
0
 10
281.71
 20
-160.208
 11
282.113
 21
-161.451
  0
LINE
  8
0
 10
282.113
 20
-161.451
 11
282.25
 21
-162.75
  0
LINE
  8
0
 10
282.25
 20
-162.75
 11
282.113
 21
-164.049
  0
LINE
  8
0
 10
282.113
 20
-164.049
 11
281.71
 21
-165.292
  0
LINE
  8
0
 10
281.71
 20
-165.292
 11
281.056
 21
-166.424
  0
LINE
  8
0
 10
281.056
 20
-166.424
 11
280.182
 21
-167.395
  0
LINE
  8
0
 10
280.182
 20
-167.395
 11
279.125
 21
-168.163
  0
LINE
  8
0
 10
279.125
 20
-168.163
 11
277.931
 21
-168.694
  0
LINE
  8
0
 10
277.931
 20
-168.694
 11
276.653
 21
-168.966
  0
LINE
  8
0
 10
276.653
 20
-168.966
 11
275.347
 21
-168.966
  0
LINE
  8
0
 10
256.847
 20
-168.966
 11
255.569
 21
-168.694
  0
LINE
  8
0
 10
255.569
 20
-168.694
 11
254.375
 21
-168.163
  0
LINE
  8
0
 10
254.375
 20
-168.163
 11
253.318
 21
-167.395
  0
LINE
  8
0
 10
253.318
 20
-167.395
 11
252.444
 21
-166.424
  0
LINE
  8
0
 10
252.444
 20
-166.424
 11
251.79
 21
-165.292
  0
LINE
  8
0
 10
251.79
 20
-165.292
 11
251.387
 21
-164.049
  0
LINE
  8
0
 10
251.387
 20
-164.049
 11
251.25
 21
-162.75
  0
LINE
  8
0
 10
251.25
 20
-162.75
 11
251.387
 21
-161.451
  0
LINE
  8
0
 10
251.387
 20
-161.451
 11
251.79
 21
-160.208
  0
LINE
  8
0
 10
251.79
 20
-160.208
 11
252.444
 21
-159.076
  0
LINE
  8
0
 10
252.444
 20
-159.076
 11
253.318
 21
-158.105
  0
LINE
  8
0
 10
253.318
 20
-158.105
 11
254.375
 21
-157.337
  0
LINE
  8
0
 10
254.375
 20
-157.337
 11
255.569
 21
-156.806
  0
LINE
  8
0
 10
255.569
 20
-156.806
 11
256.847
 21
-156.534
  0
LINE
  8
0
 10
256.847
 20
-156.534
 11
258.153
 21
-156.534
  0
LINE
  8
0
 10
258.153
 20
-156.534
 11
259.431
 21
-156.806
  0
LINE
  8
0
 10
259.431
 20
-156.806
 11
260.625
 21
-157.337
  0
LINE
  8
0
 10
260.625
 20
-157.337
 11
261.682
 21
-158.105
  0
LINE
  8
0
 10
261.682
 20
-158.105
 11
262.556
 21
-159.076
  0
LINE
  8
0
 10
262.556
 20
-159.076
 11
263.21
 21
-160.208
  0
LINE
  8
0
 10
263.21
 20
-160.208
 11
263.613
 21
-161.451
  0
LINE
  8
0
 10
263.613
 20
-161.451
 11
263.75
 21
-162.75
  0
LINE
  8
0
 10
263.75
 20
-162.75
 11
263.613
 21
-164.049
  0
LINE
  8
0
 10
263.613
 20
-164.049
 11
263.21
 21
-165.292
  0
LINE
  8
0
 10
263.21
 20
-165.292
 11
262.556
 21
-166.424
  0
LINE
  8
0
 10
262.556
 20
-166.424
 11
261.682
 21
-167.395
  0
LINE
  8
0
 10
261.682
 20
-167.395
 11
260.625
 21
-168.163
  0
LINE
  8
0
 10
260.625
 20
-168.163
 11
259.431
 21
-168.694
  0
LINE
  8
0
 10
259.431
 20
-168.694
 11
258.153
 21
-168.966
  0
LINE
  8
0
 10
258.153
 20
-168.966
 11
256.847
 21
-168.966
  0
LINE
  8
0
 10
238.347
 20
-168.966
 11
237.069
 21
-168.694
  0
LINE
  8
0
 10
237.069
 20
-168.694
 11
235.875
 21
-168.163
  0
LINE
  8
0
 10
235.875
 20
-168.163
 11
234.818
 21
-167.395
  0
LINE
  8
0
 10
234.818
 20
-167.395
 11
233.944
 21
-166.424
  0
LINE
  8
0
 10
233.944
 20
-166.424
 11
233.29
 21
-165.292
  0
LINE
  8
0
 10
233.29
 20
-165.292
 11
232.887
 21
-164.049
  0
LINE
  8
0
 10
232.887
 20
-164.049
 11
232.75
 21
-162.75
  0
LINE
  8
0
 10
232.75
 20
-162.75
 11
232.887
 21
-161.451
  0
LINE
  8
0
 10
232.887
 20
-161.451
 11
233.29
 21
-160.208
  0
LINE
  8
0
 10
233.29
 20
-160.208
 11
233.944
 21
-159.076
  0
LINE
  8
0
 10
233.944
 20
-159.076
 11
234.818
 21
-158.105
  0
LINE
  8
0
 10
234.818
 20
-158.105
 11
235.875
 21
-157.337
  0
LINE
  8
0
 10
235.875
 20
-157.337
 11
237.069
 21
-156.806
  0
LINE
  8
0
 10
237.069
 20
-156.806
 11
238.347
 21
-156.534
  0
LINE
  8
0
 10
238.347
 20
-156.534
 11
239.653
 21
-156.534
  0
LINE
  8
0
 10
239.653
 20
-156.534
 11
240.931
 21
-156.806
  0
LINE
  8
0
 10
240.931
 20
-156.806
 11
242.125
 21
-157.337
  0
LINE
  8
0
 10
242.125
 20
-157.337
 11
243.182
 21
-158.105
  0
LINE
  8
0
 10
243.182
 20
-158.105
 11
244.056
 21
-159.076
  0
LINE
  8
0
 10
244.056
 20
-159.076
 11
244.71
 21
-160.208
  0
LINE
  8
0
 10
244.71
 20
-160.208
 11
245.113
 21
-161.451
  0
LINE
  8
0
 10
245.113
 20
-161.451
 11
245.25
 21
-162.75
  0
LINE
  8
0
 10
245.25
 20
-162.75
 11
245.113
 21
-164.049
  0
LINE
  8
0
 10
245.113
 20
-164.049
 11
244.71
 21
-165.292
  0
LINE
  8
0
 10
244.71
 20
-165.292
 11
244.056
 21
-166.424
  0
LINE
  8
0
 10
244.056
 20
-166.424
 11
243.182
 21
-167.395
  0
LINE
  8
0
 10
243.182
 20
-167.395
 11
242.125
 21
-168.163
  0
LINE
  8
0
 10
242.125
 20
-168.163
 11
240.931
 21
-168.694
  0
LINE
  8
0
 10
240.931
 20
-168.694
 11
239.653
 21
-168.966
  0
LINE
  8
0
 10
239.653
 20
-168.966
 11
238.347
 21
-168.966
  0
LINE
  8
0
 10
154.5
 20
-166.75
 11
151.5
 21
-166.75
  0
LINE
  8
0
 10
151.5
 20
-166.75
 11
151.5
 21
-160.75
  0
LINE
  8
0
 10
151.5
 20
-160.75
 11
154.5
 21
-160.75
  0
LINE
  8
0
 10
154.5
 20
-160.75
 11
154.5
 21
-154.75
  0
LINE
  8
0
 10
154.5
 20
-154.75
 11
151.5
 21
-154.75
  0
LINE
  8
0
 10
151.5
 20
-154.75
 11
151.5
 21
-148.75
  0
LINE
  8
0
 10
151.5
 20
-148.75
 11
154.5
 21
-148.75
  0
LINE
  8
0
 10
154.5
 20
-148.75
 11
154.5
 21
-142.75
  0
LINE
  8
0
 10
154.5
 20
-142.75
 11
136.5
 21
-142.75
  0
LINE
  8
0
 10
136.5
 20
-142.75
 11
136.5
 21
-172.75
  0
LINE
  8
0
 10
136.5
 20
-172.75
 11
154.5
 21
-172.75
  0
LINE
  8
0
 10
154.5
 20
-172.75
 11
154.5
 21
-166.75
  0
LINE
  8
0
 10
143.686
 20
-153.234
 11
143.073
 21
-153.103
  0
LINE
  8
0
 10
143.073
 20
-153.103
 11
142.5
 21
-152.848
  0
LINE
  8
0
 10
142.5
 20
-152.848
 11
141.993
 21
-152.479
  0
LINE
  8
0
 10
141.993
 20
-152.479
 11
141.573
 21
-152.013
  0
LINE
  8
0
 10
141.573
 20
-152.013
 11
141.259
 21
-151.47
  0
LINE
  8
0
 10
141.259
 20
-151.47
 11
141.066
 21
-150.874
  0
LINE
  8
0
 10
141.066
 20
-150.874
 11
141
 21
-150.25
  0
LINE
  8
0
 10
141
 20
-150.25
 11
141.066
 21
-149.626
  0
LINE
  8
0
 10
141.066
 20
-149.626
 11
141.259
 21
-149.03
  0
LINE
  8
0
 10
141.259
 20
-149.03
 11
141.573
 21
-148.487
  0
LINE
  8
0
 10
141.573
 20
-148.487
 11
141.993
 21
-148.021
  0
LINE
  8
0
 10
141.993
 20
-148.021
 11
142.5
 21
-147.652
  0
LINE
  8
0
 10
142.5
 20
-147.652
 11
143.073
 21
-147.397
  0
LINE
  8
0
 10
143.073
 20
-147.397
 11
143.686
 21
-147.266
  0
LINE
  8
0
 10
143.686
 20
-147.266
 11
144.314
 21
-147.266
  0
LINE
  8
0
 10
144.314
 20
-147.266
 11
144.927
 21
-147.397
  0
LINE
  8
0
 10
144.927
 20
-147.397
 11
145.5
 21
-147.652
  0
LINE
  8
0
 10
145.5
 20
-147.652
 11
146.007
 21
-148.021
  0
LINE
  8
0
 10
146.007
 20
-148.021
 11
146.427
 21
-148.487
  0
LINE
  8
0
 10
146.427
 20
-148.487
 11
146.741
 21
-149.03
  0
LINE
  8
0
 10
146.741
 20
-149.03
 11
146.934
 21
-149.626
  0
LINE
  8
0
 10
146.934
 20
-149.626
 11
147
 21
-150.25
  0
LINE
  8
0
 10
147
 20
-150.25
 11
146.934
 21
-150.874
  0
LINE
  8
0
 10
146.934
 20
-150.874
 11
146.741
 21
-151.47
  0
LINE
  8
0
 10
146.741
 20
-151.47
 11
146.427
 21
-152.013
  0
LINE
  8
0
 10
146.427
 20
-152.013
 11
146.007
 21
-152.479
  0
LINE
  8
0
 10
146.007
 20
-152.479
 11
145.5
 21
-152.848
  0
LINE
  8
0
 10
145.5
 20
-152.848
 11
144.927
 21
-153.103
  0
LINE
  8
0
 10
144.927
 20
-153.103
 11
144.314
 21
-153.234
  0
LINE
  8
0
 10
144.314
 20
-153.234
 11
143.686
 21
-153.234
  0
LINE
  8
0
 10
143.686
 20
-168.234
 11
143.073
 21
-168.103
  0
LINE
  8
0
 10
143.073
 20
-168.103
 11
142.5
 21
-167.848
  0
LINE
  8
0
 10
142.5
 20
-167.848
 11
141.993
 21
-167.479
  0
LINE
  8
0
 10
141.993
 20
-167.479
 11
141.573
 21
-167.013
  0
LINE
  8
0
 10
141.573
 20
-167.013
 11
141.259
 21
-166.47
  0
LINE
  8
0
 10
141.259
 20
-166.47
 11
141.066
 21
-165.874
  0
LINE
  8
0
 10
141.066
 20
-165.874
 11
141
 21
-165.25
  0
LINE
  8
0
 10
141
 20
-165.25
 11
141.066
 21
-164.626
  0
LINE
  8
0
 10
141.066
 20
-164.626
 11
141.259
 21
-164.03
  0
LINE
  8
0
 10
141.259
 20
-164.03
 11
141.573
 21
-163.487
  0
LINE
  8
0
 10
141.573
 20
-163.487
 11
141.993
 21
-163.021
  0
LINE
  8
0
 10
141.993
 20
-163.021
 11
142.5
 21
-162.652
  0
LINE
  8
0
 10
142.5
 20
-162.652
 11
143.073
 21
-162.397
  0
LINE
  8
0
 10
143.073
 20
-162.397
 11
143.686
 21
-162.266
  0
LINE
  8
0
 10
143.686
 20
-162.266
 11
144.314
 21
-162.266
  0
LINE
  8
0
 10
144.314
 20
-162.266
 11
144.927
 21
-162.397
  0
LINE
  8
0
 10
144.927
 20
-162.397
 11
145.5
 21
-162.652
  0
LINE
  8
0
 10
145.5
 20
-162.652
 11
146.007
 21
-163.021
  0
LINE
  8
0
 10
146.007
 20
-163.021
 11
146.427
 21
-163.487
  0
LINE
  8
0
 10
146.427
 20
-163.487
 11
146.741
 21
-164.03
  0
LINE
  8
0
 10
146.741
 20
-164.03
 11
146.934
 21
-164.626
  0
LINE
  8
0
 10
146.934
 20
-164.626
 11
147
 21
-165.25
  0
LINE
  8
0
 10
147
 20
-165.25
 11
146.934
 21
-165.874
  0
LINE
  8
0
 10
146.934
 20
-165.874
 11
146.741
 21
-166.47
  0
LINE
  8
0
 10
146.741
 20
-166.47
 11
146.427
 21
-167.013
  0
LINE
  8
0
 10
146.427
 20
-167.013
 11
146.007
 21
-167.479
  0
LINE
  8
0
 10
146.007
 20
-167.479
 11
145.5
 21
-167.848
  0
LINE
  8
0
 10
145.5
 20
-167.848
 11
144.927
 21
-168.103
  0
LINE
  8
0
 10
144.927
 20
-168.103
 11
144.314
 21
-168.234
  0
LINE
  8
0
 10
144.314
 20
-168.234
 11
143.686
 21
-168.234
  0
LINE
  8
0
 10
154.5
 20
-206.75
 11
151.5
 21
-206.75
  0
LINE
  8
0
 10
151.5
 20
-206.75
 11
151.5
 21
-200.75
  0
LINE
  8
0
 10
151.5
 20
-200.75
 11
154.5
 21
-200.75
  0
LINE
  8
0
 10
154.5
 20
-200.75
 11
154.5
 21
-194.75
  0
LINE
  8
0
 10
154.5
 20
-194.75
 11
151.5
 21
-194.75
  0
LINE
  8
0
 10
151.5
 20
-194.75
 11
151.5
 21
-188.75
  0
LINE
  8
0
 10
151.5
 20
-188.75
 11
154.5
 21
-188.75
  0
LINE
  8
0
 10
154.5
 20
-188.75
 11
154.5
 21
-182.75
  0
LINE
  8
0
 10
154.5
 20
-182.75
 11
136.5
 21
-182.75
  0
LINE
  8
0
 10
136.5
 20
-182.75
 11
136.5
 21
-212.75
  0
LINE
  8
0
 10
136.5
 20
-212.75
 11
154.5
 21
-212.75
  0
LINE
  8
0
 10
154.5
 20
-212.75
 11
154.5
 21
-206.75
  0
LINE
  8
0
 10
143.686
 20
-193.234
 11
143.073
 21
-193.103
  0
LINE
  8
0
 10
143.073
 20
-193.103
 11
142.5
 21
-192.848
  0
LINE
  8
0
 10
142.5
 20
-192.848
 11
141.993
 21
-192.479
  0
LINE
  8
0
 10
141.993
 20
-192.479
 11
141.573
 21
-192.013
  0
LINE
  8
0
 10
141.573
 20
-192.013
 11
141.259
 21
-191.47
  0
LINE
  8
0
 10
141.259
 20
-191.47
 11
141.066
 21
-190.874
  0
LINE
  8
0
 10
141.066
 20
-190.874
 11
141
 21
-190.25
  0
LINE
  8
0
 10
141
 20
-190.25
 11
141.066
 21
-189.626
  0
LINE
  8
0
 10
141.066
 20
-189.626
 11
141.259
 21
-189.03
  0
LINE
  8
0
 10
141.259
 20
-189.03
 11
141.573
 21
-188.487
  0
LINE
  8
0
 10
141.573
 20
-188.487
 11
141.993
 21
-188.021
  0
LINE
  8
0
 10
141.993
 20
-188.021
 11
142.5
 21
-187.652
  0
LINE
  8
0
 10
142.5
 20
-187.652
 11
143.073
 21
-187.397
  0
LINE
  8
0
 10
143.073
 20
-187.397
 11
143.686
 21
-187.266
  0
LINE
  8
0
 10
143.686
 20
-187.266
 11
144.314
 21
-187.266
  0
LINE
  8
0
 10
144.314
 20
-187.266
 11
144.927
 21
-187.397
  0
LINE
  8
0
 10
144.927
 20
-187.397
 11
145.5
 21
-187.652
  0
LINE
  8
0
 10
145.5
 20
-187.652
 11
146.007
 21
-188.021
  0
LINE
  8
0
 10
146.007
 20
-188.021
 11
146.427
 21
-188.487
  0
LINE
  8
0
 10
146.427
 20
-188.487
 11
146.741
 21
-189.03
  0
LINE
  8
0
 10
146.741
 20
-189.03
 11
146.934
 21
-189.626
  0
LINE
  8
0
 10
146.934
 20
-189.626
 11
147
 21
-190.25
  0
LINE
  8
0
 10
147
 20
-190.25
 11
146.934
 21
-190.874
  0
LINE
  8
0
 10
146.934
 20
-190.874
 11
146.741
 21
-191.47
  0
LINE
  8
0
 10
146.741
 20
-191.47
 11
146.427
 21
-192.013
  0
LINE
  8
0
 10
146.427
 20
-192.013
 11
146.007
 21
-192.479
  0
LINE
  8
0
 10
146.007
 20
-192.479
 11
145.5
 21
-192.848
  0
LINE
  8
0
 10
145.5
 20
-192.848
 11
144.927
 21
-193.103
  0
LINE
  8
0
 10
144.927
 20
-193.103
 11
144.314
 21
-193.234
  0
LINE
  8
0
 10
144.314
 20
-193.234
 11
143.686
 21
-193.234
  0
LINE
  8
0
 10
143.686
 20
-208.234
 11
143.073
 21
-208.103
  0
LINE
  8
0
 10
143.073
 20
-208.103
 11
142.5
 21
-207.848
  0
LINE
  8
0
 10
142.5
 20
-207.848
 11
141.993
 21
-207.479
  0
LINE
  8
0
 10
141.993
 20
-207.479
 11
141.573
 21
-207.013
  0
LINE
  8
0
 10
141.573
 20
-207.013
 11
141.259
 21
-206.47
  0
LINE
  8
0
 10
141.259
 20
-206.47
 11
141.066
 21
-205.874
  0
LINE
  8
0
 10
141.066
 20
-205.874
 11
141
 21
-205.25
  0
LINE
  8
0
 10
141
 20
-205.25
 11
141.066
 21
-204.626
  0
LINE
  8
0
 10
141.066
 20
-204.626
 11
141.259
 21
-204.03
  0
LINE
  8
0
 10
141.259
 20
-204.03
 11
141.573
 21
-203.487
  0
LINE
  8
0
 10
141.573
 20
-203.487
 11
141.993
 21
-203.021
  0
LINE
  8
0
 10
141.993
 20
-203.021
 11
142.5
 21
-202.652
  0
LINE
  8
0
 10
142.5
 20
-202.652
 11
143.073
 21
-202.397
  0
LINE
  8
0
 10
143.073
 20
-202.397
 11
143.686
 21
-202.266
  0
LINE
  8
0
 10
143.686
 20
-202.266
 11
144.314
 21
-202.266
  0
LINE
  8
0
 10
144.314
 20
-202.266
 11
144.927
 21
-202.397
  0
LINE
  8
0
 10
144.927
 20
-202.397
 11
145.5
 21
-202.652
  0
LINE
  8
0
 10
145.5
 20
-202.652
 11
146.007
 21
-203.021
  0
LINE
  8
0
 10
146.007
 20
-203.021
 11
146.427
 21
-203.487
  0
LINE
  8
0
 10
146.427
 20
-203.487
 11
146.741
 21
-204.03
  0
LINE
  8
0
 10
146.741
 20
-204.03
 11
146.934
 21
-204.626
  0
LINE
  8
0
 10
146.934
 20
-204.626
 11
147
 21
-205.25
  0
LINE
  8
0
 10
147
 20
-205.25
 11
146.934
 21
-205.874
  0
LINE
  8
0
 10
146.934
 20
-205.874
 11
146.741
 21
-206.47
  0
LINE
  8
0
 10
146.741
 20
-206.47
 11
146.427
 21
-207.013
  0
LINE
  8
0
 10
146.427
 20
-207.013
 11
146.007
 21
-207.479
  0
LINE
  8
0
 10
146.007
 20
-207.479
 11
145.5
 21
-207.848
  0
LINE
  8
0
 10
145.5
 20
-207.848
 11
144.927
 21
-208.103
  0
LINE
  8
0
 10
144.927
 20
-208.103
 11
144.314
 21
-208.234
  0
LINE
  8
0
 10
144.314
 20
-208.234
 11
143.686
 21
-208.234
  0
LINE
  8
0
 10
-105.1
 20
-240.9
 11
-94.9
 21
-240.9
  0
LINE
  8
0
 10
-94.9
 20
-240.9
 11
-94.9
 21
-244
  0
LINE
  8
0
 10
-94.9
 20
-244
 11
-85.1
 21
-244
  0
LINE
  8
0
 10
-85.1
 20
-244
 11
-85.1
 21
-240.9
  0
LINE
  8
0
 10
-85.1
 20
-240.9
 11
-74.9
 21
-240.9
  0
LINE
  8
0
 10
-74.9
 20
-240.9
 11
-74.9
 21
-244
  0
LINE
  8
0
 10
-74.9
 20
-244
 11
-65.1
 21
-244
  0
LINE
  8
0
 10
-65.1
 20
-244
 11
-65.1
 21
-240.9
  0
LINE
  8
0
 10
-65.1
 20
-240.9
 11
-54.9
 21
-240.9
  0
LINE
  8
0
 10
-54.9
 20
-240.9
 11
-54.9
 21
-244
  0
LINE
  8
0
 10
-54.9
 20
-244
 11
-45.1
 21
-244
  0
LINE
  8
0
 10
-45.1
 20
-244
 11
-45.1
 21
-240.9
  0
LINE
  8
0
 10
-45.1
 20
-240.9
 11
-34.9
 21
-240.9
  0
LINE
  8
0
 10
-34.9
 20
-240.9
 11
-34.9
 21
-244
  0
LINE
  8
0
 10
-34.9
 20
-244
 11
-25.1
 21
-244
  0
LINE
  8
0
 10
-25.1
 20
-244
 11
-25.1
 21
-240.9
  0
LINE
  8
0
 10
-25.1
 20
-240.9
 11
-14.9
 21
-240.9
  0
LINE
  8
0
 10
-14.9
 20
-240.9
 11
-14.9
 21
-244
  0
LINE
  8
0
 10
-14.9
 20
-244
 11
-5.10001
 21
-244
  0
LINE
  8
0
 10
-5.10001
 20
-244
 11
-5.10001
 21
-240.9
  0
LINE
  8
0
 10
-5.10001
 20
-240.9
 11
5.09999
 21
-240.9
  0
LINE
  8
0
 10
5.09999
 20
-240.9
 11
5.09999
 21
-244
  0
LINE
  8
0
 10
5.09999
 20
-244
 11
14.9
 21
-244
  0
LINE
  8
0
 10
14.9
 20
-244
 11
14.9
 21
-240.9
  0
LINE
  8
0
 10
14.9
 20
-240.9
 11
25.1
 21
-240.9
  0
LINE
  8
0
 10
25.1
 20
-240.9
 11
25.1
 21
-244
  0
LINE
  8
0
 10
25.1
 20
-244
 11
34.9
 21
-244
  0
LINE
  8
0
 10
34.9
 20
-244
 11
34.9
 21
-240.9
  0
LINE
  8
0
 10
34.9
 20
-240.9
 11
45.1
 21
-240.9
  0
LINE
  8
0
 10
45.1
 20
-240.9
 11
45.1
 21
-244
  0
LINE
  8
0
 10
45.1
 20
-244
 11
54.9
 21
-244
  0
LINE
  8
0
 10
54.9
 20
-244
 11
54.9
 21
-240.9
  0
LINE
  8
0
 10
54.9
 20
-240.9
 11
65.1
 21
-240.9
  0
LINE
  8
0
 10
65.1
 20
-240.9
 11
65.1
 21
-244
  0
LINE
  8
0
 10
65.1
 20
-244
 11
74.9
 21
-244
  0
LINE
  8
0
 10
74.9
 20
-244
 11
74.9
 21
-240.9
  0
LINE
  8
0
 10
74.9
 20
-240.9
 11
85.1
 21
-240.9
  0
LINE
  8
0
 10
85.1
 20
-240.9
 11
85.1
 21
-244
  0
LINE
  8
0
 10
85.1
 20
-244
 11
94.9
 21
-244
  0
LINE
  8
0
 10
94.9
 20
-244
 11
94.9
 21
-240.9
  0
LINE
  8
0
 10
94.9
 20
-240.9
 11
105.1
 21
-240.9
  0
LINE
  8
0
 10
105.1
 20
-240.9
 11
105.1
 21
-244
  0
LINE
  8
0
 10
105.1
 20
-244
 11
114.9
 21
-244
  0
LINE
  8
0
 10
114.9
 20
-244
 11
114.9
 21
-240.9
  0
LINE
  8
0
 10
114.9
 20
-240.9
 11
121.9
 21
-240.9
  0
LINE
  8
0
 10
121.9
 20
-240.9
 11
121.9
 21
-232.1
  0
LINE
  8
0
 10
121.9
 20
-232.1
 11
125
 21
-232.1
  0
LINE
  8
0
 10
125
 20
-232.1
 11
125
 21
-220.5
  0
LINE
  8
0
 10
125
 20
-220.5
 11
121.9
 21
-220.5
  0
LINE
  8
0
 10
121.9
 20
-220.5
 11
121.9
 21
-208.5
  0
LINE
  8
0
 10
121.9
 20
-208.5
 11
125
 21
-208.5
  0
LINE
  8
0
 10
125
 20
-208.5
 11
125
 21
-196.9
  0
LINE
  8
0
 10
125
 20
-196.9
 11
121.9
 21
-196.9
  0
LINE
  8
0
 10
121.9
 20
-196.9
 11
121.9
 21
-191
  0
LINE
  8
0
 10
121.9
 20
-191
 11
114.5
 21
-191
  0
LINE
  8
0
 10
114.5
 20
-191
 11
114.5
 21
-188
  0
LINE
  8
0
 10
114.5
 20
-188
 11
121.9
 21
-188
  0
LINE
  8
0
 10
121.9
 20
-188
 11
121.9
 21
-185
  0
LINE
  8
0
 10
121.9
 20
-185
 11
-121.9
 21
-185
  0
LINE
  8
0
 10
-121.9
 20
-185
 11
-121.9
 21
-188
  0
LINE
  8
0
 10
-121.9
 20
-188
 11
-114.5
 21
-188
  0
LINE
  8
0
 10
-114.5
 20
-188
 11
-114.5
 21
-191
  0
LINE
  8
0
 10
-114.5
 20
-191
 11
-121.9
 21
-191
  0
LINE
  8
0
 10
-121.9
 20
-191
 11
-121.9
 21
-196.9
  0
LINE
  8
0
 10
-121.9
 20
-196.9
 11
-125
 21
-196.9
  0
LINE
  8
0
 10
-125
 20
-196.9
 11
-125
 21
-208.5
  0
LINE
  8
0
 10
-125
 20
-208.5
 11
-121.9
 21
-208.5
  0
LINE
  8
0
 10
-121.9
 20
-208.5
 11
-121.9
 21
-220.5
  0
LINE
  8
0
 10
-121.9
 20
-220.5
 11
-125
 21
-220.5
  0
LINE
  8
0
 10
-125
 20
-220.5
 11
-125
 21
-232.1
  0
LINE
  8
0
 10
-125
 20
-232.1
 11
-121.9
 21
-232.1
  0
LINE
  8
0
 10
-121.9
 20
-232.1
 11
-121.9
 21
-240.9
  0
LINE
  8
0
 10
-121.9
 20
-240.9
 11
-114.9
 21
-240.9
  0
LINE
  8
0
 10
-114.9
 20
-240.9
 11
-114.9
 21
-244
  0
LINE
  8
0
 10
-114.9
 20
-244
 11
-105.1
 21
-244
  0
LINE
  8
0
 10
-105.1
 20
-244
 11
-105.1
 21
-240.9
  0
LINE
  8
0
 10
-60
 20
-208
 11
-60
 21
-205
  0
LINE
  8
0
 10
-60
 20
-205
 11
60
 21
-205
  0
LINE
  8
0
 10
60
 20
-205
 11
60
 21
-208
  0
LINE
  8
0
 10
60
 20
-208
 11
-60
 21
-208
  0
LINE
  8
0
 10
-60
 20
-222
 11
-60
 21
-219
  0
LINE
  8
0
 10
-60
 20
-219
 11
60
 21
-219
  0
LINE
  8
0
 10
60
 20
-219
 11
60
 21
-222
  0
LINE
  8
0
 10
60
 20
-222
 11
-60
 21
-222
  0
LINE
  8
0
 10
-60
 20
-236
 11
-60
 21
-233
  0
LINE
  8
0
 10
-60
 20
-233
 11
60
 21
-233
  0
LINE
  8
0
 10
60
 20
-233
 11
60
 21
-236
  0
LINE
  8
0
 10
60
 20
-236
 11
-60
 21
-236
  0
LINE
  8
0
 10
178.78
 20
-241.65
 11
188.546
 21
-241.65
  0
LINE
  8
0
 10
188.546
 20
-241.65
 11
188.546
 21
-244.75
  0
LINE
  8
0
 10
188.546
 20
-244.75
 11
197.911
 21
-244.75
  0
LINE
  8
0
 10
197.911
 20
-244.75
 11
197.911
 21
-241.65
  0
LINE
  8
0
 10
197.911
 20
-241.65
 11
207.676
 21
-241.65
  0
LINE
  8
0
 10
207.676
 20
-241.65
 11
207.676
 21
-244.75
  0
LINE
  8
0
 10
207.676
 20
-244.75
 11
217.041
 21
-244.75
  0
LINE
  8
0
 10
217.041
 20
-244.75
 11
217.041
 21
-241.65
  0
LINE
  8
0
 10
217.041
 20
-241.65
 11
226.807
 21
-241.65
  0
LINE
  8
0
 10
226.807
 20
-241.65
 11
226.807
 21
-244.75
  0
LINE
  8
0
 10
226.807
 20
-244.75
 11
236.172
 21
-244.75
  0
LINE
  8
0
 10
236.172
 20
-244.75
 11
236.172
 21
-241.65
  0
LINE
  8
0
 10
236.172
 20
-241.65
 11
245.937
 21
-241.65
  0
LINE
  8
0
 10
245.937
 20
-241.65
 11
245.937
 21
-244.75
  0
LINE
  8
0
 10
245.937
 20
-244.75
 11
255.302
 21
-244.75
  0
LINE
  8
0
 10
255.302
 20
-244.75
 11
255.302
 21
-241.65
  0
LINE
  8
0
 10
255.302
 20
-241.65
 11
265.067
 21
-241.65
  0
LINE
  8
0
 10
265.067
 20
-241.65
 11
265.067
 21
-244.75
  0
LINE
  8
0
 10
265.067
 20
-244.75
 11
274.433
 21
-244.75
  0
LINE
  8
0
 10
274.433
 20
-244.75
 11
274.433
 21
-241.65
  0
LINE
  8
0
 10
274.433
 20
-241.65
 11
284.198
 21
-241.65
  0
LINE
  8
0
 10
284.198
 20
-241.65
 11
284.198
 21
-244.75
  0
LINE
  8
0
 10
284.198
 20
-244.75
 11
293.563
 21
-244.75
  0
LINE
  8
0
 10
293.563
 20
-244.75
 11
293.563
 21
-241.65
  0
LINE
  8
0
 10
293.563
 20
-241.65
 11
303.328
 21
-241.65
  0
LINE
  8
0
 10
303.328
 20
-241.65
 11
303.328
 21
-244.75
  0
LINE
  8
0
 10
303.328
 20
-244.75
 11
312.693
 21
-244.75
  0
LINE
  8
0
 10
312.693
 20
-244.75
 11
312.693
 21
-241.65
  0
LINE
  8
0
 10
312.693
 20
-241.65
 11
322.459
 21
-241.65
  0
LINE
  8
0
 10
322.459
 20
-241.65
 11
322.459
 21
-244.75
  0
LINE
  8
0
 10
322.459
 20
-244.75
 11
331.824
 21
-244.75
  0
LINE
  8
0
 10
331.824
 20
-244.75
 11
331.824
 21
-241.65
  0
LINE
  8
0
 10
331.824
 20
-241.65
 11
341.589
 21
-241.65
  0
LINE
  8
0
 10
341.589
 20
-241.65
 11
341.589
 21
-244.75
  0
LINE
  8
0
 10
341.589
 20
-244.75
 11
350.954
 21
-244.75
  0
LINE
  8
0
 10
350.954
 20
-244.75
 11
350.954
 21
-241.65
  0
LINE
  8
0
 10
350.954
 20
-241.65
 11
360.72
 21
-241.65
  0
LINE
  8
0
 10
360.72
 20
-241.65
 11
360.72
 21
-244.75
  0
LINE
  8
0
 10
360.72
 20
-244.75
 11
370.085
 21
-244.75
  0
LINE
  8
0
 10
370.085
 20
-244.75
 11
370.085
 21
-241.65
  0
LINE
  8
0
 10
370.085
 20
-241.65
 11
379.75
 21
-241.65
  0
LINE
  8
0
 10
379.75
 20
-241.65
 11
379.75
 21
-233.05
  0
LINE
  8
0
 10
379.75
 20
-233.05
 11
376.65
 21
-233.05
  0
LINE
  8
0
 10
376.65
 20
-233.05
 11
376.65
 21
-221.05
  0
LINE
  8
0
 10
376.65
 20
-221.05
 11
379.75
 21
-221.05
  0
LINE
  8
0
 10
379.75
 20
-221.05
 11
379.75
 21
-209.45
  0
LINE
  8
0
 10
379.75
 20
-209.45
 11
376.65
 21
-209.45
  0
LINE
  8
0
 10
376.65
 20
-209.45
 11
376.65
 21
-197.45
  0
LINE
  8
0
 10
376.65
 20
-197.45
 11
379.75
 21
-197.45
  0
LINE
  8
0
 10
379.75
 20
-197.45
 11
379.75
 21
-191.75
  0
LINE
  8
0
 10
379.75
 20
-191.75
 11
369.25
 21
-191.75
  0
LINE
  8
0
 10
369.25
 20
-191.75
 11
369.25
 21
-188.75
  0
LINE
  8
0
 10
369.25
 20
-188.75
 11
379.75
 21
-188.75
  0
LINE
  8
0
 10
379.75
 20
-188.75
 11
379.75
 21
-185.75
  0
LINE
  8
0
 10
379.75
 20
-185.75
 11
159.75
 21
-185.75
  0
LINE
  8
0
 10
159.75
 20
-185.75
 11
159.75
 21
-188.75
  0
LINE
  8
0
 10
159.75
 20
-188.75
 11
170.25
 21
-188.75
  0
LINE
  8
0
 10
170.25
 20
-188.75
 11
170.25
 21
-191.75
  0
LINE
  8
0
 10
170.25
 20
-191.75
 11
159.75
 21
-191.75
  0
LINE
  8
0
 10
159.75
 20
-191.75
 11
159.75
 21
-197.45
  0
LINE
  8
0
 10
159.75
 20
-197.45
 11
162.85
 21
-197.45
  0
LINE
  8
0
 10
162.85
 20
-197.45
 11
162.85
 21
-209.45
  0
LINE
  8
0
 10
162.85
 20
-209.45
 11
159.75
 21
-209.45
  0
LINE
  8
0
 10
159.75
 20
-209.45
 11
159.75
 21
-221.05
  0
LINE
  8
0
 10
159.75
 20
-221.05
 11
162.85
 21
-221.05
  0
LINE
  8
0
 10
162.85
 20
-221.05
 11
162.85
 21
-233.05
  0
LINE
  8
0
 10
162.85
 20
-233.05
 11
159.75
 21
-233.05
  0
LINE
  8
0
 10
159.75
 20
-233.05
 11
159.75
 21
-241.65
  0
LINE
  8
0
 10
159.75
 20
-241.65
 11
169.415
 21
-241.65
  0
LINE
  8
0
 10
169.415
 20
-241.65
 11
169.415
 21
-244.75
  0
LINE
  8
0
 10
169.415
 20
-244.75
 11
178.78
 21
-244.75
  0
LINE
  8
0
 10
178.78
 20
-244.75
 11
178.78
 21
-241.65
  0
LINE
  8
0
 10
278.75
 20
-191.75
 11
278.75
 21
-188.75
  0
LINE
  8
0
 10
278.75
 20
-188.75
 11
284.75
 21
-188.75
  0
LINE
  8
0
 10
284.75
 20
-188.75
 11
284.75
 21
-191.75
  0
LINE
  8
0
 10
284.75
 20
-191.75
 11
278.75
 21
-191.75
  0
LINE
  8
0
 10
254.75
 20
-191.75
 11
254.75
 21
-188.75
  0
LINE
  8
0
 10
254.75
 20
-188.75
 11
260.75
 21
-188.75
  0
LINE
  8
0
 10
260.75
 20
-188.75
 11
260.75
 21
-191.75
  0
LINE
  8
0
 10
260.75
 20
-191.75
 11
254.75
 21
-191.75
  0
LINE
  8
0
 10
266.75
 20
-191.75
 11
266.75
 21
-188.75
  0
LINE
  8
0
 10
266.75
 20
-188.75
 11
272.75
 21
-188.75
  0
LINE
  8
0
 10
272.75
 20
-188.75
 11
272.75
 21
-191.75
  0
LINE
  8
0
 10
272.75
 20
-191.75
 11
266.75
 21
-191.75
  0
LINE
  8
0
 10
174.15
 20
-228.35
 11
174.15
 21
-201.15
  0
LINE
  8
0
 10
174.15
 20
-201.15
 11
205.35
 21
-201.15
  0
LINE
  8
0
 10
205.35
 20
-201.15
 11
205.35
 21
-228.35
  0
LINE
  8
0
 10
205.35
 20
-228.35
 11
174.15
 21
-228.35
  0
LINE
  8
0
 10
197.25
 20
-214.75
 11
198.75
 21
-214.75
  0
LINE
  8
0
 10
198.75
 20
-214.75
 11
198.75
 21
-205.75
  0
LINE
  8
0
 10
198.75
 20
-205.75
 11
189.75
 21
-205.75
  0
LINE
  8
0
 10
189.75
 20
-205.75
 11
189.75
 21
-207.25
  0
LINE
  8
0
 10
189.75
 20
-207.25
 11
182.25
 21
-207.25
  0
LINE
  8
0
 10
182.25
 20
-207.25
 11
182.25
 21
-222.25
  0
LINE
  8
0
 10
182.25
 20
-222.25
 11
197.25
 21
-222.25
  0
LINE
  8
0
 10
197.25
 20
-222.25
 11
197.25
 21
-214.75
  0
LINE
  8
0
 10
189.436
 20
-217.734
 11
188.823
 21
-217.603
  0
LINE
  8
0
 10
188.823
 20
-217.603
 11
188.25
 21
-217.348
  0
LINE
  8
0
 10
188.25
 20
-217.348
 11
187.743
 21
-216.979
  0
LINE
  8
0
 10
187.743
 20
-216.979
 11
187.323
 21
-216.513
  0
LINE
  8
0
 10
187.323
 20
-216.513
 11
187.009
 21
-215.97
  0
LINE
  8
0
 10
187.009
 20
-215.97
 11
186.816
 21
-215.374
  0
LINE
  8
0
 10
186.816
 20
-215.374
 11
186.75
 21
-214.75
  0
LINE
  8
0
 10
186.75
 20
-214.75
 11
186.816
 21
-214.126
  0
LINE
  8
0
 10
186.816
 20
-214.126
 11
187.009
 21
-213.53
  0
LINE
  8
0
 10
187.009
 20
-213.53
 11
187.323
 21
-212.987
  0
LINE
  8
0
 10
187.323
 20
-212.987
 11
187.743
 21
-212.521
  0
LINE
  8
0
 10
187.743
 20
-212.521
 11
188.25
 21
-212.152
  0
LINE
  8
0
 10
188.25
 20
-212.152
 11
188.823
 21
-211.897
  0
LINE
  8
0
 10
188.823
 20
-211.897
 11
189.436
 21
-211.766
  0
LINE
  8
0
 10
189.436
 20
-211.766
 11
190.064
 21
-211.766
  0
LINE
  8
0
 10
190.064
 20
-211.766
 11
190.677
 21
-211.897
  0
LINE
  8
0
 10
190.677
 20
-211.897
 11
191.25
 21
-212.152
  0
LINE
  8
0
 10
191.25
 20
-212.152
 11
191.757
 21
-212.521
  0
LINE
  8
0
 10
191.757
 20
-212.521
 11
192.177
 21
-212.987
  0
LINE
  8
0
 10
192.177
 20
-212.987
 11
192.491
 21
-213.53
  0
LINE
  8
0
 10
192.491
 20
-213.53
 11
192.684
 21
-214.126
  0
LINE
  8
0
 10
192.684
 20
-214.126
 11
192.75
 21
-214.75
  0
LINE
  8
0
 10
192.75
 20
-214.75
 11
192.684
 21
-215.374
  0
LINE
  8
0
 10
192.684
 20
-215.374
 11
192.491
 21
-215.97
  0
LINE
  8
0
 10
192.491
 20
-215.97
 11
192.177
 21
-216.513
  0
LINE
  8
0
 10
192.177
 20
-216.513
 11
191.757
 21
-216.979
  0
LINE
  8
0
 10
191.757
 20
-216.979
 11
191.25
 21
-217.348
  0
LINE
  8
0
 10
191.25
 20
-217.348
 11
190.677
 21
-217.603
  0
LINE
  8
0
 10
190.677
 20
-217.603
 11
190.064
 21
-217.734
  0
LINE
  8
0
 10
190.064
 20
-217.734
 11
189.436
 21
-217.734
  0
LINE
  8
0
 10
224.5
 20
-225.6
 11
224.5
 21
-203.9
  0
LINE
  8
0
 10
224.5
 20
-203.9
 11
265
 21
-203.9
  0
LINE
  8
0
 10
265
 20
-203.9
 11
265
 21
-225.6
  0
LINE
  8
0
 10
265
 20
-225.6
 11
224.5
 21
-225.6
  0
LINE
  8
0
 10
243.75
 20
-214.75
 11
245.25
 21
-214.75
  0
LINE
  8
0
 10
245.25
 20
-214.75
 11
245.25
 21
-205.75
  0
LINE
  8
0
 10
245.25
 20
-205.75
 11
236.25
 21
-205.75
  0
LINE
  8
0
 10
236.25
 20
-205.75
 11
236.25
 21
-207.25
  0
LINE
  8
0
 10
236.25
 20
-207.25
 11
228.75
 21
-207.25
  0
LINE
  8
0
 10
228.75
 20
-207.25
 11
228.75
 21
-222.25
  0
LINE
  8
0
 10
228.75
 20
-222.25
 11
243.75
 21
-222.25
  0
LINE
  8
0
 10
243.75
 20
-222.25
 11
243.75
 21
-214.75
  0
LINE
  8
0
 10
235.936
 20
-217.734
 11
235.323
 21
-217.603
  0
LINE
  8
0
 10
235.323
 20
-217.603
 11
234.75
 21
-217.348
  0
LINE
  8
0
 10
234.75
 20
-217.348
 11
234.243
 21
-216.979
  0
LINE
  8
0
 10
234.243
 20
-216.979
 11
233.823
 21
-216.513
  0
LINE
  8
0
 10
233.823
 20
-216.513
 11
233.509
 21
-215.97
  0
LINE
  8
0
 10
233.509
 20
-215.97
 11
233.316
 21
-215.374
  0
LINE
  8
0
 10
233.316
 20
-215.374
 11
233.25
 21
-214.75
  0
LINE
  8
0
 10
233.25
 20
-214.75
 11
233.316
 21
-214.126
  0
LINE
  8
0
 10
233.316
 20
-214.126
 11
233.509
 21
-213.53
  0
LINE
  8
0
 10
233.509
 20
-213.53
 11
233.823
 21
-212.987
  0
LINE
  8
0
 10
233.823
 20
-212.987
 11
234.243
 21
-212.521
  0
LINE
  8
0
 10
234.243
 20
-212.521
 11
234.75
 21
-212.152
  0
LINE
  8
0
 10
234.75
 20
-212.152
 11
235.323
 21
-211.897
  0
LINE
  8
0
 10
235.323
 20
-211.897
 11
235.936
 21
-211.766
  0
LINE
  8
0
 10
235.936
 20
-211.766
 11
236.564
 21
-211.766
  0
LINE
  8
0
 10
236.564
 20
-211.766
 11
237.177
 21
-211.897
  0
LINE
  8
0
 10
237.177
 20
-211.897
 11
237.75
 21
-212.152
  0
LINE
  8
0
 10
237.75
 20
-212.152
 11
238.257
 21
-212.521
  0
LINE
  8
0
 10
238.257
 20
-212.521
 11
238.677
 21
-212.987
  0
LINE
  8
0
 10
238.677
 20
-212.987
 11
238.991
 21
-213.53
  0
LINE
  8
0
 10
238.991
 20
-213.53
 11
239.184
 21
-214.126
  0
LINE
  8
0
 10
239.184
 20
-214.126
 11
239.25
 21
-214.75
  0
LINE
  8
0
 10
239.25
 20
-214.75
 11
239.184
 21
-215.374
  0
LINE
  8
0
 10
239.184
 20
-215.374
 11
238.991
 21
-215.97
  0
LINE
  8
0
 10
238.991
 20
-215.97
 11
238.677
 21
-216.513
  0
LINE
  8
0
 10
238.677
 20
-216.513
 11
238.257
 21
-216.979
  0
LINE
  8
0
 10
238.257
 20
-216.979
 11
237.75
 21
-217.348
  0
LINE
  8
0
 10
237.75
 20
-217.348
 11
237.177
 21
-217.603
  0
LINE
  8
0
 10
237.177
 20
-217.603
 11
236.564
 21
-217.734
  0
LINE
  8
0
 10
236.564
 20
-217.734
 11
235.936
 21
-217.734
  0
LINE
  8
0
 10
260.75
 20
-214.75
 11
262.25
 21
-214.75
  0
LINE
  8
0
 10
262.25
 20
-214.75
 11
262.25
 21
-205.75
  0
LINE
  8
0
 10
262.25
 20
-205.75
 11
253.25
 21
-205.75
  0
LINE
  8
0
 10
253.25
 20
-205.75
 11
253.25
 21
-207.25
  0
LINE
  8
0
 10
253.25
 20
-207.25
 11
245.75
 21
-207.25
  0
LINE
  8
0
 10
245.75
 20
-207.25
 11
245.75
 21
-222.25
  0
LINE
  8
0
 10
245.75
 20
-222.25
 11
260.75
 21
-222.25
  0
LINE
  8
0
 10
260.75
 20
-222.25
 11
260.75
 21
-214.75
  0
LINE
  8
0
 10
252.936
 20
-217.734
 11
252.323
 21
-217.603
  0
LINE
  8
0
 10
252.323
 20
-217.603
 11
251.75
 21
-217.348
  0
LINE
  8
0
 10
251.75
 20
-217.348
 11
251.243
 21
-216.979
  0
LINE
  8
0
 10
251.243
 20
-216.979
 11
250.823
 21
-216.513
  0
LINE
  8
0
 10
250.823
 20
-216.513
 11
250.509
 21
-215.97
  0
LINE
  8
0
 10
250.509
 20
-215.97
 11
250.316
 21
-215.374
  0
LINE
  8
0
 10
250.316
 20
-215.374
 11
250.25
 21
-214.75
  0
LINE
  8
0
 10
250.25
 20
-214.75
 11
250.316
 21
-214.126
  0
LINE
  8
0
 10
250.316
 20
-214.126
 11
250.509
 21
-213.53
  0
LINE
  8
0
 10
250.509
 20
-213.53
 11
250.823
 21
-212.987
  0
LINE
  8
0
 10
250.823
 20
-212.987
 11
251.243
 21
-212.521
  0
LINE
  8
0
 10
251.243
 20
-212.521
 11
251.75
 21
-212.152
  0
LINE
  8
0
 10
251.75
 20
-212.152
 11
252.323
 21
-211.897
  0
LINE
  8
0
 10
252.323
 20
-211.897
 11
252.936
 21
-211.766
  0
LINE
  8
0
 10
252.936
 20
-211.766
 11
253.564
 21
-211.766
  0
LINE
  8
0
 10
253.564
 20
-211.766
 11
254.177
 21
-211.897
  0
LINE
  8
0
 10
254.177
 20
-211.897
 11
254.75
 21
-212.152
  0
LINE
  8
0
 10
254.75
 20
-212.152
 11
255.257
 21
-212.521
  0
LINE
  8
0
 10
255.257
 20
-212.521
 11
255.677
 21
-212.987
  0
LINE
  8
0
 10
255.677
 20
-212.987
 11
255.991
 21
-213.53
  0
LINE
  8
0
 10
255.991
 20
-213.53
 11
256.184
 21
-214.126
  0
LINE
  8
0
 10
256.184
 20
-214.126
 11
256.25
 21
-214.75
  0
LINE
  8
0
 10
256.25
 20
-214.75
 11
256.184
 21
-215.374
  0
LINE
  8
0
 10
256.184
 20
-215.374
 11
255.991
 21
-215.97
  0
LINE
  8
0
 10
255.991
 20
-215.97
 11
255.677
 21
-216.513
  0
LINE
  8
0
 10
255.677
 20
-216.513
 11
255.257
 21
-216.979
  0
LINE
  8
0
 10
255.257
 20
-216.979
 11
254.75
 21
-217.348
  0
LINE
  8
0
 10
254.75
 20
-217.348
 11
254.177
 21
-217.603
  0
LINE
  8
0
 10
254.177
 20
-217.603
 11
253.564
 21
-217.734
  0
LINE
  8
0
 10
253.564
 20
-217.734
 11
252.936
 21
-217.734
  0
LINE
  8
0
 10
348.811
 20
-220.676
 11
347.896
 21
-220.456
  0
LINE
  8
0
 10
347.896
 20
-220.456
 11
347.026
 21
-220.096
  0
LINE
  8
0
 10
347.026
 20
-220.096
 11
346.223
 21
-219.604
  0
LINE
  8
0
 10
346.223
 20
-219.604
 11
345.507
 21
-218.993
  0
LINE
  8
0
 10
345.507
 20
-218.993
 11
344.896
 21
-218.277
  0
LINE
  8
0
 10
344.896
 20
-218.277
 11
344.404
 21
-217.474
  0
LINE
  8
0
 10
344.404
 20
-217.474
 11
344.044
 21
-216.604
  0
LINE
  8
0
 10
344.044
 20
-216.604
 11
343.824
 21
-215.689
  0
LINE
  8
0
 10
343.824
 20
-215.689
 11
343.75
 21
-214.75
  0
LINE
  8
0
 10
343.75
 20
-214.75
 11
343.824
 21
-213.811
  0
LINE
  8
0
 10
343.824
 20
-213.811
 11
344.044
 21
-212.896
  0
LINE
  8
0
 10
344.044
 20
-212.896
 11
344.404
 21
-212.026
  0
LINE
  8
0
 10
344.404
 20
-212.026
 11
344.896
 21
-211.223
  0
LINE
  8
0
 10
344.896
 20
-211.223
 11
345.507
 21
-210.507
  0
LINE
  8
0
 10
345.507
 20
-210.507
 11
346.223
 21
-209.896
  0
LINE
  8
0
 10
346.223
 20
-209.896
 11
347.026
 21
-209.404
  0
LINE
  8
0
 10
347.026
 20
-209.404
 11
347.896
 21
-209.044
  0
LINE
  8
0
 10
347.896
 20
-209.044
 11
348.811
 21
-208.824
  0
LINE
  8
0
 10
348.811
 20
-208.824
 11
349.75
 21
-208.75
  0
LINE
  8
0
 10
349.75
 20
-208.75
 11
350.689
 21
-208.824
  0
LINE
  8
0
 10
350.689
 20
-208.824
 11
351.604
 21
-209.044
  0
LINE
  8
0
 10
351.604
 20
-209.044
 11
352.474
 21
-209.404
  0
LINE
  8
0
 10
352.474
 20
-209.404
 11
353.277
 21
-209.896
  0
LINE
  8
0
 10
353.277
 20
-209.896
 11
353.993
 21
-210.507
  0
LINE
  8
0
 10
353.993
 20
-210.507
 11
354.604
 21
-211.223
  0
LINE
  8
0
 10
354.604
 20
-211.223
 11
355.096
 21
-212.026
  0
LINE
  8
0
 10
355.096
 20
-212.026
 11
355.456
 21
-212.896
  0
LINE
  8
0
 10
355.456
 20
-212.896
 11
355.676
 21
-213.811
  0
LINE
  8
0
 10
355.676
 20
-213.811
 11
355.75
 21
-214.75
  0
LINE
  8
0
 10
355.75
 20
-214.75
 11
355.676
 21
-215.689
  0
LINE
  8
0
 10
355.676
 20
-215.689
 11
355.456
 21
-216.604
  0
LINE
  8
0
 10
355.456
 20
-216.604
 11
355.096
 21
-217.474
  0
LINE
  8
0
 10
355.096
 20
-217.474
 11
354.604
 21
-218.277
  0
LINE
  8
0
 10
354.604
 20
-218.277
 11
353.993
 21
-218.993
  0
LINE
  8
0
 10
353.993
 20
-218.993
 11
353.277
 21
-219.604
  0
LINE
  8
0
 10
353.277
 20
-219.604
 11
352.474
 21
-220.096
  0
LINE
  8
0
 10
352.474
 20
-220.096
 11
351.604
 21
-220.456
  0
LINE
  8
0
 10
351.604
 20
-220.456
 11
350.689
 21
-220.676
  0
LINE
  8
0
 10
350.689
 20
-220.676
 11
349.75
 21
-220.75
  0
LINE
  8
0
 10
349.75
 20
-220.75
 11
348.811
 21
-220.676
  0
ENDSEC
  0
SECTION
  2
OBJECTS
  0
DICTIONARY
  0
ENDSEC
  0
EOF
