  0
SECTION
  2
BLOCKS
  0
ENDSEC
  0
SECTION
  2
ENTITIES
  0
LINE
  8
0
 10
591
 20
28.35
 11
551
 21
28.35
  0
LINE
  8
0
 10
551
 20
28.35
 11
551
 21
31.65
  0
LINE
  8
0
 10
551
 20
31.65
 11
591
 21
31.65
  0
LINE
  8
0
 10
591
 20
31.65
 11
591
 21
298.35
  0
LINE
  8
0
 10
591
 20
298.35
 11
551
 21
298.35
  0
LINE
  8
0
 10
551
 20
298.35
 11
551
 21
301.65
  0
LINE
  8
0
 10
551
 20
301.65
 11
591
 21
301.65
  0
LINE
  8
0
 10
591
 20
301.65
 11
591
 21
360
  0
LINE
  8
0
 10
591
 20
360
 11
578.5
 21
360
  0
LINE
  8
0
 10
578.5
 20
360
 11
578.5
 21
363
  0
LINE
  8
0
 10
578.5
 20
363
 11
563.5
 21
363
  0
LINE
  8
0
 10
563.5
 20
363
 11
563.5
 21
360
  0
LINE
  8
0
 10
563.5
 20
360
 11
538.5
 21
360
  0
LINE
  8
0
 10
538.5
 20
360
 11
538.5
 21
363
  0
LINE
  8
0
 10
538.5
 20
363
 11
523.5
 21
363
  0
LINE
  8
0
 10
523.5
 20
363
 11
523.5
 21
360
  0
LINE
  8
0
 10
523.5
 20
360
 11
511
 21
360
  0
LINE
  8
0
 10
511
 20
360
 11
511
 21
327.5
  0
LINE
  8
0
 10
511
 20
327.5
 11
508
 21
327.5
  0
LINE
  8
0
 10
508
 20
327.5
 11
508
 21
312.5
  0
LINE
  8
0
 10
508
 20
312.5
 11
511
 21
312.5
  0
LINE
  8
0
 10
511
 20
312.5
 11
511
 21
10
  0
LINE
  8
0
 10
511
 20
10
 11
591
 21
10
  0
LINE
  8
0
 10
591
 20
10
 11
591
 21
28.35
  0
LINE
  8
0
 10
549.955
 20
320.055
 11
548.921
 21
320.219
  0
LINE
  8
0
 10
548.921
 20
320.219
 11
547.91
 21
320.489
  0
LINE
  8
0
 10
547.91
 20
320.489
 11
546.933
 21
320.865
  0
LINE
  8
0
 10
546.933
 20
320.865
 11
546
 21
321.34
  0
LINE
  8
0
 10
546
 20
321.34
 11
545.122
 21
321.91
  0
LINE
  8
0
 10
545.122
 20
321.91
 11
544.309
 21
322.569
  0
LINE
  8
0
 10
544.309
 20
322.569
 11
543.569
 21
323.309
  0
LINE
  8
0
 10
543.569
 20
323.309
 11
542.91
 21
324.122
  0
LINE
  8
0
 10
542.91
 20
324.122
 11
542.34
 21
325
  0
LINE
  8
0
 10
542.34
 20
325
 11
541.865
 21
325.933
  0
LINE
  8
0
 10
541.865
 20
325.933
 11
541.489
 21
326.91
  0
LINE
  8
0
 10
541.489
 20
326.91
 11
541.219
 21
327.921
  0
LINE
  8
0
 10
541.219
 20
327.921
 11
541.055
 21
328.955
  0
LINE
  8
0
 10
541.055
 20
328.955
 11
541
 21
330
  0
LINE
  8
0
 10
541
 20
330
 11
541.055
 21
331.045
  0
LINE
  8
0
 10
541.055
 20
331.045
 11
541.219
 21
332.079
  0
LINE
  8
0
 10
541.219
 20
332.079
 11
541.489
 21
333.09
  0
LINE
  8
0
 10
541.489
 20
333.09
 11
541.865
 21
334.067
  0
LINE
  8
0
 10
541.865
 20
334.067
 11
542.34
 21
335
  0
LINE
  8
0
 10
542.34
 20
335
 11
542.91
 21
335.878
  0
LINE
  8
0
 10
542.91
 20
335.878
 11
543.569
 21
336.691
  0
LINE
  8
0
 10
543.569
 20
336.691
 11
544.309
 21
337.431
  0
LINE
  8
0
 10
544.309
 20
337.431
 11
545.122
 21
338.09
  0
LINE
  8
0
 10
545.122
 20
338.09
 11
546
 21
338.66
  0
LINE
  8
0
 10
546
 20
338.66
 11
546.933
 21
339.135
  0
LINE
  8
0
 10
546.933
 20
339.135
 11
547.91
 21
339.511
  0
LINE
  8
0
 10
547.91
 20
339.511
 11
548.921
 21
339.781
  0
LINE
  8
0
 10
548.921
 20
339.781
 11
549.955
 21
339.945
  0
LINE
  8
0
 10
549.955
 20
339.945
 11
551
 21
340
  0
LINE
  8
0
 10
551
 20
340
 11
552.045
 21
339.945
  0
LINE
  8
0
 10
552.045
 20
339.945
 11
553.079
 21
339.781
  0
LINE
  8
0
 10
553.079
 20
339.781
 11
554.09
 21
339.511
  0
LINE
  8
0
 10
554.09
 20
339.511
 11
555.067
 21
339.135
  0
LINE
  8
0
 10
555.067
 20
339.135
 11
556
 21
338.66
  0
LINE
  8
0
 10
556
 20
338.66
 11
556.878
 21
338.09
  0
LINE
  8
0
 10
556.878
 20
338.09
 11
557.691
 21
337.431
  0
LINE
  8
0
 10
557.691
 20
337.431
 11
558.431
 21
336.691
  0
LINE
  8
0
 10
558.431
 20
336.691
 11
559.09
 21
335.878
  0
LINE
  8
0
 10
559.09
 20
335.878
 11
559.66
 21
335
  0
LINE
  8
0
 10
559.66
 20
335
 11
560.135
 21
334.067
  0
LINE
  8
0
 10
560.135
 20
334.067
 11
560.511
 21
333.09
  0
LINE
  8
0
 10
560.511
 20
333.09
 11
560.781
 21
332.079
  0
LINE
  8
0
 10
560.781
 20
332.079
 11
560.945
 21
331.045
  0
LINE
  8
0
 10
560.945
 20
331.045
 11
561
 21
330
  0
LINE
  8
0
 10
561
 20
330
 11
560.945
 21
328.955
  0
LINE
  8
0
 10
560.945
 20
328.955
 11
560.781
 21
327.921
  0
LINE
  8
0
 10
560.781
 20
327.921
 11
560.511
 21
326.91
  0
LINE
  8
0
 10
560.511
 20
326.91
 11
560.135
 21
325.933
  0
LINE
  8
0
 10
560.135
 20
325.933
 11
559.66
 21
325
  0
LINE
  8
0
 10
559.66
 20
325
 11
559.09
 21
324.122
  0
LINE
  8
0
 10
559.09
 20
324.122
 11
558.431
 21
323.309
  0
LINE
  8
0
 10
558.431
 20
323.309
 11
557.691
 21
322.569
  0
LINE
  8
0
 10
557.691
 20
322.569
 11
556.878
 21
321.91
  0
LINE
  8
0
 10
556.878
 20
321.91
 11
556
 21
321.34
  0
LINE
  8
0
 10
556
 20
321.34
 11
555.067
 21
320.865
  0
LINE
  8
0
 10
555.067
 20
320.865
 11
554.09
 21
320.489
  0
LINE
  8
0
 10
554.09
 20
320.489
 11
553.079
 21
320.219
  0
LINE
  8
0
 10
553.079
 20
320.219
 11
552.045
 21
320.055
  0
LINE
  8
0
 10
552.045
 20
320.055
 11
551
 21
320
  0
LINE
  8
0
 10
551
 20
320
 11
549.955
 21
320.055
  0
LINE
  8
0
 10
506
 20
360
 11
493.5
 21
360
  0
LINE
  8
0
 10
493.5
 20
360
 11
493.5
 21
363
  0
LINE
  8
0
 10
493.5
 20
363
 11
478.5
 21
363
  0
LINE
  8
0
 10
478.5
 20
363
 11
478.5
 21
360
  0
LINE
  8
0
 10
478.5
 20
360
 11
453.5
 21
360
  0
LINE
  8
0
 10
453.5
 20
360
 11
453.5
 21
363
  0
LINE
  8
0
 10
453.5
 20
363
 11
438.5
 21
363
  0
LINE
  8
0
 10
438.5
 20
363
 11
438.5
 21
360
  0
LINE
  8
0
 10
438.5
 20
360
 11
426
 21
360
  0
LINE
  8
0
 10
426
 20
360
 11
426
 21
327.5
  0
LINE
  8
0
 10
426
 20
327.5
 11
423
 21
327.5
  0
LINE
  8
0
 10
423
 20
327.5
 11
423
 21
312.5
  0
LINE
  8
0
 10
423
 20
312.5
 11
426
 21
312.5
  0
LINE
  8
0
 10
426
 20
312.5
 11
426
 21
10
  0
LINE
  8
0
 10
426
 20
10
 11
506
 21
10
  0
LINE
  8
0
 10
506
 20
10
 11
506
 21
360
  0
LINE
  8
0
 10
464.955
 20
320.055
 11
463.921
 21
320.219
  0
LINE
  8
0
 10
463.921
 20
320.219
 11
462.91
 21
320.489
  0
LINE
  8
0
 10
462.91
 20
320.489
 11
461.933
 21
320.865
  0
LINE
  8
0
 10
461.933
 20
320.865
 11
461
 21
321.34
  0
LINE
  8
0
 10
461
 20
321.34
 11
460.122
 21
321.91
  0
LINE
  8
0
 10
460.122
 20
321.91
 11
459.309
 21
322.569
  0
LINE
  8
0
 10
459.309
 20
322.569
 11
458.569
 21
323.309
  0
LINE
  8
0
 10
458.569
 20
323.309
 11
457.91
 21
324.122
  0
LINE
  8
0
 10
457.91
 20
324.122
 11
457.34
 21
325
  0
LINE
  8
0
 10
457.34
 20
325
 11
456.865
 21
325.933
  0
LINE
  8
0
 10
456.865
 20
325.933
 11
456.489
 21
326.91
  0
LINE
  8
0
 10
456.489
 20
326.91
 11
456.219
 21
327.921
  0
LINE
  8
0
 10
456.219
 20
327.921
 11
456.055
 21
328.955
  0
LINE
  8
0
 10
456.055
 20
328.955
 11
456
 21
330
  0
LINE
  8
0
 10
456
 20
330
 11
456.055
 21
331.045
  0
LINE
  8
0
 10
456.055
 20
331.045
 11
456.219
 21
332.079
  0
LINE
  8
0
 10
456.219
 20
332.079
 11
456.489
 21
333.09
  0
LINE
  8
0
 10
456.489
 20
333.09
 11
456.865
 21
334.067
  0
LINE
  8
0
 10
456.865
 20
334.067
 11
457.34
 21
335
  0
LINE
  8
0
 10
457.34
 20
335
 11
457.91
 21
335.878
  0
LINE
  8
0
 10
457.91
 20
335.878
 11
458.569
 21
336.691
  0
LINE
  8
0
 10
458.569
 20
336.691
 11
459.309
 21
337.431
  0
LINE
  8
0
 10
459.309
 20
337.431
 11
460.122
 21
338.09
  0
LINE
  8
0
 10
460.122
 20
338.09
 11
461
 21
338.66
  0
LINE
  8
0
 10
461
 20
338.66
 11
461.933
 21
339.135
  0
LINE
  8
0
 10
461.933
 20
339.135
 11
462.91
 21
339.511
  0
LINE
  8
0
 10
462.91
 20
339.511
 11
463.921
 21
339.781
  0
LINE
  8
0
 10
463.921
 20
339.781
 11
464.955
 21
339.945
  0
LINE
  8
0
 10
464.955
 20
339.945
 11
466
 21
340
  0
LINE
  8
0
 10
466
 20
340
 11
467.045
 21
339.945
  0
LINE
  8
0
 10
467.045
 20
339.945
 11
468.079
 21
339.781
  0
LINE
  8
0
 10
468.079
 20
339.781
 11
469.09
 21
339.511
  0
LINE
  8
0
 10
469.09
 20
339.511
 11
470.067
 21
339.135
  0
LINE
  8
0
 10
470.067
 20
339.135
 11
471
 21
338.66
  0
LINE
  8
0
 10
471
 20
338.66
 11
471.878
 21
338.09
  0
LINE
  8
0
 10
471.878
 20
338.09
 11
472.691
 21
337.431
  0
LINE
  8
0
 10
472.691
 20
337.431
 11
473.431
 21
336.691
  0
LINE
  8
0
 10
473.431
 20
336.691
 11
474.09
 21
335.878
  0
LINE
  8
0
 10
474.09
 20
335.878
 11
474.66
 21
335
  0
LINE
  8
0
 10
474.66
 20
335
 11
475.135
 21
334.067
  0
LINE
  8
0
 10
475.135
 20
334.067
 11
475.511
 21
333.09
  0
LINE
  8
0
 10
475.511
 20
333.09
 11
475.781
 21
332.079
  0
LINE
  8
0
 10
475.781
 20
332.079
 11
475.945
 21
331.045
  0
LINE
  8
0
 10
475.945
 20
331.045
 11
476
 21
330
  0
LINE
  8
0
 10
476
 20
330
 11
475.945
 21
328.955
  0
LINE
  8
0
 10
475.945
 20
328.955
 11
475.781
 21
327.921
  0
LINE
  8
0
 10
475.781
 20
327.921
 11
475.511
 21
326.91
  0
LINE
  8
0
 10
475.511
 20
326.91
 11
475.135
 21
325.933
  0
LINE
  8
0
 10
475.135
 20
325.933
 11
474.66
 21
325
  0
LINE
  8
0
 10
474.66
 20
325
 11
474.09
 21
324.122
  0
LINE
  8
0
 10
474.09
 20
324.122
 11
473.431
 21
323.309
  0
LINE
  8
0
 10
473.431
 20
323.309
 11
472.691
 21
322.569
  0
LINE
  8
0
 10
472.691
 20
322.569
 11
471.878
 21
321.91
  0
LINE
  8
0
 10
471.878
 20
321.91
 11
471
 21
321.34
  0
LINE
  8
0
 10
471
 20
321.34
 11
470.067
 21
320.865
  0
LINE
  8
0
 10
470.067
 20
320.865
 11
469.09
 21
320.489
  0
LINE
  8
0
 10
469.09
 20
320.489
 11
468.079
 21
320.219
  0
LINE
  8
0
 10
468.079
 20
320.219
 11
467.045
 21
320.055
  0
LINE
  8
0
 10
467.045
 20
320.055
 11
466
 21
320
  0
LINE
  8
0
 10
466
 20
320
 11
464.955
 21
320.055
  0
LINE
  8
0
 10
478.35
 20
298.35
 11
478.35
 21
301.65
  0
LINE
  8
0
 10
478.35
 20
301.65
 11
493.65
 21
301.65
  0
LINE
  8
0
 10
493.65
 20
301.65
 11
493.65
 21
298.35
  0
LINE
  8
0
 10
493.65
 20
298.35
 11
478.35
 21
298.35
  0
LINE
  8
0
 10
438.35
 20
298.35
 11
438.35
 21
301.65
  0
LINE
  8
0
 10
438.35
 20
301.65
 11
453.65
 21
301.65
  0
LINE
  8
0
 10
453.65
 20
301.65
 11
453.65
 21
298.35
  0
LINE
  8
0
 10
453.65
 20
298.35
 11
438.35
 21
298.35
  0
LINE
  8
0
 10
438.35
 20
28.35
 11
438.35
 21
31.65
  0
LINE
  8
0
 10
438.35
 20
31.65
 11
453.65
 21
31.65
  0
LINE
  8
0
 10
453.65
 20
31.65
 11
453.65
 21
28.35
  0
LINE
  8
0
 10
453.65
 20
28.35
 11
438.35
 21
28.35
  0
LINE
  8
0
 10
478.35
 20
28.35
 11
478.35
 21
31.65
  0
LINE
  8
0
 10
478.35
 20
31.65
 11
493.65
 21
31.65
  0
LINE
  8
0
 10
493.65
 20
31.65
 11
493.65
 21
28.35
  0
LINE
  8
0
 10
493.65
 20
28.35
 11
478.35
 21
28.35
  0
LINE
  8
0
 10
421
 20
360
 11
408.5
 21
360
  0
LINE
  8
0
 10
408.5
 20
360
 11
408.5
 21
363
  0
LINE
  8
0
 10
408.5
 20
363
 11
393.5
 21
363
  0
LINE
  8
0
 10
393.5
 20
363
 11
393.5
 21
360
  0
LINE
  8
0
 10
393.5
 20
360
 11
368.5
 21
360
  0
LINE
  8
0
 10
368.5
 20
360
 11
368.5
 21
363
  0
LINE
  8
0
 10
368.5
 20
363
 11
353.5
 21
363
  0
LINE
  8
0
 10
353.5
 20
363
 11
353.5
 21
360
  0
LINE
  8
0
 10
353.5
 20
360
 11
341
 21
360
  0
LINE
  8
0
 10
341
 20
360
 11
341
 21
327.5
  0
LINE
  8
0
 10
341
 20
327.5
 11
338
 21
327.5
  0
LINE
  8
0
 10
338
 20
327.5
 11
338
 21
312.5
  0
LINE
  8
0
 10
338
 20
312.5
 11
341
 21
312.5
  0
LINE
  8
0
 10
341
 20
312.5
 11
341
 21
10
  0
LINE
  8
0
 10
341
 20
10
 11
421
 21
10
  0
LINE
  8
0
 10
421
 20
10
 11
421
 21
360
  0
LINE
  8
0
 10
379.955
 20
320.055
 11
378.921
 21
320.219
  0
LINE
  8
0
 10
378.921
 20
320.219
 11
377.91
 21
320.489
  0
LINE
  8
0
 10
377.91
 20
320.489
 11
376.933
 21
320.865
  0
LINE
  8
0
 10
376.933
 20
320.865
 11
376
 21
321.34
  0
LINE
  8
0
 10
376
 20
321.34
 11
375.122
 21
321.91
  0
LINE
  8
0
 10
375.122
 20
321.91
 11
374.309
 21
322.569
  0
LINE
  8
0
 10
374.309
 20
322.569
 11
373.569
 21
323.309
  0
LINE
  8
0
 10
373.569
 20
323.309
 11
372.91
 21
324.122
  0
LINE
  8
0
 10
372.91
 20
324.122
 11
372.34
 21
325
  0
LINE
  8
0
 10
372.34
 20
325
 11
371.865
 21
325.933
  0
LINE
  8
0
 10
371.865
 20
325.933
 11
371.489
 21
326.91
  0
LINE
  8
0
 10
371.489
 20
326.91
 11
371.219
 21
327.921
  0
LINE
  8
0
 10
371.219
 20
327.921
 11
371.055
 21
328.955
  0
LINE
  8
0
 10
371.055
 20
328.955
 11
371
 21
330
  0
LINE
  8
0
 10
371
 20
330
 11
371.055
 21
331.045
  0
LINE
  8
0
 10
371.055
 20
331.045
 11
371.219
 21
332.079
  0
LINE
  8
0
 10
371.219
 20
332.079
 11
371.489
 21
333.09
  0
LINE
  8
0
 10
371.489
 20
333.09
 11
371.865
 21
334.067
  0
LINE
  8
0
 10
371.865
 20
334.067
 11
372.34
 21
335
  0
LINE
  8
0
 10
372.34
 20
335
 11
372.91
 21
335.878
  0
LINE
  8
0
 10
372.91
 20
335.878
 11
373.569
 21
336.691
  0
LINE
  8
0
 10
373.569
 20
336.691
 11
374.309
 21
337.431
  0
LINE
  8
0
 10
374.309
 20
337.431
 11
375.122
 21
338.09
  0
LINE
  8
0
 10
375.122
 20
338.09
 11
376
 21
338.66
  0
LINE
  8
0
 10
376
 20
338.66
 11
376.933
 21
339.135
  0
LINE
  8
0
 10
376.933
 20
339.135
 11
377.91
 21
339.511
  0
LINE
  8
0
 10
377.91
 20
339.511
 11
378.921
 21
339.781
  0
LINE
  8
0
 10
378.921
 20
339.781
 11
379.955
 21
339.945
  0
LINE
  8
0
 10
379.955
 20
339.945
 11
381
 21
340
  0
LINE
  8
0
 10
381
 20
340
 11
382.045
 21
339.945
  0
LINE
  8
0
 10
382.045
 20
339.945
 11
383.079
 21
339.781
  0
LINE
  8
0
 10
383.079
 20
339.781
 11
384.09
 21
339.511
  0
LINE
  8
0
 10
384.09
 20
339.511
 11
385.067
 21
339.135
  0
LINE
  8
0
 10
385.067
 20
339.135
 11
386
 21
338.66
  0
LINE
  8
0
 10
386
 20
338.66
 11
386.878
 21
338.09
  0
LINE
  8
0
 10
386.878
 20
338.09
 11
387.691
 21
337.431
  0
LINE
  8
0
 10
387.691
 20
337.431
 11
388.431
 21
336.691
  0
LINE
  8
0
 10
388.431
 20
336.691
 11
389.09
 21
335.878
  0
LINE
  8
0
 10
389.09
 20
335.878
 11
389.66
 21
335
  0
LINE
  8
0
 10
389.66
 20
335
 11
390.135
 21
334.067
  0
LINE
  8
0
 10
390.135
 20
334.067
 11
390.511
 21
333.09
  0
LINE
  8
0
 10
390.511
 20
333.09
 11
390.781
 21
332.079
  0
LINE
  8
0
 10
390.781
 20
332.079
 11
390.945
 21
331.045
  0
LINE
  8
0
 10
390.945
 20
331.045
 11
391
 21
330
  0
LINE
  8
0
 10
391
 20
330
 11
390.945
 21
328.955
  0
LINE
  8
0
 10
390.945
 20
328.955
 11
390.781
 21
327.921
  0
LINE
  8
0
 10
390.781
 20
327.921
 11
390.511
 21
326.91
  0
LINE
  8
0
 10
390.511
 20
326.91
 11
390.135
 21
325.933
  0
LINE
  8
0
 10
390.135
 20
325.933
 11
389.66
 21
325
  0
LINE
  8
0
 10
389.66
 20
325
 11
389.09
 21
324.122
  0
LINE
  8
0
 10
389.09
 20
324.122
 11
388.431
 21
323.309
  0
LINE
  8
0
 10
388.431
 20
323.309
 11
387.691
 21
322.569
  0
LINE
  8
0
 10
387.691
 20
322.569
 11
386.878
 21
321.91
  0
LINE
  8
0
 10
386.878
 20
321.91
 11
386
 21
321.34
  0
LINE
  8
0
 10
386
 20
321.34
 11
385.067
 21
320.865
  0
LINE
  8
0
 10
385.067
 20
320.865
 11
384.09
 21
320.489
  0
LINE
  8
0
 10
384.09
 20
320.489
 11
383.079
 21
320.219
  0
LINE
  8
0
 10
383.079
 20
320.219
 11
382.045
 21
320.055
  0
LINE
  8
0
 10
382.045
 20
320.055
 11
381
 21
320
  0
LINE
  8
0
 10
381
 20
320
 11
379.955
 21
320.055
  0
LINE
  8
0
 10
393.35
 20
298.35
 11
393.35
 21
301.65
  0
LINE
  8
0
 10
393.35
 20
301.65
 11
408.65
 21
301.65
  0
LINE
  8
0
 10
408.65
 20
301.65
 11
408.65
 21
298.35
  0
LINE
  8
0
 10
408.65
 20
298.35
 11
393.35
 21
298.35
  0
LINE
  8
0
 10
353.35
 20
298.35
 11
353.35
 21
301.65
  0
LINE
  8
0
 10
353.35
 20
301.65
 11
368.65
 21
301.65
  0
LINE
  8
0
 10
368.65
 20
301.65
 11
368.65
 21
298.35
  0
LINE
  8
0
 10
368.65
 20
298.35
 11
353.35
 21
298.35
  0
LINE
  8
0
 10
353.35
 20
28.35
 11
353.35
 21
31.65
  0
LINE
  8
0
 10
353.35
 20
31.65
 11
368.65
 21
31.65
  0
LINE
  8
0
 10
368.65
 20
31.65
 11
368.65
 21
28.35
  0
LINE
  8
0
 10
368.65
 20
28.35
 11
353.35
 21
28.35
  0
LINE
  8
0
 10
393.35
 20
28.35
 11
393.35
 21
31.65
  0
LINE
  8
0
 10
393.35
 20
31.65
 11
408.65
 21
31.65
  0
LINE
  8
0
 10
408.65
 20
31.65
 11
408.65
 21
28.35
  0
LINE
  8
0
 10
408.65
 20
28.35
 11
393.35
 21
28.35
  0
LINE
  8
0
 10
85.35
 20
258.15
 11
100.65
 21
258.15
  0
LINE
  8
0
 10
100.65
 20
258.15
 11
100.65
 21
255
  0
LINE
  8
0
 10
100.65
 20
255
 11
245.35
 21
255
  0
LINE
  8
0
 10
245.35
 20
255
 11
245.35
 21
258.15
  0
LINE
  8
0
 10
245.35
 20
258.15
 11
260.65
 21
258.15
  0
LINE
  8
0
 10
260.65
 20
258.15
 11
260.65
 21
255
  0
LINE
  8
0
 10
260.65
 20
255
 11
336
 21
255
  0
LINE
  8
0
 10
336
 20
255
 11
336
 21
270.35
  0
LINE
  8
0
 10
336
 20
270.35
 11
332.85
 21
270.35
  0
LINE
  8
0
 10
332.85
 20
270.35
 11
332.85
 21
285.65
  0
LINE
  8
0
 10
332.85
 20
285.65
 11
336
 21
285.65
  0
LINE
  8
0
 10
336
 20
285.65
 11
336
 21
310.35
  0
LINE
  8
0
 10
336
 20
310.35
 11
332.85
 21
310.35
  0
LINE
  8
0
 10
332.85
 20
310.35
 11
332.85
 21
325.65
  0
LINE
  8
0
 10
332.85
 20
325.65
 11
336
 21
325.65
  0
LINE
  8
0
 10
336
 20
325.65
 11
336
 21
338
  0
LINE
  8
0
 10
336
 20
338
 11
10
 21
338
  0
LINE
  8
0
 10
10
 20
338
 11
10
 21
325.65
  0
LINE
  8
0
 10
10
 20
325.65
 11
13.15
 21
325.65
  0
LINE
  8
0
 10
13.15
 20
325.65
 11
13.15
 21
310.35
  0
LINE
  8
0
 10
13.15
 20
310.35
 11
10
 21
310.35
  0
LINE
  8
0
 10
10
 20
310.35
 11
10
 21
285.65
  0
LINE
  8
0
 10
10
 20
285.65
 11
13.15
 21
285.65
  0
LINE
  8
0
 10
13.15
 20
285.65
 11
13.15
 21
270.35
  0
LINE
  8
0
 10
13.15
 20
270.35
 11
10
 21
270.35
  0
LINE
  8
0
 10
10
 20
270.35
 11
10
 21
255
  0
LINE
  8
0
 10
10
 20
255
 11
85.35
 21
255
  0
LINE
  8
0
 10
85.35
 20
255
 11
85.35
 21
258.15
  0
LINE
  8
0
 10
171.35
 20
310.35
 11
171.35
 21
325.65
  0
LINE
  8
0
 10
171.35
 20
325.65
 11
174.65
 21
325.65
  0
LINE
  8
0
 10
174.65
 20
325.65
 11
174.65
 21
310.35
  0
LINE
  8
0
 10
174.65
 20
310.35
 11
171.35
 21
310.35
  0
LINE
  8
0
 10
171.35
 20
270.35
 11
171.35
 21
285.65
  0
LINE
  8
0
 10
171.35
 20
285.65
 11
174.65
 21
285.65
  0
LINE
  8
0
 10
174.65
 20
285.65
 11
174.65
 21
270.35
  0
LINE
  8
0
 10
174.65
 20
270.35
 11
171.35
 21
270.35
  0
LINE
  8
0
 10
100.5
 20
170
 11
171.35
 21
170
  0
LINE
  8
0
 10
171.35
 20
170
 11
171.35
 21
210.15
  0
LINE
  8
0
 10
171.35
 20
210.15
 11
174.65
 21
210.15
  0
LINE
  8
0
 10
174.65
 20
210.15
 11
174.65
 21
170
  0
LINE
  8
0
 10
174.65
 20
170
 11
245.5
 21
170
  0
LINE
  8
0
 10
245.5
 20
170
 11
245.5
 21
167
  0
LINE
  8
0
 10
245.5
 20
167
 11
260.5
 21
167
  0
LINE
  8
0
 10
260.5
 20
167
 11
260.5
 21
170
  0
LINE
  8
0
 10
260.5
 20
170
 11
333
 21
170
  0
LINE
  8
0
 10
333
 20
170
 11
333
 21
182.5
  0
LINE
  8
0
 10
333
 20
182.5
 11
336
 21
182.5
  0
LINE
  8
0
 10
336
 20
182.5
 11
336
 21
197.5
  0
LINE
  8
0
 10
336
 20
197.5
 11
333
 21
197.5
  0
LINE
  8
0
 10
333
 20
197.5
 11
333
 21
222.5
  0
LINE
  8
0
 10
333
 20
222.5
 11
336
 21
222.5
  0
LINE
  8
0
 10
336
 20
222.5
 11
336
 21
237.5
  0
LINE
  8
0
 10
336
 20
237.5
 11
333
 21
237.5
  0
LINE
  8
0
 10
333
 20
237.5
 11
333
 21
250
  0
LINE
  8
0
 10
333
 20
250
 11
313
 21
250
  0
LINE
  8
0
 10
313
 20
250
 11
313
 21
210
  0
LINE
  8
0
 10
313
 20
210
 11
273
 21
210
  0
LINE
  8
0
 10
273
 20
210
 11
273
 21
250
  0
LINE
  8
0
 10
273
 20
250
 11
233
 21
250
  0
LINE
  8
0
 10
233
 20
250
 11
233
 21
210
  0
LINE
  8
0
 10
233
 20
210
 11
193
 21
210
  0
LINE
  8
0
 10
193
 20
210
 11
193
 21
250
  0
LINE
  8
0
 10
193
 20
250
 11
153
 21
250
  0
LINE
  8
0
 10
153
 20
250
 11
153
 21
210
  0
LINE
  8
0
 10
153
 20
210
 11
113
 21
210
  0
LINE
  8
0
 10
113
 20
210
 11
113
 21
250
  0
LINE
  8
0
 10
113
 20
250
 11
73
 21
250
  0
LINE
  8
0
 10
73
 20
250
 11
73
 21
210
  0
LINE
  8
0
 10
73
 20
210
 11
33
 21
210
  0
LINE
  8
0
 10
33
 20
210
 11
33
 21
250
  0
LINE
  8
0
 10
33
 20
250
 11
13
 21
250
  0
LINE
  8
0
 10
13
 20
250
 11
13
 21
237.5
  0
LINE
  8
0
 10
13
 20
237.5
 11
10
 21
237.5
  0
LINE
  8
0
 10
10
 20
237.5
 11
10
 21
222.5
  0
LINE
  8
0
 10
10
 20
222.5
 11
13
 21
222.5
  0
LINE
  8
0
 10
13
 20
222.5
 11
13
 21
197.5
  0
LINE
  8
0
 10
13
 20
197.5
 11
10
 21
197.5
  0
LINE
  8
0
 10
10
 20
197.5
 11
10
 21
182.5
  0
LINE
  8
0
 10
10
 20
182.5
 11
13
 21
182.5
  0
LINE
  8
0
 10
13
 20
182.5
 11
13
 21
170
  0
LINE
  8
0
 10
13
 20
170
 11
85.5
 21
170
  0
LINE
  8
0
 10
85.5
 20
170
 11
85.5
 21
167
  0
LINE
  8
0
 10
85.5
 20
167
 11
100.5
 21
167
  0
LINE
  8
0
 10
100.5
 20
167
 11
100.5
 21
170
  0
LINE
  8
0
 10
316.593
 20
208.508
 11
316.438
 21
208.533
  0
LINE
  8
0
 10
316.438
 20
208.533
 11
316.286
 21
208.573
  0
LINE
  8
0
 10
316.286
 20
208.573
 11
316.14
 21
208.63
  0
LINE
  8
0
 10
316.14
 20
208.63
 11
316
 21
208.701
  0
LINE
  8
0
 10
316
 20
208.701
 11
315.868
 21
208.786
  0
LINE
  8
0
 10
315.868
 20
208.786
 11
315.746
 21
208.885
  0
LINE
  8
0
 10
315.746
 20
208.885
 11
315.635
 21
208.996
  0
LINE
  8
0
 10
315.635
 20
208.996
 11
315.536
 21
209.118
  0
LINE
  8
0
 10
315.536
 20
209.118
 11
315.451
 21
209.25
  0
LINE
  8
0
 10
315.451
 20
209.25
 11
315.38
 21
209.39
  0
LINE
  8
0
 10
315.38
 20
209.39
 11
315.323
 21
209.536
  0
LINE
  8
0
 10
315.323
 20
209.536
 11
315.283
 21
209.688
  0
LINE
  8
0
 10
315.283
 20
209.688
 11
315.258
 21
209.843
  0
LINE
  8
0
 10
315.258
 20
209.843
 11
315.25
 21
210
  0
LINE
  8
0
 10
315.25
 20
210
 11
315.258
 21
210.157
  0
LINE
  8
0
 10
315.258
 20
210.157
 11
315.283
 21
210.312
  0
LINE
  8
0
 10
315.283
 20
210.312
 11
315.323
 21
210.464
  0
LINE
  8
0
 10
315.323
 20
210.464
 11
315.38
 21
210.61
  0
LINE
  8
0
 10
315.38
 20
210.61
 11
315.451
 21
210.75
  0
LINE
  8
0
 10
315.451
 20
210.75
 11
315.536
 21
210.882
  0
LINE
  8
0
 10
315.536
 20
210.882
 11
315.635
 21
211.004
  0
LINE
  8
0
 10
315.635
 20
211.004
 11
315.746
 21
211.115
  0
LINE
  8
0
 10
315.746
 20
211.115
 11
315.868
 21
211.214
  0
LINE
  8
0
 10
315.868
 20
211.214
 11
316
 21
211.299
  0
LINE
  8
0
 10
316
 20
211.299
 11
316.14
 21
211.37
  0
LINE
  8
0
 10
316.14
 20
211.37
 11
316.286
 21
211.427
  0
LINE
  8
0
 10
316.286
 20
211.427
 11
316.438
 21
211.467
  0
LINE
  8
0
 10
316.438
 20
211.467
 11
316.593
 21
211.492
  0
LINE
  8
0
 10
316.593
 20
211.492
 11
316.75
 21
211.5
  0
LINE
  8
0
 10
316.75
 20
211.5
 11
316.907
 21
211.492
  0
LINE
  8
0
 10
316.907
 20
211.492
 11
317.062
 21
211.467
  0
LINE
  8
0
 10
317.062
 20
211.467
 11
317.214
 21
211.427
  0
LINE
  8
0
 10
317.214
 20
211.427
 11
317.36
 21
211.37
  0
LINE
  8
0
 10
317.36
 20
211.37
 11
317.5
 21
211.299
  0
LINE
  8
0
 10
317.5
 20
211.299
 11
317.632
 21
211.214
  0
LINE
  8
0
 10
317.632
 20
211.214
 11
317.754
 21
211.115
  0
LINE
  8
0
 10
317.754
 20
211.115
 11
317.865
 21
211.004
  0
LINE
  8
0
 10
317.865
 20
211.004
 11
317.964
 21
210.882
  0
LINE
  8
0
 10
317.964
 20
210.882
 11
318.049
 21
210.75
  0
LINE
  8
0
 10
318.049
 20
210.75
 11
318.12
 21
210.61
  0
LINE
  8
0
 10
318.12
 20
210.61
 11
318.177
 21
210.464
  0
LINE
  8
0
 10
318.177
 20
210.464
 11
318.217
 21
210.312
  0
LINE
  8
0
 10
318.217
 20
210.312
 11
318.242
 21
210.157
  0
LINE
  8
0
 10
318.242
 20
210.157
 11
318.25
 21
210
  0
LINE
  8
0
 10
318.25
 20
210
 11
318.242
 21
209.843
  0
LINE
  8
0
 10
318.242
 20
209.843
 11
318.217
 21
209.688
  0
LINE
  8
0
 10
318.217
 20
209.688
 11
318.177
 21
209.536
  0
LINE
  8
0
 10
318.177
 20
209.536
 11
318.12
 21
209.39
  0
LINE
  8
0
 10
318.12
 20
209.39
 11
318.049
 21
209.25
  0
LINE
  8
0
 10
318.049
 20
209.25
 11
317.964
 21
209.118
  0
LINE
  8
0
 10
317.964
 20
209.118
 11
317.865
 21
208.996
  0
LINE
  8
0
 10
317.865
 20
208.996
 11
317.754
 21
208.885
  0
LINE
  8
0
 10
317.754
 20
208.885
 11
317.632
 21
208.786
  0
LINE
  8
0
 10
317.632
 20
208.786
 11
317.5
 21
208.701
  0
LINE
  8
0
 10
317.5
 20
208.701
 11
317.36
 21
208.63
  0
LINE
  8
0
 10
317.36
 20
208.63
 11
317.214
 21
208.573
  0
LINE
  8
0
 10
317.214
 20
208.573
 11
317.062
 21
208.533
  0
LINE
  8
0
 10
317.062
 20
208.533
 11
316.907
 21
208.508
  0
LINE
  8
0
 10
316.907
 20
208.508
 11
316.75
 21
208.5
  0
LINE
  8
0
 10
316.75
 20
208.5
 11
316.593
 21
208.508
  0
LINE
  8
0
 10
109.093
 20
208.508
 11
108.938
 21
208.533
  0
LINE
  8
0
 10
108.938
 20
208.533
 11
108.786
 21
208.573
  0
LINE
  8
0
 10
108.786
 20
208.573
 11
108.64
 21
208.63
  0
LINE
  8
0
 10
108.64
 20
208.63
 11
108.5
 21
208.701
  0
LINE
  8
0
 10
108.5
 20
208.701
 11
108.368
 21
208.786
  0
LINE
  8
0
 10
108.368
 20
208.786
 11
108.246
 21
208.885
  0
LINE
  8
0
 10
108.246
 20
208.885
 11
108.135
 21
208.996
  0
LINE
  8
0
 10
108.135
 20
208.996
 11
108.036
 21
209.118
  0
LINE
  8
0
 10
108.036
 20
209.118
 11
107.951
 21
209.25
  0
LINE
  8
0
 10
107.951
 20
209.25
 11
107.88
 21
209.39
  0
LINE
  8
0
 10
107.88
 20
209.39
 11
107.823
 21
209.536
  0
LINE
  8
0
 10
107.823
 20
209.536
 11
107.783
 21
209.688
  0
LINE
  8
0
 10
107.783
 20
209.688
 11
107.758
 21
209.843
  0
LINE
  8
0
 10
107.758
 20
209.843
 11
107.75
 21
210
  0
LINE
  8
0
 10
107.75
 20
210
 11
107.758
 21
210.157
  0
LINE
  8
0
 10
107.758
 20
210.157
 11
107.783
 21
210.312
  0
LINE
  8
0
 10
107.783
 20
210.312
 11
107.823
 21
210.464
  0
LINE
  8
0
 10
107.823
 20
210.464
 11
107.88
 21
210.61
  0
LINE
  8
0
 10
107.88
 20
210.61
 11
107.951
 21
210.75
  0
LINE
  8
0
 10
107.951
 20
210.75
 11
108.036
 21
210.882
  0
LINE
  8
0
 10
108.036
 20
210.882
 11
108.135
 21
211.004
  0
LINE
  8
0
 10
108.135
 20
211.004
 11
108.246
 21
211.115
  0
LINE
  8
0
 10
108.246
 20
211.115
 11
108.368
 21
211.214
  0
LINE
  8
0
 10
108.368
 20
211.214
 11
108.5
 21
211.299
  0
LINE
  8
0
 10
108.5
 20
211.299
 11
108.64
 21
211.37
  0
LINE
  8
0
 10
108.64
 20
211.37
 11
108.786
 21
211.427
  0
LINE
  8
0
 10
108.786
 20
211.427
 11
108.938
 21
211.467
  0
LINE
  8
0
 10
108.938
 20
211.467
 11
109.093
 21
211.492
  0
LINE
  8
0
 10
109.093
 20
211.492
 11
109.25
 21
211.5
  0
LINE
  8
0
 10
109.25
 20
211.5
 11
109.407
 21
211.492
  0
LINE
  8
0
 10
109.407
 20
211.492
 11
109.562
 21
211.467
  0
LINE
  8
0
 10
109.562
 20
211.467
 11
109.714
 21
211.427
  0
LINE
  8
0
 10
109.714
 20
211.427
 11
109.86
 21
211.37
  0
LINE
  8
0
 10
109.86
 20
211.37
 11
110
 21
211.299
  0
LINE
  8
0
 10
110
 20
211.299
 11
110.132
 21
211.214
  0
LINE
  8
0
 10
110.132
 20
211.214
 11
110.254
 21
211.115
  0
LINE
  8
0
 10
110.254
 20
211.115
 11
110.365
 21
211.004
  0
LINE
  8
0
 10
110.365
 20
211.004
 11
110.464
 21
210.882
  0
LINE
  8
0
 10
110.464
 20
210.882
 11
110.549
 21
210.75
  0
LINE
  8
0
 10
110.549
 20
210.75
 11
110.62
 21
210.61
  0
LINE
  8
0
 10
110.62
 20
210.61
 11
110.677
 21
210.464
  0
LINE
  8
0
 10
110.677
 20
210.464
 11
110.717
 21
210.312
  0
LINE
  8
0
 10
110.717
 20
210.312
 11
110.742
 21
210.157
  0
LINE
  8
0
 10
110.742
 20
210.157
 11
110.75
 21
210
  0
LINE
  8
0
 10
110.75
 20
210
 11
110.742
 21
209.843
  0
LINE
  8
0
 10
110.742
 20
209.843
 11
110.717
 21
209.688
  0
LINE
  8
0
 10
110.717
 20
209.688
 11
110.677
 21
209.536
  0
LINE
  8
0
 10
110.677
 20
209.536
 11
110.62
 21
209.39
  0
LINE
  8
0
 10
110.62
 20
209.39
 11
110.549
 21
209.25
  0
LINE
  8
0
 10
110.549
 20
209.25
 11
110.464
 21
209.118
  0
LINE
  8
0
 10
110.464
 20
209.118
 11
110.365
 21
208.996
  0
LINE
  8
0
 10
110.365
 20
208.996
 11
110.254
 21
208.885
  0
LINE
  8
0
 10
110.254
 20
208.885
 11
110.132
 21
208.786
  0
LINE
  8
0
 10
110.132
 20
208.786
 11
110
 21
208.701
  0
LINE
  8
0
 10
110
 20
208.701
 11
109.86
 21
208.63
  0
LINE
  8
0
 10
109.86
 20
208.63
 11
109.714
 21
208.573
  0
LINE
  8
0
 10
109.714
 20
208.573
 11
109.562
 21
208.533
  0
LINE
  8
0
 10
109.562
 20
208.533
 11
109.407
 21
208.508
  0
LINE
  8
0
 10
109.407
 20
208.508
 11
109.25
 21
208.5
  0
LINE
  8
0
 10
109.25
 20
208.5
 11
109.093
 21
208.508
  0
LINE
  8
0
 10
156.593
 20
208.508
 11
156.438
 21
208.533
  0
LINE
  8
0
 10
156.438
 20
208.533
 11
156.286
 21
208.573
  0
LINE
  8
0
 10
156.286
 20
208.573
 11
156.14
 21
208.63
  0
LINE
  8
0
 10
156.14
 20
208.63
 11
156
 21
208.701
  0
LINE
  8
0
 10
156
 20
208.701
 11
155.868
 21
208.786
  0
LINE
  8
0
 10
155.868
 20
208.786
 11
155.746
 21
208.885
  0
LINE
  8
0
 10
155.746
 20
208.885
 11
155.635
 21
208.996
  0
LINE
  8
0
 10
155.635
 20
208.996
 11
155.536
 21
209.118
  0
LINE
  8
0
 10
155.536
 20
209.118
 11
155.451
 21
209.25
  0
LINE
  8
0
 10
155.451
 20
209.25
 11
155.38
 21
209.39
  0
LINE
  8
0
 10
155.38
 20
209.39
 11
155.323
 21
209.536
  0
LINE
  8
0
 10
155.323
 20
209.536
 11
155.283
 21
209.688
  0
LINE
  8
0
 10
155.283
 20
209.688
 11
155.258
 21
209.843
  0
LINE
  8
0
 10
155.258
 20
209.843
 11
155.25
 21
210
  0
LINE
  8
0
 10
155.25
 20
210
 11
155.258
 21
210.157
  0
LINE
  8
0
 10
155.258
 20
210.157
 11
155.283
 21
210.312
  0
LINE
  8
0
 10
155.283
 20
210.312
 11
155.323
 21
210.464
  0
LINE
  8
0
 10
155.323
 20
210.464
 11
155.38
 21
210.61
  0
LINE
  8
0
 10
155.38
 20
210.61
 11
155.451
 21
210.75
  0
LINE
  8
0
 10
155.451
 20
210.75
 11
155.536
 21
210.882
  0
LINE
  8
0
 10
155.536
 20
210.882
 11
155.635
 21
211.004
  0
LINE
  8
0
 10
155.635
 20
211.004
 11
155.746
 21
211.115
  0
LINE
  8
0
 10
155.746
 20
211.115
 11
155.868
 21
211.214
  0
LINE
  8
0
 10
155.868
 20
211.214
 11
156
 21
211.299
  0
LINE
  8
0
 10
156
 20
211.299
 11
156.14
 21
211.37
  0
LINE
  8
0
 10
156.14
 20
211.37
 11
156.286
 21
211.427
  0
LINE
  8
0
 10
156.286
 20
211.427
 11
156.438
 21
211.467
  0
LINE
  8
0
 10
156.438
 20
211.467
 11
156.593
 21
211.492
  0
LINE
  8
0
 10
156.593
 20
211.492
 11
156.75
 21
211.5
  0
LINE
  8
0
 10
156.75
 20
211.5
 11
156.907
 21
211.492
  0
LINE
  8
0
 10
156.907
 20
211.492
 11
157.062
 21
211.467
  0
LINE
  8
0
 10
157.062
 20
211.467
 11
157.214
 21
211.427
  0
LINE
  8
0
 10
157.214
 20
211.427
 11
157.36
 21
211.37
  0
LINE
  8
0
 10
157.36
 20
211.37
 11
157.5
 21
211.299
  0
LINE
  8
0
 10
157.5
 20
211.299
 11
157.632
 21
211.214
  0
LINE
  8
0
 10
157.632
 20
211.214
 11
157.754
 21
211.115
  0
LINE
  8
0
 10
157.754
 20
211.115
 11
157.865
 21
211.004
  0
LINE
  8
0
 10
157.865
 20
211.004
 11
157.964
 21
210.882
  0
LINE
  8
0
 10
157.964
 20
210.882
 11
158.049
 21
210.75
  0
LINE
  8
0
 10
158.049
 20
210.75
 11
158.12
 21
210.61
  0
LINE
  8
0
 10
158.12
 20
210.61
 11
158.177
 21
210.464
  0
LINE
  8
0
 10
158.177
 20
210.464
 11
158.217
 21
210.312
  0
LINE
  8
0
 10
158.217
 20
210.312
 11
158.242
 21
210.157
  0
LINE
  8
0
 10
158.242
 20
210.157
 11
158.25
 21
210
  0
LINE
  8
0
 10
158.25
 20
210
 11
158.242
 21
209.843
  0
LINE
  8
0
 10
158.242
 20
209.843
 11
158.217
 21
209.688
  0
LINE
  8
0
 10
158.217
 20
209.688
 11
158.177
 21
209.536
  0
LINE
  8
0
 10
158.177
 20
209.536
 11
158.12
 21
209.39
  0
LINE
  8
0
 10
158.12
 20
209.39
 11
158.049
 21
209.25
  0
LINE
  8
0
 10
158.049
 20
209.25
 11
157.964
 21
209.118
  0
LINE
  8
0
 10
157.964
 20
209.118
 11
157.865
 21
208.996
  0
LINE
  8
0
 10
157.865
 20
208.996
 11
157.754
 21
208.885
  0
LINE
  8
0
 10
157.754
 20
208.885
 11
157.632
 21
208.786
  0
LINE
  8
0
 10
157.632
 20
208.786
 11
157.5
 21
208.701
  0
LINE
  8
0
 10
157.5
 20
208.701
 11
157.36
 21
208.63
  0
LINE
  8
0
 10
157.36
 20
208.63
 11
157.214
 21
208.573
  0
LINE
  8
0
 10
157.214
 20
208.573
 11
157.062
 21
208.533
  0
LINE
  8
0
 10
157.062
 20
208.533
 11
156.907
 21
208.508
  0
LINE
  8
0
 10
156.907
 20
208.508
 11
156.75
 21
208.5
  0
LINE
  8
0
 10
156.75
 20
208.5
 11
156.593
 21
208.508
  0
LINE
  8
0
 10
269.093
 20
208.508
 11
268.938
 21
208.533
  0
LINE
  8
0
 10
268.938
 20
208.533
 11
268.786
 21
208.573
  0
LINE
  8
0
 10
268.786
 20
208.573
 11
268.64
 21
208.63
  0
LINE
  8
0
 10
268.64
 20
208.63
 11
268.5
 21
208.701
  0
LINE
  8
0
 10
268.5
 20
208.701
 11
268.368
 21
208.786
  0
LINE
  8
0
 10
268.368
 20
208.786
 11
268.246
 21
208.885
  0
LINE
  8
0
 10
268.246
 20
208.885
 11
268.135
 21
208.996
  0
LINE
  8
0
 10
268.135
 20
208.996
 11
268.036
 21
209.118
  0
LINE
  8
0
 10
268.036
 20
209.118
 11
267.951
 21
209.25
  0
LINE
  8
0
 10
267.951
 20
209.25
 11
267.88
 21
209.39
  0
LINE
  8
0
 10
267.88
 20
209.39
 11
267.823
 21
209.536
  0
LINE
  8
0
 10
267.823
 20
209.536
 11
267.783
 21
209.688
  0
LINE
  8
0
 10
267.783
 20
209.688
 11
267.758
 21
209.843
  0
LINE
  8
0
 10
267.758
 20
209.843
 11
267.75
 21
210
  0
LINE
  8
0
 10
267.75
 20
210
 11
267.758
 21
210.157
  0
LINE
  8
0
 10
267.758
 20
210.157
 11
267.783
 21
210.312
  0
LINE
  8
0
 10
267.783
 20
210.312
 11
267.823
 21
210.464
  0
LINE
  8
0
 10
267.823
 20
210.464
 11
267.88
 21
210.61
  0
LINE
  8
0
 10
267.88
 20
210.61
 11
267.951
 21
210.75
  0
LINE
  8
0
 10
267.951
 20
210.75
 11
268.036
 21
210.882
  0
LINE
  8
0
 10
268.036
 20
210.882
 11
268.135
 21
211.004
  0
LINE
  8
0
 10
268.135
 20
211.004
 11
268.246
 21
211.115
  0
LINE
  8
0
 10
268.246
 20
211.115
 11
268.368
 21
211.214
  0
LINE
  8
0
 10
268.368
 20
211.214
 11
268.5
 21
211.299
  0
LINE
  8
0
 10
268.5
 20
211.299
 11
268.64
 21
211.37
  0
LINE
  8
0
 10
268.64
 20
211.37
 11
268.786
 21
211.427
  0
LINE
  8
0
 10
268.786
 20
211.427
 11
268.938
 21
211.467
  0
LINE
  8
0
 10
268.938
 20
211.467
 11
269.093
 21
211.492
  0
LINE
  8
0
 10
269.093
 20
211.492
 11
269.25
 21
211.5
  0
LINE
  8
0
 10
269.25
 20
211.5
 11
269.407
 21
211.492
  0
LINE
  8
0
 10
269.407
 20
211.492
 11
269.562
 21
211.467
  0
LINE
  8
0
 10
269.562
 20
211.467
 11
269.714
 21
211.427
  0
LINE
  8
0
 10
269.714
 20
211.427
 11
269.86
 21
211.37
  0
LINE
  8
0
 10
269.86
 20
211.37
 11
270
 21
211.299
  0
LINE
  8
0
 10
270
 20
211.299
 11
270.132
 21
211.214
  0
LINE
  8
0
 10
270.132
 20
211.214
 11
270.254
 21
211.115
  0
LINE
  8
0
 10
270.254
 20
211.115
 11
270.365
 21
211.004
  0
LINE
  8
0
 10
270.365
 20
211.004
 11
270.464
 21
210.882
  0
LINE
  8
0
 10
270.464
 20
210.882
 11
270.549
 21
210.75
  0
LINE
  8
0
 10
270.549
 20
210.75
 11
270.62
 21
210.61
  0
LINE
  8
0
 10
270.62
 20
210.61
 11
270.677
 21
210.464
  0
LINE
  8
0
 10
270.677
 20
210.464
 11
270.717
 21
210.312
  0
LINE
  8
0
 10
270.717
 20
210.312
 11
270.742
 21
210.157
  0
LINE
  8
0
 10
270.742
 20
210.157
 11
270.75
 21
210
  0
LINE
  8
0
 10
270.75
 20
210
 11
270.742
 21
209.843
  0
LINE
  8
0
 10
270.742
 20
209.843
 11
270.717
 21
209.688
  0
LINE
  8
0
 10
270.717
 20
209.688
 11
270.677
 21
209.536
  0
LINE
  8
0
 10
270.677
 20
209.536
 11
270.62
 21
209.39
  0
LINE
  8
0
 10
270.62
 20
209.39
 11
270.549
 21
209.25
  0
LINE
  8
0
 10
270.549
 20
209.25
 11
270.464
 21
209.118
  0
LINE
  8
0
 10
270.464
 20
209.118
 11
270.365
 21
208.996
  0
LINE
  8
0
 10
270.365
 20
208.996
 11
270.254
 21
208.885
  0
LINE
  8
0
 10
270.254
 20
208.885
 11
270.132
 21
208.786
  0
LINE
  8
0
 10
270.132
 20
208.786
 11
270
 21
208.701
  0
LINE
  8
0
 10
270
 20
208.701
 11
269.86
 21
208.63
  0
LINE
  8
0
 10
269.86
 20
208.63
 11
269.714
 21
208.573
  0
LINE
  8
0
 10
269.714
 20
208.573
 11
269.562
 21
208.533
  0
LINE
  8
0
 10
269.562
 20
208.533
 11
269.407
 21
208.508
  0
LINE
  8
0
 10
269.407
 20
208.508
 11
269.25
 21
208.5
  0
LINE
  8
0
 10
269.25
 20
208.5
 11
269.093
 21
208.508
  0
LINE
  8
0
 10
189.093
 20
208.508
 11
188.938
 21
208.533
  0
LINE
  8
0
 10
188.938
 20
208.533
 11
188.786
 21
208.573
  0
LINE
  8
0
 10
188.786
 20
208.573
 11
188.64
 21
208.63
  0
LINE
  8
0
 10
188.64
 20
208.63
 11
188.5
 21
208.701
  0
LINE
  8
0
 10
188.5
 20
208.701
 11
188.368
 21
208.786
  0
LINE
  8
0
 10
188.368
 20
208.786
 11
188.246
 21
208.885
  0
LINE
  8
0
 10
188.246
 20
208.885
 11
188.135
 21
208.996
  0
LINE
  8
0
 10
188.135
 20
208.996
 11
188.036
 21
209.118
  0
LINE
  8
0
 10
188.036
 20
209.118
 11
187.951
 21
209.25
  0
LINE
  8
0
 10
187.951
 20
209.25
 11
187.88
 21
209.39
  0
LINE
  8
0
 10
187.88
 20
209.39
 11
187.823
 21
209.536
  0
LINE
  8
0
 10
187.823
 20
209.536
 11
187.783
 21
209.688
  0
LINE
  8
0
 10
187.783
 20
209.688
 11
187.758
 21
209.843
  0
LINE
  8
0
 10
187.758
 20
209.843
 11
187.75
 21
210
  0
LINE
  8
0
 10
187.75
 20
210
 11
187.758
 21
210.157
  0
LINE
  8
0
 10
187.758
 20
210.157
 11
187.783
 21
210.312
  0
LINE
  8
0
 10
187.783
 20
210.312
 11
187.823
 21
210.464
  0
LINE
  8
0
 10
187.823
 20
210.464
 11
187.88
 21
210.61
  0
LINE
  8
0
 10
187.88
 20
210.61
 11
187.951
 21
210.75
  0
LINE
  8
0
 10
187.951
 20
210.75
 11
188.036
 21
210.882
  0
LINE
  8
0
 10
188.036
 20
210.882
 11
188.135
 21
211.004
  0
LINE
  8
0
 10
188.135
 20
211.004
 11
188.246
 21
211.115
  0
LINE
  8
0
 10
188.246
 20
211.115
 11
188.368
 21
211.214
  0
LINE
  8
0
 10
188.368
 20
211.214
 11
188.5
 21
211.299
  0
LINE
  8
0
 10
188.5
 20
211.299
 11
188.64
 21
211.37
  0
LINE
  8
0
 10
188.64
 20
211.37
 11
188.786
 21
211.427
  0
LINE
  8
0
 10
188.786
 20
211.427
 11
188.938
 21
211.467
  0
LINE
  8
0
 10
188.938
 20
211.467
 11
189.093
 21
211.492
  0
LINE
  8
0
 10
189.093
 20
211.492
 11
189.25
 21
211.5
  0
LINE
  8
0
 10
189.25
 20
211.5
 11
189.407
 21
211.492
  0
LINE
  8
0
 10
189.407
 20
211.492
 11
189.562
 21
211.467
  0
LINE
  8
0
 10
189.562
 20
211.467
 11
189.714
 21
211.427
  0
LINE
  8
0
 10
189.714
 20
211.427
 11
189.86
 21
211.37
  0
LINE
  8
0
 10
189.86
 20
211.37
 11
190
 21
211.299
  0
LINE
  8
0
 10
190
 20
211.299
 11
190.132
 21
211.214
  0
LINE
  8
0
 10
190.132
 20
211.214
 11
190.254
 21
211.115
  0
LINE
  8
0
 10
190.254
 20
211.115
 11
190.365
 21
211.004
  0
LINE
  8
0
 10
190.365
 20
211.004
 11
190.464
 21
210.882
  0
LINE
  8
0
 10
190.464
 20
210.882
 11
190.549
 21
210.75
  0
LINE
  8
0
 10
190.549
 20
210.75
 11
190.62
 21
210.61
  0
LINE
  8
0
 10
190.62
 20
210.61
 11
190.677
 21
210.464
  0
LINE
  8
0
 10
190.677
 20
210.464
 11
190.717
 21
210.312
  0
LINE
  8
0
 10
190.717
 20
210.312
 11
190.742
 21
210.157
  0
LINE
  8
0
 10
190.742
 20
210.157
 11
190.75
 21
210
  0
LINE
  8
0
 10
190.75
 20
210
 11
190.742
 21
209.843
  0
LINE
  8
0
 10
190.742
 20
209.843
 11
190.717
 21
209.688
  0
LINE
  8
0
 10
190.717
 20
209.688
 11
190.677
 21
209.536
  0
LINE
  8
0
 10
190.677
 20
209.536
 11
190.62
 21
209.39
  0
LINE
  8
0
 10
190.62
 20
209.39
 11
190.549
 21
209.25
  0
LINE
  8
0
 10
190.549
 20
209.25
 11
190.464
 21
209.118
  0
LINE
  8
0
 10
190.464
 20
209.118
 11
190.365
 21
208.996
  0
LINE
  8
0
 10
190.365
 20
208.996
 11
190.254
 21
208.885
  0
LINE
  8
0
 10
190.254
 20
208.885
 11
190.132
 21
208.786
  0
LINE
  8
0
 10
190.132
 20
208.786
 11
190
 21
208.701
  0
LINE
  8
0
 10
190
 20
208.701
 11
189.86
 21
208.63
  0
LINE
  8
0
 10
189.86
 20
208.63
 11
189.714
 21
208.573
  0
LINE
  8
0
 10
189.714
 20
208.573
 11
189.562
 21
208.533
  0
LINE
  8
0
 10
189.562
 20
208.533
 11
189.407
 21
208.508
  0
LINE
  8
0
 10
189.407
 20
208.508
 11
189.25
 21
208.5
  0
LINE
  8
0
 10
189.25
 20
208.5
 11
189.093
 21
208.508
  0
LINE
  8
0
 10
236.593
 20
208.508
 11
236.438
 21
208.533
  0
LINE
  8
0
 10
236.438
 20
208.533
 11
236.286
 21
208.573
  0
LINE
  8
0
 10
236.286
 20
208.573
 11
236.14
 21
208.63
  0
LINE
  8
0
 10
236.14
 20
208.63
 11
236
 21
208.701
  0
LINE
  8
0
 10
236
 20
208.701
 11
235.868
 21
208.786
  0
LINE
  8
0
 10
235.868
 20
208.786
 11
235.746
 21
208.885
  0
LINE
  8
0
 10
235.746
 20
208.885
 11
235.635
 21
208.996
  0
LINE
  8
0
 10
235.635
 20
208.996
 11
235.536
 21
209.118
  0
LINE
  8
0
 10
235.536
 20
209.118
 11
235.451
 21
209.25
  0
LINE
  8
0
 10
235.451
 20
209.25
 11
235.38
 21
209.39
  0
LINE
  8
0
 10
235.38
 20
209.39
 11
235.323
 21
209.536
  0
LINE
  8
0
 10
235.323
 20
209.536
 11
235.283
 21
209.688
  0
LINE
  8
0
 10
235.283
 20
209.688
 11
235.258
 21
209.843
  0
LINE
  8
0
 10
235.258
 20
209.843
 11
235.25
 21
210
  0
LINE
  8
0
 10
235.25
 20
210
 11
235.258
 21
210.157
  0
LINE
  8
0
 10
235.258
 20
210.157
 11
235.283
 21
210.312
  0
LINE
  8
0
 10
235.283
 20
210.312
 11
235.323
 21
210.464
  0
LINE
  8
0
 10
235.323
 20
210.464
 11
235.38
 21
210.61
  0
LINE
  8
0
 10
235.38
 20
210.61
 11
235.451
 21
210.75
  0
LINE
  8
0
 10
235.451
 20
210.75
 11
235.536
 21
210.882
  0
LINE
  8
0
 10
235.536
 20
210.882
 11
235.635
 21
211.004
  0
LINE
  8
0
 10
235.635
 20
211.004
 11
235.746
 21
211.115
  0
LINE
  8
0
 10
235.746
 20
211.115
 11
235.868
 21
211.214
  0
LINE
  8
0
 10
235.868
 20
211.214
 11
236
 21
211.299
  0
LINE
  8
0
 10
236
 20
211.299
 11
236.14
 21
211.37
  0
LINE
  8
0
 10
236.14
 20
211.37
 11
236.286
 21
211.427
  0
LINE
  8
0
 10
236.286
 20
211.427
 11
236.438
 21
211.467
  0
LINE
  8
0
 10
236.438
 20
211.467
 11
236.593
 21
211.492
  0
LINE
  8
0
 10
236.593
 20
211.492
 11
236.75
 21
211.5
  0
LINE
  8
0
 10
236.75
 20
211.5
 11
236.907
 21
211.492
  0
LINE
  8
0
 10
236.907
 20
211.492
 11
237.062
 21
211.467
  0
LINE
  8
0
 10
237.062
 20
211.467
 11
237.214
 21
211.427
  0
LINE
  8
0
 10
237.214
 20
211.427
 11
237.36
 21
211.37
  0
LINE
  8
0
 10
237.36
 20
211.37
 11
237.5
 21
211.299
  0
LINE
  8
0
 10
237.5
 20
211.299
 11
237.632
 21
211.214
  0
LINE
  8
0
 10
237.632
 20
211.214
 11
237.754
 21
211.115
  0
LINE
  8
0
 10
237.754
 20
211.115
 11
237.865
 21
211.004
  0
LINE
  8
0
 10
237.865
 20
211.004
 11
237.964
 21
210.882
  0
LINE
  8
0
 10
237.964
 20
210.882
 11
238.049
 21
210.75
  0
LINE
  8
0
 10
238.049
 20
210.75
 11
238.12
 21
210.61
  0
LINE
  8
0
 10
238.12
 20
210.61
 11
238.177
 21
210.464
  0
LINE
  8
0
 10
238.177
 20
210.464
 11
238.217
 21
210.312
  0
LINE
  8
0
 10
238.217
 20
210.312
 11
238.242
 21
210.157
  0
LINE
  8
0
 10
238.242
 20
210.157
 11
238.25
 21
210
  0
LINE
  8
0
 10
238.25
 20
210
 11
238.242
 21
209.843
  0
LINE
  8
0
 10
238.242
 20
209.843
 11
238.217
 21
209.688
  0
LINE
  8
0
 10
238.217
 20
209.688
 11
238.177
 21
209.536
  0
LINE
  8
0
 10
238.177
 20
209.536
 11
238.12
 21
209.39
  0
LINE
  8
0
 10
238.12
 20
209.39
 11
238.049
 21
209.25
  0
LINE
  8
0
 10
238.049
 20
209.25
 11
237.964
 21
209.118
  0
LINE
  8
0
 10
237.964
 20
209.118
 11
237.865
 21
208.996
  0
LINE
  8
0
 10
237.865
 20
208.996
 11
237.754
 21
208.885
  0
LINE
  8
0
 10
237.754
 20
208.885
 11
237.632
 21
208.786
  0
LINE
  8
0
 10
237.632
 20
208.786
 11
237.5
 21
208.701
  0
LINE
  8
0
 10
237.5
 20
208.701
 11
237.36
 21
208.63
  0
LINE
  8
0
 10
237.36
 20
208.63
 11
237.214
 21
208.573
  0
LINE
  8
0
 10
237.214
 20
208.573
 11
237.062
 21
208.533
  0
LINE
  8
0
 10
237.062
 20
208.533
 11
236.907
 21
208.508
  0
LINE
  8
0
 10
236.907
 20
208.508
 11
236.75
 21
208.5
  0
LINE
  8
0
 10
236.75
 20
208.5
 11
236.593
 21
208.508
  0
LINE
  8
0
 10
29.0932
 20
208.508
 11
28.9381
 21
208.533
  0
LINE
  8
0
 10
28.9381
 20
208.533
 11
28.7865
 21
208.573
  0
LINE
  8
0
 10
28.7865
 20
208.573
 11
28.6399
 21
208.63
  0
LINE
  8
0
 10
28.6399
 20
208.63
 11
28.5
 21
208.701
  0
LINE
  8
0
 10
28.5
 20
208.701
 11
28.3683
 21
208.786
  0
LINE
  8
0
 10
28.3683
 20
208.786
 11
28.2463
 21
208.885
  0
LINE
  8
0
 10
28.2463
 20
208.885
 11
28.1353
 21
208.996
  0
LINE
  8
0
 10
28.1353
 20
208.996
 11
28.0365
 21
209.118
  0
LINE
  8
0
 10
28.0365
 20
209.118
 11
27.951
 21
209.25
  0
LINE
  8
0
 10
27.951
 20
209.25
 11
27.8797
 21
209.39
  0
LINE
  8
0
 10
27.8797
 20
209.39
 11
27.8234
 21
209.536
  0
LINE
  8
0
 10
27.8234
 20
209.536
 11
27.7828
 21
209.688
  0
LINE
  8
0
 10
27.7828
 20
209.688
 11
27.7582
 21
209.843
  0
LINE
  8
0
 10
27.7582
 20
209.843
 11
27.75
 21
210
  0
LINE
  8
0
 10
27.75
 20
210
 11
27.7582
 21
210.157
  0
LINE
  8
0
 10
27.7582
 20
210.157
 11
27.7828
 21
210.312
  0
LINE
  8
0
 10
27.7828
 20
210.312
 11
27.8234
 21
210.464
  0
LINE
  8
0
 10
27.8234
 20
210.464
 11
27.8797
 21
210.61
  0
LINE
  8
0
 10
27.8797
 20
210.61
 11
27.951
 21
210.75
  0
LINE
  8
0
 10
27.951
 20
210.75
 11
28.0365
 21
210.882
  0
LINE
  8
0
 10
28.0365
 20
210.882
 11
28.1353
 21
211.004
  0
LINE
  8
0
 10
28.1353
 20
211.004
 11
28.2463
 21
211.115
  0
LINE
  8
0
 10
28.2463
 20
211.115
 11
28.3683
 21
211.214
  0
LINE
  8
0
 10
28.3683
 20
211.214
 11
28.5
 21
211.299
  0
LINE
  8
0
 10
28.5
 20
211.299
 11
28.6399
 21
211.37
  0
LINE
  8
0
 10
28.6399
 20
211.37
 11
28.7865
 21
211.427
  0
LINE
  8
0
 10
28.7865
 20
211.427
 11
28.9381
 21
211.467
  0
LINE
  8
0
 10
28.9381
 20
211.467
 11
29.0932
 21
211.492
  0
LINE
  8
0
 10
29.0932
 20
211.492
 11
29.25
 21
211.5
  0
LINE
  8
0
 10
29.25
 20
211.5
 11
29.4068
 21
211.492
  0
LINE
  8
0
 10
29.4068
 20
211.492
 11
29.5619
 21
211.467
  0
LINE
  8
0
 10
29.5619
 20
211.467
 11
29.7135
 21
211.427
  0
LINE
  8
0
 10
29.7135
 20
211.427
 11
29.8601
 21
211.37
  0
LINE
  8
0
 10
29.8601
 20
211.37
 11
30
 21
211.299
  0
LINE
  8
0
 10
30
 20
211.299
 11
30.1317
 21
211.214
  0
LINE
  8
0
 10
30.1317
 20
211.214
 11
30.2537
 21
211.115
  0
LINE
  8
0
 10
30.2537
 20
211.115
 11
30.3647
 21
211.004
  0
LINE
  8
0
 10
30.3647
 20
211.004
 11
30.4635
 21
210.882
  0
LINE
  8
0
 10
30.4635
 20
210.882
 11
30.549
 21
210.75
  0
LINE
  8
0
 10
30.549
 20
210.75
 11
30.6203
 21
210.61
  0
LINE
  8
0
 10
30.6203
 20
210.61
 11
30.6766
 21
210.464
  0
LINE
  8
0
 10
30.6766
 20
210.464
 11
30.7172
 21
210.312
  0
LINE
  8
0
 10
30.7172
 20
210.312
 11
30.7418
 21
210.157
  0
LINE
  8
0
 10
30.7418
 20
210.157
 11
30.75
 21
210
  0
LINE
  8
0
 10
30.75
 20
210
 11
30.7418
 21
209.843
  0
LINE
  8
0
 10
30.7418
 20
209.843
 11
30.7172
 21
209.688
  0
LINE
  8
0
 10
30.7172
 20
209.688
 11
30.6766
 21
209.536
  0
LINE
  8
0
 10
30.6766
 20
209.536
 11
30.6203
 21
209.39
  0
LINE
  8
0
 10
30.6203
 20
209.39
 11
30.549
 21
209.25
  0
LINE
  8
0
 10
30.549
 20
209.25
 11
30.4635
 21
209.118
  0
LINE
  8
0
 10
30.4635
 20
209.118
 11
30.3647
 21
208.996
  0
LINE
  8
0
 10
30.3647
 20
208.996
 11
30.2537
 21
208.885
  0
LINE
  8
0
 10
30.2537
 20
208.885
 11
30.1317
 21
208.786
  0
LINE
  8
0
 10
30.1317
 20
208.786
 11
30
 21
208.701
  0
LINE
  8
0
 10
30
 20
208.701
 11
29.8601
 21
208.63
  0
LINE
  8
0
 10
29.8601
 20
208.63
 11
29.7135
 21
208.573
  0
LINE
  8
0
 10
29.7135
 20
208.573
 11
29.5619
 21
208.533
  0
LINE
  8
0
 10
29.5619
 20
208.533
 11
29.4068
 21
208.508
  0
LINE
  8
0
 10
29.4068
 20
208.508
 11
29.25
 21
208.5
  0
LINE
  8
0
 10
29.25
 20
208.5
 11
29.0932
 21
208.508
  0
LINE
  8
0
 10
76.5932
 20
208.508
 11
76.4381
 21
208.533
  0
LINE
  8
0
 10
76.4381
 20
208.533
 11
76.2865
 21
208.573
  0
LINE
  8
0
 10
76.2865
 20
208.573
 11
76.1399
 21
208.63
  0
LINE
  8
0
 10
76.1399
 20
208.63
 11
76
 21
208.701
  0
LINE
  8
0
 10
76
 20
208.701
 11
75.8683
 21
208.786
  0
LINE
  8
0
 10
75.8683
 20
208.786
 11
75.7463
 21
208.885
  0
LINE
  8
0
 10
75.7463
 20
208.885
 11
75.6353
 21
208.996
  0
LINE
  8
0
 10
75.6353
 20
208.996
 11
75.5365
 21
209.118
  0
LINE
  8
0
 10
75.5365
 20
209.118
 11
75.451
 21
209.25
  0
LINE
  8
0
 10
75.451
 20
209.25
 11
75.3797
 21
209.39
  0
LINE
  8
0
 10
75.3797
 20
209.39
 11
75.3234
 21
209.536
  0
LINE
  8
0
 10
75.3234
 20
209.536
 11
75.2828
 21
209.688
  0
LINE
  8
0
 10
75.2828
 20
209.688
 11
75.2582
 21
209.843
  0
LINE
  8
0
 10
75.2582
 20
209.843
 11
75.25
 21
210
  0
LINE
  8
0
 10
75.25
 20
210
 11
75.2582
 21
210.157
  0
LINE
  8
0
 10
75.2582
 20
210.157
 11
75.2828
 21
210.312
  0
LINE
  8
0
 10
75.2828
 20
210.312
 11
75.3234
 21
210.464
  0
LINE
  8
0
 10
75.3234
 20
210.464
 11
75.3797
 21
210.61
  0
LINE
  8
0
 10
75.3797
 20
210.61
 11
75.451
 21
210.75
  0
LINE
  8
0
 10
75.451
 20
210.75
 11
75.5365
 21
210.882
  0
LINE
  8
0
 10
75.5365
 20
210.882
 11
75.6353
 21
211.004
  0
LINE
  8
0
 10
75.6353
 20
211.004
 11
75.7463
 21
211.115
  0
LINE
  8
0
 10
75.7463
 20
211.115
 11
75.8683
 21
211.214
  0
LINE
  8
0
 10
75.8683
 20
211.214
 11
76
 21
211.299
  0
LINE
  8
0
 10
76
 20
211.299
 11
76.1399
 21
211.37
  0
LINE
  8
0
 10
76.1399
 20
211.37
 11
76.2865
 21
211.427
  0
LINE
  8
0
 10
76.2865
 20
211.427
 11
76.4381
 21
211.467
  0
LINE
  8
0
 10
76.4381
 20
211.467
 11
76.5932
 21
211.492
  0
LINE
  8
0
 10
76.5932
 20
211.492
 11
76.75
 21
211.5
  0
LINE
  8
0
 10
76.75
 20
211.5
 11
76.9068
 21
211.492
  0
LINE
  8
0
 10
76.9068
 20
211.492
 11
77.0619
 21
211.467
  0
LINE
  8
0
 10
77.0619
 20
211.467
 11
77.2135
 21
211.427
  0
LINE
  8
0
 10
77.2135
 20
211.427
 11
77.3601
 21
211.37
  0
LINE
  8
0
 10
77.3601
 20
211.37
 11
77.5
 21
211.299
  0
LINE
  8
0
 10
77.5
 20
211.299
 11
77.6317
 21
211.214
  0
LINE
  8
0
 10
77.6317
 20
211.214
 11
77.7537
 21
211.115
  0
LINE
  8
0
 10
77.7537
 20
211.115
 11
77.8647
 21
211.004
  0
LINE
  8
0
 10
77.8647
 20
211.004
 11
77.9635
 21
210.882
  0
LINE
  8
0
 10
77.9635
 20
210.882
 11
78.049
 21
210.75
  0
LINE
  8
0
 10
78.049
 20
210.75
 11
78.1203
 21
210.61
  0
LINE
  8
0
 10
78.1203
 20
210.61
 11
78.1766
 21
210.464
  0
LINE
  8
0
 10
78.1766
 20
210.464
 11
78.2172
 21
210.312
  0
LINE
  8
0
 10
78.2172
 20
210.312
 11
78.2418
 21
210.157
  0
LINE
  8
0
 10
78.2418
 20
210.157
 11
78.25
 21
210
  0
LINE
  8
0
 10
78.25
 20
210
 11
78.2418
 21
209.843
  0
LINE
  8
0
 10
78.2418
 20
209.843
 11
78.2172
 21
209.688
  0
LINE
  8
0
 10
78.2172
 20
209.688
 11
78.1766
 21
209.536
  0
LINE
  8
0
 10
78.1766
 20
209.536
 11
78.1203
 21
209.39
  0
LINE
  8
0
 10
78.1203
 20
209.39
 11
78.049
 21
209.25
  0
LINE
  8
0
 10
78.049
 20
209.25
 11
77.9635
 21
209.118
  0
LINE
  8
0
 10
77.9635
 20
209.118
 11
77.8647
 21
208.996
  0
LINE
  8
0
 10
77.8647
 20
208.996
 11
77.7537
 21
208.885
  0
LINE
  8
0
 10
77.7537
 20
208.885
 11
77.6317
 21
208.786
  0
LINE
  8
0
 10
77.6317
 20
208.786
 11
77.5
 21
208.701
  0
LINE
  8
0
 10
77.5
 20
208.701
 11
77.3601
 21
208.63
  0
LINE
  8
0
 10
77.3601
 20
208.63
 11
77.2135
 21
208.573
  0
LINE
  8
0
 10
77.2135
 20
208.573
 11
77.0619
 21
208.533
  0
LINE
  8
0
 10
77.0619
 20
208.533
 11
76.9068
 21
208.508
  0
LINE
  8
0
 10
76.9068
 20
208.508
 11
76.75
 21
208.5
  0
LINE
  8
0
 10
76.75
 20
208.5
 11
76.5932
 21
208.508
  0
LINE
  8
0
 10
219.067
 20
239.598
 11
219.253
 21
239.615
  0
LINE
  8
0
 10
219.253
 20
239.615
 11
219.427
 21
239.644
  0
LINE
  8
0
 10
219.427
 20
239.644
 11
219.59
 21
239.684
  0
LINE
  8
0
 10
219.59
 20
239.684
 11
219.741
 21
239.735
  0
LINE
  8
0
 10
219.741
 20
239.735
 11
219.88
 21
239.798
  0
LINE
  8
0
 10
219.88
 20
239.798
 11
220.008
 21
239.873
  0
LINE
  8
0
 10
220.008
 20
239.873
 11
220.124
 21
239.959
  0
LINE
  8
0
 10
220.124
 20
239.959
 11
220.227
 21
240.055
  0
LINE
  8
0
 10
220.227
 20
240.055
 11
220.317
 21
240.161
  0
LINE
  8
0
 10
220.317
 20
240.161
 11
220.393
 21
240.276
  0
LINE
  8
0
 10
220.393
 20
240.276
 11
220.455
 21
240.401
  0
LINE
  8
0
 10
220.455
 20
240.401
 11
220.503
 21
240.535
  0
LINE
  8
0
 10
220.503
 20
240.535
 11
220.537
 21
240.679
  0
LINE
  8
0
 10
220.537
 20
240.679
 11
220.558
 21
240.833
  0
LINE
  8
0
 10
220.558
 20
240.833
 11
220.565
 21
240.996
  0
LINE
  8
0
 10
220.565
 20
240.996
 11
220.56
 21
241.109
  0
LINE
  8
0
 10
220.56
 20
241.109
 11
220.546
 21
241.216
  0
LINE
  8
0
 10
220.546
 20
241.216
 11
220.523
 21
241.319
  0
LINE
  8
0
 10
220.523
 20
241.319
 11
220.491
 21
241.416
  0
LINE
  8
0
 10
220.491
 20
241.416
 11
220.449
 21
241.508
  0
LINE
  8
0
 10
220.449
 20
241.508
 11
220.398
 21
241.595
  0
LINE
  8
0
 10
220.398
 20
241.595
 11
220.338
 21
241.677
  0
LINE
  8
0
 10
220.338
 20
241.677
 11
220.268
 21
241.754
  0
LINE
  8
0
 10
220.268
 20
241.754
 11
220.19
 21
241.824
  0
LINE
  8
0
 10
220.19
 20
241.824
 11
220.104
 21
241.888
  0
LINE
  8
0
 10
220.104
 20
241.888
 11
220.01
 21
241.944
  0
LINE
  8
0
 10
220.01
 20
241.944
 11
219.908
 21
241.992
  0
LINE
  8
0
 10
219.908
 20
241.992
 11
219.799
 21
242.034
  0
LINE
  8
0
 10
219.799
 20
242.034
 11
219.681
 21
242.068
  0
LINE
  8
0
 10
219.681
 20
242.068
 11
219.556
 21
242.095
  0
LINE
  8
0
 10
219.556
 20
242.095
 11
219.422
 21
242.115
  0
LINE
  8
0
 10
219.422
 20
242.115
 11
219.422
 21
242.129
  0
LINE
  8
0
 10
219.422
 20
242.129
 11
219.542
 21
242.155
  0
LINE
  8
0
 10
219.542
 20
242.155
 11
219.655
 21
242.188
  0
LINE
  8
0
 10
219.655
 20
242.188
 11
219.761
 21
242.227
  0
LINE
  8
0
 10
219.761
 20
242.227
 11
219.859
 21
242.272
  0
LINE
  8
0
 10
219.859
 20
242.272
 11
219.95
 21
242.323
  0
LINE
  8
0
 10
219.95
 20
242.323
 11
220.034
 21
242.38
  0
LINE
  8
0
 10
220.034
 20
242.38
 11
220.111
 21
242.443
  0
LINE
  8
0
 10
220.111
 20
242.443
 11
220.18
 21
242.512
  0
LINE
  8
0
 10
220.18
 20
242.512
 11
220.242
 21
242.586
  0
LINE
  8
0
 10
220.242
 20
242.586
 11
220.295
 21
242.666
  0
LINE
  8
0
 10
220.295
 20
242.666
 11
220.34
 21
242.75
  0
LINE
  8
0
 10
220.34
 20
242.75
 11
220.377
 21
242.84
  0
LINE
  8
0
 10
220.377
 20
242.84
 11
220.406
 21
242.934
  0
LINE
  8
0
 10
220.406
 20
242.934
 11
220.426
 21
243.034
  0
LINE
  8
0
 10
220.426
 20
243.034
 11
220.439
 21
243.138
  0
LINE
  8
0
 10
220.439
 20
243.138
 11
220.443
 21
243.247
  0
LINE
  8
0
 10
220.443
 20
243.247
 11
220.436
 21
243.393
  0
LINE
  8
0
 10
220.436
 20
243.393
 11
220.416
 21
243.53
  0
LINE
  8
0
 10
220.416
 20
243.53
 11
220.383
 21
243.658
  0
LINE
  8
0
 10
220.383
 20
243.658
 11
220.337
 21
243.779
  0
LINE
  8
0
 10
220.337
 20
243.779
 11
220.278
 21
243.892
  0
LINE
  8
0
 10
220.278
 20
243.892
 11
220.205
 21
243.997
  0
LINE
  8
0
 10
220.205
 20
243.997
 11
220.12
 21
244.093
  0
LINE
  8
0
 10
220.12
 20
244.093
 11
220.021
 21
244.182
  0
LINE
  8
0
 10
220.021
 20
244.182
 11
219.91
 21
244.261
  0
LINE
  8
0
 10
219.91
 20
244.261
 11
219.789
 21
244.329
  0
LINE
  8
0
 10
219.789
 20
244.329
 11
219.658
 21
244.387
  0
LINE
  8
0
 10
219.658
 20
244.387
 11
219.517
 21
244.435
  0
LINE
  8
0
 10
219.517
 20
244.435
 11
219.365
 21
244.471
  0
LINE
  8
0
 10
219.365
 20
244.471
 11
219.203
 21
244.498
  0
LINE
  8
0
 10
219.203
 20
244.498
 11
219.031
 21
244.514
  0
LINE
  8
0
 10
219.031
 20
244.514
 11
218.849
 21
244.519
  0
LINE
  8
0
 10
218.849
 20
244.519
 11
218.677
 21
244.513
  0
LINE
  8
0
 10
218.677
 20
244.513
 11
218.513
 21
244.497
  0
LINE
  8
0
 10
218.513
 20
244.497
 11
218.358
 21
244.47
  0
LINE
  8
0
 10
218.358
 20
244.47
 11
218.211
 21
244.432
  0
LINE
  8
0
 10
218.211
 20
244.432
 11
218.072
 21
244.382
  0
LINE
  8
0
 10
218.072
 20
244.382
 11
217.942
 21
244.322
  0
LINE
  8
0
 10
217.942
 20
244.322
 11
217.82
 21
244.252
  0
LINE
  8
0
 10
217.82
 20
244.252
 11
217.706
 21
244.17
  0
LINE
  8
0
 10
217.706
 20
244.17
 11
217.603
 21
244.078
  0
LINE
  8
0
 10
217.603
 20
244.078
 11
217.51
 21
243.978
  0
LINE
  8
0
 10
217.51
 20
243.978
 11
217.429
 21
243.87
  0
LINE
  8
0
 10
217.429
 20
243.87
 11
217.36
 21
243.753
  0
LINE
  8
0
 10
217.36
 20
243.753
 11
217.301
 21
243.629
  0
LINE
  8
0
 10
217.301
 20
243.629
 11
217.255
 21
243.495
  0
LINE
  8
0
 10
217.255
 20
243.495
 11
217.219
 21
243.353
  0
LINE
  8
0
 10
217.219
 20
243.353
 11
217.195
 21
243.203
  0
LINE
  8
0
 10
217.195
 20
243.203
 11
218.147
 21
243.135
  0
LINE
  8
0
 10
218.147
 20
243.135
 11
218.156
 21
243.208
  0
LINE
  8
0
 10
218.156
 20
243.208
 11
218.17
 21
243.276
  0
LINE
  8
0
 10
218.17
 20
243.276
 11
218.189
 21
243.34
  0
LINE
  8
0
 10
218.189
 20
243.34
 11
218.213
 21
243.4
  0
LINE
  8
0
 10
218.213
 20
243.4
 11
218.241
 21
243.456
  0
LINE
  8
0
 10
218.241
 20
243.456
 11
218.275
 21
243.507
  0
LINE
  8
0
 10
218.275
 20
243.507
 11
218.313
 21
243.554
  0
LINE
  8
0
 10
218.313
 20
243.554
 11
218.356
 21
243.597
  0
LINE
  8
0
 10
218.356
 20
243.597
 11
218.403
 21
243.635
  0
LINE
  8
0
 10
218.403
 20
243.635
 11
218.454
 21
243.668
  0
LINE
  8
0
 10
218.454
 20
243.668
 11
218.508
 21
243.696
  0
LINE
  8
0
 10
218.508
 20
243.696
 11
218.566
 21
243.719
  0
LINE
  8
0
 10
218.566
 20
243.719
 11
218.627
 21
243.737
  0
LINE
  8
0
 10
218.627
 20
243.737
 11
218.692
 21
243.749
  0
LINE
  8
0
 10
218.692
 20
243.749
 11
218.76
 21
243.757
  0
LINE
  8
0
 10
218.76
 20
243.757
 11
218.832
 21
243.759
  0
LINE
  8
0
 10
218.832
 20
243.759
 11
218.909
 21
243.757
  0
LINE
  8
0
 10
218.909
 20
243.757
 11
218.98
 21
243.749
  0
LINE
  8
0
 10
218.98
 20
243.749
 11
219.047
 21
243.736
  0
LINE
  8
0
 10
219.047
 20
243.736
 11
219.11
 21
243.717
  0
LINE
  8
0
 10
219.11
 20
243.717
 11
219.167
 21
243.694
  0
LINE
  8
0
 10
219.167
 20
243.694
 11
219.22
 21
243.665
  0
LINE
  8
0
 10
219.22
 20
243.665
 11
219.269
 21
243.631
  0
LINE
  8
0
 10
219.269
 20
243.631
 11
219.312
 21
243.592
  0
LINE
  8
0
 10
219.312
 20
243.592
 11
219.351
 21
243.548
  0
LINE
  8
0
 10
219.351
 20
243.548
 11
219.384
 21
243.5
  0
LINE
  8
0
 10
219.384
 20
243.5
 11
219.412
 21
243.448
  0
LINE
  8
0
 10
219.412
 20
243.448
 11
219.435
 21
243.392
  0
LINE
  8
0
 10
219.435
 20
243.392
 11
219.453
 21
243.332
  0
LINE
  8
0
 10
219.453
 20
243.332
 11
219.466
 21
243.268
  0
LINE
  8
0
 10
219.466
 20
243.268
 11
219.474
 21
243.201
  0
LINE
  8
0
 10
219.474
 20
243.201
 11
219.476
 21
243.129
  0
LINE
  8
0
 10
219.476
 20
243.129
 11
219.473
 21
243.053
  0
LINE
  8
0
 10
219.473
 20
243.053
 11
219.464
 21
242.982
  0
LINE
  8
0
 10
219.464
 20
242.982
 11
219.447
 21
242.915
  0
LINE
  8
0
 10
219.447
 20
242.915
 11
219.425
 21
242.853
  0
LINE
  8
0
 10
219.425
 20
242.853
 11
219.396
 21
242.795
  0
LINE
  8
0
 10
219.396
 20
242.795
 11
219.36
 21
242.742
  0
LINE
  8
0
 10
219.36
 20
242.742
 11
219.318
 21
242.693
  0
LINE
  8
0
 10
219.318
 20
242.693
 11
219.27
 21
242.649
  0
LINE
  8
0
 10
219.27
 20
242.649
 11
219.215
 21
242.61
  0
LINE
  8
0
 10
219.215
 20
242.61
 11
219.153
 21
242.576
  0
LINE
  8
0
 10
219.153
 20
242.576
 11
219.086
 21
242.547
  0
LINE
  8
0
 10
219.086
 20
242.547
 11
219.012
 21
242.523
  0
LINE
  8
0
 10
219.012
 20
242.523
 11
218.932
 21
242.505
  0
LINE
  8
0
 10
218.932
 20
242.505
 11
218.845
 21
242.492
  0
LINE
  8
0
 10
218.845
 20
242.492
 11
218.752
 21
242.484
  0
LINE
  8
0
 10
218.752
 20
242.484
 11
218.652
 21
242.481
  0
LINE
  8
0
 10
218.652
 20
242.481
 11
218.341
 21
242.481
  0
LINE
  8
0
 10
218.341
 20
242.481
 11
218.341
 21
241.711
  0
LINE
  8
0
 10
218.341
 20
241.711
 11
218.673
 21
241.711
  0
LINE
  8
0
 10
218.673
 20
241.711
 11
218.783
 21
241.709
  0
LINE
  8
0
 10
218.783
 20
241.709
 11
218.886
 21
241.701
  0
LINE
  8
0
 10
218.886
 20
241.701
 11
218.982
 21
241.688
  0
LINE
  8
0
 10
218.982
 20
241.688
 11
219.071
 21
241.669
  0
LINE
  8
0
 10
219.071
 20
241.669
 11
219.153
 21
241.645
  0
LINE
  8
0
 10
219.153
 20
241.645
 11
219.228
 21
241.616
  0
LINE
  8
0
 10
219.228
 20
241.616
 11
219.297
 21
241.582
  0
LINE
  8
0
 10
219.297
 20
241.582
 11
219.358
 21
241.542
  0
LINE
  8
0
 10
219.358
 20
241.542
 11
219.412
 21
241.497
  0
LINE
  8
0
 10
219.412
 20
241.497
 11
219.459
 21
241.448
  0
LINE
  8
0
 10
219.459
 20
241.448
 11
219.498
 21
241.394
  0
LINE
  8
0
 10
219.498
 20
241.394
 11
219.531
 21
241.335
  0
LINE
  8
0
 10
219.531
 20
241.335
 11
219.556
 21
241.272
  0
LINE
  8
0
 10
219.556
 20
241.272
 11
219.574
 21
241.204
  0
LINE
  8
0
 10
219.574
 20
241.204
 11
219.585
 21
241.131
  0
LINE
  8
0
 10
219.585
 20
241.131
 11
219.588
 21
241.054
  0
LINE
  8
0
 10
219.588
 20
241.054
 11
219.585
 21
240.969
  0
LINE
  8
0
 10
219.585
 20
240.969
 11
219.576
 21
240.89
  0
LINE
  8
0
 10
219.576
 20
240.89
 11
219.562
 21
240.817
  0
LINE
  8
0
 10
219.562
 20
240.817
 11
219.541
 21
240.749
  0
LINE
  8
0
 10
219.541
 20
240.749
 11
219.514
 21
240.687
  0
LINE
  8
0
 10
219.514
 20
240.687
 11
219.481
 21
240.631
  0
LINE
  8
0
 10
219.481
 20
240.631
 11
219.443
 21
240.58
  0
LINE
  8
0
 10
219.443
 20
240.58
 11
219.398
 21
240.535
  0
LINE
  8
0
 10
219.398
 20
240.535
 11
219.349
 21
240.495
  0
LINE
  8
0
 10
219.349
 20
240.495
 11
219.294
 21
240.461
  0
LINE
  8
0
 10
219.294
 20
240.461
 11
219.235
 21
240.432
  0
LINE
  8
0
 10
219.235
 20
240.432
 11
219.17
 21
240.408
  0
LINE
  8
0
 10
219.17
 20
240.408
 11
219.101
 21
240.389
  0
LINE
  8
0
 10
219.101
 20
240.389
 11
219.028
 21
240.376
  0
LINE
  8
0
 10
219.028
 20
240.376
 11
218.949
 21
240.368
  0
LINE
  8
0
 10
218.949
 20
240.368
 11
218.866
 21
240.365
  0
LINE
  8
0
 10
218.866
 20
240.365
 11
218.703
 21
240.376
  0
LINE
  8
0
 10
218.703
 20
240.376
 11
218.558
 21
240.408
  0
LINE
  8
0
 10
218.558
 20
240.408
 11
218.432
 21
240.462
  0
LINE
  8
0
 10
218.432
 20
240.462
 11
218.324
 21
240.537
  0
LINE
  8
0
 10
218.324
 20
240.537
 11
218.236
 21
240.634
  0
LINE
  8
0
 10
218.236
 20
240.634
 11
218.166
 21
240.753
  0
LINE
  8
0
 10
218.166
 20
240.753
 11
218.115
 21
240.892
  0
LINE
  8
0
 10
218.115
 20
240.892
 11
218.083
 21
241.054
  0
LINE
  8
0
 10
218.083
 20
241.054
 11
217.113
 21
240.969
  0
LINE
  8
0
 10
217.113
 20
240.969
 11
217.139
 21
240.807
  0
LINE
  8
0
 10
217.139
 20
240.807
 11
217.176
 21
240.655
  0
LINE
  8
0
 10
217.176
 20
240.655
 11
217.225
 21
240.512
  0
LINE
  8
0
 10
217.225
 20
240.512
 11
217.285
 21
240.379
  0
LINE
  8
0
 10
217.285
 20
240.379
 11
217.358
 21
240.256
  0
LINE
  8
0
 10
217.358
 20
240.256
 11
217.442
 21
240.143
  0
LINE
  8
0
 10
217.442
 20
240.143
 11
217.538
 21
240.04
  0
LINE
  8
0
 10
217.538
 20
240.04
 11
217.645
 21
239.947
  0
LINE
  8
0
 10
217.645
 20
239.947
 11
217.764
 21
239.864
  0
LINE
  8
0
 10
217.764
 20
239.864
 11
217.892
 21
239.792
  0
LINE
  8
0
 10
217.892
 20
239.792
 11
218.031
 21
239.731
  0
LINE
  8
0
 10
218.031
 20
239.731
 11
218.179
 21
239.681
  0
LINE
  8
0
 10
218.179
 20
239.681
 11
218.337
 21
239.642
  0
LINE
  8
0
 10
218.337
 20
239.642
 11
218.504
 21
239.614
  0
LINE
  8
0
 10
218.504
 20
239.614
 11
218.682
 21
239.598
  0
LINE
  8
0
 10
218.682
 20
239.598
 11
218.869
 21
239.592
  0
LINE
  8
0
 10
218.869
 20
239.592
 11
219.067
 21
239.598
  0
LINE
  8
0
 10
208.157
 20
239.608
 11
208.336
 21
239.624
  0
LINE
  8
0
 10
208.336
 20
239.624
 11
208.509
 21
239.65
  0
LINE
  8
0
 10
208.509
 20
239.65
 11
208.676
 21
239.687
  0
LINE
  8
0
 10
208.676
 20
239.687
 11
208.835
 21
239.734
  0
LINE
  8
0
 10
208.835
 20
239.734
 11
208.988
 21
239.792
  0
LINE
  8
0
 10
208.988
 20
239.792
 11
209.134
 21
239.861
  0
LINE
  8
0
 10
209.134
 20
239.861
 11
209.274
 21
239.94
  0
LINE
  8
0
 10
209.274
 20
239.94
 11
209.406
 21
240.03
  0
LINE
  8
0
 10
209.406
 20
240.03
 11
209.53
 21
240.131
  0
LINE
  8
0
 10
209.53
 20
240.131
 11
209.645
 21
240.243
  0
LINE
  8
0
 10
209.645
 20
240.243
 11
209.752
 21
240.366
  0
LINE
  8
0
 10
209.752
 20
240.366
 11
209.851
 21
240.5
  0
LINE
  8
0
 10
209.851
 20
240.5
 11
209.942
 21
240.645
  0
LINE
  8
0
 10
209.942
 20
240.645
 11
210.025
 21
240.802
  0
LINE
  8
0
 10
210.025
 20
240.802
 11
210.099
 21
240.969
  0
LINE
  8
0
 10
210.099
 20
240.969
 11
209.228
 21
241.298
  0
LINE
  8
0
 10
209.228
 20
241.298
 11
209.131
 21
241.085
  0
LINE
  8
0
 10
209.131
 20
241.085
 11
209.017
 21
240.9
  0
LINE
  8
0
 10
209.017
 20
240.9
 11
208.886
 21
240.744
  0
LINE
  8
0
 10
208.886
 20
240.744
 11
208.737
 21
240.616
  0
LINE
  8
0
 10
208.737
 20
240.616
 11
208.571
 21
240.517
  0
LINE
  8
0
 10
208.571
 20
240.517
 11
208.388
 21
240.446
  0
LINE
  8
0
 10
208.388
 20
240.446
 11
208.188
 21
240.403
  0
LINE
  8
0
 10
208.188
 20
240.403
 11
207.97
 21
240.389
  0
LINE
  8
0
 10
207.97
 20
240.389
 11
207.805
 21
240.396
  0
LINE
  8
0
 10
207.805
 20
240.396
 11
207.649
 21
240.416
  0
LINE
  8
0
 10
207.649
 20
240.416
 11
207.504
 21
240.45
  0
LINE
  8
0
 10
207.504
 20
240.45
 11
207.369
 21
240.498
  0
LINE
  8
0
 10
207.369
 20
240.498
 11
207.243
 21
240.559
  0
LINE
  8
0
 10
207.243
 20
240.559
 11
207.128
 21
240.633
  0
LINE
  8
0
 10
207.128
 20
240.633
 11
207.023
 21
240.721
  0
LINE
  8
0
 10
207.023
 20
240.721
 11
206.928
 21
240.823
  0
LINE
  8
0
 10
206.928
 20
240.823
 11
206.843
 21
240.938
  0
LINE
  8
0
 10
206.843
 20
240.938
 11
206.77
 21
241.064
  0
LINE
  8
0
 10
206.77
 20
241.064
 11
206.708
 21
241.203
  0
LINE
  8
0
 10
206.708
 20
241.203
 11
206.657
 21
241.355
  0
LINE
  8
0
 10
206.657
 20
241.355
 11
206.617
 21
241.518
  0
LINE
  8
0
 10
206.617
 20
241.518
 11
206.589
 21
241.693
  0
LINE
  8
0
 10
206.589
 20
241.693
 11
206.572
 21
241.881
  0
LINE
  8
0
 10
206.572
 20
241.881
 11
206.566
 21
242.081
  0
LINE
  8
0
 10
206.566
 20
242.081
 11
206.572
 21
242.278
  0
LINE
  8
0
 10
206.572
 20
242.278
 11
206.588
 21
242.462
  0
LINE
  8
0
 10
206.588
 20
242.462
 11
206.616
 21
242.634
  0
LINE
  8
0
 10
206.616
 20
242.634
 11
206.654
 21
242.794
  0
LINE
  8
0
 10
206.654
 20
242.794
 11
206.704
 21
242.942
  0
LINE
  8
0
 10
206.704
 20
242.942
 11
206.764
 21
243.077
  0
LINE
  8
0
 10
206.764
 20
243.077
 11
206.835
 21
243.201
  0
LINE
  8
0
 10
206.835
 20
243.201
 11
206.917
 21
243.312
  0
LINE
  8
0
 10
206.917
 20
243.312
 11
207.01
 21
243.41
  0
LINE
  8
0
 10
207.01
 20
243.41
 11
207.113
 21
243.496
  0
LINE
  8
0
 10
207.113
 20
243.496
 11
207.227
 21
243.568
  0
LINE
  8
0
 10
207.227
 20
243.568
 11
207.35
 21
243.627
  0
LINE
  8
0
 10
207.35
 20
243.627
 11
207.484
 21
243.673
  0
LINE
  8
0
 10
207.484
 20
243.673
 11
207.628
 21
243.706
  0
LINE
  8
0
 10
207.628
 20
243.706
 11
207.782
 21
243.726
  0
LINE
  8
0
 10
207.782
 20
243.726
 11
207.946
 21
243.732
  0
LINE
  8
0
 10
207.946
 20
243.732
 11
208.056
 21
243.729
  0
LINE
  8
0
 10
208.056
 20
243.729
 11
208.161
 21
243.719
  0
LINE
  8
0
 10
208.161
 20
243.719
 11
208.263
 21
243.702
  0
LINE
  8
0
 10
208.263
 20
243.702
 11
208.361
 21
243.679
  0
LINE
  8
0
 10
208.361
 20
243.679
 11
208.456
 21
243.649
  0
LINE
  8
0
 10
208.456
 20
243.649
 11
208.547
 21
243.613
  0
LINE
  8
0
 10
208.547
 20
243.613
 11
208.634
 21
243.57
  0
LINE
  8
0
 10
208.634
 20
243.57
 11
208.718
 21
243.52
  0
LINE
  8
0
 10
208.718
 20
243.52
 11
208.796
 21
243.465
  0
LINE
  8
0
 10
208.796
 20
243.465
 11
208.868
 21
243.405
  0
LINE
  8
0
 10
208.868
 20
243.405
 11
208.933
 21
243.341
  0
LINE
  8
0
 10
208.933
 20
243.341
 11
208.991
 21
243.272
  0
LINE
  8
0
 10
208.991
 20
243.272
 11
209.043
 21
243.198
  0
LINE
  8
0
 10
209.043
 20
243.198
 11
209.087
 21
243.12
  0
LINE
  8
0
 10
209.087
 20
243.12
 11
209.126
 21
243.037
  0
LINE
  8
0
 10
209.126
 20
243.037
 11
209.157
 21
242.949
  0
LINE
  8
0
 10
209.157
 20
242.949
 11
210.038
 21
243.19
  0
LINE
  8
0
 10
210.038
 20
243.19
 11
209.98
 21
243.348
  0
LINE
  8
0
 10
209.98
 20
243.348
 11
209.912
 21
243.497
  0
LINE
  8
0
 10
209.912
 20
243.497
 11
209.834
 21
243.636
  0
LINE
  8
0
 10
209.834
 20
243.636
 11
209.746
 21
243.765
  0
LINE
  8
0
 10
209.746
 20
243.765
 11
209.648
 21
243.884
  0
LINE
  8
0
 10
209.648
 20
243.884
 11
209.541
 21
243.993
  0
LINE
  8
0
 10
209.541
 20
243.993
 11
209.423
 21
244.092
  0
LINE
  8
0
 10
209.423
 20
244.092
 11
209.296
 21
244.182
  0
LINE
  8
0
 10
209.296
 20
244.182
 11
209.159
 21
244.261
  0
LINE
  8
0
 10
209.159
 20
244.261
 11
209.012
 21
244.329
  0
LINE
  8
0
 10
209.012
 20
244.329
 11
208.855
 21
244.387
  0
LINE
  8
0
 10
208.855
 20
244.387
 11
208.689
 21
244.435
  0
LINE
  8
0
 10
208.689
 20
244.435
 11
208.513
 21
244.471
  0
LINE
  8
0
 10
208.513
 20
244.471
 11
208.327
 21
244.498
  0
LINE
  8
0
 10
208.327
 20
244.498
 11
208.131
 21
244.514
  0
LINE
  8
0
 10
208.131
 20
244.514
 11
207.926
 21
244.519
  0
LINE
  8
0
 10
207.926
 20
244.519
 11
207.646
 21
244.509
  0
LINE
  8
0
 10
207.646
 20
244.509
 11
207.384
 21
244.479
  0
LINE
  8
0
 10
207.384
 20
244.479
 11
207.138
 21
244.43
  0
LINE
  8
0
 10
207.138
 20
244.43
 11
206.91
 21
244.361
  0
LINE
  8
0
 10
206.91
 20
244.361
 11
206.698
 21
244.273
  0
LINE
  8
0
 10
206.698
 20
244.273
 11
206.504
 21
244.164
  0
LINE
  8
0
 10
206.504
 20
244.164
 11
206.327
 21
244.036
  0
LINE
  8
0
 10
206.327
 20
244.036
 11
206.166
 21
243.888
  0
LINE
  8
0
 10
206.166
 20
243.888
 11
206.024
 21
243.722
  0
LINE
  8
0
 10
206.024
 20
243.722
 11
205.901
 21
243.539
  0
LINE
  8
0
 10
205.901
 20
243.539
 11
205.796
 21
243.339
  0
LINE
  8
0
 10
205.796
 20
243.339
 11
205.711
 21
243.121
  0
LINE
  8
0
 10
205.711
 20
243.121
 11
205.645
 21
242.887
  0
LINE
  8
0
 10
205.645
 20
242.887
 11
205.597
 21
242.635
  0
LINE
  8
0
 10
205.597
 20
242.635
 11
205.569
 21
242.367
  0
LINE
  8
0
 10
205.569
 20
242.367
 11
205.559
 21
242.081
  0
LINE
  8
0
 10
205.559
 20
242.081
 11
205.569
 21
241.796
  0
LINE
  8
0
 10
205.569
 20
241.796
 11
205.599
 21
241.527
  0
LINE
  8
0
 10
205.599
 20
241.527
 11
205.648
 21
241.274
  0
LINE
  8
0
 10
205.648
 20
241.274
 11
205.717
 21
241.038
  0
LINE
  8
0
 10
205.717
 20
241.038
 11
205.805
 21
240.818
  0
LINE
  8
0
 10
205.805
 20
240.818
 11
205.913
 21
240.614
  0
LINE
  8
0
 10
205.913
 20
240.614
 11
206.041
 21
240.427
  0
LINE
  8
0
 10
206.041
 20
240.427
 11
206.188
 21
240.255
  0
LINE
  8
0
 10
206.188
 20
240.255
 11
206.354
 21
240.102
  0
LINE
  8
0
 10
206.354
 20
240.102
 11
206.536
 21
239.97
  0
LINE
  8
0
 10
206.536
 20
239.97
 11
206.734
 21
239.857
  0
LINE
  8
0
 10
206.734
 20
239.857
 11
206.948
 21
239.766
  0
LINE
  8
0
 10
206.948
 20
239.766
 11
207.179
 21
239.694
  0
LINE
  8
0
 10
207.179
 20
239.694
 11
207.426
 21
239.643
  0
LINE
  8
0
 10
207.426
 20
239.643
 11
207.69
 21
239.613
  0
LINE
  8
0
 10
207.69
 20
239.613
 11
207.97
 21
239.603
  0
LINE
  8
0
 10
207.97
 20
239.603
 11
208.157
 21
239.608
  0
LINE
  8
0
 10
288.157
 20
239.603
 11
288.336
 21
239.619
  0
LINE
  8
0
 10
288.336
 20
239.619
 11
288.509
 21
239.645
  0
LINE
  8
0
 10
288.509
 20
239.645
 11
288.676
 21
239.682
  0
LINE
  8
0
 10
288.676
 20
239.682
 11
288.835
 21
239.73
  0
LINE
  8
0
 10
288.835
 20
239.73
 11
288.988
 21
239.788
  0
LINE
  8
0
 10
288.988
 20
239.788
 11
289.134
 21
239.856
  0
LINE
  8
0
 10
289.134
 20
239.856
 11
289.274
 21
239.935
  0
LINE
  8
0
 10
289.274
 20
239.935
 11
289.406
 21
240.025
  0
LINE
  8
0
 10
289.406
 20
240.025
 11
289.53
 21
240.126
  0
LINE
  8
0
 10
289.53
 20
240.126
 11
289.645
 21
240.238
  0
LINE
  8
0
 10
289.645
 20
240.238
 11
289.752
 21
240.361
  0
LINE
  8
0
 10
289.752
 20
240.361
 11
289.851
 21
240.495
  0
LINE
  8
0
 10
289.851
 20
240.495
 11
289.942
 21
240.641
  0
LINE
  8
0
 10
289.942
 20
240.641
 11
290.025
 21
240.797
  0
LINE
  8
0
 10
290.025
 20
240.797
 11
290.099
 21
240.964
  0
LINE
  8
0
 10
290.099
 20
240.964
 11
289.228
 21
241.293
  0
LINE
  8
0
 10
289.228
 20
241.293
 11
289.131
 21
241.08
  0
LINE
  8
0
 10
289.131
 20
241.08
 11
289.017
 21
240.896
  0
LINE
  8
0
 10
289.017
 20
240.896
 11
288.886
 21
240.739
  0
LINE
  8
0
 10
288.886
 20
240.739
 11
288.737
 21
240.612
  0
LINE
  8
0
 10
288.737
 20
240.612
 11
288.571
 21
240.512
  0
LINE
  8
0
 10
288.571
 20
240.512
 11
288.388
 21
240.441
  0
LINE
  8
0
 10
288.388
 20
240.441
 11
288.188
 21
240.399
  0
LINE
  8
0
 10
288.188
 20
240.399
 11
287.97
 21
240.384
  0
LINE
  8
0
 10
287.97
 20
240.384
 11
287.805
 21
240.391
  0
LINE
  8
0
 10
287.805
 20
240.391
 11
287.649
 21
240.412
  0
LINE
  8
0
 10
287.649
 20
240.412
 11
287.504
 21
240.445
  0
LINE
  8
0
 10
287.504
 20
240.445
 11
287.369
 21
240.493
  0
LINE
  8
0
 10
287.369
 20
240.493
 11
287.243
 21
240.554
  0
LINE
  8
0
 10
287.243
 20
240.554
 11
287.128
 21
240.629
  0
LINE
  8
0
 10
287.128
 20
240.629
 11
287.023
 21
240.717
  0
LINE
  8
0
 10
287.023
 20
240.717
 11
286.928
 21
240.818
  0
LINE
  8
0
 10
286.928
 20
240.818
 11
286.843
 21
240.933
  0
LINE
  8
0
 10
286.843
 20
240.933
 11
286.77
 21
241.06
  0
LINE
  8
0
 10
286.77
 20
241.06
 11
286.708
 21
241.199
  0
LINE
  8
0
 10
286.708
 20
241.199
 11
286.657
 21
241.35
  0
LINE
  8
0
 10
286.657
 20
241.35
 11
286.617
 21
241.513
  0
LINE
  8
0
 10
286.617
 20
241.513
 11
286.589
 21
241.689
  0
LINE
  8
0
 10
286.589
 20
241.689
 11
286.572
 21
241.876
  0
LINE
  8
0
 10
286.572
 20
241.876
 11
286.566
 21
242.076
  0
LINE
  8
0
 10
286.566
 20
242.076
 11
286.572
 21
242.273
  0
LINE
  8
0
 10
286.572
 20
242.273
 11
286.588
 21
242.457
  0
LINE
  8
0
 10
286.588
 20
242.457
 11
286.616
 21
242.629
  0
LINE
  8
0
 10
286.616
 20
242.629
 11
286.654
 21
242.789
  0
LINE
  8
0
 10
286.654
 20
242.789
 11
286.704
 21
242.937
  0
LINE
  8
0
 10
286.704
 20
242.937
 11
286.764
 21
243.073
  0
LINE
  8
0
 10
286.764
 20
243.073
 11
286.835
 21
243.196
  0
LINE
  8
0
 10
286.835
 20
243.196
 11
286.917
 21
243.307
  0
LINE
  8
0
 10
286.917
 20
243.307
 11
287.01
 21
243.406
  0
LINE
  8
0
 10
287.01
 20
243.406
 11
287.113
 21
243.491
  0
LINE
  8
0
 10
287.113
 20
243.491
 11
287.227
 21
243.563
  0
LINE
  8
0
 10
287.227
 20
243.563
 11
287.35
 21
243.622
  0
LINE
  8
0
 10
287.35
 20
243.622
 11
287.484
 21
243.668
  0
LINE
  8
0
 10
287.484
 20
243.668
 11
287.628
 21
243.701
  0
LINE
  8
0
 10
287.628
 20
243.701
 11
287.782
 21
243.721
  0
LINE
  8
0
 10
287.782
 20
243.721
 11
287.946
 21
243.728
  0
LINE
  8
0
 10
287.946
 20
243.728
 11
288.056
 21
243.724
  0
LINE
  8
0
 10
288.056
 20
243.724
 11
288.161
 21
243.714
  0
LINE
  8
0
 10
288.161
 20
243.714
 11
288.263
 21
243.698
  0
LINE
  8
0
 10
288.263
 20
243.698
 11
288.361
 21
243.675
  0
LINE
  8
0
 10
288.361
 20
243.675
 11
288.456
 21
243.645
  0
LINE
  8
0
 10
288.456
 20
243.645
 11
288.547
 21
243.608
  0
LINE
  8
0
 10
288.547
 20
243.608
 11
288.634
 21
243.565
  0
LINE
  8
0
 10
288.634
 20
243.565
 11
288.718
 21
243.516
  0
LINE
  8
0
 10
288.718
 20
243.516
 11
288.796
 21
243.46
  0
LINE
  8
0
 10
288.796
 20
243.46
 11
288.868
 21
243.4
  0
LINE
  8
0
 10
288.868
 20
243.4
 11
288.933
 21
243.336
  0
LINE
  8
0
 10
288.933
 20
243.336
 11
288.991
 21
243.267
  0
LINE
  8
0
 10
288.991
 20
243.267
 11
289.043
 21
243.193
  0
LINE
  8
0
 10
289.043
 20
243.193
 11
289.087
 21
243.115
  0
LINE
  8
0
 10
289.087
 20
243.115
 11
289.126
 21
243.032
  0
LINE
  8
0
 10
289.126
 20
243.032
 11
289.157
 21
242.944
  0
LINE
  8
0
 10
289.157
 20
242.944
 11
290.038
 21
243.185
  0
LINE
  8
0
 10
290.038
 20
243.185
 11
289.98
 21
243.344
  0
LINE
  8
0
 10
289.98
 20
243.344
 11
289.912
 21
243.492
  0
LINE
  8
0
 10
289.912
 20
243.492
 11
289.834
 21
243.631
  0
LINE
  8
0
 10
289.834
 20
243.631
 11
289.746
 21
243.76
  0
LINE
  8
0
 10
289.746
 20
243.76
 11
289.648
 21
243.879
  0
LINE
  8
0
 10
289.648
 20
243.879
 11
289.541
 21
243.988
  0
LINE
  8
0
 10
289.541
 20
243.988
 11
289.423
 21
244.088
  0
LINE
  8
0
 10
289.423
 20
244.088
 11
289.296
 21
244.177
  0
LINE
  8
0
 10
289.296
 20
244.177
 11
289.159
 21
244.256
  0
LINE
  8
0
 10
289.159
 20
244.256
 11
289.012
 21
244.324
  0
LINE
  8
0
 10
289.012
 20
244.324
 11
288.855
 21
244.382
  0
LINE
  8
0
 10
288.855
 20
244.382
 11
288.689
 21
244.43
  0
LINE
  8
0
 10
288.689
 20
244.43
 11
288.513
 21
244.467
  0
LINE
  8
0
 10
288.513
 20
244.467
 11
288.327
 21
244.493
  0
LINE
  8
0
 10
288.327
 20
244.493
 11
288.131
 21
244.509
  0
LINE
  8
0
 10
288.131
 20
244.509
 11
287.926
 21
244.514
  0
LINE
  8
0
 10
287.926
 20
244.514
 11
287.646
 21
244.504
  0
LINE
  8
0
 10
287.646
 20
244.504
 11
287.384
 21
244.475
  0
LINE
  8
0
 10
287.384
 20
244.475
 11
287.138
 21
244.426
  0
LINE
  8
0
 10
287.138
 20
244.426
 11
286.91
 21
244.357
  0
LINE
  8
0
 10
286.91
 20
244.357
 11
286.698
 21
244.268
  0
LINE
  8
0
 10
286.698
 20
244.268
 11
286.504
 21
244.159
  0
LINE
  8
0
 10
286.504
 20
244.159
 11
286.327
 21
244.031
  0
LINE
  8
0
 10
286.327
 20
244.031
 11
286.166
 21
243.884
  0
LINE
  8
0
 10
286.166
 20
243.884
 11
286.024
 21
243.717
  0
LINE
  8
0
 10
286.024
 20
243.717
 11
285.901
 21
243.534
  0
LINE
  8
0
 10
285.901
 20
243.534
 11
285.796
 21
243.334
  0
LINE
  8
0
 10
285.796
 20
243.334
 11
285.711
 21
243.116
  0
LINE
  8
0
 10
285.711
 20
243.116
 11
285.645
 21
242.882
  0
LINE
  8
0
 10
285.645
 20
242.882
 11
285.597
 21
242.631
  0
LINE
  8
0
 10
285.597
 20
242.631
 11
285.569
 21
242.362
  0
LINE
  8
0
 10
285.569
 20
242.362
 11
285.559
 21
242.076
  0
LINE
  8
0
 10
285.559
 20
242.076
 11
285.569
 21
241.791
  0
LINE
  8
0
 10
285.569
 20
241.791
 11
285.599
 21
241.522
  0
LINE
  8
0
 10
285.599
 20
241.522
 11
285.648
 21
241.27
  0
LINE
  8
0
 10
285.648
 20
241.27
 11
285.717
 21
241.033
  0
LINE
  8
0
 10
285.717
 20
241.033
 11
285.805
 21
240.813
  0
LINE
  8
0
 10
285.805
 20
240.813
 11
285.913
 21
240.609
  0
LINE
  8
0
 10
285.913
 20
240.609
 11
286.041
 21
240.422
  0
LINE
  8
0
 10
286.041
 20
240.422
 11
286.188
 21
240.251
  0
LINE
  8
0
 10
286.188
 20
240.251
 11
286.354
 21
240.098
  0
LINE
  8
0
 10
286.354
 20
240.098
 11
286.536
 21
239.965
  0
LINE
  8
0
 10
286.536
 20
239.965
 11
286.734
 21
239.853
  0
LINE
  8
0
 10
286.734
 20
239.853
 11
286.948
 21
239.761
  0
LINE
  8
0
 10
286.948
 20
239.761
 11
287.179
 21
239.69
  0
LINE
  8
0
 10
287.179
 20
239.69
 11
287.426
 21
239.639
  0
LINE
  8
0
 10
287.426
 20
239.639
 11
287.69
 21
239.608
  0
LINE
  8
0
 10
287.69
 20
239.608
 11
287.97
 21
239.598
  0
LINE
  8
0
 10
287.97
 20
239.598
 11
288.157
 21
239.603
  0
LINE
  8
0
 10
48.1566
 20
239.603
 11
48.3364
 21
239.619
  0
LINE
  8
0
 10
48.3364
 20
239.619
 11
48.5095
 21
239.645
  0
LINE
  8
0
 10
48.5095
 20
239.645
 11
48.6758
 21
239.682
  0
LINE
  8
0
 10
48.6758
 20
239.682
 11
48.8354
 21
239.73
  0
LINE
  8
0
 10
48.8354
 20
239.73
 11
48.9883
 21
239.788
  0
LINE
  8
0
 10
48.9883
 20
239.788
 11
49.1344
 21
239.856
  0
LINE
  8
0
 10
49.1344
 20
239.856
 11
49.2738
 21
239.935
  0
LINE
  8
0
 10
49.2738
 20
239.935
 11
49.4058
 21
240.025
  0
LINE
  8
0
 10
49.4058
 20
240.025
 11
49.5295
 21
240.126
  0
LINE
  8
0
 10
49.5295
 20
240.126
 11
49.645
 21
240.238
  0
LINE
  8
0
 10
49.645
 20
240.238
 11
49.7523
 21
240.361
  0
LINE
  8
0
 10
49.7523
 20
240.361
 11
49.8514
 21
240.495
  0
LINE
  8
0
 10
49.8514
 20
240.495
 11
49.9423
 21
240.641
  0
LINE
  8
0
 10
49.9423
 20
240.641
 11
50.025
 21
240.797
  0
LINE
  8
0
 10
50.025
 20
240.797
 11
50.0994
 21
240.964
  0
LINE
  8
0
 10
50.0994
 20
240.964
 11
49.228
 21
241.293
  0
LINE
  8
0
 10
49.228
 20
241.293
 11
49.1313
 21
241.08
  0
LINE
  8
0
 10
49.1313
 20
241.08
 11
49.0172
 21
240.896
  0
LINE
  8
0
 10
49.0172
 20
240.896
 11
48.8859
 21
240.739
  0
LINE
  8
0
 10
48.8859
 20
240.739
 11
48.7373
 21
240.612
  0
LINE
  8
0
 10
48.7373
 20
240.612
 11
48.5714
 21
240.512
  0
LINE
  8
0
 10
48.5714
 20
240.512
 11
48.3882
 21
240.441
  0
LINE
  8
0
 10
48.3882
 20
240.441
 11
48.1878
 21
240.399
  0
LINE
  8
0
 10
48.1878
 20
240.399
 11
47.9701
 21
240.384
  0
LINE
  8
0
 10
47.9701
 20
240.384
 11
47.8048
 21
240.391
  0
LINE
  8
0
 10
47.8048
 20
240.391
 11
47.6494
 21
240.412
  0
LINE
  8
0
 10
47.6494
 20
240.412
 11
47.5041
 21
240.445
  0
LINE
  8
0
 10
47.5041
 20
240.445
 11
47.3687
 21
240.493
  0
LINE
  8
0
 10
47.3687
 20
240.493
 11
47.2434
 21
240.554
  0
LINE
  8
0
 10
47.2434
 20
240.554
 11
47.1281
 21
240.629
  0
LINE
  8
0
 10
47.1281
 20
240.629
 11
47.0228
 21
240.717
  0
LINE
  8
0
 10
47.0228
 20
240.717
 11
46.9275
 21
240.818
  0
LINE
  8
0
 10
46.9275
 20
240.818
 11
46.8429
 21
240.933
  0
LINE
  8
0
 10
46.8429
 20
240.933
 11
46.7696
 21
241.06
  0
LINE
  8
0
 10
46.7696
 20
241.06
 11
46.7075
 21
241.199
  0
LINE
  8
0
 10
46.7075
 20
241.199
 11
46.6567
 21
241.35
  0
LINE
  8
0
 10
46.6567
 20
241.35
 11
46.6172
 21
241.513
  0
LINE
  8
0
 10
46.6172
 20
241.513
 11
46.589
 21
241.689
  0
LINE
  8
0
 10
46.589
 20
241.689
 11
46.5721
 21
241.876
  0
LINE
  8
0
 10
46.5721
 20
241.876
 11
46.5664
 21
242.076
  0
LINE
  8
0
 10
46.5664
 20
242.076
 11
46.5719
 21
242.273
  0
LINE
  8
0
 10
46.5719
 20
242.273
 11
46.5884
 21
242.457
  0
LINE
  8
0
 10
46.5884
 20
242.457
 11
46.6158
 21
242.629
  0
LINE
  8
0
 10
46.6158
 20
242.629
 11
46.6542
 21
242.789
  0
LINE
  8
0
 10
46.6542
 20
242.789
 11
46.7035
 21
242.937
  0
LINE
  8
0
 10
46.7035
 20
242.937
 11
46.7638
 21
243.073
  0
LINE
  8
0
 10
46.7638
 20
243.073
 11
46.8351
 21
243.196
  0
LINE
  8
0
 10
46.8351
 20
243.196
 11
46.9173
 21
243.307
  0
LINE
  8
0
 10
46.9173
 20
243.307
 11
47.0102
 21
243.406
  0
LINE
  8
0
 10
47.0102
 20
243.406
 11
47.1133
 21
243.491
  0
LINE
  8
0
 10
47.1133
 20
243.491
 11
47.2266
 21
243.563
  0
LINE
  8
0
 10
47.2266
 20
243.563
 11
47.3501
 21
243.622
  0
LINE
  8
0
 10
47.3501
 20
243.622
 11
47.4838
 21
243.668
  0
LINE
  8
0
 10
47.4838
 20
243.668
 11
47.6278
 21
243.701
  0
LINE
  8
0
 10
47.6278
 20
243.701
 11
47.782
 21
243.721
  0
LINE
  8
0
 10
47.782
 20
243.721
 11
47.9464
 21
243.728
  0
LINE
  8
0
 10
47.9464
 20
243.728
 11
48.0556
 21
243.724
  0
LINE
  8
0
 10
48.0556
 20
243.724
 11
48.1612
 21
243.714
  0
LINE
  8
0
 10
48.1612
 20
243.714
 11
48.2631
 21
243.698
  0
LINE
  8
0
 10
48.2631
 20
243.698
 11
48.3613
 21
243.675
  0
LINE
  8
0
 10
48.3613
 20
243.675
 11
48.4559
 21
243.645
  0
LINE
  8
0
 10
48.4559
 20
243.645
 11
48.5469
 21
243.608
  0
LINE
  8
0
 10
48.5469
 20
243.608
 11
48.6342
 21
243.565
  0
LINE
  8
0
 10
48.6342
 20
243.565
 11
48.7178
 21
243.516
  0
LINE
  8
0
 10
48.7178
 20
243.516
 11
48.7962
 21
243.46
  0
LINE
  8
0
 10
48.7962
 20
243.46
 11
48.8679
 21
243.4
  0
LINE
  8
0
 10
48.8679
 20
243.4
 11
48.9329
 21
243.336
  0
LINE
  8
0
 10
48.9329
 20
243.336
 11
48.9911
 21
243.267
  0
LINE
  8
0
 10
48.9911
 20
243.267
 11
49.0427
 21
243.193
  0
LINE
  8
0
 10
49.0427
 20
243.193
 11
49.0875
 21
243.115
  0
LINE
  8
0
 10
49.0875
 20
243.115
 11
49.1255
 21
243.032
  0
LINE
  8
0
 10
49.1255
 20
243.032
 11
49.1568
 21
242.944
  0
LINE
  8
0
 10
49.1568
 20
242.944
 11
50.0384
 21
243.185
  0
LINE
  8
0
 10
50.0384
 20
243.185
 11
49.9801
 21
243.344
  0
LINE
  8
0
 10
49.9801
 20
243.344
 11
49.9119
 21
243.492
  0
LINE
  8
0
 10
49.9119
 20
243.492
 11
49.8339
 21
243.631
  0
LINE
  8
0
 10
49.8339
 20
243.631
 11
49.746
 21
243.76
  0
LINE
  8
0
 10
49.746
 20
243.76
 11
49.6482
 21
243.879
  0
LINE
  8
0
 10
49.6482
 20
243.879
 11
49.5406
 21
243.988
  0
LINE
  8
0
 10
49.5406
 20
243.988
 11
49.4232
 21
244.088
  0
LINE
  8
0
 10
49.4232
 20
244.088
 11
49.2958
 21
244.177
  0
LINE
  8
0
 10
49.2958
 20
244.177
 11
49.1587
 21
244.256
  0
LINE
  8
0
 10
49.1587
 20
244.256
 11
49.0119
 21
244.324
  0
LINE
  8
0
 10
49.0119
 20
244.324
 11
48.8553
 21
244.382
  0
LINE
  8
0
 10
48.8553
 20
244.382
 11
48.6889
 21
244.43
  0
LINE
  8
0
 10
48.6889
 20
244.43
 11
48.5128
 21
244.467
  0
LINE
  8
0
 10
48.5128
 20
244.467
 11
48.327
 21
244.493
  0
LINE
  8
0
 10
48.327
 20
244.493
 11
48.1314
 21
244.509
  0
LINE
  8
0
 10
48.1314
 20
244.509
 11
47.926
 21
244.514
  0
LINE
  8
0
 10
47.926
 20
244.514
 11
47.6464
 21
244.504
  0
LINE
  8
0
 10
47.6464
 20
244.504
 11
47.3838
 21
244.475
  0
LINE
  8
0
 10
47.3838
 20
244.475
 11
47.1382
 21
244.426
  0
LINE
  8
0
 10
47.1382
 20
244.426
 11
46.9097
 21
244.357
  0
LINE
  8
0
 10
46.9097
 20
244.357
 11
46.6983
 21
244.268
  0
LINE
  8
0
 10
46.6983
 20
244.268
 11
46.5039
 21
244.159
  0
LINE
  8
0
 10
46.5039
 20
244.159
 11
46.3266
 21
244.031
  0
LINE
  8
0
 10
46.3266
 20
244.031
 11
46.1663
 21
243.884
  0
LINE
  8
0
 10
46.1663
 20
243.884
 11
46.024
 21
243.717
  0
LINE
  8
0
 10
46.024
 20
243.717
 11
45.9008
 21
243.534
  0
LINE
  8
0
 10
45.9008
 20
243.534
 11
45.7965
 21
243.334
  0
LINE
  8
0
 10
45.7965
 20
243.334
 11
45.7111
 21
243.116
  0
LINE
  8
0
 10
45.7111
 20
243.116
 11
45.6447
 21
242.882
  0
LINE
  8
0
 10
45.6447
 20
242.882
 11
45.5973
 21
242.631
  0
LINE
  8
0
 10
45.5973
 20
242.631
 11
45.5689
 21
242.362
  0
LINE
  8
0
 10
45.5689
 20
242.362
 11
45.5594
 21
242.076
  0
LINE
  8
0
 10
45.5594
 20
242.076
 11
45.5692
 21
241.791
  0
LINE
  8
0
 10
45.5692
 20
241.791
 11
45.5987
 21
241.522
  0
LINE
  8
0
 10
45.5987
 20
241.522
 11
45.6478
 21
241.27
  0
LINE
  8
0
 10
45.6478
 20
241.27
 11
45.7166
 21
241.033
  0
LINE
  8
0
 10
45.7166
 20
241.033
 11
45.8051
 21
240.813
  0
LINE
  8
0
 10
45.8051
 20
240.813
 11
45.9132
 21
240.609
  0
LINE
  8
0
 10
45.9132
 20
240.609
 11
46.0409
 21
240.422
  0
LINE
  8
0
 10
46.0409
 20
240.422
 11
46.1883
 21
240.251
  0
LINE
  8
0
 10
46.1883
 20
240.251
 11
46.3538
 21
240.098
  0
LINE
  8
0
 10
46.3538
 20
240.098
 11
46.5356
 21
239.965
  0
LINE
  8
0
 10
46.5356
 20
239.965
 11
46.7337
 21
239.853
  0
LINE
  8
0
 10
46.7337
 20
239.853
 11
46.9483
 21
239.761
  0
LINE
  8
0
 10
46.9483
 20
239.761
 11
47.1792
 21
239.69
  0
LINE
  8
0
 10
47.1792
 20
239.69
 11
47.4265
 21
239.639
  0
LINE
  8
0
 10
47.4265
 20
239.639
 11
47.6901
 21
239.608
  0
LINE
  8
0
 10
47.6901
 20
239.608
 11
47.9701
 21
239.598
  0
LINE
  8
0
 10
47.9701
 20
239.598
 11
48.1566
 21
239.603
  0
LINE
  8
0
 10
140.538
 20
240.449
 11
138.32
 21
240.449
  0
LINE
  8
0
 10
138.32
 20
240.449
 11
138.345
 21
240.504
  0
LINE
  8
0
 10
138.345
 20
240.504
 11
138.374
 21
240.557
  0
LINE
  8
0
 10
138.374
 20
240.557
 11
138.405
 21
240.61
  0
LINE
  8
0
 10
138.405
 20
240.61
 11
138.44
 21
240.662
  0
LINE
  8
0
 10
138.44
 20
240.662
 11
138.478
 21
240.714
  0
LINE
  8
0
 10
138.478
 20
240.714
 11
138.519
 21
240.764
  0
LINE
  8
0
 10
138.519
 20
240.764
 11
138.563
 21
240.814
  0
LINE
  8
0
 10
138.563
 20
240.814
 11
138.61
 21
240.863
  0
LINE
  8
0
 10
138.61
 20
240.863
 11
138.659
 21
240.911
  0
LINE
  8
0
 10
138.659
 20
240.911
 11
138.71
 21
240.959
  0
LINE
  8
0
 10
138.71
 20
240.959
 11
138.762
 21
241.007
  0
LINE
  8
0
 10
138.762
 20
241.007
 11
138.816
 21
241.055
  0
LINE
  8
0
 10
138.816
 20
241.055
 11
138.87
 21
241.103
  0
LINE
  8
0
 10
138.87
 20
241.103
 11
138.926
 21
241.15
  0
LINE
  8
0
 10
138.926
 20
241.15
 11
138.984
 21
241.198
  0
LINE
  8
0
 10
138.984
 20
241.198
 11
139.042
 21
241.246
  0
LINE
  8
0
 10
139.042
 20
241.246
 11
139.162
 21
241.341
  0
LINE
  8
0
 10
139.162
 20
241.341
 11
139.223
 21
241.389
  0
LINE
  8
0
 10
139.223
 20
241.389
 11
139.284
 21
241.438
  0
LINE
  8
0
 10
139.284
 20
241.438
 11
139.345
 21
241.487
  0
LINE
  8
0
 10
139.345
 20
241.487
 11
139.407
 21
241.536
  0
LINE
  8
0
 10
139.407
 20
241.536
 11
139.532
 21
241.636
  0
LINE
  8
0
 10
139.532
 20
241.636
 11
139.595
 21
241.686
  0
LINE
  8
0
 10
139.595
 20
241.686
 11
139.656
 21
241.737
  0
LINE
  8
0
 10
139.656
 20
241.737
 11
139.715
 21
241.79
  0
LINE
  8
0
 10
139.715
 20
241.79
 11
139.773
 21
241.843
  0
LINE
  8
0
 10
139.773
 20
241.843
 11
139.83
 21
241.897
  0
LINE
  8
0
 10
139.83
 20
241.897
 11
139.885
 21
241.952
  0
LINE
  8
0
 10
139.885
 20
241.952
 11
139.939
 21
242.008
  0
LINE
  8
0
 10
139.939
 20
242.008
 11
139.992
 21
242.064
  0
LINE
  8
0
 10
139.992
 20
242.064
 11
140.042
 21
242.122
  0
LINE
  8
0
 10
140.042
 20
242.122
 11
140.091
 21
242.182
  0
LINE
  8
0
 10
140.091
 20
242.182
 11
140.136
 21
242.242
  0
LINE
  8
0
 10
140.136
 20
242.242
 11
140.18
 21
242.304
  0
LINE
  8
0
 10
140.18
 20
242.304
 11
140.221
 21
242.367
  0
LINE
  8
0
 10
140.221
 20
242.367
 11
140.26
 21
242.432
  0
LINE
  8
0
 10
140.26
 20
242.432
 11
140.297
 21
242.497
  0
LINE
  8
0
 10
140.297
 20
242.497
 11
140.331
 21
242.565
  0
LINE
  8
0
 10
140.331
 20
242.565
 11
140.362
 21
242.633
  0
LINE
  8
0
 10
140.362
 20
242.633
 11
140.389
 21
242.704
  0
LINE
  8
0
 10
140.389
 20
242.704
 11
140.411
 21
242.777
  0
LINE
  8
0
 10
140.411
 20
242.777
 11
140.43
 21
242.852
  0
LINE
  8
0
 10
140.43
 20
242.852
 11
140.444
 21
242.929
  0
LINE
  8
0
 10
140.444
 20
242.929
 11
140.455
 21
243.008
  0
LINE
  8
0
 10
140.455
 20
243.008
 11
140.461
 21
243.089
  0
LINE
  8
0
 10
140.461
 20
243.089
 11
140.463
 21
243.172
  0
LINE
  8
0
 10
140.463
 20
243.172
 11
140.457
 21
243.326
  0
LINE
  8
0
 10
140.457
 20
243.326
 11
140.437
 21
243.472
  0
LINE
  8
0
 10
140.437
 20
243.472
 11
140.405
 21
243.61
  0
LINE
  8
0
 10
140.405
 20
243.61
 11
140.36
 21
243.738
  0
LINE
  8
0
 10
140.36
 20
243.738
 11
140.301
 21
243.857
  0
LINE
  8
0
 10
140.301
 20
243.857
 11
140.23
 21
243.967
  0
LINE
  8
0
 10
140.23
 20
243.967
 11
140.146
 21
244.069
  0
LINE
  8
0
 10
140.146
 20
244.069
 11
140.049
 21
244.162
  0
LINE
  8
0
 10
140.049
 20
244.162
 11
139.94
 21
244.244
  0
LINE
  8
0
 10
139.94
 20
244.244
 11
139.82
 21
244.316
  0
LINE
  8
0
 10
139.82
 20
244.316
 11
139.689
 21
244.376
  0
LINE
  8
0
 10
139.689
 20
244.376
 11
139.546
 21
244.426
  0
LINE
  8
0
 10
139.546
 20
244.426
 11
139.392
 21
244.465
  0
LINE
  8
0
 10
139.392
 20
244.465
 11
139.227
 21
244.492
  0
LINE
  8
0
 10
139.227
 20
244.492
 11
139.05
 21
244.509
  0
LINE
  8
0
 10
139.05
 20
244.509
 11
138.863
 21
244.514
  0
LINE
  8
0
 10
138.863
 20
244.514
 11
138.689
 21
244.509
  0
LINE
  8
0
 10
138.689
 20
244.509
 11
138.524
 21
244.492
  0
LINE
  8
0
 10
138.524
 20
244.492
 11
138.368
 21
244.465
  0
LINE
  8
0
 10
138.368
 20
244.465
 11
138.222
 21
244.427
  0
LINE
  8
0
 10
138.222
 20
244.427
 11
138.086
 21
244.378
  0
LINE
  8
0
 10
138.086
 20
244.378
 11
137.958
 21
244.318
  0
LINE
  8
0
 10
137.958
 20
244.318
 11
137.84
 21
244.247
  0
LINE
  8
0
 10
137.84
 20
244.247
 11
137.732
 21
244.165
  0
LINE
  8
0
 10
137.732
 20
244.165
 11
137.633
 21
244.073
  0
LINE
  8
0
 10
137.633
 20
244.073
 11
137.545
 21
243.971
  0
LINE
  8
0
 10
137.545
 20
243.971
 11
137.467
 21
243.859
  0
LINE
  8
0
 10
137.467
 20
243.859
 11
137.4
 21
243.737
  0
LINE
  8
0
 10
137.4
 20
243.737
 11
137.343
 21
243.605
  0
LINE
  8
0
 10
137.343
 20
243.605
 11
137.297
 21
243.464
  0
LINE
  8
0
 10
137.297
 20
243.464
 11
137.261
 21
243.312
  0
LINE
  8
0
 10
137.261
 20
243.312
 11
137.235
 21
243.151
  0
LINE
  8
0
 10
137.235
 20
243.151
 11
138.195
 21
243.097
  0
LINE
  8
0
 10
138.195
 20
243.097
 11
138.208
 21
243.177
  0
LINE
  8
0
 10
138.208
 20
243.177
 11
138.226
 21
243.251
  0
LINE
  8
0
 10
138.226
 20
243.251
 11
138.246
 21
243.32
  0
LINE
  8
0
 10
138.246
 20
243.32
 11
138.271
 21
243.385
  0
LINE
  8
0
 10
138.271
 20
243.385
 11
138.298
 21
243.444
  0
LINE
  8
0
 10
138.298
 20
243.444
 11
138.33
 21
243.498
  0
LINE
  8
0
 10
138.33
 20
243.498
 11
138.365
 21
243.547
  0
LINE
  8
0
 10
138.365
 20
243.547
 11
138.403
 21
243.59
  0
LINE
  8
0
 10
138.403
 20
243.59
 11
138.446
 21
243.629
  0
LINE
  8
0
 10
138.446
 20
243.629
 11
138.493
 21
243.662
  0
LINE
  8
0
 10
138.493
 20
243.662
 11
138.544
 21
243.69
  0
LINE
  8
0
 10
138.544
 20
243.69
 11
138.6
 21
243.714
  0
LINE
  8
0
 10
138.6
 20
243.714
 11
138.661
 21
243.732
  0
LINE
  8
0
 10
138.661
 20
243.732
 11
138.726
 21
243.744
  0
LINE
  8
0
 10
138.726
 20
243.744
 11
138.795
 21
243.752
  0
LINE
  8
0
 10
138.795
 20
243.752
 11
138.869
 21
243.755
  0
LINE
  8
0
 10
138.869
 20
243.755
 11
139.016
 21
243.745
  0
LINE
  8
0
 10
139.016
 20
243.745
 11
139.144
 21
243.716
  0
LINE
  8
0
 10
139.144
 20
243.716
 11
139.252
 21
243.667
  0
LINE
  8
0
 10
139.252
 20
243.667
 11
139.34
 21
243.599
  0
LINE
  8
0
 10
139.34
 20
243.599
 11
139.409
 21
243.511
  0
LINE
  8
0
 10
139.409
 20
243.511
 11
139.458
 21
243.404
  0
LINE
  8
0
 10
139.458
 20
243.404
 11
139.487
 21
243.277
  0
LINE
  8
0
 10
139.487
 20
243.277
 11
139.497
 21
243.131
  0
LINE
  8
0
 10
139.497
 20
243.131
 11
139.494
 21
243.067
  0
LINE
  8
0
 10
139.494
 20
243.067
 11
139.484
 21
243.003
  0
LINE
  8
0
 10
139.484
 20
243.003
 11
139.468
 21
242.939
  0
LINE
  8
0
 10
139.468
 20
242.939
 11
139.446
 21
242.874
  0
LINE
  8
0
 10
139.446
 20
242.874
 11
139.418
 21
242.809
  0
LINE
  8
0
 10
139.418
 20
242.809
 11
139.383
 21
242.744
  0
LINE
  8
0
 10
139.383
 20
242.744
 11
139.342
 21
242.678
  0
LINE
  8
0
 10
139.342
 20
242.678
 11
139.295
 21
242.612
  0
LINE
  8
0
 10
139.295
 20
242.612
 11
139.24
 21
242.544
  0
LINE
  8
0
 10
139.24
 20
242.544
 11
139.175
 21
242.471
  0
LINE
  8
0
 10
139.175
 20
242.471
 11
139.101
 21
242.394
  0
LINE
  8
0
 10
139.101
 20
242.394
 11
139.018
 21
242.312
  0
LINE
  8
0
 10
139.018
 20
242.312
 11
138.926
 21
242.226
  0
LINE
  8
0
 10
138.926
 20
242.226
 11
138.824
 21
242.135
  0
LINE
  8
0
 10
138.824
 20
242.135
 11
138.712
 21
242.04
  0
LINE
  8
0
 10
138.712
 20
242.04
 11
138.591
 21
241.941
  0
LINE
  8
0
 10
138.591
 20
241.941
 11
138.464
 21
241.835
  0
LINE
  8
0
 10
138.464
 20
241.835
 11
138.341
 21
241.731
  0
LINE
  8
0
 10
138.341
 20
241.731
 11
138.225
 21
241.628
  0
LINE
  8
0
 10
138.225
 20
241.628
 11
138.114
 21
241.525
  0
LINE
  8
0
 10
138.114
 20
241.525
 11
138.008
 21
241.424
  0
LINE
  8
0
 10
138.008
 20
241.424
 11
137.908
 21
241.324
  0
LINE
  8
0
 10
137.908
 20
241.324
 11
137.814
 21
241.225
  0
LINE
  8
0
 10
137.814
 20
241.225
 11
137.725
 21
241.127
  0
LINE
  8
0
 10
137.725
 20
241.127
 11
137.642
 21
241.029
  0
LINE
  8
0
 10
137.642
 20
241.029
 11
137.563
 21
240.931
  0
LINE
  8
0
 10
137.563
 20
240.931
 11
137.489
 21
240.832
  0
LINE
  8
0
 10
137.489
 20
240.832
 11
137.42
 21
240.732
  0
LINE
  8
0
 10
137.42
 20
240.732
 11
137.357
 21
240.632
  0
LINE
  8
0
 10
137.357
 20
240.632
 11
137.298
 21
240.531
  0
LINE
  8
0
 10
137.298
 20
240.531
 11
137.244
 21
240.429
  0
LINE
  8
0
 10
137.244
 20
240.429
 11
137.195
 21
240.327
  0
LINE
  8
0
 10
137.195
 20
240.327
 11
137.195
 21
239.666
  0
LINE
  8
0
 10
137.195
 20
239.666
 11
140.538
 21
239.666
  0
LINE
  8
0
 10
140.538
 20
239.666
 11
140.538
 21
240.449
  0
LINE
  8
0
 10
128.157
 20
239.603
 11
128.336
 21
239.619
  0
LINE
  8
0
 10
128.336
 20
239.619
 11
128.509
 21
239.645
  0
LINE
  8
0
 10
128.509
 20
239.645
 11
128.676
 21
239.682
  0
LINE
  8
0
 10
128.676
 20
239.682
 11
128.835
 21
239.73
  0
LINE
  8
0
 10
128.835
 20
239.73
 11
128.988
 21
239.788
  0
LINE
  8
0
 10
128.988
 20
239.788
 11
129.134
 21
239.856
  0
LINE
  8
0
 10
129.134
 20
239.856
 11
129.274
 21
239.935
  0
LINE
  8
0
 10
129.274
 20
239.935
 11
129.406
 21
240.025
  0
LINE
  8
0
 10
129.406
 20
240.025
 11
129.53
 21
240.126
  0
LINE
  8
0
 10
129.53
 20
240.126
 11
129.645
 21
240.238
  0
LINE
  8
0
 10
129.645
 20
240.238
 11
129.752
 21
240.361
  0
LINE
  8
0
 10
129.752
 20
240.361
 11
129.851
 21
240.495
  0
LINE
  8
0
 10
129.851
 20
240.495
 11
129.942
 21
240.641
  0
LINE
  8
0
 10
129.942
 20
240.641
 11
130.025
 21
240.797
  0
LINE
  8
0
 10
130.025
 20
240.797
 11
130.099
 21
240.964
  0
LINE
  8
0
 10
130.099
 20
240.964
 11
129.228
 21
241.293
  0
LINE
  8
0
 10
129.228
 20
241.293
 11
129.131
 21
241.08
  0
LINE
  8
0
 10
129.131
 20
241.08
 11
129.017
 21
240.896
  0
LINE
  8
0
 10
129.017
 20
240.896
 11
128.886
 21
240.739
  0
LINE
  8
0
 10
128.886
 20
240.739
 11
128.737
 21
240.612
  0
LINE
  8
0
 10
128.737
 20
240.612
 11
128.571
 21
240.512
  0
LINE
  8
0
 10
128.571
 20
240.512
 11
128.388
 21
240.441
  0
LINE
  8
0
 10
128.388
 20
240.441
 11
128.188
 21
240.399
  0
LINE
  8
0
 10
128.188
 20
240.399
 11
127.97
 21
240.384
  0
LINE
  8
0
 10
127.97
 20
240.384
 11
127.805
 21
240.391
  0
LINE
  8
0
 10
127.805
 20
240.391
 11
127.649
 21
240.412
  0
LINE
  8
0
 10
127.649
 20
240.412
 11
127.504
 21
240.445
  0
LINE
  8
0
 10
127.504
 20
240.445
 11
127.369
 21
240.493
  0
LINE
  8
0
 10
127.369
 20
240.493
 11
127.243
 21
240.554
  0
LINE
  8
0
 10
127.243
 20
240.554
 11
127.128
 21
240.629
  0
LINE
  8
0
 10
127.128
 20
240.629
 11
127.023
 21
240.717
  0
LINE
  8
0
 10
127.023
 20
240.717
 11
126.928
 21
240.818
  0
LINE
  8
0
 10
126.928
 20
240.818
 11
126.843
 21
240.933
  0
LINE
  8
0
 10
126.843
 20
240.933
 11
126.77
 21
241.06
  0
LINE
  8
0
 10
126.77
 20
241.06
 11
126.708
 21
241.199
  0
LINE
  8
0
 10
126.708
 20
241.199
 11
126.657
 21
241.35
  0
LINE
  8
0
 10
126.657
 20
241.35
 11
126.617
 21
241.513
  0
LINE
  8
0
 10
126.617
 20
241.513
 11
126.589
 21
241.689
  0
LINE
  8
0
 10
126.589
 20
241.689
 11
126.572
 21
241.876
  0
LINE
  8
0
 10
126.572
 20
241.876
 11
126.566
 21
242.076
  0
LINE
  8
0
 10
126.566
 20
242.076
 11
126.572
 21
242.273
  0
LINE
  8
0
 10
126.572
 20
242.273
 11
126.588
 21
242.457
  0
LINE
  8
0
 10
126.588
 20
242.457
 11
126.616
 21
242.629
  0
LINE
  8
0
 10
126.616
 20
242.629
 11
126.654
 21
242.789
  0
LINE
  8
0
 10
126.654
 20
242.789
 11
126.704
 21
242.937
  0
LINE
  8
0
 10
126.704
 20
242.937
 11
126.764
 21
243.073
  0
LINE
  8
0
 10
126.764
 20
243.073
 11
126.835
 21
243.196
  0
LINE
  8
0
 10
126.835
 20
243.196
 11
126.917
 21
243.307
  0
LINE
  8
0
 10
126.917
 20
243.307
 11
127.01
 21
243.406
  0
LINE
  8
0
 10
127.01
 20
243.406
 11
127.113
 21
243.491
  0
LINE
  8
0
 10
127.113
 20
243.491
 11
127.227
 21
243.563
  0
LINE
  8
0
 10
127.227
 20
243.563
 11
127.35
 21
243.622
  0
LINE
  8
0
 10
127.35
 20
243.622
 11
127.484
 21
243.668
  0
LINE
  8
0
 10
127.484
 20
243.668
 11
127.628
 21
243.701
  0
LINE
  8
0
 10
127.628
 20
243.701
 11
127.782
 21
243.721
  0
LINE
  8
0
 10
127.782
 20
243.721
 11
127.946
 21
243.728
  0
LINE
  8
0
 10
127.946
 20
243.728
 11
128.056
 21
243.724
  0
LINE
  8
0
 10
128.056
 20
243.724
 11
128.161
 21
243.714
  0
LINE
  8
0
 10
128.161
 20
243.714
 11
128.263
 21
243.698
  0
LINE
  8
0
 10
128.263
 20
243.698
 11
128.361
 21
243.675
  0
LINE
  8
0
 10
128.361
 20
243.675
 11
128.456
 21
243.645
  0
LINE
  8
0
 10
128.456
 20
243.645
 11
128.547
 21
243.608
  0
LINE
  8
0
 10
128.547
 20
243.608
 11
128.634
 21
243.565
  0
LINE
  8
0
 10
128.634
 20
243.565
 11
128.718
 21
243.516
  0
LINE
  8
0
 10
128.718
 20
243.516
 11
128.796
 21
243.46
  0
LINE
  8
0
 10
128.796
 20
243.46
 11
128.868
 21
243.4
  0
LINE
  8
0
 10
128.868
 20
243.4
 11
128.933
 21
243.336
  0
LINE
  8
0
 10
128.933
 20
243.336
 11
128.991
 21
243.267
  0
LINE
  8
0
 10
128.991
 20
243.267
 11
129.043
 21
243.193
  0
LINE
  8
0
 10
129.043
 20
243.193
 11
129.087
 21
243.115
  0
LINE
  8
0
 10
129.087
 20
243.115
 11
129.126
 21
243.032
  0
LINE
  8
0
 10
129.126
 20
243.032
 11
129.157
 21
242.944
  0
LINE
  8
0
 10
129.157
 20
242.944
 11
130.038
 21
243.185
  0
LINE
  8
0
 10
130.038
 20
243.185
 11
129.98
 21
243.344
  0
LINE
  8
0
 10
129.98
 20
243.344
 11
129.912
 21
243.492
  0
LINE
  8
0
 10
129.912
 20
243.492
 11
129.834
 21
243.631
  0
LINE
  8
0
 10
129.834
 20
243.631
 11
129.746
 21
243.76
  0
LINE
  8
0
 10
129.746
 20
243.76
 11
129.648
 21
243.879
  0
LINE
  8
0
 10
129.648
 20
243.879
 11
129.541
 21
243.988
  0
LINE
  8
0
 10
129.541
 20
243.988
 11
129.423
 21
244.088
  0
LINE
  8
0
 10
129.423
 20
244.088
 11
129.296
 21
244.177
  0
LINE
  8
0
 10
129.296
 20
244.177
 11
129.159
 21
244.256
  0
LINE
  8
0
 10
129.159
 20
244.256
 11
129.012
 21
244.324
  0
LINE
  8
0
 10
129.012
 20
244.324
 11
128.855
 21
244.382
  0
LINE
  8
0
 10
128.855
 20
244.382
 11
128.689
 21
244.43
  0
LINE
  8
0
 10
128.689
 20
244.43
 11
128.513
 21
244.467
  0
LINE
  8
0
 10
128.513
 20
244.467
 11
128.327
 21
244.493
  0
LINE
  8
0
 10
128.327
 20
244.493
 11
128.131
 21
244.509
  0
LINE
  8
0
 10
128.131
 20
244.509
 11
127.926
 21
244.514
  0
LINE
  8
0
 10
127.926
 20
244.514
 11
127.646
 21
244.504
  0
LINE
  8
0
 10
127.646
 20
244.504
 11
127.384
 21
244.475
  0
LINE
  8
0
 10
127.384
 20
244.475
 11
127.138
 21
244.426
  0
LINE
  8
0
 10
127.138
 20
244.426
 11
126.91
 21
244.357
  0
LINE
  8
0
 10
126.91
 20
244.357
 11
126.698
 21
244.268
  0
LINE
  8
0
 10
126.698
 20
244.268
 11
126.504
 21
244.159
  0
LINE
  8
0
 10
126.504
 20
244.159
 11
126.327
 21
244.031
  0
LINE
  8
0
 10
126.327
 20
244.031
 11
126.166
 21
243.884
  0
LINE
  8
0
 10
126.166
 20
243.884
 11
126.024
 21
243.717
  0
LINE
  8
0
 10
126.024
 20
243.717
 11
125.901
 21
243.534
  0
LINE
  8
0
 10
125.901
 20
243.534
 11
125.796
 21
243.334
  0
LINE
  8
0
 10
125.796
 20
243.334
 11
125.711
 21
243.116
  0
LINE
  8
0
 10
125.711
 20
243.116
 11
125.645
 21
242.882
  0
LINE
  8
0
 10
125.645
 20
242.882
 11
125.597
 21
242.631
  0
LINE
  8
0
 10
125.597
 20
242.631
 11
125.569
 21
242.362
  0
LINE
  8
0
 10
125.569
 20
242.362
 11
125.559
 21
242.076
  0
LINE
  8
0
 10
125.559
 20
242.076
 11
125.569
 21
241.791
  0
LINE
  8
0
 10
125.569
 20
241.791
 11
125.599
 21
241.522
  0
LINE
  8
0
 10
125.599
 20
241.522
 11
125.648
 21
241.27
  0
LINE
  8
0
 10
125.648
 20
241.27
 11
125.717
 21
241.033
  0
LINE
  8
0
 10
125.717
 20
241.033
 11
125.805
 21
240.813
  0
LINE
  8
0
 10
125.805
 20
240.813
 11
125.913
 21
240.609
  0
LINE
  8
0
 10
125.913
 20
240.609
 11
126.041
 21
240.422
  0
LINE
  8
0
 10
126.041
 20
240.422
 11
126.188
 21
240.251
  0
LINE
  8
0
 10
126.188
 20
240.251
 11
126.354
 21
240.098
  0
LINE
  8
0
 10
126.354
 20
240.098
 11
126.536
 21
239.965
  0
LINE
  8
0
 10
126.536
 20
239.965
 11
126.734
 21
239.853
  0
LINE
  8
0
 10
126.734
 20
239.853
 11
126.948
 21
239.761
  0
LINE
  8
0
 10
126.948
 20
239.761
 11
127.179
 21
239.69
  0
LINE
  8
0
 10
127.179
 20
239.69
 11
127.426
 21
239.639
  0
LINE
  8
0
 10
127.426
 20
239.639
 11
127.69
 21
239.608
  0
LINE
  8
0
 10
127.69
 20
239.608
 11
127.97
 21
239.598
  0
LINE
  8
0
 10
127.97
 20
239.598
 11
128.157
 21
239.603
  0
LINE
  8
0
 10
211.637
 20
241.718
 11
213.719
 21
241.718
  0
LINE
  8
0
 10
213.719
 20
241.718
 11
213.719
 21
239.67
  0
LINE
  8
0
 10
213.719
 20
239.67
 11
214.719
 21
239.67
  0
LINE
  8
0
 10
214.719
 20
239.67
 11
214.719
 21
244.448
  0
LINE
  8
0
 10
214.719
 20
244.448
 11
213.719
 21
244.448
  0
LINE
  8
0
 10
213.719
 20
244.448
 11
213.719
 21
242.546
  0
LINE
  8
0
 10
213.719
 20
242.546
 11
211.637
 21
242.546
  0
LINE
  8
0
 10
211.637
 20
242.546
 11
211.637
 21
244.448
  0
LINE
  8
0
 10
211.637
 20
244.448
 11
210.637
 21
244.448
  0
LINE
  8
0
 10
210.637
 20
244.448
 11
210.637
 21
239.67
  0
LINE
  8
0
 10
210.637
 20
239.67
 11
211.637
 21
239.67
  0
LINE
  8
0
 10
211.637
 20
239.67
 11
211.637
 21
241.718
  0
LINE
  8
0
 10
60.6224
 20
240.374
 11
59.5273
 21
240.374
  0
LINE
  8
0
 10
59.5273
 20
240.374
 11
59.5273
 21
244.443
  0
LINE
  8
0
 10
59.5273
 20
244.443
 11
58.6254
 21
244.443
  0
LINE
  8
0
 10
58.6254
 20
244.443
 11
57.4285
 21
243.667
  0
LINE
  8
0
 10
57.4285
 20
243.667
 11
57.4285
 21
242.917
  0
LINE
  8
0
 10
57.4285
 20
242.917
 11
58.5745
 21
243.633
  0
LINE
  8
0
 10
58.5745
 20
243.633
 11
58.5745
 21
240.374
  0
LINE
  8
0
 10
58.5745
 20
240.374
 11
57.3912
 21
240.374
  0
LINE
  8
0
 10
57.3912
 20
240.374
 11
57.3912
 21
239.666
  0
LINE
  8
0
 10
57.3912
 20
239.666
 11
60.6224
 21
239.666
  0
LINE
  8
0
 10
60.6224
 20
239.666
 11
60.6224
 21
240.374
  0
LINE
  8
0
 10
51.6369
 20
241.714
 11
53.7187
 21
241.714
  0
LINE
  8
0
 10
53.7187
 20
241.714
 11
53.7187
 21
239.666
  0
LINE
  8
0
 10
53.7187
 20
239.666
 11
54.7189
 21
239.666
  0
LINE
  8
0
 10
54.7189
 20
239.666
 11
54.7189
 21
244.443
  0
LINE
  8
0
 10
54.7189
 20
244.443
 11
53.7187
 21
244.443
  0
LINE
  8
0
 10
53.7187
 20
244.443
 11
53.7187
 21
242.541
  0
LINE
  8
0
 10
53.7187
 20
242.541
 11
51.6369
 21
242.541
  0
LINE
  8
0
 10
51.6369
 20
242.541
 11
51.6369
 21
244.443
  0
LINE
  8
0
 10
51.6369
 20
244.443
 11
50.6366
 21
244.443
  0
LINE
  8
0
 10
50.6366
 20
244.443
 11
50.6366
 21
239.666
  0
LINE
  8
0
 10
50.6366
 20
239.666
 11
51.6369
 21
239.666
  0
LINE
  8
0
 10
51.6369
 20
239.666
 11
51.6369
 21
241.714
  0
LINE
  8
0
 10
291.637
 20
241.714
 11
293.719
 21
241.714
  0
LINE
  8
0
 10
293.719
 20
241.714
 11
293.719
 21
239.666
  0
LINE
  8
0
 10
293.719
 20
239.666
 11
294.719
 21
239.666
  0
LINE
  8
0
 10
294.719
 20
239.666
 11
294.719
 21
244.443
  0
LINE
  8
0
 10
294.719
 20
244.443
 11
293.719
 21
244.443
  0
LINE
  8
0
 10
293.719
 20
244.443
 11
293.719
 21
242.541
  0
LINE
  8
0
 10
293.719
 20
242.541
 11
291.637
 21
242.541
  0
LINE
  8
0
 10
291.637
 20
242.541
 11
291.637
 21
244.443
  0
LINE
  8
0
 10
291.637
 20
244.443
 11
290.637
 21
244.443
  0
LINE
  8
0
 10
290.637
 20
244.443
 11
290.637
 21
239.666
  0
LINE
  8
0
 10
290.637
 20
239.666
 11
291.637
 21
239.666
  0
LINE
  8
0
 10
291.637
 20
239.666
 11
291.637
 21
241.714
  0
LINE
  8
0
 10
300.141
 20
240.639
 11
300.778
 21
240.639
  0
LINE
  8
0
 10
300.778
 20
240.639
 11
300.778
 21
241.347
  0
LINE
  8
0
 10
300.778
 20
241.347
 11
300.141
 21
241.347
  0
LINE
  8
0
 10
300.141
 20
241.347
 11
300.141
 21
244.443
  0
LINE
  8
0
 10
300.141
 20
244.443
 11
299.076
 21
244.443
  0
LINE
  8
0
 10
299.076
 20
244.443
 11
297.059
 21
241.354
  0
LINE
  8
0
 10
297.059
 20
241.354
 11
297.059
 21
240.639
  0
LINE
  8
0
 10
297.059
 20
240.639
 11
299.232
 21
240.639
  0
LINE
  8
0
 10
299.232
 20
240.639
 11
299.232
 21
239.666
  0
LINE
  8
0
 10
299.232
 20
239.666
 11
300.141
 21
239.666
  0
LINE
  8
0
 10
300.141
 20
239.666
 11
300.141
 21
240.639
  0
LINE
  8
0
 10
297.835
 20
241.347
 11
298.944
 21
243.033
  0
LINE
  8
0
 10
298.944
 20
243.033
 11
298.999
 21
243.12
  0
LINE
  8
0
 10
298.999
 20
243.12
 11
299.05
 21
243.202
  0
LINE
  8
0
 10
299.05
 20
243.202
 11
299.097
 21
243.278
  0
LINE
  8
0
 10
299.097
 20
243.278
 11
299.139
 21
243.35
  0
LINE
  8
0
 10
299.139
 20
243.35
 11
299.177
 21
243.416
  0
LINE
  8
0
 10
299.177
 20
243.416
 11
299.21
 21
243.476
  0
LINE
  8
0
 10
299.21
 20
243.476
 11
299.239
 21
243.532
  0
LINE
  8
0
 10
299.239
 20
243.532
 11
299.263
 21
243.582
  0
LINE
  8
0
 10
299.263
 20
243.582
 11
299.261
 21
243.564
  0
LINE
  8
0
 10
299.261
 20
243.564
 11
299.259
 21
243.542
  0
LINE
  8
0
 10
299.259
 20
243.542
 11
299.257
 21
243.515
  0
LINE
  8
0
 10
299.257
 20
243.515
 11
299.255
 21
243.483
  0
LINE
  8
0
 10
299.255
 20
243.483
 11
299.252
 21
243.446
  0
LINE
  8
0
 10
299.252
 20
243.446
 11
299.25
 21
243.404
  0
LINE
  8
0
 10
299.25
 20
243.404
 11
299.247
 21
243.358
  0
LINE
  8
0
 10
299.247
 20
243.358
 11
299.244
 21
243.307
  0
LINE
  8
0
 10
299.244
 20
243.307
 11
299.241
 21
243.254
  0
LINE
  8
0
 10
299.241
 20
243.254
 11
299.239
 21
243.202
  0
LINE
  8
0
 10
299.239
 20
243.202
 11
299.237
 21
243.151
  0
LINE
  8
0
 10
299.237
 20
243.151
 11
299.235
 21
243.101
  0
LINE
  8
0
 10
299.235
 20
243.101
 11
299.234
 21
243.052
  0
LINE
  8
0
 10
299.234
 20
243.052
 11
299.233
 21
243.004
  0
LINE
  8
0
 10
299.233
 20
243.004
 11
299.232
 21
242.957
  0
LINE
  8
0
 10
299.232
 20
242.957
 11
299.232
 21
242.91
  0
LINE
  8
0
 10
299.232
 20
242.91
 11
299.232
 21
241.347
  0
LINE
  8
0
 10
299.232
 20
241.347
 11
297.835
 21
241.347
  0
LINE
  8
0
 10
131.637
 20
241.714
 11
133.719
 21
241.714
  0
LINE
  8
0
 10
133.719
 20
241.714
 11
133.719
 21
239.666
  0
LINE
  8
0
 10
133.719
 20
239.666
 11
134.719
 21
239.666
  0
LINE
  8
0
 10
134.719
 20
239.666
 11
134.719
 21
244.443
  0
LINE
  8
0
 10
134.719
 20
244.443
 11
133.719
 21
244.443
  0
LINE
  8
0
 10
133.719
 20
244.443
 11
133.719
 21
242.541
  0
LINE
  8
0
 10
133.719
 20
242.541
 11
131.637
 21
242.541
  0
LINE
  8
0
 10
131.637
 20
242.541
 11
131.637
 21
244.443
  0
LINE
  8
0
 10
131.637
 20
244.443
 11
130.637
 21
244.443
  0
LINE
  8
0
 10
130.637
 20
244.443
 11
130.637
 21
239.666
  0
LINE
  8
0
 10
130.637
 20
239.666
 11
131.637
 21
239.666
  0
LINE
  8
0
 10
131.637
 20
239.666
 11
131.637
 21
241.714
  0
LINE
  8
0
 10
171.35
 20
125.15
 11
174.65
 21
125.15
  0
LINE
  8
0
 10
174.65
 20
125.15
 11
174.65
 21
85
  0
LINE
  8
0
 10
174.65
 20
85
 11
333
 21
85
  0
LINE
  8
0
 10
333
 20
85
 11
333
 21
97.5
  0
LINE
  8
0
 10
333
 20
97.5
 11
336
 21
97.5
  0
LINE
  8
0
 10
336
 20
97.5
 11
336
 21
112.5
  0
LINE
  8
0
 10
336
 20
112.5
 11
333
 21
112.5
  0
LINE
  8
0
 10
333
 20
112.5
 11
333
 21
137.5
  0
LINE
  8
0
 10
333
 20
137.5
 11
336
 21
137.5
  0
LINE
  8
0
 10
336
 20
137.5
 11
336
 21
152.5
  0
LINE
  8
0
 10
336
 20
152.5
 11
333
 21
152.5
  0
LINE
  8
0
 10
333
 20
152.5
 11
333
 21
165
  0
LINE
  8
0
 10
333
 20
165
 11
13
 21
165
  0
LINE
  8
0
 10
13
 20
165
 11
13
 21
152.5
  0
LINE
  8
0
 10
13
 20
152.5
 11
10
 21
152.5
  0
LINE
  8
0
 10
10
 20
152.5
 11
10
 21
137.5
  0
LINE
  8
0
 10
10
 20
137.5
 11
13
 21
137.5
  0
LINE
  8
0
 10
13
 20
137.5
 11
13
 21
112.5
  0
LINE
  8
0
 10
13
 20
112.5
 11
10
 21
112.5
  0
LINE
  8
0
 10
10
 20
112.5
 11
10
 21
97.5
  0
LINE
  8
0
 10
10
 20
97.5
 11
13
 21
97.5
  0
LINE
  8
0
 10
13
 20
97.5
 11
13
 21
85
  0
LINE
  8
0
 10
13
 20
85
 11
171.35
 21
85
  0
LINE
  8
0
 10
171.35
 20
85
 11
171.35
 21
125.15
  0
LINE
  8
0
 10
336
 20
32.35
 11
332.85
 21
32.35
  0
LINE
  8
0
 10
332.85
 20
32.35
 11
332.85
 21
47.65
  0
LINE
  8
0
 10
332.85
 20
47.65
 11
336
 21
47.65
  0
LINE
  8
0
 10
336
 20
47.65
 11
336
 21
80
  0
LINE
  8
0
 10
336
 20
80
 11
260.5
 21
80
  0
LINE
  8
0
 10
260.5
 20
80
 11
260.5
 21
83
  0
LINE
  8
0
 10
260.5
 20
83
 11
245.5
 21
83
  0
LINE
  8
0
 10
245.5
 20
83
 11
245.5
 21
80
  0
LINE
  8
0
 10
245.5
 20
80
 11
100.5
 21
80
  0
LINE
  8
0
 10
100.5
 20
80
 11
100.5
 21
83
  0
LINE
  8
0
 10
100.5
 20
83
 11
85.5
 21
83
  0
LINE
  8
0
 10
85.5
 20
83
 11
85.5
 21
80
  0
LINE
  8
0
 10
85.5
 20
80
 11
10
 21
80
  0
LINE
  8
0
 10
10
 20
80
 11
10
 21
47.65
  0
LINE
  8
0
 10
10
 20
47.65
 11
13.15
 21
47.65
  0
LINE
  8
0
 10
13.15
 20
47.65
 11
13.15
 21
32.35
  0
LINE
  8
0
 10
13.15
 20
32.35
 11
10
 21
32.35
  0
LINE
  8
0
 10
10
 20
32.35
 11
10
 21
10
  0
LINE
  8
0
 10
10
 20
10
 11
336
 21
10
  0
LINE
  8
0
 10
336
 20
10
 11
336
 21
32.35
  0
LINE
  8
0
 10
312.765
 20
45.7623
 11
312.532
 21
45.7992
  0
LINE
  8
0
 10
312.532
 20
45.7992
 11
312.305
 21
45.8601
  0
LINE
  8
0
 10
312.305
 20
45.8601
 11
312.085
 21
45.9445
  0
LINE
  8
0
 10
312.085
 20
45.9445
 11
311.875
 21
46.0514
  0
LINE
  8
0
 10
311.875
 20
46.0514
 11
311.677
 21
46.1797
  0
LINE
  8
0
 10
311.677
 20
46.1797
 11
311.494
 21
46.3279
  0
LINE
  8
0
 10
311.494
 20
46.3279
 11
311.328
 21
46.4944
  0
LINE
  8
0
 10
311.328
 20
46.4944
 11
311.18
 21
46.6775
  0
LINE
  8
0
 10
311.18
 20
46.6775
 11
311.051
 21
46.875
  0
LINE
  8
0
 10
311.051
 20
46.875
 11
310.945
 21
47.0848
  0
LINE
  8
0
 10
310.945
 20
47.0848
 11
310.86
 21
47.3047
  0
LINE
  8
0
 10
310.86
 20
47.3047
 11
309.196
 21
52.7639
  0
LINE
  8
0
 10
309.196
 20
52.7639
 11
309.087
 21
53.1684
  0
LINE
  8
0
 10
309.087
 20
53.1684
 11
309.022
 21
53.5819
  0
LINE
  8
0
 10
309.022
 20
53.5819
 11
309
 21
54
  0
LINE
  8
0
 10
309
 20
54
 11
309.022
 21
54.4181
  0
LINE
  8
0
 10
309.022
 20
54.4181
 11
309.087
 21
54.8316
  0
LINE
  8
0
 10
309.087
 20
54.8316
 11
309.196
 21
55.2361
  0
LINE
  8
0
 10
309.196
 20
55.2361
 11
309.346
 21
55.6269
  0
LINE
  8
0
 10
309.346
 20
55.6269
 11
309.536
 21
56
  0
LINE
  8
0
 10
309.536
 20
56
 11
309.764
 21
56.3511
  0
LINE
  8
0
 10
309.764
 20
56.3511
 11
310.027
 21
56.6765
  0
LINE
  8
0
 10
310.027
 20
56.6765
 11
310.323
 21
56.9726
  0
LINE
  8
0
 10
310.323
 20
56.9726
 11
310.649
 21
57.2361
  0
LINE
  8
0
 10
310.649
 20
57.2361
 11
311
 21
57.4641
  0
LINE
  8
0
 10
311
 20
57.4641
 11
311.373
 21
57.6542
  0
LINE
  8
0
 10
311.373
 20
57.6542
 11
311.764
 21
57.8042
  0
LINE
  8
0
 10
311.764
 20
57.8042
 11
312.168
 21
57.9126
  0
LINE
  8
0
 10
312.168
 20
57.9126
 11
312.582
 21
57.9781
  0
LINE
  8
0
 10
312.582
 20
57.9781
 11
313
 21
58
  0
LINE
  8
0
 10
313
 20
58
 11
313.418
 21
57.9781
  0
LINE
  8
0
 10
313.418
 20
57.9781
 11
313.832
 21
57.9126
  0
LINE
  8
0
 10
313.832
 20
57.9126
 11
314.236
 21
57.8042
  0
LINE
  8
0
 10
314.236
 20
57.8042
 11
314.627
 21
57.6542
  0
LINE
  8
0
 10
314.627
 20
57.6542
 11
315
 21
57.4641
  0
LINE
  8
0
 10
315
 20
57.4641
 11
315.351
 21
57.2361
  0
LINE
  8
0
 10
315.351
 20
57.2361
 11
315.677
 21
56.9726
  0
LINE
  8
0
 10
315.677
 20
56.9726
 11
315.973
 21
56.6765
  0
LINE
  8
0
 10
315.973
 20
56.6765
 11
316.236
 21
56.3511
  0
LINE
  8
0
 10
316.236
 20
56.3511
 11
316.464
 21
56
  0
LINE
  8
0
 10
316.464
 20
56
 11
316.654
 21
55.6269
  0
LINE
  8
0
 10
316.654
 20
55.6269
 11
316.804
 21
55.2361
  0
LINE
  8
0
 10
316.804
 20
55.2361
 11
316.913
 21
54.8316
  0
LINE
  8
0
 10
316.913
 20
54.8316
 11
316.978
 21
54.4181
  0
LINE
  8
0
 10
316.978
 20
54.4181
 11
317
 21
54
  0
LINE
  8
0
 10
317
 20
54
 11
316.978
 21
53.5819
  0
LINE
  8
0
 10
316.978
 20
53.5819
 11
316.913
 21
53.1684
  0
LINE
  8
0
 10
316.913
 20
53.1684
 11
316.804
 21
52.7639
  0
LINE
  8
0
 10
316.804
 20
52.7639
 11
315.14
 21
47.3047
  0
LINE
  8
0
 10
315.14
 20
47.3047
 11
315.055
 21
47.0848
  0
LINE
  8
0
 10
315.055
 20
47.0848
 11
314.949
 21
46.875
  0
LINE
  8
0
 10
314.949
 20
46.875
 11
314.82
 21
46.6775
  0
LINE
  8
0
 10
314.82
 20
46.6775
 11
314.672
 21
46.4944
  0
LINE
  8
0
 10
314.672
 20
46.4944
 11
314.506
 21
46.3279
  0
LINE
  8
0
 10
314.506
 20
46.3279
 11
314.323
 21
46.1797
  0
LINE
  8
0
 10
314.323
 20
46.1797
 11
314.125
 21
46.0514
  0
LINE
  8
0
 10
314.125
 20
46.0514
 11
313.915
 21
45.9445
  0
LINE
  8
0
 10
313.915
 20
45.9445
 11
313.695
 21
45.8601
  0
LINE
  8
0
 10
313.695
 20
45.8601
 11
313.468
 21
45.7992
  0
LINE
  8
0
 10
313.468
 20
45.7992
 11
313.235
 21
45.7623
  0
LINE
  8
0
 10
313.235
 20
45.7623
 11
313
 21
45.75
  0
LINE
  8
0
 10
313
 20
45.75
 11
312.765
 21
45.7623
  0
LINE
  8
0
 10
32.7648
 20
45.7623
 11
32.5322
 21
45.7992
  0
LINE
  8
0
 10
32.5322
 20
45.7992
 11
32.3047
 21
45.8601
  0
LINE
  8
0
 10
32.3047
 20
45.8601
 11
32.0849
 21
45.9445
  0
LINE
  8
0
 10
32.0849
 20
45.9445
 11
31.875
 21
46.0514
  0
LINE
  8
0
 10
31.875
 20
46.0514
 11
31.6775
 21
46.1797
  0
LINE
  8
0
 10
31.6775
 20
46.1797
 11
31.4945
 21
46.3279
  0
LINE
  8
0
 10
31.4945
 20
46.3279
 11
31.3279
 21
46.4944
  0
LINE
  8
0
 10
31.3279
 20
46.4944
 11
31.1797
 21
46.6775
  0
LINE
  8
0
 10
31.1797
 20
46.6775
 11
31.0515
 21
46.875
  0
LINE
  8
0
 10
31.0515
 20
46.875
 11
30.9445
 21
47.0848
  0
LINE
  8
0
 10
30.9445
 20
47.0848
 11
30.8601
 21
47.3047
  0
LINE
  8
0
 10
30.8601
 20
47.3047
 11
29.1958
 21
52.7639
  0
LINE
  8
0
 10
29.1958
 20
52.7639
 11
29.0874
 21
53.1684
  0
LINE
  8
0
 10
29.0874
 20
53.1684
 11
29.0219
 21
53.5819
  0
LINE
  8
0
 10
29.0219
 20
53.5819
 11
29
 21
54
  0
LINE
  8
0
 10
29
 20
54
 11
29.0219
 21
54.4181
  0
LINE
  8
0
 10
29.0219
 20
54.4181
 11
29.0874
 21
54.8316
  0
LINE
  8
0
 10
29.0874
 20
54.8316
 11
29.1958
 21
55.2361
  0
LINE
  8
0
 10
29.1958
 20
55.2361
 11
29.3458
 21
55.6269
  0
LINE
  8
0
 10
29.3458
 20
55.6269
 11
29.5359
 21
56
  0
LINE
  8
0
 10
29.5359
 20
56
 11
29.7639
 21
56.3511
  0
LINE
  8
0
 10
29.7639
 20
56.3511
 11
30.0274
 21
56.6765
  0
LINE
  8
0
 10
30.0274
 20
56.6765
 11
30.3235
 21
56.9726
  0
LINE
  8
0
 10
30.3235
 20
56.9726
 11
30.6489
 21
57.2361
  0
LINE
  8
0
 10
30.6489
 20
57.2361
 11
31
 21
57.4641
  0
LINE
  8
0
 10
31
 20
57.4641
 11
31.3731
 21
57.6542
  0
LINE
  8
0
 10
31.3731
 20
57.6542
 11
31.7639
 21
57.8042
  0
LINE
  8
0
 10
31.7639
 20
57.8042
 11
32.1684
 21
57.9126
  0
LINE
  8
0
 10
32.1684
 20
57.9126
 11
32.5819
 21
57.9781
  0
LINE
  8
0
 10
32.5819
 20
57.9781
 11
33
 21
58
  0
LINE
  8
0
 10
33
 20
58
 11
33.4181
 21
57.9781
  0
LINE
  8
0
 10
33.4181
 20
57.9781
 11
33.8316
 21
57.9126
  0
LINE
  8
0
 10
33.8316
 20
57.9126
 11
34.2361
 21
57.8042
  0
LINE
  8
0
 10
34.2361
 20
57.8042
 11
34.627
 21
57.6542
  0
LINE
  8
0
 10
34.627
 20
57.6542
 11
35
 21
57.4641
  0
LINE
  8
0
 10
35
 20
57.4641
 11
35.3512
 21
57.2361
  0
LINE
  8
0
 10
35.3512
 20
57.2361
 11
35.6765
 21
56.9726
  0
LINE
  8
0
 10
35.6765
 20
56.9726
 11
35.9726
 21
56.6765
  0
LINE
  8
0
 10
35.9726
 20
56.6765
 11
36.2361
 21
56.3511
  0
LINE
  8
0
 10
36.2361
 20
56.3511
 11
36.4641
 21
56
  0
LINE
  8
0
 10
36.4641
 20
56
 11
36.6542
 21
55.6269
  0
LINE
  8
0
 10
36.6542
 20
55.6269
 11
36.8042
 21
55.2361
  0
LINE
  8
0
 10
36.8042
 20
55.2361
 11
36.9126
 21
54.8316
  0
LINE
  8
0
 10
36.9126
 20
54.8316
 11
36.9781
 21
54.4181
  0
LINE
  8
0
 10
36.9781
 20
54.4181
 11
37
 21
54
  0
LINE
  8
0
 10
37
 20
54
 11
36.9781
 21
53.5819
  0
LINE
  8
0
 10
36.9781
 20
53.5819
 11
36.9126
 21
53.1684
  0
LINE
  8
0
 10
36.9126
 20
53.1684
 11
36.8042
 21
52.7639
  0
LINE
  8
0
 10
36.8042
 20
52.7639
 11
35.1399
 21
47.3047
  0
LINE
  8
0
 10
35.1399
 20
47.3047
 11
35.0555
 21
47.0848
  0
LINE
  8
0
 10
35.0555
 20
47.0848
 11
34.9486
 21
46.875
  0
LINE
  8
0
 10
34.9486
 20
46.875
 11
34.8203
 21
46.6775
  0
LINE
  8
0
 10
34.8203
 20
46.6775
 11
34.6721
 21
46.4944
  0
LINE
  8
0
 10
34.6721
 20
46.4944
 11
34.5056
 21
46.3279
  0
LINE
  8
0
 10
34.5056
 20
46.3279
 11
34.3225
 21
46.1797
  0
LINE
  8
0
 10
34.3225
 20
46.1797
 11
34.125
 21
46.0514
  0
LINE
  8
0
 10
34.125
 20
46.0514
 11
33.9152
 21
45.9445
  0
LINE
  8
0
 10
33.9152
 20
45.9445
 11
33.6953
 21
45.8601
  0
LINE
  8
0
 10
33.6953
 20
45.8601
 11
33.4678
 21
45.7992
  0
LINE
  8
0
 10
33.4678
 20
45.7992
 11
33.2352
 21
45.7623
  0
LINE
  8
0
 10
33.2352
 20
45.7623
 11
33
 21
45.75
  0
LINE
  8
0
 10
33
 20
45.75
 11
32.7648
 21
45.7623
  0
LINE
  8
0
 10
171.35
 20
32.35
 11
171.35
 21
47.65
  0
LINE
  8
0
 10
171.35
 20
47.65
 11
174.65
 21
47.65
  0
LINE
  8
0
 10
174.65
 20
47.65
 11
174.65
 21
32.35
  0
LINE
  8
0
 10
174.65
 20
32.35
 11
171.35
 21
32.35
  0
LINE
  8
0
 10
245.35
 20
18.35
 11
245.35
 21
21.65
  0
LINE
  8
0
 10
245.35
 20
21.65
 11
260.65
 21
21.65
  0
LINE
  8
0
 10
260.65
 20
21.65
 11
260.65
 21
18.35
  0
LINE
  8
0
 10
260.65
 20
18.35
 11
245.35
 21
18.35
  0
LINE
  8
0
 10
85.35
 20
18.35
 11
85.35
 21
21.65
  0
LINE
  8
0
 10
85.35
 20
21.65
 11
100.65
 21
21.65
  0
LINE
  8
0
 10
100.65
 20
21.65
 11
100.65
 21
18.35
  0
LINE
  8
0
 10
100.65
 20
18.35
 11
85.35
 21
18.35
  0
ENDSEC
  0
SECTION
  2
OBJECTS
  0
DICTIONARY
  0
ENDSEC
  0
EOF
