<?xml version="1.0" standalone="no"?>
<!DOCTYPE svg PUBLIC "-//W3C//DTD SVG 1.1//EN" "http://www.w3.org/Graphics/SVG/1.1/DTD/svg11.dtd">
<svg width="581mm" height="353mm" viewBox="10 -363 581 353" xmlns="http://www.w3.org/2000/svg" version="1.1">
<title>OpenSCAD Model</title>
<path d="
M 591,-28.35 L 551,-28.35 L 551,-31.65 L 591,-31.65 L 591,-298.35 L 551,-298.35
 L 551,-301.65 L 591,-301.65 L 591,-360 L 578.5,-360 L 578.5,-363 L 563.5,-363
 L 563.5,-360 L 538.5,-360 L 538.5,-363 L 523.5,-363 L 523.5,-360 L 511,-360
 L 511,-327.5 L 508,-327.5 L 508,-312.5 L 511,-312.5 L 511,-10 L 591,-10
 z
M 549.955,-320.055 L 548.921,-320.219 L 547.91,-320.489 L 546.933,-320.865 L 546,-321.34 L 545.122,-321.91
 L 544.309,-322.569 L 543.569,-323.309 L 542.91,-324.122 L 542.34,-325 L 541.865,-325.933 L 541.489,-326.91
 L 541.219,-327.921 L 541.055,-328.955 L 541,-330 L 541.055,-331.045 L 541.219,-332.079 L 541.489,-333.09
 L 541.865,-334.067 L 542.34,-335 L 542.91,-335.878 L 543.569,-336.691 L 544.309,-337.431 L 545.122,-338.09
 L 546,-338.66 L 546.933,-339.135 L 547.91,-339.511 L 548.921,-339.781 L 549.955,-339.945 L 551,-340
 L 552.045,-339.945 L 553.079,-339.781 L 554.09,-339.511 L 555.067,-339.135 L 556,-338.66 L 556.878,-338.09
 L 557.691,-337.431 L 558.431,-336.691 L 559.09,-335.878 L 559.66,-335 L 560.135,-334.067 L 560.511,-333.09
 L 560.781,-332.079 L 560.945,-331.045 L 561,-330 L 560.945,-328.955 L 560.781,-327.921 L 560.511,-326.91
 L 560.135,-325.933 L 559.66,-325 L 559.09,-324.122 L 558.431,-323.309 L 557.691,-322.569 L 556.878,-321.91
 L 556,-321.34 L 555.067,-320.865 L 554.09,-320.489 L 553.079,-320.219 L 552.045,-320.055 L 551,-320
 z
M 506,-360 L 493.5,-360 L 493.5,-363 L 478.5,-363 L 478.5,-360 L 453.5,-360
 L 453.5,-363 L 438.5,-363 L 438.5,-360 L 426,-360 L 426,-327.5 L 423,-327.5
 L 423,-312.5 L 426,-312.5 L 426,-10 L 506,-10 z
M 464.955,-320.055 L 463.921,-320.219 L 462.91,-320.489 L 461.933,-320.865 L 461,-321.34 L 460.122,-321.91
 L 459.309,-322.569 L 458.569,-323.309 L 457.91,-324.122 L 457.34,-325 L 456.865,-325.933 L 456.489,-326.91
 L 456.219,-327.921 L 456.055,-328.955 L 456,-330 L 456.055,-331.045 L 456.219,-332.079 L 456.489,-333.09
 L 456.865,-334.067 L 457.34,-335 L 457.91,-335.878 L 458.569,-336.691 L 459.309,-337.431 L 460.122,-338.09
 L 461,-338.66 L 461.933,-339.135 L 462.91,-339.511 L 463.921,-339.781 L 464.955,-339.945 L 466,-340
 L 467.045,-339.945 L 468.079,-339.781 L 469.09,-339.511 L 470.067,-339.135 L 471,-338.66 L 471.878,-338.09
 L 472.691,-337.431 L 473.431,-336.691 L 474.09,-335.878 L 474.66,-335 L 475.135,-334.067 L 475.511,-333.09
 L 475.781,-332.079 L 475.945,-331.045 L 476,-330 L 475.945,-328.955 L 475.781,-327.921 L 475.511,-326.91
 L 475.135,-325.933 L 474.66,-325 L 474.09,-324.122 L 473.431,-323.309 L 472.691,-322.569 L 471.878,-321.91
 L 471,-321.34 L 470.067,-320.865 L 469.09,-320.489 L 468.079,-320.219 L 467.045,-320.055 L 466,-320
 z
M 478.35,-298.35 L 478.35,-301.65 L 493.65,-301.65 L 493.65,-298.35 z
M 438.35,-298.35 L 438.35,-301.65 L 453.65,-301.65 L 453.65,-298.35 z
M 438.35,-28.35 L 438.35,-31.65 L 453.65,-31.65 L 453.65,-28.35 z
M 478.35,-28.35 L 478.35,-31.65 L 493.65,-31.65 L 493.65,-28.35 z
M 421,-360 L 408.5,-360 L 408.5,-363 L 393.5,-363 L 393.5,-360 L 368.5,-360
 L 368.5,-363 L 353.5,-363 L 353.5,-360 L 341,-360 L 341,-327.5 L 338,-327.5
 L 338,-312.5 L 341,-312.5 L 341,-10 L 421,-10 z
M 379.955,-320.055 L 378.921,-320.219 L 377.91,-320.489 L 376.933,-320.865 L 376,-321.34 L 375.122,-321.91
 L 374.309,-322.569 L 373.569,-323.309 L 372.91,-324.122 L 372.34,-325 L 371.865,-325.933 L 371.489,-326.91
 L 371.219,-327.921 L 371.055,-328.955 L 371,-330 L 371.055,-331.045 L 371.219,-332.079 L 371.489,-333.09
 L 371.865,-334.067 L 372.34,-335 L 372.91,-335.878 L 373.569,-336.691 L 374.309,-337.431 L 375.122,-338.09
 L 376,-338.66 L 376.933,-339.135 L 377.91,-339.511 L 378.921,-339.781 L 379.955,-339.945 L 381,-340
 L 382.045,-339.945 L 383.079,-339.781 L 384.09,-339.511 L 385.067,-339.135 L 386,-338.66 L 386.878,-338.09
 L 387.691,-337.431 L 388.431,-336.691 L 389.09,-335.878 L 389.66,-335 L 390.135,-334.067 L 390.511,-333.09
 L 390.781,-332.079 L 390.945,-331.045 L 391,-330 L 390.945,-328.955 L 390.781,-327.921 L 390.511,-326.91
 L 390.135,-325.933 L 389.66,-325 L 389.09,-324.122 L 388.431,-323.309 L 387.691,-322.569 L 386.878,-321.91
 L 386,-321.34 L 385.067,-320.865 L 384.09,-320.489 L 383.079,-320.219 L 382.045,-320.055 L 381,-320
 z
M 393.35,-298.35 L 393.35,-301.65 L 408.65,-301.65 L 408.65,-298.35 z
M 353.35,-298.35 L 353.35,-301.65 L 368.65,-301.65 L 368.65,-298.35 z
M 353.35,-28.35 L 353.35,-31.65 L 368.65,-31.65 L 368.65,-28.35 z
M 393.35,-28.35 L 393.35,-31.65 L 408.65,-31.65 L 408.65,-28.35 z
M 85.35,-258.15 L 100.65,-258.15 L 100.65,-255 L 245.35,-255 L 245.35,-258.15 L 260.65,-258.15
 L 260.65,-255 L 336,-255 L 336,-270.35 L 332.85,-270.35 L 332.85,-285.65 L 336,-285.65
 L 336,-310.35 L 332.85,-310.35 L 332.85,-325.65 L 336,-325.65 L 336,-338 L 10,-338
 L 10,-325.65 L 13.15,-325.65 L 13.15,-310.35 L 10,-310.35 L 10,-285.65 L 13.15,-285.65
 L 13.15,-270.35 L 10,-270.35 L 10,-255 L 85.35,-255 z
M 171.35,-310.35 L 171.35,-325.65 L 174.65,-325.65 L 174.65,-310.35 z
M 171.35,-270.35 L 171.35,-285.65 L 174.65,-285.65 L 174.65,-270.35 z
M 100.5,-170 L 171.35,-170 L 171.35,-210.15 L 174.65,-210.15 L 174.65,-170 L 245.5,-170
 L 245.5,-167 L 260.5,-167 L 260.5,-170 L 333,-170 L 333,-182.5 L 336,-182.5
 L 336,-197.5 L 333,-197.5 L 333,-222.5 L 336,-222.5 L 336,-237.5 L 333,-237.5
 L 333,-250 L 313,-250 L 313,-210 L 273,-210 L 273,-250 L 233,-250
 L 233,-210 L 193,-210 L 193,-250 L 153,-250 L 153,-210 L 113,-210
 L 113,-250 L 73,-250 L 73,-210 L 33,-210 L 33,-250 L 13,-250
 L 13,-237.5 L 10,-237.5 L 10,-222.5 L 13,-222.5 L 13,-197.5 L 10,-197.5
 L 10,-182.5 L 13,-182.5 L 13,-170 L 85.5,-170 L 85.5,-167 L 100.5,-167
 z
M 316.593,-208.508 L 316.438,-208.533 L 316.286,-208.573 L 316.14,-208.63 L 316,-208.701 L 315.868,-208.786
 L 315.746,-208.885 L 315.635,-208.996 L 315.536,-209.118 L 315.451,-209.25 L 315.38,-209.39 L 315.323,-209.536
 L 315.283,-209.688 L 315.258,-209.843 L 315.25,-210 L 315.258,-210.157 L 315.283,-210.312 L 315.323,-210.464
 L 315.38,-210.61 L 315.451,-210.75 L 315.536,-210.882 L 315.635,-211.004 L 315.746,-211.115 L 315.868,-211.214
 L 316,-211.299 L 316.14,-211.37 L 316.286,-211.427 L 316.438,-211.467 L 316.593,-211.492 L 316.75,-211.5
 L 316.907,-211.492 L 317.062,-211.467 L 317.214,-211.427 L 317.36,-211.37 L 317.5,-211.299 L 317.632,-211.214
 L 317.754,-211.115 L 317.865,-211.004 L 317.964,-210.882 L 318.049,-210.75 L 318.12,-210.61 L 318.177,-210.464
 L 318.217,-210.312 L 318.242,-210.157 L 318.25,-210 L 318.242,-209.843 L 318.217,-209.688 L 318.177,-209.536
 L 318.12,-209.39 L 318.049,-209.25 L 317.964,-209.118 L 317.865,-208.996 L 317.754,-208.885 L 317.632,-208.786
 L 317.5,-208.701 L 317.36,-208.63 L 317.214,-208.573 L 317.062,-208.533 L 316.907,-208.508 L 316.75,-208.5
 z
M 109.093,-208.508 L 108.938,-208.533 L 108.786,-208.573 L 108.64,-208.63 L 108.5,-208.701 L 108.368,-208.786
 L 108.246,-208.885 L 108.135,-208.996 L 108.036,-209.118 L 107.951,-209.25 L 107.88,-209.39 L 107.823,-209.536
 L 107.783,-209.688 L 107.758,-209.843 L 107.75,-210 L 107.758,-210.157 L 107.783,-210.312 L 107.823,-210.464
 L 107.88,-210.61 L 107.951,-210.75 L 108.036,-210.882 L 108.135,-211.004 L 108.246,-211.115 L 108.368,-211.214
 L 108.5,-211.299 L 108.64,-211.37 L 108.786,-211.427 L 108.938,-211.467 L 109.093,-211.492 L 109.25,-211.5
 L 109.407,-211.492 L 109.562,-211.467 L 109.714,-211.427 L 109.86,-211.37 L 110,-211.299 L 110.132,-211.214
 L 110.254,-211.115 L 110.365,-211.004 L 110.464,-210.882 L 110.549,-210.75 L 110.62,-210.61 L 110.677,-210.464
 L 110.717,-210.312 L 110.742,-210.157 L 110.75,-210 L 110.742,-209.843 L 110.717,-209.688 L 110.677,-209.536
 L 110.62,-209.39 L 110.549,-209.25 L 110.464,-209.118 L 110.365,-208.996 L 110.254,-208.885 L 110.132,-208.786
 L 110,-208.701 L 109.86,-208.63 L 109.714,-208.573 L 109.562,-208.533 L 109.407,-208.508 L 109.25,-208.5
 z
M 156.593,-208.508 L 156.438,-208.533 L 156.286,-208.573 L 156.14,-208.63 L 156,-208.701 L 155.868,-208.786
 L 155.746,-208.885 L 155.635,-208.996 L 155.536,-209.118 L 155.451,-209.25 L 155.38,-209.39 L 155.323,-209.536
 L 155.283,-209.688 L 155.258,-209.843 L 155.25,-210 L 155.258,-210.157 L 155.283,-210.312 L 155.323,-210.464
 L 155.38,-210.61 L 155.451,-210.75 L 155.536,-210.882 L 155.635,-211.004 L 155.746,-211.115 L 155.868,-211.214
 L 156,-211.299 L 156.14,-211.37 L 156.286,-211.427 L 156.438,-211.467 L 156.593,-211.492 L 156.75,-211.5
 L 156.907,-211.492 L 157.062,-211.467 L 157.214,-211.427 L 157.36,-211.37 L 157.5,-211.299 L 157.632,-211.214
 L 157.754,-211.115 L 157.865,-211.004 L 157.964,-210.882 L 158.049,-210.75 L 158.12,-210.61 L 158.177,-210.464
 L 158.217,-210.312 L 158.242,-210.157 L 158.25,-210 L 158.242,-209.843 L 158.217,-209.688 L 158.177,-209.536
 L 158.12,-209.39 L 158.049,-209.25 L 157.964,-209.118 L 157.865,-208.996 L 157.754,-208.885 L 157.632,-208.786
 L 157.5,-208.701 L 157.36,-208.63 L 157.214,-208.573 L 157.062,-208.533 L 156.907,-208.508 L 156.75,-208.5
 z
M 269.093,-208.508 L 268.938,-208.533 L 268.786,-208.573 L 268.64,-208.63 L 268.5,-208.701 L 268.368,-208.786
 L 268.246,-208.885 L 268.135,-208.996 L 268.036,-209.118 L 267.951,-209.25 L 267.88,-209.39 L 267.823,-209.536
 L 267.783,-209.688 L 267.758,-209.843 L 267.75,-210 L 267.758,-210.157 L 267.783,-210.312 L 267.823,-210.464
 L 267.88,-210.61 L 267.951,-210.75 L 268.036,-210.882 L 268.135,-211.004 L 268.246,-211.115 L 268.368,-211.214
 L 268.5,-211.299 L 268.64,-211.37 L 268.786,-211.427 L 268.938,-211.467 L 269.093,-211.492 L 269.25,-211.5
 L 269.407,-211.492 L 269.562,-211.467 L 269.714,-211.427 L 269.86,-211.37 L 270,-211.299 L 270.132,-211.214
 L 270.254,-211.115 L 270.365,-211.004 L 270.464,-210.882 L 270.549,-210.75 L 270.62,-210.61 L 270.677,-210.464
 L 270.717,-210.312 L 270.742,-210.157 L 270.75,-210 L 270.742,-209.843 L 270.717,-209.688 L 270.677,-209.536
 L 270.62,-209.39 L 270.549,-209.25 L 270.464,-209.118 L 270.365,-208.996 L 270.254,-208.885 L 270.132,-208.786
 L 270,-208.701 L 269.86,-208.63 L 269.714,-208.573 L 269.562,-208.533 L 269.407,-208.508 L 269.25,-208.5
 z
M 189.093,-208.508 L 188.938,-208.533 L 188.786,-208.573 L 188.64,-208.63 L 188.5,-208.701 L 188.368,-208.786
 L 188.246,-208.885 L 188.135,-208.996 L 188.036,-209.118 L 187.951,-209.25 L 187.88,-209.39 L 187.823,-209.536
 L 187.783,-209.688 L 187.758,-209.843 L 187.75,-210 L 187.758,-210.157 L 187.783,-210.312 L 187.823,-210.464
 L 187.88,-210.61 L 187.951,-210.75 L 188.036,-210.882 L 188.135,-211.004 L 188.246,-211.115 L 188.368,-211.214
 L 188.5,-211.299 L 188.64,-211.37 L 188.786,-211.427 L 188.938,-211.467 L 189.093,-211.492 L 189.25,-211.5
 L 189.407,-211.492 L 189.562,-211.467 L 189.714,-211.427 L 189.86,-211.37 L 190,-211.299 L 190.132,-211.214
 L 190.254,-211.115 L 190.365,-211.004 L 190.464,-210.882 L 190.549,-210.75 L 190.62,-210.61 L 190.677,-210.464
 L 190.717,-210.312 L 190.742,-210.157 L 190.75,-210 L 190.742,-209.843 L 190.717,-209.688 L 190.677,-209.536
 L 190.62,-209.39 L 190.549,-209.25 L 190.464,-209.118 L 190.365,-208.996 L 190.254,-208.885 L 190.132,-208.786
 L 190,-208.701 L 189.86,-208.63 L 189.714,-208.573 L 189.562,-208.533 L 189.407,-208.508 L 189.25,-208.5
 z
M 236.593,-208.508 L 236.438,-208.533 L 236.286,-208.573 L 236.14,-208.63 L 236,-208.701 L 235.868,-208.786
 L 235.746,-208.885 L 235.635,-208.996 L 235.536,-209.118 L 235.451,-209.25 L 235.38,-209.39 L 235.323,-209.536
 L 235.283,-209.688 L 235.258,-209.843 L 235.25,-210 L 235.258,-210.157 L 235.283,-210.312 L 235.323,-210.464
 L 235.38,-210.61 L 235.451,-210.75 L 235.536,-210.882 L 235.635,-211.004 L 235.746,-211.115 L 235.868,-211.214
 L 236,-211.299 L 236.14,-211.37 L 236.286,-211.427 L 236.438,-211.467 L 236.593,-211.492 L 236.75,-211.5
 L 236.907,-211.492 L 237.062,-211.467 L 237.214,-211.427 L 237.36,-211.37 L 237.5,-211.299 L 237.632,-211.214
 L 237.754,-211.115 L 237.865,-211.004 L 237.964,-210.882 L 238.049,-210.75 L 238.12,-210.61 L 238.177,-210.464
 L 238.217,-210.312 L 238.242,-210.157 L 238.25,-210 L 238.242,-209.843 L 238.217,-209.688 L 238.177,-209.536
 L 238.12,-209.39 L 238.049,-209.25 L 237.964,-209.118 L 237.865,-208.996 L 237.754,-208.885 L 237.632,-208.786
 L 237.5,-208.701 L 237.36,-208.63 L 237.214,-208.573 L 237.062,-208.533 L 236.907,-208.508 L 236.75,-208.5
 z
M 29.0932,-208.508 L 28.9381,-208.533 L 28.7865,-208.573 L 28.6399,-208.63 L 28.5,-208.701 L 28.3683,-208.786
 L 28.2463,-208.885 L 28.1353,-208.996 L 28.0365,-209.118 L 27.951,-209.25 L 27.8797,-209.39 L 27.8234,-209.536
 L 27.7828,-209.688 L 27.7582,-209.843 L 27.75,-210 L 27.7582,-210.157 L 27.7828,-210.312 L 27.8234,-210.464
 L 27.8797,-210.61 L 27.951,-210.75 L 28.0365,-210.882 L 28.1353,-211.004 L 28.2463,-211.115 L 28.3683,-211.214
 L 28.5,-211.299 L 28.6399,-211.37 L 28.7865,-211.427 L 28.9381,-211.467 L 29.0932,-211.492 L 29.25,-211.5
 L 29.4068,-211.492 L 29.5619,-211.467 L 29.7135,-211.427 L 29.8601,-211.37 L 30,-211.299 L 30.1317,-211.214
 L 30.2537,-211.115 L 30.3647,-211.004 L 30.4635,-210.882 L 30.549,-210.75 L 30.6203,-210.61 L 30.6766,-210.464
 L 30.7172,-210.312 L 30.7418,-210.157 L 30.75,-210 L 30.7418,-209.843 L 30.7172,-209.688 L 30.6766,-209.536
 L 30.6203,-209.39 L 30.549,-209.25 L 30.4635,-209.118 L 30.3647,-208.996 L 30.2537,-208.885 L 30.1317,-208.786
 L 30,-208.701 L 29.8601,-208.63 L 29.7135,-208.573 L 29.5619,-208.533 L 29.4068,-208.508 L 29.25,-208.5
 z
M 76.5932,-208.508 L 76.4381,-208.533 L 76.2865,-208.573 L 76.1399,-208.63 L 76,-208.701 L 75.8683,-208.786
 L 75.7463,-208.885 L 75.6353,-208.996 L 75.5365,-209.118 L 75.451,-209.25 L 75.3797,-209.39 L 75.3234,-209.536
 L 75.2828,-209.688 L 75.2582,-209.843 L 75.25,-210 L 75.2582,-210.157 L 75.2828,-210.312 L 75.3234,-210.464
 L 75.3797,-210.61 L 75.451,-210.75 L 75.5365,-210.882 L 75.6353,-211.004 L 75.7463,-211.115 L 75.8683,-211.214
 L 76,-211.299 L 76.1399,-211.37 L 76.2865,-211.427 L 76.4381,-211.467 L 76.5932,-211.492 L 76.75,-211.5
 L 76.9068,-211.492 L 77.0619,-211.467 L 77.2135,-211.427 L 77.3601,-211.37 L 77.5,-211.299 L 77.6317,-211.214
 L 77.7537,-211.115 L 77.8647,-211.004 L 77.9635,-210.882 L 78.049,-210.75 L 78.1203,-210.61 L 78.1766,-210.464
 L 78.2172,-210.312 L 78.2418,-210.157 L 78.25,-210 L 78.2418,-209.843 L 78.2172,-209.688 L 78.1766,-209.536
 L 78.1203,-209.39 L 78.049,-209.25 L 77.9635,-209.118 L 77.8647,-208.996 L 77.7537,-208.885 L 77.6317,-208.786
 L 77.5,-208.701 L 77.3601,-208.63 L 77.2135,-208.573 L 77.0619,-208.533 L 76.9068,-208.508 L 76.75,-208.5
 z
M 219.067,-239.598 L 219.253,-239.615 L 219.427,-239.644 L 219.59,-239.684 L 219.741,-239.735 L 219.88,-239.798
 L 220.008,-239.873 L 220.124,-239.959 L 220.227,-240.055 L 220.317,-240.161 L 220.393,-240.276 L 220.455,-240.401
 L 220.503,-240.535 L 220.537,-240.679 L 220.558,-240.833 L 220.565,-240.996 L 220.56,-241.109 L 220.546,-241.216
 L 220.523,-241.319 L 220.491,-241.416 L 220.449,-241.508 L 220.398,-241.595 L 220.338,-241.677 L 220.268,-241.754
 L 220.19,-241.824 L 220.104,-241.888 L 220.01,-241.944 L 219.908,-241.992 L 219.799,-242.034 L 219.681,-242.068
 L 219.556,-242.095 L 219.422,-242.115 L 219.422,-242.129 L 219.542,-242.155 L 219.655,-242.188 L 219.761,-242.227
 L 219.859,-242.272 L 219.95,-242.323 L 220.034,-242.38 L 220.111,-242.443 L 220.18,-242.512 L 220.242,-242.586
 L 220.295,-242.666 L 220.34,-242.75 L 220.377,-242.84 L 220.406,-242.934 L 220.426,-243.034 L 220.439,-243.138
 L 220.443,-243.247 L 220.436,-243.393 L 220.416,-243.53 L 220.383,-243.658 L 220.337,-243.779 L 220.278,-243.892
 L 220.205,-243.997 L 220.12,-244.093 L 220.021,-244.182 L 219.91,-244.261 L 219.789,-244.329 L 219.658,-244.387
 L 219.517,-244.435 L 219.365,-244.471 L 219.203,-244.498 L 219.031,-244.514 L 218.849,-244.519 L 218.677,-244.513
 L 218.513,-244.497 L 218.358,-244.47 L 218.211,-244.432 L 218.072,-244.382 L 217.942,-244.322 L 217.82,-244.252
 L 217.706,-244.17 L 217.603,-244.078 L 217.51,-243.978 L 217.429,-243.87 L 217.36,-243.753 L 217.301,-243.629
 L 217.255,-243.495 L 217.219,-243.353 L 217.195,-243.203 L 218.147,-243.135 L 218.156,-243.208 L 218.17,-243.276
 L 218.189,-243.34 L 218.213,-243.4 L 218.241,-243.456 L 218.275,-243.507 L 218.313,-243.554 L 218.356,-243.597
 L 218.403,-243.635 L 218.454,-243.668 L 218.508,-243.696 L 218.566,-243.719 L 218.627,-243.737 L 218.692,-243.749
 L 218.76,-243.757 L 218.832,-243.759 L 218.909,-243.757 L 218.98,-243.749 L 219.047,-243.736 L 219.11,-243.717
 L 219.167,-243.694 L 219.22,-243.665 L 219.269,-243.631 L 219.312,-243.592 L 219.351,-243.548 L 219.384,-243.5
 L 219.412,-243.448 L 219.435,-243.392 L 219.453,-243.332 L 219.466,-243.268 L 219.474,-243.201 L 219.476,-243.129
 L 219.473,-243.053 L 219.464,-242.982 L 219.447,-242.915 L 219.425,-242.853 L 219.396,-242.795 L 219.36,-242.742
 L 219.318,-242.693 L 219.27,-242.649 L 219.215,-242.61 L 219.153,-242.576 L 219.086,-242.547 L 219.012,-242.523
 L 218.932,-242.505 L 218.845,-242.492 L 218.752,-242.484 L 218.652,-242.481 L 218.341,-242.481 L 218.341,-241.711
 L 218.673,-241.711 L 218.783,-241.709 L 218.886,-241.701 L 218.982,-241.688 L 219.071,-241.669 L 219.153,-241.645
 L 219.228,-241.616 L 219.297,-241.582 L 219.358,-241.542 L 219.412,-241.497 L 219.459,-241.448 L 219.498,-241.394
 L 219.531,-241.335 L 219.556,-241.272 L 219.574,-241.204 L 219.585,-241.131 L 219.588,-241.054 L 219.585,-240.969
 L 219.576,-240.89 L 219.562,-240.817 L 219.541,-240.749 L 219.514,-240.687 L 219.481,-240.631 L 219.443,-240.58
 L 219.398,-240.535 L 219.349,-240.495 L 219.294,-240.461 L 219.235,-240.432 L 219.17,-240.408 L 219.101,-240.389
 L 219.028,-240.376 L 218.949,-240.368 L 218.866,-240.365 L 218.703,-240.376 L 218.558,-240.408 L 218.432,-240.462
 L 218.324,-240.537 L 218.236,-240.634 L 218.166,-240.753 L 218.115,-240.892 L 218.083,-241.054 L 217.113,-240.969
 L 217.139,-240.807 L 217.176,-240.655 L 217.225,-240.512 L 217.285,-240.379 L 217.358,-240.256 L 217.442,-240.143
 L 217.538,-240.04 L 217.645,-239.947 L 217.764,-239.864 L 217.892,-239.792 L 218.031,-239.731 L 218.179,-239.681
 L 218.337,-239.642 L 218.504,-239.614 L 218.682,-239.598 L 218.869,-239.592 z
M 208.157,-239.608 L 208.336,-239.624 L 208.509,-239.65 L 208.676,-239.687 L 208.835,-239.734 L 208.988,-239.792
 L 209.134,-239.861 L 209.274,-239.94 L 209.406,-240.03 L 209.53,-240.131 L 209.645,-240.243 L 209.752,-240.366
 L 209.851,-240.5 L 209.942,-240.645 L 210.025,-240.802 L 210.099,-240.969 L 209.228,-241.298 L 209.131,-241.085
 L 209.017,-240.9 L 208.886,-240.744 L 208.737,-240.616 L 208.571,-240.517 L 208.388,-240.446 L 208.188,-240.403
 L 207.97,-240.389 L 207.805,-240.396 L 207.649,-240.416 L 207.504,-240.45 L 207.369,-240.498 L 207.243,-240.559
 L 207.128,-240.633 L 207.023,-240.721 L 206.928,-240.823 L 206.843,-240.938 L 206.77,-241.064 L 206.708,-241.203
 L 206.657,-241.355 L 206.617,-241.518 L 206.589,-241.693 L 206.572,-241.881 L 206.566,-242.081 L 206.572,-242.278
 L 206.588,-242.462 L 206.616,-242.634 L 206.654,-242.794 L 206.704,-242.942 L 206.764,-243.077 L 206.835,-243.201
 L 206.917,-243.312 L 207.01,-243.41 L 207.113,-243.496 L 207.227,-243.568 L 207.35,-243.627 L 207.484,-243.673
 L 207.628,-243.706 L 207.782,-243.726 L 207.946,-243.732 L 208.056,-243.729 L 208.161,-243.719 L 208.263,-243.702
 L 208.361,-243.679 L 208.456,-243.649 L 208.547,-243.613 L 208.634,-243.57 L 208.718,-243.52 L 208.796,-243.465
 L 208.868,-243.405 L 208.933,-243.341 L 208.991,-243.272 L 209.043,-243.198 L 209.087,-243.12 L 209.126,-243.037
 L 209.157,-242.949 L 210.038,-243.19 L 209.98,-243.348 L 209.912,-243.497 L 209.834,-243.636 L 209.746,-243.765
 L 209.648,-243.884 L 209.541,-243.993 L 209.423,-244.092 L 209.296,-244.182 L 209.159,-244.261 L 209.012,-244.329
 L 208.855,-244.387 L 208.689,-244.435 L 208.513,-244.471 L 208.327,-244.498 L 208.131,-244.514 L 207.926,-244.519
 L 207.646,-244.509 L 207.384,-244.479 L 207.138,-244.43 L 206.91,-244.361 L 206.698,-244.273 L 206.504,-244.164
 L 206.327,-244.036 L 206.166,-243.888 L 206.024,-243.722 L 205.901,-243.539 L 205.796,-243.339 L 205.711,-243.121
 L 205.645,-242.887 L 205.597,-242.635 L 205.569,-242.367 L 205.559,-242.081 L 205.569,-241.796 L 205.599,-241.527
 L 205.648,-241.274 L 205.717,-241.038 L 205.805,-240.818 L 205.913,-240.614 L 206.041,-240.427 L 206.188,-240.255
 L 206.354,-240.102 L 206.536,-239.97 L 206.734,-239.857 L 206.948,-239.766 L 207.179,-239.694 L 207.426,-239.643
 L 207.69,-239.613 L 207.97,-239.603 z
M 288.157,-239.603 L 288.336,-239.619 L 288.509,-239.645 L 288.676,-239.682 L 288.835,-239.73 L 288.988,-239.788
 L 289.134,-239.856 L 289.274,-239.935 L 289.406,-240.025 L 289.53,-240.126 L 289.645,-240.238 L 289.752,-240.361
 L 289.851,-240.495 L 289.942,-240.641 L 290.025,-240.797 L 290.099,-240.964 L 289.228,-241.293 L 289.131,-241.08
 L 289.017,-240.896 L 288.886,-240.739 L 288.737,-240.612 L 288.571,-240.512 L 288.388,-240.441 L 288.188,-240.399
 L 287.97,-240.384 L 287.805,-240.391 L 287.649,-240.412 L 287.504,-240.445 L 287.369,-240.493 L 287.243,-240.554
 L 287.128,-240.629 L 287.023,-240.717 L 286.928,-240.818 L 286.843,-240.933 L 286.77,-241.06 L 286.708,-241.199
 L 286.657,-241.35 L 286.617,-241.513 L 286.589,-241.689 L 286.572,-241.876 L 286.566,-242.076 L 286.572,-242.273
 L 286.588,-242.457 L 286.616,-242.629 L 286.654,-242.789 L 286.704,-242.937 L 286.764,-243.073 L 286.835,-243.196
 L 286.917,-243.307 L 287.01,-243.406 L 287.113,-243.491 L 287.227,-243.563 L 287.35,-243.622 L 287.484,-243.668
 L 287.628,-243.701 L 287.782,-243.721 L 287.946,-243.728 L 288.056,-243.724 L 288.161,-243.714 L 288.263,-243.698
 L 288.361,-243.675 L 288.456,-243.645 L 288.547,-243.608 L 288.634,-243.565 L 288.718,-243.516 L 288.796,-243.46
 L 288.868,-243.4 L 288.933,-243.336 L 288.991,-243.267 L 289.043,-243.193 L 289.087,-243.115 L 289.126,-243.032
 L 289.157,-242.944 L 290.038,-243.185 L 289.98,-243.344 L 289.912,-243.492 L 289.834,-243.631 L 289.746,-243.76
 L 289.648,-243.879 L 289.541,-243.988 L 289.423,-244.088 L 289.296,-244.177 L 289.159,-244.256 L 289.012,-244.324
 L 288.855,-244.382 L 288.689,-244.43 L 288.513,-244.467 L 288.327,-244.493 L 288.131,-244.509 L 287.926,-244.514
 L 287.646,-244.504 L 287.384,-244.475 L 287.138,-244.426 L 286.91,-244.357 L 286.698,-244.268 L 286.504,-244.159
 L 286.327,-244.031 L 286.166,-243.884 L 286.024,-243.717 L 285.901,-243.534 L 285.796,-243.334 L 285.711,-243.116
 L 285.645,-242.882 L 285.597,-242.631 L 285.569,-242.362 L 285.559,-242.076 L 285.569,-241.791 L 285.599,-241.522
 L 285.648,-241.27 L 285.717,-241.033 L 285.805,-240.813 L 285.913,-240.609 L 286.041,-240.422 L 286.188,-240.251
 L 286.354,-240.098 L 286.536,-239.965 L 286.734,-239.853 L 286.948,-239.761 L 287.179,-239.69 L 287.426,-239.639
 L 287.69,-239.608 L 287.97,-239.598 z
M 48.1566,-239.603 L 48.3364,-239.619 L 48.5095,-239.645 L 48.6758,-239.682 L 48.8354,-239.73 L 48.9883,-239.788
 L 49.1344,-239.856 L 49.2738,-239.935 L 49.4058,-240.025 L 49.5295,-240.126 L 49.645,-240.238 L 49.7523,-240.361
 L 49.8514,-240.495 L 49.9423,-240.641 L 50.025,-240.797 L 50.0994,-240.964 L 49.228,-241.293 L 49.1313,-241.08
 L 49.0172,-240.896 L 48.8859,-240.739 L 48.7373,-240.612 L 48.5714,-240.512 L 48.3882,-240.441 L 48.1878,-240.399
 L 47.9701,-240.384 L 47.8048,-240.391 L 47.6494,-240.412 L 47.5041,-240.445 L 47.3687,-240.493 L 47.2434,-240.554
 L 47.1281,-240.629 L 47.0228,-240.717 L 46.9275,-240.818 L 46.8429,-240.933 L 46.7696,-241.06 L 46.7075,-241.199
 L 46.6567,-241.35 L 46.6172,-241.513 L 46.589,-241.689 L 46.5721,-241.876 L 46.5664,-242.076 L 46.5719,-242.273
 L 46.5884,-242.457 L 46.6158,-242.629 L 46.6542,-242.789 L 46.7035,-242.937 L 46.7638,-243.073 L 46.8351,-243.196
 L 46.9173,-243.307 L 47.0102,-243.406 L 47.1133,-243.491 L 47.2266,-243.563 L 47.3501,-243.622 L 47.4838,-243.668
 L 47.6278,-243.701 L 47.782,-243.721 L 47.9464,-243.728 L 48.0556,-243.724 L 48.1612,-243.714 L 48.2631,-243.698
 L 48.3613,-243.675 L 48.4559,-243.645 L 48.5469,-243.608 L 48.6342,-243.565 L 48.7178,-243.516 L 48.7962,-243.46
 L 48.8679,-243.4 L 48.9329,-243.336 L 48.9911,-243.267 L 49.0427,-243.193 L 49.0875,-243.115 L 49.1255,-243.032
 L 49.1568,-242.944 L 50.0384,-243.185 L 49.9801,-243.344 L 49.9119,-243.492 L 49.8339,-243.631 L 49.746,-243.76
 L 49.6482,-243.879 L 49.5406,-243.988 L 49.4232,-244.088 L 49.2958,-244.177 L 49.1587,-244.256 L 49.0119,-244.324
 L 48.8553,-244.382 L 48.6889,-244.43 L 48.5128,-244.467 L 48.327,-244.493 L 48.1314,-244.509 L 47.926,-244.514
 L 47.6464,-244.504 L 47.3838,-244.475 L 47.1382,-244.426 L 46.9097,-244.357 L 46.6983,-244.268 L 46.5039,-244.159
 L 46.3266,-244.031 L 46.1663,-243.884 L 46.024,-243.717 L 45.9008,-243.534 L 45.7965,-243.334 L 45.7111,-243.116
 L 45.6447,-242.882 L 45.5973,-242.631 L 45.5689,-242.362 L 45.5594,-242.076 L 45.5692,-241.791 L 45.5987,-241.522
 L 45.6478,-241.27 L 45.7166,-241.033 L 45.8051,-240.813 L 45.9132,-240.609 L 46.0409,-240.422 L 46.1883,-240.251
 L 46.3538,-240.098 L 46.5356,-239.965 L 46.7337,-239.853 L 46.9483,-239.761 L 47.1792,-239.69 L 47.4265,-239.639
 L 47.6901,-239.608 L 47.9701,-239.598 z
M 140.538,-240.449 L 138.32,-240.449 L 138.345,-240.504 L 138.374,-240.557 L 138.405,-240.61 L 138.44,-240.662
 L 138.478,-240.714 L 138.519,-240.764 L 138.563,-240.814 L 138.61,-240.863 L 138.659,-240.911 L 138.71,-240.959
 L 138.762,-241.007 L 138.816,-241.055 L 138.87,-241.103 L 138.926,-241.15 L 138.984,-241.198 L 139.042,-241.246
 L 139.162,-241.341 L 139.223,-241.389 L 139.284,-241.438 L 139.345,-241.487 L 139.407,-241.536 L 139.532,-241.636
 L 139.595,-241.686 L 139.656,-241.737 L 139.715,-241.79 L 139.773,-241.843 L 139.83,-241.897 L 139.885,-241.952
 L 139.939,-242.008 L 139.992,-242.064 L 140.042,-242.122 L 140.091,-242.182 L 140.136,-242.242 L 140.18,-242.304
 L 140.221,-242.367 L 140.26,-242.432 L 140.297,-242.497 L 140.331,-242.565 L 140.362,-242.633 L 140.389,-242.704
 L 140.411,-242.777 L 140.43,-242.852 L 140.444,-242.929 L 140.455,-243.008 L 140.461,-243.089 L 140.463,-243.172
 L 140.457,-243.326 L 140.437,-243.472 L 140.405,-243.61 L 140.36,-243.738 L 140.301,-243.857 L 140.23,-243.967
 L 140.146,-244.069 L 140.049,-244.162 L 139.94,-244.244 L 139.82,-244.316 L 139.689,-244.376 L 139.546,-244.426
 L 139.392,-244.465 L 139.227,-244.492 L 139.05,-244.509 L 138.863,-244.514 L 138.689,-244.509 L 138.524,-244.492
 L 138.368,-244.465 L 138.222,-244.427 L 138.086,-244.378 L 137.958,-244.318 L 137.84,-244.247 L 137.732,-244.165
 L 137.633,-244.073 L 137.545,-243.971 L 137.467,-243.859 L 137.4,-243.737 L 137.343,-243.605 L 137.297,-243.464
 L 137.261,-243.312 L 137.235,-243.151 L 138.195,-243.097 L 138.208,-243.177 L 138.226,-243.251 L 138.246,-243.32
 L 138.271,-243.385 L 138.298,-243.444 L 138.33,-243.498 L 138.365,-243.547 L 138.403,-243.59 L 138.446,-243.629
 L 138.493,-243.662 L 138.544,-243.69 L 138.6,-243.714 L 138.661,-243.732 L 138.726,-243.744 L 138.795,-243.752
 L 138.869,-243.755 L 139.016,-243.745 L 139.144,-243.716 L 139.252,-243.667 L 139.34,-243.599 L 139.409,-243.511
 L 139.458,-243.404 L 139.487,-243.277 L 139.497,-243.131 L 139.494,-243.067 L 139.484,-243.003 L 139.468,-242.939
 L 139.446,-242.874 L 139.418,-242.809 L 139.383,-242.744 L 139.342,-242.678 L 139.295,-242.612 L 139.24,-242.544
 L 139.175,-242.471 L 139.101,-242.394 L 139.018,-242.312 L 138.926,-242.226 L 138.824,-242.135 L 138.712,-242.04
 L 138.591,-241.941 L 138.464,-241.835 L 138.341,-241.731 L 138.225,-241.628 L 138.114,-241.525 L 138.008,-241.424
 L 137.908,-241.324 L 137.814,-241.225 L 137.725,-241.127 L 137.642,-241.029 L 137.563,-240.931 L 137.489,-240.832
 L 137.42,-240.732 L 137.357,-240.632 L 137.298,-240.531 L 137.244,-240.429 L 137.195,-240.327 L 137.195,-239.666
 L 140.538,-239.666 z
M 128.157,-239.603 L 128.336,-239.619 L 128.509,-239.645 L 128.676,-239.682 L 128.835,-239.73 L 128.988,-239.788
 L 129.134,-239.856 L 129.274,-239.935 L 129.406,-240.025 L 129.53,-240.126 L 129.645,-240.238 L 129.752,-240.361
 L 129.851,-240.495 L 129.942,-240.641 L 130.025,-240.797 L 130.099,-240.964 L 129.228,-241.293 L 129.131,-241.08
 L 129.017,-240.896 L 128.886,-240.739 L 128.737,-240.612 L 128.571,-240.512 L 128.388,-240.441 L 128.188,-240.399
 L 127.97,-240.384 L 127.805,-240.391 L 127.649,-240.412 L 127.504,-240.445 L 127.369,-240.493 L 127.243,-240.554
 L 127.128,-240.629 L 127.023,-240.717 L 126.928,-240.818 L 126.843,-240.933 L 126.77,-241.06 L 126.708,-241.199
 L 126.657,-241.35 L 126.617,-241.513 L 126.589,-241.689 L 126.572,-241.876 L 126.566,-242.076 L 126.572,-242.273
 L 126.588,-242.457 L 126.616,-242.629 L 126.654,-242.789 L 126.704,-242.937 L 126.764,-243.073 L 126.835,-243.196
 L 126.917,-243.307 L 127.01,-243.406 L 127.113,-243.491 L 127.227,-243.563 L 127.35,-243.622 L 127.484,-243.668
 L 127.628,-243.701 L 127.782,-243.721 L 127.946,-243.728 L 128.056,-243.724 L 128.161,-243.714 L 128.263,-243.698
 L 128.361,-243.675 L 128.456,-243.645 L 128.547,-243.608 L 128.634,-243.565 L 128.718,-243.516 L 128.796,-243.46
 L 128.868,-243.4 L 128.933,-243.336 L 128.991,-243.267 L 129.043,-243.193 L 129.087,-243.115 L 129.126,-243.032
 L 129.157,-242.944 L 130.038,-243.185 L 129.98,-243.344 L 129.912,-243.492 L 129.834,-243.631 L 129.746,-243.76
 L 129.648,-243.879 L 129.541,-243.988 L 129.423,-244.088 L 129.296,-244.177 L 129.159,-244.256 L 129.012,-244.324
 L 128.855,-244.382 L 128.689,-244.43 L 128.513,-244.467 L 128.327,-244.493 L 128.131,-244.509 L 127.926,-244.514
 L 127.646,-244.504 L 127.384,-244.475 L 127.138,-244.426 L 126.91,-244.357 L 126.698,-244.268 L 126.504,-244.159
 L 126.327,-244.031 L 126.166,-243.884 L 126.024,-243.717 L 125.901,-243.534 L 125.796,-243.334 L 125.711,-243.116
 L 125.645,-242.882 L 125.597,-242.631 L 125.569,-242.362 L 125.559,-242.076 L 125.569,-241.791 L 125.599,-241.522
 L 125.648,-241.27 L 125.717,-241.033 L 125.805,-240.813 L 125.913,-240.609 L 126.041,-240.422 L 126.188,-240.251
 L 126.354,-240.098 L 126.536,-239.965 L 126.734,-239.853 L 126.948,-239.761 L 127.179,-239.69 L 127.426,-239.639
 L 127.69,-239.608 L 127.97,-239.598 z
M 211.637,-241.718 L 213.719,-241.718 L 213.719,-239.67 L 214.719,-239.67 L 214.719,-244.448 L 213.719,-244.448
 L 213.719,-242.546 L 211.637,-242.546 L 211.637,-244.448 L 210.637,-244.448 L 210.637,-239.67 L 211.637,-239.67
 z
M 60.6224,-240.374 L 59.5273,-240.374 L 59.5273,-244.443 L 58.6254,-244.443 L 57.4285,-243.667 L 57.4285,-242.917
 L 58.5745,-243.633 L 58.5745,-240.374 L 57.3912,-240.374 L 57.3912,-239.666 L 60.6224,-239.666 z
M 51.6369,-241.714 L 53.7187,-241.714 L 53.7187,-239.666 L 54.7189,-239.666 L 54.7189,-244.443 L 53.7187,-244.443
 L 53.7187,-242.541 L 51.6369,-242.541 L 51.6369,-244.443 L 50.6366,-244.443 L 50.6366,-239.666 L 51.6369,-239.666
 z
M 291.637,-241.714 L 293.719,-241.714 L 293.719,-239.666 L 294.719,-239.666 L 294.719,-244.443 L 293.719,-244.443
 L 293.719,-242.541 L 291.637,-242.541 L 291.637,-244.443 L 290.637,-244.443 L 290.637,-239.666 L 291.637,-239.666
 z
M 300.141,-240.639 L 300.778,-240.639 L 300.778,-241.347 L 300.141,-241.347 L 300.141,-244.443 L 299.076,-244.443
 L 297.059,-241.354 L 297.059,-240.639 L 299.232,-240.639 L 299.232,-239.666 L 300.141,-239.666 z
M 297.835,-241.347 L 298.944,-243.033 L 298.999,-243.12 L 299.05,-243.202 L 299.097,-243.278 L 299.139,-243.35
 L 299.177,-243.416 L 299.21,-243.476 L 299.239,-243.532 L 299.263,-243.582 L 299.261,-243.564 L 299.259,-243.542
 L 299.257,-243.515 L 299.255,-243.483 L 299.252,-243.446 L 299.25,-243.404 L 299.247,-243.358 L 299.244,-243.307
 L 299.241,-243.254 L 299.239,-243.202 L 299.237,-243.151 L 299.235,-243.101 L 299.234,-243.052 L 299.233,-243.004
 L 299.232,-242.957 L 299.232,-242.91 L 299.232,-241.347 z
M 131.637,-241.714 L 133.719,-241.714 L 133.719,-239.666 L 134.719,-239.666 L 134.719,-244.443 L 133.719,-244.443
 L 133.719,-242.541 L 131.637,-242.541 L 131.637,-244.443 L 130.637,-244.443 L 130.637,-239.666 L 131.637,-239.666
 z
M 171.35,-125.15 L 174.65,-125.15 L 174.65,-85 L 333,-85 L 333,-97.5 L 336,-97.5
 L 336,-112.5 L 333,-112.5 L 333,-137.5 L 336,-137.5 L 336,-152.5 L 333,-152.5
 L 333,-165 L 13,-165 L 13,-152.5 L 10,-152.5 L 10,-137.5 L 13,-137.5
 L 13,-112.5 L 10,-112.5 L 10,-97.5 L 13,-97.5 L 13,-85 L 171.35,-85
 z
M 336,-32.35 L 332.85,-32.35 L 332.85,-47.65 L 336,-47.65 L 336,-80 L 260.5,-80
 L 260.5,-83 L 245.5,-83 L 245.5,-80 L 100.5,-80 L 100.5,-83 L 85.5,-83
 L 85.5,-80 L 10,-80 L 10,-47.65 L 13.15,-47.65 L 13.15,-32.35 L 10,-32.35
 L 10,-10 L 336,-10 z
M 312.765,-45.7623 L 312.532,-45.7992 L 312.305,-45.8601 L 312.085,-45.9445 L 311.875,-46.0514 L 311.677,-46.1797
 L 311.494,-46.3279 L 311.328,-46.4944 L 311.18,-46.6775 L 311.051,-46.875 L 310.945,-47.0848 L 310.86,-47.3047
 L 309.196,-52.7639 L 309.087,-53.1684 L 309.022,-53.5819 L 309,-54 L 309.022,-54.4181 L 309.087,-54.8316
 L 309.196,-55.2361 L 309.346,-55.6269 L 309.536,-56 L 309.764,-56.3511 L 310.027,-56.6765 L 310.323,-56.9726
 L 310.649,-57.2361 L 311,-57.4641 L 311.373,-57.6542 L 311.764,-57.8042 L 312.168,-57.9126 L 312.582,-57.9781
 L 313,-58 L 313.418,-57.9781 L 313.832,-57.9126 L 314.236,-57.8042 L 314.627,-57.6542 L 315,-57.4641
 L 315.351,-57.2361 L 315.677,-56.9726 L 315.973,-56.6765 L 316.236,-56.3511 L 316.464,-56 L 316.654,-55.6269
 L 316.804,-55.2361 L 316.913,-54.8316 L 316.978,-54.4181 L 317,-54 L 316.978,-53.5819 L 316.913,-53.1684
 L 316.804,-52.7639 L 315.14,-47.3047 L 315.055,-47.0848 L 314.949,-46.875 L 314.82,-46.6775 L 314.672,-46.4944
 L 314.506,-46.3279 L 314.323,-46.1797 L 314.125,-46.0514 L 313.915,-45.9445 L 313.695,-45.8601 L 313.468,-45.7992
 L 313.235,-45.7623 L 313,-45.75 z
M 32.7648,-45.7623 L 32.5322,-45.7992 L 32.3047,-45.8601 L 32.0849,-45.9445 L 31.875,-46.0514 L 31.6775,-46.1797
 L 31.4945,-46.3279 L 31.3279,-46.4944 L 31.1797,-46.6775 L 31.0515,-46.875 L 30.9445,-47.0848 L 30.8601,-47.3047
 L 29.1958,-52.7639 L 29.0874,-53.1684 L 29.0219,-53.5819 L 29,-54 L 29.0219,-54.4181 L 29.0874,-54.8316
 L 29.1958,-55.2361 L 29.3458,-55.6269 L 29.5359,-56 L 29.7639,-56.3511 L 30.0274,-56.6765 L 30.3235,-56.9726
 L 30.6489,-57.2361 L 31,-57.4641 L 31.3731,-57.6542 L 31.7639,-57.8042 L 32.1684,-57.9126 L 32.5819,-57.9781
 L 33,-58 L 33.4181,-57.9781 L 33.8316,-57.9126 L 34.2361,-57.8042 L 34.627,-57.6542 L 35,-57.4641
 L 35.3512,-57.2361 L 35.6765,-56.9726 L 35.9726,-56.6765 L 36.2361,-56.3511 L 36.4641,-56 L 36.6542,-55.6269
 L 36.8042,-55.2361 L 36.9126,-54.8316 L 36.9781,-54.4181 L 37,-54 L 36.9781,-53.5819 L 36.9126,-53.1684
 L 36.8042,-52.7639 L 35.1399,-47.3047 L 35.0555,-47.0848 L 34.9486,-46.875 L 34.8203,-46.6775 L 34.6721,-46.4944
 L 34.5056,-46.3279 L 34.3225,-46.1797 L 34.125,-46.0514 L 33.9152,-45.9445 L 33.6953,-45.8601 L 33.4678,-45.7992
 L 33.2352,-45.7623 L 33,-45.75 z
M 171.35,-32.35 L 171.35,-47.65 L 174.65,-47.65 L 174.65,-32.35 z
M 245.35,-18.35 L 245.35,-21.65 L 260.65,-21.65 L 260.65,-18.35 z
M 85.35,-18.35 L 85.35,-21.65 L 100.65,-21.65 L 100.65,-18.35 z
" stroke="black" fill="lightgray" stroke-width="0.5"/>
</svg>
