  0
SECTION
  2
BLOCKS
  0
ENDSEC
  0
SECTION
  2
ENTITIES
  0
LINE
  8
0
 10
40
 20
50
 11
20
 21
50
  0
LINE
  8
0
 10
20
 20
50
 11
20
 21
-23
  0
LINE
  8
0
 10
20
 20
-23
 11
-20
 21
-23
  0
LINE
  8
0
 10
-20
 20
-23
 11
-20
 21
50
  0
LINE
  8
0
 10
-20
 20
50
 11
-40
 21
50
  0
LINE
  8
0
 10
-40
 20
50
 11
-40
 21
-50
  0
LINE
  8
0
 10
-40
 20
-50
 11
40
 21
-50
  0
LINE
  8
0
 10
40
 20
-50
 11
40
 21
50
  0
LINE
  8
0
 10
-23.9068
 20
-1.49178
 11
-24.0619
 21
-1.46721
  0
LINE
  8
0
 10
-24.0619
 20
-1.46721
 11
-24.2135
 21
-1.42657
  0
LINE
  8
0
 10
-24.2135
 20
-1.42657
 11
-24.3601
 21
-1.37032
  0
LINE
  8
0
 10
-24.3601
 20
-1.37032
 11
-24.5
 21
-1.29903
  0
LINE
  8
0
 10
-24.5
 20
-1.29903
 11
-24.6317
 21
-1.21352
  0
LINE
  8
0
 10
-24.6317
 20
-1.21352
 11
-24.7537
 21
-1.11472
  0
LINE
  8
0
 10
-24.7537
 20
-1.11472
 11
-24.8647
 21
-1.00369
  0
LINE
  8
0
 10
-24.8647
 20
-1.00369
 11
-24.9635
 21
-0.881668
  0
LINE
  8
0
 10
-24.9635
 20
-0.881668
 11
-25.049
 21
-0.75
  0
LINE
  8
0
 10
-25.049
 20
-0.75
 11
-25.1203
 21
-0.610092
  0
LINE
  8
0
 10
-25.1203
 20
-0.610092
 11
-25.1766
 21
-0.463516
  0
LINE
  8
0
 10
-25.1766
 20
-0.463516
 11
-25.2172
 21
-0.311859
  0
LINE
  8
0
 10
-25.2172
 20
-0.311859
 11
-25.2418
 21
-0.156784
  0
LINE
  8
0
 10
-25.2418
 20
-0.156784
 11
-25.25
 21
0
  0
LINE
  8
0
 10
-25.25
 20
0
 11
-25.2418
 21
0.156784
  0
LINE
  8
0
 10
-25.2418
 20
0.156784
 11
-25.2172
 21
0.311859
  0
LINE
  8
0
 10
-25.2172
 20
0.311859
 11
-25.1766
 21
0.463516
  0
LINE
  8
0
 10
-25.1766
 20
0.463516
 11
-25.1203
 21
0.610092
  0
LINE
  8
0
 10
-25.1203
 20
0.610092
 11
-25.049
 21
0.75
  0
LINE
  8
0
 10
-25.049
 20
0.75
 11
-24.9635
 21
0.881668
  0
LINE
  8
0
 10
-24.9635
 20
0.881668
 11
-24.8647
 21
1.00369
  0
LINE
  8
0
 10
-24.8647
 20
1.00369
 11
-24.7537
 21
1.11472
  0
LINE
  8
0
 10
-24.7537
 20
1.11472
 11
-24.6317
 21
1.21352
  0
LINE
  8
0
 10
-24.6317
 20
1.21352
 11
-24.5
 21
1.29903
  0
LINE
  8
0
 10
-24.5
 20
1.29903
 11
-24.3601
 21
1.37032
  0
LINE
  8
0
 10
-24.3601
 20
1.37032
 11
-24.2135
 21
1.42657
  0
LINE
  8
0
 10
-24.2135
 20
1.42657
 11
-24.0619
 21
1.46721
  0
LINE
  8
0
 10
-24.0619
 20
1.46721
 11
-23.9068
 21
1.49178
  0
LINE
  8
0
 10
-23.9068
 20
1.49178
 11
-23.75
 21
1.5
  0
LINE
  8
0
 10
-23.75
 20
1.5
 11
-23.5932
 21
1.49178
  0
LINE
  8
0
 10
-23.5932
 20
1.49178
 11
-23.4381
 21
1.46721
  0
LINE
  8
0
 10
-23.4381
 20
1.46721
 11
-23.2865
 21
1.42657
  0
LINE
  8
0
 10
-23.2865
 20
1.42657
 11
-23.1399
 21
1.37032
  0
LINE
  8
0
 10
-23.1399
 20
1.37032
 11
-23
 21
1.29903
  0
LINE
  8
0
 10
-23
 20
1.29903
 11
-22.8683
 21
1.21352
  0
LINE
  8
0
 10
-22.8683
 20
1.21352
 11
-22.7463
 21
1.11472
  0
LINE
  8
0
 10
-22.7463
 20
1.11472
 11
-22.6353
 21
1.00369
  0
LINE
  8
0
 10
-22.6353
 20
1.00369
 11
-22.5365
 21
0.881668
  0
LINE
  8
0
 10
-22.5365
 20
0.881668
 11
-22.451
 21
0.75
  0
LINE
  8
0
 10
-22.451
 20
0.75
 11
-22.3797
 21
0.610092
  0
LINE
  8
0
 10
-22.3797
 20
0.610092
 11
-22.3234
 21
0.463516
  0
LINE
  8
0
 10
-22.3234
 20
0.463516
 11
-22.2828
 21
0.311859
  0
LINE
  8
0
 10
-22.2828
 20
0.311859
 11
-22.2582
 21
0.156784
  0
LINE
  8
0
 10
-22.2582
 20
0.156784
 11
-22.25
 21
0
  0
LINE
  8
0
 10
-22.25
 20
0
 11
-22.2582
 21
-0.156784
  0
LINE
  8
0
 10
-22.2582
 20
-0.156784
 11
-22.2828
 21
-0.311859
  0
LINE
  8
0
 10
-22.2828
 20
-0.311859
 11
-22.3234
 21
-0.463516
  0
LINE
  8
0
 10
-22.3234
 20
-0.463516
 11
-22.3797
 21
-0.610092
  0
LINE
  8
0
 10
-22.3797
 20
-0.610092
 11
-22.451
 21
-0.75
  0
LINE
  8
0
 10
-22.451
 20
-0.75
 11
-22.5365
 21
-0.881668
  0
LINE
  8
0
 10
-22.5365
 20
-0.881668
 11
-22.6353
 21
-1.00369
  0
LINE
  8
0
 10
-22.6353
 20
-1.00369
 11
-22.7463
 21
-1.11472
  0
LINE
  8
0
 10
-22.7463
 20
-1.11472
 11
-22.8683
 21
-1.21352
  0
LINE
  8
0
 10
-22.8683
 20
-1.21352
 11
-23
 21
-1.29903
  0
LINE
  8
0
 10
-23
 20
-1.29903
 11
-23.1399
 21
-1.37032
  0
LINE
  8
0
 10
-23.1399
 20
-1.37032
 11
-23.2865
 21
-1.42657
  0
LINE
  8
0
 10
-23.2865
 20
-1.42657
 11
-23.4381
 21
-1.46721
  0
LINE
  8
0
 10
-23.4381
 20
-1.46721
 11
-23.5932
 21
-1.49178
  0
LINE
  8
0
 10
-23.5932
 20
-1.49178
 11
-23.75
 21
-1.5
  0
LINE
  8
0
 10
-23.75
 20
-1.5
 11
-23.9068
 21
-1.49178
  0
LINE
  8
0
 10
23.5932
 20
-1.49178
 11
23.4381
 21
-1.46721
  0
LINE
  8
0
 10
23.4381
 20
-1.46721
 11
23.2865
 21
-1.42657
  0
LINE
  8
0
 10
23.2865
 20
-1.42657
 11
23.1399
 21
-1.37032
  0
LINE
  8
0
 10
23.1399
 20
-1.37032
 11
23
 21
-1.29903
  0
LINE
  8
0
 10
23
 20
-1.29903
 11
22.8683
 21
-1.21352
  0
LINE
  8
0
 10
22.8683
 20
-1.21352
 11
22.7463
 21
-1.11472
  0
LINE
  8
0
 10
22.7463
 20
-1.11472
 11
22.6353
 21
-1.00369
  0
LINE
  8
0
 10
22.6353
 20
-1.00369
 11
22.5365
 21
-0.881668
  0
LINE
  8
0
 10
22.5365
 20
-0.881668
 11
22.451
 21
-0.75
  0
LINE
  8
0
 10
22.451
 20
-0.75
 11
22.3797
 21
-0.610092
  0
LINE
  8
0
 10
22.3797
 20
-0.610092
 11
22.3234
 21
-0.463516
  0
LINE
  8
0
 10
22.3234
 20
-0.463516
 11
22.2828
 21
-0.311859
  0
LINE
  8
0
 10
22.2828
 20
-0.311859
 11
22.2582
 21
-0.156784
  0
LINE
  8
0
 10
22.2582
 20
-0.156784
 11
22.25
 21
0
  0
LINE
  8
0
 10
22.25
 20
0
 11
22.2582
 21
0.156784
  0
LINE
  8
0
 10
22.2582
 20
0.156784
 11
22.2828
 21
0.311859
  0
LINE
  8
0
 10
22.2828
 20
0.311859
 11
22.3234
 21
0.463516
  0
LINE
  8
0
 10
22.3234
 20
0.463516
 11
22.3797
 21
0.610092
  0
LINE
  8
0
 10
22.3797
 20
0.610092
 11
22.451
 21
0.75
  0
LINE
  8
0
 10
22.451
 20
0.75
 11
22.5365
 21
0.881668
  0
LINE
  8
0
 10
22.5365
 20
0.881668
 11
22.6353
 21
1.00369
  0
LINE
  8
0
 10
22.6353
 20
1.00369
 11
22.7463
 21
1.11472
  0
LINE
  8
0
 10
22.7463
 20
1.11472
 11
22.8683
 21
1.21352
  0
LINE
  8
0
 10
22.8683
 20
1.21352
 11
23
 21
1.29903
  0
LINE
  8
0
 10
23
 20
1.29903
 11
23.1399
 21
1.37032
  0
LINE
  8
0
 10
23.1399
 20
1.37032
 11
23.2865
 21
1.42657
  0
LINE
  8
0
 10
23.2865
 20
1.42657
 11
23.4381
 21
1.46721
  0
LINE
  8
0
 10
23.4381
 20
1.46721
 11
23.5932
 21
1.49178
  0
LINE
  8
0
 10
23.5932
 20
1.49178
 11
23.75
 21
1.5
  0
LINE
  8
0
 10
23.75
 20
1.5
 11
23.9068
 21
1.49178
  0
LINE
  8
0
 10
23.9068
 20
1.49178
 11
24.0619
 21
1.46721
  0
LINE
  8
0
 10
24.0619
 20
1.46721
 11
24.2135
 21
1.42657
  0
LINE
  8
0
 10
24.2135
 20
1.42657
 11
24.3601
 21
1.37032
  0
LINE
  8
0
 10
24.3601
 20
1.37032
 11
24.5
 21
1.29903
  0
LINE
  8
0
 10
24.5
 20
1.29903
 11
24.6317
 21
1.21352
  0
LINE
  8
0
 10
24.6317
 20
1.21352
 11
24.7537
 21
1.11472
  0
LINE
  8
0
 10
24.7537
 20
1.11472
 11
24.8647
 21
1.00369
  0
LINE
  8
0
 10
24.8647
 20
1.00369
 11
24.9635
 21
0.881668
  0
LINE
  8
0
 10
24.9635
 20
0.881668
 11
25.049
 21
0.75
  0
LINE
  8
0
 10
25.049
 20
0.75
 11
25.1203
 21
0.610092
  0
LINE
  8
0
 10
25.1203
 20
0.610092
 11
25.1766
 21
0.463516
  0
LINE
  8
0
 10
25.1766
 20
0.463516
 11
25.2172
 21
0.311859
  0
LINE
  8
0
 10
25.2172
 20
0.311859
 11
25.2418
 21
0.156784
  0
LINE
  8
0
 10
25.2418
 20
0.156784
 11
25.25
 21
0
  0
LINE
  8
0
 10
25.25
 20
0
 11
25.2418
 21
-0.156784
  0
LINE
  8
0
 10
25.2418
 20
-0.156784
 11
25.2172
 21
-0.311859
  0
LINE
  8
0
 10
25.2172
 20
-0.311859
 11
25.1766
 21
-0.463516
  0
LINE
  8
0
 10
25.1766
 20
-0.463516
 11
25.1203
 21
-0.610092
  0
LINE
  8
0
 10
25.1203
 20
-0.610092
 11
25.049
 21
-0.75
  0
LINE
  8
0
 10
25.049
 20
-0.75
 11
24.9635
 21
-0.881668
  0
LINE
  8
0
 10
24.9635
 20
-0.881668
 11
24.8647
 21
-1.00369
  0
LINE
  8
0
 10
24.8647
 20
-1.00369
 11
24.7537
 21
-1.11472
  0
LINE
  8
0
 10
24.7537
 20
-1.11472
 11
24.6317
 21
-1.21352
  0
LINE
  8
0
 10
24.6317
 20
-1.21352
 11
24.5
 21
-1.29903
  0
LINE
  8
0
 10
24.5
 20
-1.29903
 11
24.3601
 21
-1.37032
  0
LINE
  8
0
 10
24.3601
 20
-1.37032
 11
24.2135
 21
-1.42657
  0
LINE
  8
0
 10
24.2135
 20
-1.42657
 11
24.0619
 21
-1.46721
  0
LINE
  8
0
 10
24.0619
 20
-1.46721
 11
23.9068
 21
-1.49178
  0
LINE
  8
0
 10
23.9068
 20
-1.49178
 11
23.75
 21
-1.5
  0
LINE
  8
0
 10
23.75
 20
-1.5
 11
23.5932
 21
-1.49178
  0
ENDSEC
  0
SECTION
  2
OBJECTS
  0
DICTIONARY
  0
ENDSEC
  0
EOF
