<?xml version="1.0" encoding="UTF-8"?>
<svg xmlns="http://www.w3.org/2000/svg" viewBox="0 0 500 500" width="500" height="500">
<g fill="black">
<rect x="249" y="106" width="2" height="2"/>
<rect x="249" y="108" width="2" height="2"/>
<rect x="248" y="110" width="4" height="2"/>
<rect x="247" y="112" width="5" height="2"/>
<rect x="247" y="114" width="6" height="2"/>
<rect x="246" y="116" width="7" height="2"/>
<rect x="245" y="118" width="9" height="2"/>
<rect x="245" y="120" width="10" height="2"/>
<rect x="244" y="122" width="12" height="2"/>
<rect x="244" y="124" width="12" height="2"/>
<rect x="243" y="126" width="14" height="2"/>
<rect x="243" y="128" width="15" height="2"/>
<rect x="242" y="130" width="17" height="2"/>
<rect x="242" y="132" width="17" height="2"/>
<rect x="241" y="134" width="19" height="2"/>
<rect x="241" y="136" width="20" height="2"/>
<rect x="241" y="138" width="21" height="2"/>
<rect x="240" y="140" width="23" height="2"/>
<rect x="240" y="142" width="24" height="2"/>
<rect x="240" y="144" width="25" height="2"/>
<rect x="240" y="146" width="11" height="2"/>
<rect x="253" y="146" width="13" height="2"/>
<rect x="239" y="148" width="12" height="2"/>
<rect x="253" y="148" width="14" height="2"/>
<rect x="239" y="150" width="12" height="2"/>
<rect x="254" y="150" width="14" height="2"/>
<rect x="239" y="152" width="12" height="2"/>
<rect x="255" y="152" width="14" height="2"/>
<rect x="229" y="154" width="1" height="2"/>
<rect x="239" y="154" width="12" height="2"/>
<rect x="256" y="154" width="14" height="2"/>
<rect x="228" y="156" width="2" height="2"/>
<rect x="239" y="156" width="13" height="2"/>
<rect x="257" y="156" width="14" height="2"/>
<rect x="227" y="158" width="3" height="2"/>
<rect x="239" y="158" width="13" height="2"/>
<rect x="258" y="158" width="15" height="2"/>
<rect x="226" y="160" width="4" height="2"/>
<rect x="239" y="160" width="13" height="2"/>
<rect x="259" y="160" width="15" height="2"/>
<rect x="225" y="162" width="4" height="2"/>
<rect x="239" y="162" width="13" height="2"/>
<rect x="260" y="162" width="15" height="2"/>
<rect x="223" y="164" width="6" height="2"/>
<rect x="239" y="164" width="14" height="2"/>
<rect x="261" y="164" width="15" height="2"/>
<rect x="222" y="166" width="6" height="2"/>
<rect x="239" y="166" width="14" height="2"/>
<rect x="262" y="166" width="16" height="2"/>
<rect x="221" y="168" width="7" height="2"/>
<rect x="240" y="168" width="13" height="2"/>
<rect x="264" y="168" width="15" height="2"/>
<rect x="220" y="170" width="8" height="2"/>
<rect x="240" y="170" width="14" height="2"/>
<rect x="265" y="170" width="15" height="2"/>
<rect x="218" y="172" width="9" height="2"/>
<rect x="240" y="172" width="14" height="2"/>
<rect x="266" y="172" width="16" height="2"/>
<rect x="217" y="174" width="9" height="2"/>
<rect x="241" y="174" width="14" height="2"/>
<rect x="267" y="174" width="16" height="2"/>
<rect x="215" y="176" width="10" height="2"/>
<rect x="241" y="176" width="14" height="2"/>
<rect x="268" y="176" width="17" height="2"/>
<rect x="214" y="178" width="11" height="2"/>
<rect x="241" y="178" width="15" height="2"/>
<rect x="270" y="178" width="16" height="2"/>
<rect x="212" y="180" width="12" height="2"/>
<rect x="242" y="180" width="15" height="2"/>
<rect x="271" y="180" width="17" height="2"/>
<rect x="211" y="182" width="12" height="2"/>
<rect x="242" y="182" width="16" height="2"/>
<rect x="272" y="182" width="18" height="2"/>
<rect x="209" y="184" width="13" height="2"/>
<rect x="243" y="184" width="15" height="2"/>
<rect x="274" y="184" width="17" height="2"/>
<rect x="208" y="186" width="13" height="2"/>
<rect x="243" y="186" width="16" height="2"/>
<rect x="275" y="186" width="18" height="2"/>
<rect x="206" y="188" width="14" height="2"/>
<rect x="244" y="188" width="16" height="2"/>
<rect x="277" y="188" width="17" height="2"/>
<rect x="204" y="190" width="15" height="2"/>
<rect x="232" y="190" width="1" height="2"/>
<rect x="245" y="190" width="16" height="2"/>
<rect x="278" y="190" width="18" height="2"/>
<rect x="203" y="192" width="15" height="2"/>
<rect x="230" y="192" width="4" height="2"/>
<rect x="246" y="192" width="16" height="2"/>
<rect x="280" y="192" width="17" height="2"/>
<rect x="201" y="194" width="15" height="2"/>
<rect x="229" y="194" width="5" height="2"/>
<rect x="246" y="194" width="17" height="2"/>
<rect x="281" y="194" width="18" height="2"/>
<rect x="200" y="196" width="15" height="2"/>
<rect x="228" y="196" width="6" height="2"/>
<rect x="247" y="196" width="17" height="2"/>
<rect x="283" y="196" width="18" height="2"/>
<rect x="198" y="198" width="16" height="2"/>
<rect x="227" y="198" width="8" height="2"/>
<rect x="248" y="198" width="17" height="2"/>
<rect x="285" y="198" width="17" height="2"/>
<rect x="196" y="200" width="17" height="2"/>
<rect x="226" y="200" width="10" height="2"/>
<rect x="249" y="200" width="17" height="2"/>
<rect x="286" y="200" width="18" height="2"/>
<rect x="195" y="202" width="16" height="2"/>
<rect x="226" y="202" width="10" height="2"/>
<rect x="250" y="202" width="17" height="2"/>
<rect x="288" y="202" width="18" height="2"/>
<rect x="193" y="204" width="17" height="2"/>
<rect x="225" y="204" width="12" height="2"/>
<rect x="251" y="204" width="18" height="2"/>
<rect x="289" y="204" width="18" height="2"/>
<rect x="192" y="206" width="16" height="2"/>
<rect x="225" y="206" width="13" height="2"/>
<rect x="252" y="206" width="18" height="2"/>
<rect x="291" y="206" width="18" height="2"/>
<rect x="190" y="208" width="17" height="2"/>
<rect x="224" y="208" width="15" height="2"/>
<rect x="253" y="208" width="19" height="2"/>
<rect x="293" y="208" width="17" height="2"/>
<rect x="188" y="210" width="17" height="2"/>
<rect x="224" y="210" width="16" height="2"/>
<rect x="255" y="210" width="18" height="2"/>
<rect x="294" y="210" width="18" height="2"/>
<rect x="186" y="212" width="18" height="2"/>
<rect x="224" y="212" width="17" height="2"/>
<rect x="256" y="212" width="18" height="2"/>
<rect x="296" y="212" width="18" height="2"/>
<rect x="185" y="214" width="17" height="2"/>
<rect x="223" y="214" width="20" height="2"/>
<rect x="257" y="214" width="19" height="2"/>
<rect x="297" y="214" width="18" height="2"/>
<rect x="183" y="216" width="17" height="2"/>
<rect x="223" y="216" width="21" height="2"/>
<rect x="259" y="216" width="18" height="2"/>
<rect x="299" y="216" width="18" height="2"/>
<rect x="182" y="218" width="17" height="2"/>
<rect x="223" y="218" width="22" height="2"/>
<rect x="260" y="218" width="19" height="2"/>
<rect x="301" y="218" width="17" height="2"/>
<rect x="180" y="220" width="18" height="2"/>
<rect x="223" y="220" width="23" height="2"/>
<rect x="261" y="220" width="19" height="2"/>
<rect x="302" y="220" width="18" height="2"/>
<rect x="179" y="222" width="17" height="2"/>
<rect x="224" y="222" width="23" height="2"/>
<rect x="263" y="222" width="19" height="2"/>
<rect x="304" y="222" width="18" height="2"/>
<rect x="177" y="224" width="18" height="2"/>
<rect x="224" y="224" width="24" height="2"/>
<rect x="264" y="224" width="20" height="2"/>
<rect x="305" y="224" width="18" height="2"/>
<rect x="176" y="226" width="17" height="2"/>
<rect x="224" y="226" width="25" height="2"/>
<rect x="266" y="226" width="19" height="2"/>
<rect x="307" y="226" width="17" height="2"/>
<rect x="175" y="228" width="17" height="2"/>
<rect x="224" y="228" width="26" height="2"/>
<rect x="267" y="228" width="20" height="2"/>
<rect x="308" y="228" width="18" height="2"/>
<rect x="173" y="230" width="17" height="2"/>
<rect x="225" y="230" width="26" height="2"/>
<rect x="269" y="230" width="20" height="2"/>
<rect x="310" y="230" width="17" height="2"/>
<rect x="172" y="232" width="16" height="2"/>
<rect x="225" y="232" width="27" height="2"/>
<rect x="271" y="232" width="19" height="2"/>
<rect x="312" y="232" width="16" height="2"/>
<rect x="171" y="234" width="16" height="2"/>
<rect x="225" y="234" width="13" height="2"/>
<rect x="239" y="234" width="14" height="2"/>
<rect x="272" y="234" width="20" height="2"/>
<rect x="313" y="234" width="16" height="2"/>
<rect x="169" y="236" width="17" height="2"/>
<rect x="225" y="236" width="13" height="2"/>
<rect x="239" y="236" width="14" height="2"/>
<rect x="274" y="236" width="19" height="2"/>
<rect x="314" y="236" width="17" height="2"/>
<rect x="168" y="238" width="17" height="2"/>
<rect x="226" y="238" width="12" height="2"/>
<rect x="240" y="238" width="14" height="2"/>
<rect x="275" y="238" width="20" height="2"/>
<rect x="315" y="238" width="17" height="2"/>
<rect x="167" y="240" width="16" height="2"/>
<rect x="226" y="240" width="12" height="2"/>
<rect x="240" y="240" width="14" height="2"/>
<rect x="277" y="240" width="20" height="2"/>
<rect x="317" y="240" width="16" height="2"/>
<rect x="166" y="242" width="16" height="2"/>
<rect x="226" y="242" width="12" height="2"/>
<rect x="240" y="242" width="15" height="2"/>
<rect x="279" y="242" width="19" height="2"/>
<rect x="318" y="242" width="16" height="2"/>
<rect x="165" y="244" width="16" height="2"/>
<rect x="226" y="244" width="12" height="2"/>
<rect x="240" y="244" width="15" height="2"/>
<rect x="280" y="244" width="20" height="2"/>
<rect x="319" y="244" width="16" height="2"/>
<rect x="164" y="246" width="16" height="2"/>
<rect x="226" y="246" width="12" height="2"/>
<rect x="241" y="246" width="14" height="2"/>
<rect x="282" y="246" width="20" height="2"/>
<rect x="320" y="246" width="16" height="2"/>
<rect x="163" y="248" width="16" height="2"/>
<rect x="189" y="248" width="2" height="2"/>
<rect x="226" y="248" width="12" height="2"/>
<rect x="241" y="248" width="14" height="2"/>
<rect x="284" y="248" width="19" height="2"/>
<rect x="321" y="248" width="16" height="2"/>
<rect x="162" y="250" width="15" height="2"/>
<rect x="190" y="250" width="4" height="2"/>
<rect x="226" y="250" width="12" height="2"/>
<rect x="241" y="250" width="14" height="2"/>
<rect x="285" y="250" width="20" height="2"/>
<rect x="322" y="250" width="16" height="2"/>
<rect x="161" y="252" width="16" height="2"/>
<rect x="190" y="252" width="5" height="2"/>
<rect x="226" y="252" width="12" height="2"/>
<rect x="241" y="252" width="14" height="2"/>
<rect x="287" y="252" width="19" height="2"/>
<rect x="323" y="252" width="16" height="2"/>
<rect x="160" y="254" width="16" height="2"/>
<rect x="191" y="254" width="6" height="2"/>
<rect x="225" y="254" width="12" height="2"/>
<rect x="240" y="254" width="15" height="2"/>
<rect x="288" y="254" width="19" height="2"/>
<rect x="324" y="254" width="16" height="2"/>
<rect x="159" y="256" width="16" height="2"/>
<rect x="191" y="256" width="7" height="2"/>
<rect x="225" y="256" width="12" height="2"/>
<rect x="240" y="256" width="15" height="2"/>
<rect x="272" y="256" width="1" height="2"/>
<rect x="290" y="256" width="19" height="2"/>
<rect x="325" y="256" width="16" height="2"/>
<rect x="159" y="258" width="15" height="2"/>
<rect x="191" y="258" width="8" height="2"/>
<rect x="224" y="258" width="12" height="2"/>
<rect x="240" y="258" width="15" height="2"/>
<rect x="271" y="258" width="3" height="2"/>
<rect x="291" y="258" width="19" height="2"/>
<rect x="326" y="258" width="16" height="2"/>
<rect x="158" y="260" width="15" height="2"/>
<rect x="191" y="260" width="9" height="2"/>
<rect x="223" y="260" width="13" height="2"/>
<rect x="240" y="260" width="14" height="2"/>
<rect x="270" y="260" width="4" height="2"/>
<rect x="293" y="260" width="18" height="2"/>
<rect x="327" y="260" width="15" height="2"/>
<rect x="157" y="262" width="15" height="2"/>
<rect x="191" y="262" width="10" height="2"/>
<rect x="222" y="262" width="13" height="2"/>
<rect x="239" y="262" width="15" height="2"/>
<rect x="270" y="262" width="5" height="2"/>
<rect x="294" y="262" width="19" height="2"/>
<rect x="328" y="262" width="15" height="2"/>
<rect x="157" y="264" width="14" height="2"/>
<rect x="190" y="264" width="12" height="2"/>
<rect x="222" y="264" width="12" height="2"/>
<rect x="239" y="264" width="14" height="2"/>
<rect x="269" y="264" width="7" height="2"/>
<rect x="296" y="264" width="18" height="2"/>
<rect x="328" y="264" width="15" height="2"/>
<rect x="156" y="266" width="15" height="2"/>
<rect x="190" y="266" width="12" height="2"/>
<rect x="220" y="266" width="14" height="2"/>
<rect x="238" y="266" width="15" height="2"/>
<rect x="268" y="266" width="8" height="2"/>
<rect x="297" y="266" width="18" height="2"/>
<rect x="329" y="266" width="15" height="2"/>
<rect x="156" y="268" width="14" height="2"/>
<rect x="190" y="268" width="13" height="2"/>
<rect x="219" y="268" width="13" height="2"/>
<rect x="237" y="268" width="15" height="2"/>
<rect x="267" y="268" width="10" height="2"/>
<rect x="298" y="268" width="18" height="2"/>
<rect x="330" y="268" width="15" height="2"/>
<rect x="155" y="270" width="15" height="2"/>
<rect x="190" y="270" width="13" height="2"/>
<rect x="218" y="270" width="14" height="2"/>
<rect x="236" y="270" width="15" height="2"/>
<rect x="265" y="270" width="12" height="2"/>
<rect x="300" y="270" width="17" height="2"/>
<rect x="330" y="270" width="15" height="2"/>
<rect x="155" y="272" width="14" height="2"/>
<rect x="189" y="272" width="14" height="2"/>
<rect x="217" y="272" width="14" height="2"/>
<rect x="236" y="272" width="14" height="2"/>
<rect x="264" y="272" width="13" height="2"/>
<rect x="301" y="272" width="17" height="2"/>
<rect x="331" y="272" width="15" height="2"/>
<rect x="154" y="274" width="15" height="2"/>
<rect x="189" y="274" width="15" height="2"/>
<rect x="216" y="274" width="13" height="2"/>
<rect x="235" y="274" width="14" height="2"/>
<rect x="262" y="274" width="15" height="2"/>
<rect x="302" y="274" width="17" height="2"/>
<rect x="331" y="274" width="15" height="2"/>
<rect x="154" y="276" width="14" height="2"/>
<rect x="188" y="276" width="16" height="2"/>
<rect x="215" y="276" width="13" height="2"/>
<rect x="234" y="276" width="14" height="2"/>
<rect x="260" y="276" width="17" height="2"/>
<rect x="303" y="276" width="17" height="2"/>
<rect x="332" y="276" width="14" height="2"/>
<rect x="153" y="278" width="15" height="2"/>
<rect x="188" y="278" width="16" height="2"/>
<rect x="214" y="278" width="13" height="2"/>
<rect x="233" y="278" width="14" height="2"/>
<rect x="258" y="278" width="19" height="2"/>
<rect x="304" y="278" width="17" height="2"/>
<rect x="332" y="278" width="15" height="2"/>
<rect x="153" y="280" width="15" height="2"/>
<rect x="187" y="280" width="16" height="2"/>
<rect x="213" y="280" width="13" height="2"/>
<rect x="232" y="280" width="13" height="2"/>
<rect x="255" y="280" width="22" height="2"/>
<rect x="305" y="280" width="17" height="2"/>
<rect x="332" y="280" width="15" height="2"/>
<rect x="153" y="282" width="14" height="2"/>
<rect x="186" y="282" width="17" height="2"/>
<rect x="212" y="282" width="13" height="2"/>
<rect x="231" y="282" width="13" height="2"/>
<rect x="253" y="282" width="23" height="2"/>
<rect x="306" y="282" width="17" height="2"/>
<rect x="333" y="282" width="14" height="2"/>
<rect x="152" y="284" width="15" height="2"/>
<rect x="186" y="284" width="17" height="2"/>
<rect x="211" y="284" width="12" height="2"/>
<rect x="229" y="284" width="13" height="2"/>
<rect x="251" y="284" width="25" height="2"/>
<rect x="307" y="284" width="16" height="2"/>
<rect x="333" y="284" width="15" height="2"/>
<rect x="152" y="286" width="15" height="2"/>
<rect x="185" y="286" width="18" height="2"/>
<rect x="210" y="286" width="12" height="2"/>
<rect x="228" y="286" width="13" height="2"/>
<rect x="249" y="286" width="26" height="2"/>
<rect x="308" y="286" width="16" height="2"/>
<rect x="333" y="286" width="15" height="2"/>
<rect x="152" y="288" width="15" height="2"/>
<rect x="185" y="288" width="18" height="2"/>
<rect x="209" y="288" width="12" height="2"/>
<rect x="227" y="288" width="12" height="2"/>
<rect x="247" y="288" width="14" height="2"/>
<rect x="262" y="288" width="12" height="2"/>
<rect x="308" y="288" width="17" height="2"/>
<rect x="333" y="288" width="15" height="2"/>
<rect x="152" y="290" width="15" height="2"/>
<rect x="184" y="290" width="18" height="2"/>
<rect x="209" y="290" width="11" height="2"/>
<rect x="226" y="290" width="12" height="2"/>
<rect x="245" y="290" width="14" height="2"/>
<rect x="260" y="290" width="13" height="2"/>
<rect x="309" y="290" width="16" height="2"/>
<rect x="333" y="290" width="15" height="2"/>
<rect x="152" y="292" width="15" height="2"/>
<rect x="184" y="292" width="18" height="2"/>
<rect x="208" y="292" width="10" height="2"/>
<rect x="225" y="292" width="11" height="2"/>
<rect x="243" y="292" width="13" height="2"/>
<rect x="258" y="292" width="14" height="2"/>
<rect x="310" y="292" width="16" height="2"/>
<rect x="333" y="292" width="15" height="2"/>
<rect x="152" y="294" width="15" height="2"/>
<rect x="183" y="294" width="19" height="2"/>
<rect x="208" y="294" width="9" height="2"/>
<rect x="224" y="294" width="11" height="2"/>
<rect x="241" y="294" width="12" height="2"/>
<rect x="256" y="294" width="15" height="2"/>
<rect x="311" y="294" width="15" height="2"/>
<rect x="333" y="294" width="15" height="2"/>
<rect x="152" y="296" width="15" height="2"/>
<rect x="183" y="296" width="19" height="2"/>
<rect x="207" y="296" width="9" height="2"/>
<rect x="223" y="296" width="10" height="2"/>
<rect x="239" y="296" width="11" height="2"/>
<rect x="254" y="296" width="15" height="2"/>
<rect x="311" y="296" width="16" height="2"/>
<rect x="333" y="296" width="16" height="2"/>
<rect x="152" y="298" width="15" height="2"/>
<rect x="182" y="298" width="10" height="2"/>
<rect x="193" y="298" width="9" height="2"/>
<rect x="207" y="298" width="8" height="2"/>
<rect x="222" y="298" width="10" height="2"/>
<rect x="238" y="298" width="9" height="2"/>
<rect x="252" y="298" width="15" height="2"/>
<rect x="312" y="298" width="15" height="2"/>
<rect x="333" y="298" width="15" height="2"/>
<rect x="152" y="300" width="15" height="2"/>
<rect x="182" y="300" width="10" height="2"/>
<rect x="193" y="300" width="8" height="2"/>
<rect x="207" y="300" width="7" height="2"/>
<rect x="221" y="300" width="10" height="2"/>
<rect x="237" y="300" width="7" height="2"/>
<rect x="250" y="300" width="15" height="2"/>
<rect x="312" y="300" width="16" height="2"/>
<rect x="333" y="300" width="15" height="2"/>
<rect x="152" y="302" width="15" height="2"/>
<rect x="182" y="302" width="10" height="2"/>
<rect x="194" y="302" width="7" height="2"/>
<rect x="207" y="302" width="7" height="2"/>
<rect x="220" y="302" width="10" height="2"/>
<rect x="236" y="302" width="6" height="2"/>
<rect x="247" y="302" width="16" height="2"/>
<rect x="313" y="302" width="15" height="2"/>
<rect x="333" y="302" width="15" height="2"/>
<rect x="152" y="304" width="15" height="2"/>
<rect x="182" y="304" width="10" height="2"/>
<rect x="194" y="304" width="7" height="2"/>
<rect x="206" y="304" width="7" height="2"/>
<rect x="219" y="304" width="10" height="2"/>
<rect x="235" y="304" width="4" height="2"/>
<rect x="245" y="304" width="15" height="2"/>
<rect x="313" y="304" width="15" height="2"/>
<rect x="333" y="304" width="15" height="2"/>
<rect x="152" y="306" width="15" height="2"/>
<rect x="182" y="306" width="10" height="2"/>
<rect x="194" y="306" width="7" height="2"/>
<rect x="206" y="306" width="6" height="2"/>
<rect x="219" y="306" width="9" height="2"/>
<rect x="234" y="306" width="4" height="2"/>
<rect x="243" y="306" width="14" height="2"/>
<rect x="313" y="306" width="16" height="2"/>
<rect x="333" y="306" width="15" height="2"/>
<rect x="153" y="308" width="15" height="2"/>
<rect x="182" y="308" width="10" height="2"/>
<rect x="194" y="308" width="7" height="2"/>
<rect x="207" y="308" width="4" height="2"/>
<rect x="218" y="308" width="9" height="2"/>
<rect x="234" y="308" width="2" height="2"/>
<rect x="242" y="308" width="12" height="2"/>
<rect x="274" y="308" width="19" height="2"/>
<rect x="314" y="308" width="15" height="2"/>
<rect x="332" y="308" width="16" height="2"/>
<rect x="153" y="310" width="15" height="2"/>
<rect x="182" y="310" width="10" height="2"/>
<rect x="195" y="310" width="6" height="2"/>
<rect x="207" y="310" width="4" height="2"/>
<rect x="217" y="310" width="9" height="2"/>
<rect x="233" y="310" width="2" height="2"/>
<rect x="240" y="310" width="12" height="2"/>
<rect x="270" y="310" width="27" height="2"/>
<rect x="314" y="310" width="15" height="2"/>
<rect x="332" y="310" width="15" height="2"/>
<rect x="153" y="312" width="15" height="2"/>
<rect x="182" y="312" width="10" height="2"/>
<rect x="195" y="312" width="6" height="2"/>
<rect x="207" y="312" width="3" height="2"/>
<rect x="217" y="312" width="8" height="2"/>
<rect x="239" y="312" width="10" height="2"/>
<rect x="267" y="312" width="33" height="2"/>
<rect x="314" y="312" width="15" height="2"/>
<rect x="332" y="312" width="15" height="2"/>
<rect x="154" y="314" width="15" height="2"/>
<rect x="182" y="314" width="10" height="2"/>
<rect x="196" y="314" width="5" height="2"/>
<rect x="207" y="314" width="3" height="2"/>
<rect x="217" y="314" width="8" height="2"/>
<rect x="237" y="314" width="9" height="2"/>
<rect x="265" y="314" width="38" height="2"/>
<rect x="314" y="314" width="15" height="2"/>
<rect x="331" y="314" width="16" height="2"/>
<rect x="154" y="316" width="15" height="2"/>
<rect x="182" y="316" width="11" height="2"/>
<rect x="197" y="316" width="5" height="2"/>
<rect x="207" y="316" width="3" height="2"/>
<rect x="216" y="316" width="9" height="2"/>
<rect x="236" y="316" width="8" height="2"/>
<rect x="263" y="316" width="42" height="2"/>
<rect x="314" y="316" width="16" height="2"/>
<rect x="331" y="316" width="15" height="2"/>
<rect x="155" y="318" width="15" height="2"/>
<rect x="183" y="318" width="10" height="2"/>
<rect x="197" y="318" width="5" height="2"/>
<rect x="208" y="318" width="1" height="2"/>
<rect x="216" y="318" width="8" height="2"/>
<rect x="235" y="318" width="7" height="2"/>
<rect x="262" y="318" width="44" height="2"/>
<rect x="315" y="318" width="31" height="2"/>
<rect x="155" y="320" width="15" height="2"/>
<rect x="183" y="320" width="10" height="2"/>
<rect x="198" y="320" width="4" height="2"/>
<rect x="208" y="320" width="1" height="2"/>
<rect x="216" y="320" width="8" height="2"/>
<rect x="234" y="320" width="6" height="2"/>
<rect x="261" y="320" width="7" height="2"/>
<rect x="282" y="320" width="25" height="2"/>
<rect x="316" y="320" width="29" height="2"/>
<rect x="155" y="322" width="16" height="2"/>
<rect x="184" y="322" width="10" height="2"/>
<rect x="199" y="322" width="4" height="2"/>
<rect x="215" y="322" width="9" height="2"/>
<rect x="234" y="322" width="5" height="2"/>
<rect x="260" y="322" width="5" height="2"/>
<rect x="285" y="322" width="24" height="2"/>
<rect x="317" y="322" width="28" height="2"/>
<rect x="156" y="324" width="16" height="2"/>
<rect x="184" y="324" width="10" height="2"/>
<rect x="200" y="324" width="3" height="2"/>
<rect x="215" y="324" width="9" height="2"/>
<rect x="233" y="324" width="5" height="2"/>
<rect x="260" y="324" width="3" height="2"/>
<rect x="287" y="324" width="23" height="2"/>
<rect x="318" y="324" width="26" height="2"/>
<rect x="157" y="326" width="16" height="2"/>
<rect x="185" y="326" width="10" height="2"/>
<rect x="201" y="326" width="3" height="2"/>
<rect x="215" y="326" width="9" height="2"/>
<rect x="233" y="326" width="4" height="2"/>
<rect x="259" y="326" width="2" height="2"/>
<rect x="288" y="326" width="22" height="2"/>
<rect x="318" y="326" width="26" height="2"/>
<rect x="157" y="328" width="17" height="2"/>
<rect x="186" y="328" width="9" height="2"/>
<rect x="202" y="328" width="3" height="2"/>
<rect x="215" y="328" width="9" height="2"/>
<rect x="232" y="328" width="4" height="2"/>
<rect x="259" y="328" width="1" height="2"/>
<rect x="289" y="328" width="22" height="2"/>
<rect x="319" y="328" width="24" height="2"/>
<rect x="158" y="330" width="17" height="2"/>
<rect x="187" y="330" width="9" height="2"/>
<rect x="203" y="330" width="2" height="2"/>
<rect x="215" y="330" width="9" height="2"/>
<rect x="232" y="330" width="3" height="2"/>
<rect x="289" y="330" width="22" height="2"/>
<rect x="319" y="330" width="23" height="2"/>
<rect x="159" y="332" width="16" height="2"/>
<rect x="188" y="332" width="9" height="2"/>
<rect x="205" y="332" width="1" height="2"/>
<rect x="216" y="332" width="8" height="2"/>
<rect x="232" y="332" width="3" height="2"/>
<rect x="290" y="332" width="22" height="2"/>
<rect x="319" y="332" width="22" height="2"/>
<rect x="160" y="334" width="16" height="2"/>
<rect x="188" y="334" width="10" height="2"/>
<rect x="216" y="334" width="8" height="2"/>
<rect x="232" y="334" width="2" height="2"/>
<rect x="290" y="334" width="10" height="2"/>
<rect x="301" y="334" width="11" height="2"/>
<rect x="320" y="334" width="21" height="2"/>
<rect x="161" y="336" width="16" height="2"/>
<rect x="190" y="336" width="9" height="2"/>
<rect x="216" y="336" width="9" height="2"/>
<rect x="232" y="336" width="2" height="2"/>
<rect x="290" y="336" width="10" height="2"/>
<rect x="301" y="336" width="11" height="2"/>
<rect x="320" y="336" width="20" height="2"/>
<rect x="162" y="338" width="17" height="2"/>
<rect x="191" y="338" width="8" height="2"/>
<rect x="216" y="338" width="9" height="2"/>
<rect x="289" y="338" width="11" height="2"/>
<rect x="301" y="338" width="12" height="2"/>
<rect x="320" y="338" width="19" height="2"/>
<rect x="163" y="340" width="17" height="2"/>
<rect x="192" y="340" width="8" height="2"/>
<rect x="217" y="340" width="9" height="2"/>
<rect x="289" y="340" width="11" height="2"/>
<rect x="301" y="340" width="12" height="2"/>
<rect x="320" y="340" width="18" height="2"/>
<rect x="164" y="342" width="17" height="2"/>
<rect x="193" y="342" width="9" height="2"/>
<rect x="217" y="342" width="10" height="2"/>
<rect x="288" y="342" width="11" height="2"/>
<rect x="301" y="342" width="11" height="2"/>
<rect x="320" y="342" width="17" height="2"/>
<rect x="165" y="344" width="18" height="2"/>
<rect x="195" y="344" width="8" height="2"/>
<rect x="218" y="344" width="9" height="2"/>
<rect x="287" y="344" width="11" height="2"/>
<rect x="301" y="344" width="11" height="2"/>
<rect x="320" y="344" width="15" height="2"/>
<rect x="166" y="346" width="18" height="2"/>
<rect x="196" y="346" width="8" height="2"/>
<rect x="219" y="346" width="9" height="2"/>
<rect x="240" y="346" width="1" height="2"/>
<rect x="286" y="346" width="12" height="2"/>
<rect x="301" y="346" width="11" height="2"/>
<rect x="319" y="346" width="15" height="2"/>
<rect x="167" y="348" width="19" height="2"/>
<rect x="198" y="348" width="8" height="2"/>
<rect x="219" y="348" width="10" height="2"/>
<rect x="241" y="348" width="1" height="2"/>
<rect x="284" y="348" width="13" height="2"/>
<rect x="300" y="348" width="12" height="2"/>
<rect x="319" y="348" width="14" height="2"/>
<rect x="168" y="350" width="20" height="2"/>
<rect x="200" y="350" width="7" height="2"/>
<rect x="220" y="350" width="10" height="2"/>
<rect x="242" y="350" width="2" height="2"/>
<rect x="282" y="350" width="14" height="2"/>
<rect x="299" y="350" width="12" height="2"/>
<rect x="319" y="350" width="13" height="2"/>
<rect x="170" y="352" width="19" height="2"/>
<rect x="202" y="352" width="7" height="2"/>
<rect x="221" y="352" width="11" height="2"/>
<rect x="243" y="352" width="4" height="2"/>
<rect x="280" y="352" width="14" height="2"/>
<rect x="299" y="352" width="12" height="2"/>
<rect x="318" y="352" width="12" height="2"/>
<rect x="171" y="354" width="20" height="2"/>
<rect x="204" y="354" width="6" height="2"/>
<rect x="222" y="354" width="11" height="2"/>
<rect x="244" y="354" width="6" height="2"/>
<rect x="276" y="354" width="17" height="2"/>
<rect x="298" y="354" width="12" height="2"/>
<rect x="318" y="354" width="11" height="2"/>
<rect x="173" y="356" width="21" height="2"/>
<rect x="207" y="356" width="5" height="2"/>
<rect x="223" y="356" width="12" height="2"/>
<rect x="246" y="356" width="9" height="2"/>
<rect x="271" y="356" width="20" height="2"/>
<rect x="297" y="356" width="12" height="2"/>
<rect x="317" y="356" width="10" height="2"/>
<rect x="175" y="358" width="21" height="2"/>
<rect x="209" y="358" width="5" height="2"/>
<rect x="225" y="358" width="12" height="2"/>
<rect x="248" y="358" width="40" height="2"/>
<rect x="295" y="358" width="14" height="2"/>
<rect x="317" y="358" width="9" height="2"/>
<rect x="176" y="360" width="22" height="2"/>
<rect x="212" y="360" width="3" height="2"/>
<rect x="226" y="360" width="13" height="2"/>
<rect x="251" y="360" width="35" height="2"/>
<rect x="294" y="360" width="14" height="2"/>
<rect x="316" y="360" width="8" height="2"/>
<rect x="178" y="362" width="23" height="2"/>
<rect x="216" y="362" width="1" height="2"/>
<rect x="227" y="362" width="14" height="2"/>
<rect x="254" y="362" width="28" height="2"/>
<rect x="292" y="362" width="15" height="2"/>
<rect x="315" y="362" width="7" height="2"/>
<rect x="180" y="364" width="24" height="2"/>
<rect x="229" y="364" width="14" height="2"/>
<rect x="259" y="364" width="18" height="2"/>
<rect x="290" y="364" width="16" height="2"/>
<rect x="314" y="364" width="6" height="2"/>
<rect x="182" y="366" width="25" height="2"/>
<rect x="230" y="366" width="16" height="2"/>
<rect x="287" y="366" width="17" height="2"/>
<rect x="313" y="366" width="5" height="2"/>
<rect x="184" y="368" width="26" height="2"/>
<rect x="232" y="368" width="18" height="2"/>
<rect x="284" y="368" width="19" height="2"/>
<rect x="312" y="368" width="4" height="2"/>
<rect x="187" y="370" width="27" height="2"/>
<rect x="235" y="370" width="19" height="2"/>
<rect x="280" y="370" width="21" height="2"/>
<rect x="311" y="370" width="3" height="2"/>
<rect x="189" y="372" width="29" height="2"/>
<rect x="237" y="372" width="25" height="2"/>
<rect x="273" y="372" width="27" height="2"/>
<rect x="309" y="372" width="2" height="2"/>
<rect x="191" y="374" width="32" height="2"/>
<rect x="240" y="374" width="58" height="2"/>
<rect x="194" y="376" width="36" height="2"/>
<rect x="243" y="376" width="53" height="2"/>
<rect x="197" y="378" width="43" height="2"/>
<rect x="246" y="378" width="48" height="2"/>
<rect x="200" y="380" width="91" height="2"/>
<rect x="204" y="382" width="84" height="2"/>
<rect x="208" y="384" width="77" height="2"/>
<rect x="212" y="386" width="70" height="2"/>
<rect x="217" y="388" width="61" height="2"/>
<rect x="223" y="390" width="49" height="2"/>
<rect x="231" y="392" width="35" height="2"/>
</g>
</svg>